<svg width="158" height="755" viewBox="0 0 158 755" fill="none" xmlns="http://www.w3.org/2000/svg">
<g clip-path="url(#clip0_816_4133)">
<path fill-rule="evenodd" clip-rule="evenodd" d="M509.799 892.287C405.064 889.64 280.169 902.231 211.893 815.533C142.191 727.024 196.843 566.792 162.215 450.922C128.961 339.649 -19.2077 271.77 13.8547 152.878C51.1478 18.772 234.825 25.0809 311.724 -86.711C369.969 -171.386 312.445 -325.851 387.135 -389.779C462.489 -454.275 561.623 -341.158 648.404 -374.88C748.441 -413.752 804.782 -581.951 907.508 -591.986C1002.19 -601.236 1093.64 -518.725 1133.42 -422.261C1174.58 -322.435 1109.27 -193.436 1118.66 -79.8744C1125.3 0.474115 1157.25 69.1314 1180.2 143.411C1216.88 262.176 1308.64 360.96 1295.22 491.805C1282.26 618.26 1208.06 751.828 1111.18 816.609C1012.73 882.438 898.126 816.429 789.262 830.129C694.528 842.051 603.882 894.666 509.799 892.287Z" fill="#FBFCFD"/>
<path fill-rule="evenodd" clip-rule="evenodd" d="M301.838 805.454C236.727 774.227 156.115 745.672 129.684 678.471C102.701 609.867 167.138 537.065 167.284 463.345C167.424 392.55 87.3986 313.017 130.519 256.87C179.157 193.537 293.031 249.219 362.274 209.444C414.721 179.318 407.799 77.8131 466.636 63.798C525.997 49.6582 566.78 140.194 627.498 146.268C697.493 153.269 764.489 76.5556 830.733 100.219C891.789 122.03 933.528 193.509 940.263 257.993C947.232 324.725 882.007 377.28 866.486 442.554C855.505 488.738 862.579 535.669 862.951 583.139C863.544 659.038 902.408 739.577 869.344 807.898C837.388 873.927 765.731 926.473 692.833 934.652C618.754 942.964 559.402 874.002 488.622 850.614C427.029 830.261 360.328 833.505 301.838 805.454Z" fill="#ECF4FC"/>
</g>
<defs>
<clipPath id="clip0_816_4133">
<rect width="158" height="755" fill="white" transform="matrix(-1 0 0 1 158 0)"/>
</clipPath>
</defs>
</svg>
