<svg width="266" height="160" viewBox="0 0 266 160" fill="none" xmlns="http://www.w3.org/2000/svg">
<g clip-path="url(#clip0_659_6417)">
<path d="M163.91 103.904C160.239 99.7616 157.464 94.9049 155.762 89.6391C154.059 84.3732 153.465 78.8122 154.016 73.3056C154.567 67.799 156.252 62.466 158.965 57.6419C161.678 52.8178 165.36 48.6069 169.779 45.2742C181.001 36.7754 189.5 25.1886 194.233 11.9336C194.233 46.852 181.843 81.6457 163.91 103.904Z" fill="#FFC0E0"/>
<path d="M214.14 33.4941C212.512 27.2539 210.504 21.0183 207.398 15.3438C204.821 11.1049 201.546 7.16549 197.559 4.18741C197.287 3.9979 197.005 3.82344 196.721 3.65273C197.432 4.30014 198.087 5.00511 198.682 5.76044C202.636 10.9389 205.222 15.8979 206.741 21.9472C209.47 32.326 210.654 39.8831 210.181 50.8075C210.155 51.7602 210.117 52.7039 210.066 53.6386C196.712 56.9796 185.417 65.0898 176.422 75.3448C187.219 67.8408 198.177 60.4621 209.864 54.4011C209.916 54.3744 209.968 54.3476 210.02 54.3208C209.159 68.393 205.359 80.5894 197.863 93.1902C190.957 104.804 179.59 115.96 168.846 112.98C168.641 108.39 168.818 103.79 169.375 99.2297C170.083 91.6007 172.733 79.1213 176.644 69.8515C179.388 62.7897 181.716 58.0709 185.937 49.2576C190.07 40.5908 194.054 31.8474 198.529 23.3482C200.048 20.7755 196.728 25.4413 196.179 26.1044C189.906 34.5922 184.381 43.602 179.095 52.7282C175.96 58.0282 173.275 63.582 171.069 69.3309C169.187 67.6766 167.2 66.1451 165.121 64.746C161.045 62.3307 156.613 60.527 152.144 58.9782C151.93 58.9094 151.716 58.8425 151.502 58.775C153.683 60.3585 155.853 61.9613 158.111 63.4347C162.176 65.9937 166.295 68.4956 170.538 70.756C165.849 83.4754 163.438 96.9213 163.416 110.477C159.174 107.742 155.238 103.459 152.713 99.3254C147.744 90.5901 146.281 75.6266 148.434 65.5472C150.105 57.558 152.2 53.111 155.542 46.5235C160.987 36.083 166.252 29.3282 173.791 21.1083C178.036 16.5966 182.439 12.1966 187.282 8.32345C189.806 6.38207 194.667 3.21475 198.136 1C194.026 2.7752 189.859 4.461 185.958 6.67003C181.474 9.26389 177.357 12.4388 173.346 15.7034C164.362 23.0995 156.657 32.0803 151.411 42.5053C145.554 53.2225 141.416 65.2312 142.067 77.5821C142.729 94.2403 147.317 106.98 162.071 116.043C162.669 116.367 163.265 116.658 163.858 116.923C165.858 133.229 172.44 149.113 185.107 160C177.029 149.711 172.712 139.087 170.453 126.328C169.972 123.718 169.576 121.148 169.287 118.556C186.629 121.32 201.202 100.398 207.585 85.9324C211.342 77.6657 214.089 68.9278 215.041 59.8737C216.144 51.1177 216.123 42.1243 214.14 33.4941Z" fill="#2D2C4C"/>
<path d="M153.685 17.5917C155.649 17.5917 157.241 16.0003 157.241 14.0371C157.241 12.0739 155.649 10.4824 153.685 10.4824C151.721 10.4824 150.129 12.0739 150.129 14.0371C150.129 16.0003 151.721 17.5917 153.685 17.5917Z" fill="#2D2C4C"/>
<path d="M237.84 64.5928C239.586 64.5928 241.001 63.1782 241.001 61.4331C241.001 59.6881 239.586 58.2734 237.84 58.2734C236.095 58.2734 234.68 59.6881 234.68 61.4331C234.68 63.1782 236.095 64.5928 237.84 64.5928Z" fill="#2D2C4C"/>
<path d="M196.354 133.315C198.1 133.315 199.515 131.901 199.515 130.156C199.515 128.411 198.1 126.996 196.354 126.996C194.608 126.996 193.193 128.411 193.193 130.156C193.193 131.901 194.608 133.315 196.354 133.315Z" fill="#2D2C4C"/>
</g>
<g clip-path="url(#clip1_659_6417)">
<path d="M233.296 136.009C231.738 134.237 230.561 132.16 229.839 129.908C229.117 127.656 228.864 125.278 229.098 122.923C229.332 120.568 230.047 118.287 231.198 116.224C232.349 114.161 233.911 112.36 235.786 110.935C240.547 107.3 244.152 102.345 246.16 96.6758C246.16 111.609 240.904 126.49 233.296 136.009Z" fill="#FFC0E0"/>
<path d="M254.605 105.897C253.914 103.228 253.062 100.561 251.745 98.1345C250.651 96.3216 249.262 94.6368 247.57 93.3632C247.455 93.2821 247.335 93.2075 247.215 93.1345C247.516 93.4114 247.795 93.7129 248.047 94.0359C249.724 96.2506 250.821 98.3714 251.466 100.959C252.623 105.397 253.126 108.629 252.925 113.301C252.914 113.709 252.898 114.112 252.877 114.512C247.211 115.941 242.419 119.409 238.603 123.795C243.184 120.586 247.833 117.43 252.791 114.838C252.813 114.827 252.835 114.815 252.857 114.804C252.492 120.822 250.88 126.038 247.7 131.427C244.77 136.394 239.947 141.165 235.389 139.891C235.302 137.928 235.377 135.961 235.613 134.01C235.914 130.747 237.038 125.41 238.698 121.446C239.861 118.426 240.849 116.408 242.64 112.638C244.393 108.932 246.084 105.193 247.982 101.558C248.627 100.457 247.218 102.453 246.985 102.736C244.324 106.366 241.98 110.22 239.737 114.123C238.407 116.389 237.268 118.765 236.332 121.223C235.534 120.516 234.691 119.861 233.809 119.262C232.08 118.229 230.2 117.458 228.303 116.796C228.213 116.766 228.122 116.738 228.031 116.709C228.957 117.386 229.877 118.071 230.835 118.702C232.56 119.796 234.307 120.866 236.107 121.833C234.118 127.273 233.095 133.023 233.086 138.82C231.286 137.651 229.616 135.819 228.545 134.051C226.437 130.315 225.816 123.916 226.729 119.605C227.439 116.188 228.327 114.286 229.745 111.469C232.055 107.004 234.289 104.115 237.487 100.6C239.288 98.6703 241.156 96.7885 243.211 95.132C244.281 94.3018 246.343 92.9472 247.815 92C246.072 92.7592 244.304 93.4802 242.649 94.4249C240.747 95.5342 239 96.8921 237.298 98.2882C233.487 101.451 230.218 105.292 227.993 109.751C225.508 114.334 223.752 119.47 224.029 124.752C224.309 131.876 226.256 137.325 232.515 141.201C232.769 141.339 233.021 141.464 233.273 141.577C234.121 148.551 236.914 155.344 242.288 160C238.861 155.6 237.03 151.056 236.071 145.599C235.867 144.483 235.699 143.384 235.576 142.276C242.933 143.458 249.116 134.51 251.824 128.323C253.418 124.788 254.583 121.051 254.987 117.179C255.455 113.434 255.446 109.588 254.605 105.897Z" fill="#2D2C4C"/>
<path d="M228.958 99.0951C229.791 99.0951 230.466 98.4145 230.466 97.5749C230.466 96.7353 229.791 96.0547 228.958 96.0547C228.125 96.0547 227.449 96.7353 227.449 97.5749C227.449 98.4145 228.125 99.0951 228.958 99.0951Z" fill="#2D2C4C"/>
<path d="M264.659 119.197C265.4 119.197 266 118.592 266 117.845C266 117.099 265.4 116.494 264.659 116.494C263.919 116.494 263.318 117.099 263.318 117.845C263.318 118.592 263.919 119.197 264.659 119.197Z" fill="#2D2C4C"/>
<path d="M247.06 148.587C247.8 148.587 248.401 147.982 248.401 147.236C248.401 146.49 247.8 145.885 247.06 145.885C246.319 145.885 245.719 146.49 245.719 147.236C245.719 147.982 246.319 148.587 247.06 148.587Z" fill="#2D2C4C"/>
</g>
<g clip-path="url(#clip2_659_6417)">
<path d="M130.196 144.476C129.158 143.33 128.374 141.986 127.892 140.529C127.41 139.072 127.242 137.533 127.398 136.009C127.554 134.485 128.031 133.009 128.798 131.674C129.565 130.339 130.607 129.174 131.857 128.252C135.03 125.9 137.434 122.693 138.773 119.025C138.773 128.688 135.268 138.317 130.196 144.476Z" fill="#FFC0E0"/>
<path d="M144.403 124.992C143.943 123.265 143.375 121.54 142.496 119.969C141.768 118.796 140.841 117.706 139.714 116.882C139.637 116.83 139.557 116.781 139.477 116.734C139.678 116.913 139.863 117.108 140.031 117.317C141.15 118.75 141.881 120.123 142.311 121.797C143.082 124.669 143.417 126.76 143.283 129.783C143.276 130.047 143.265 130.308 143.251 130.567C139.474 131.491 136.279 133.736 133.735 136.573C136.789 134.497 139.888 132.455 143.194 130.778C143.209 130.77 143.223 130.763 143.238 130.755C142.994 134.65 141.92 138.025 139.8 141.512C137.846 144.726 134.632 147.813 131.593 146.988C131.535 145.718 131.585 144.445 131.742 143.183C131.943 141.072 132.692 137.618 133.798 135.053C134.574 133.099 135.233 131.793 136.427 129.354C137.596 126.956 138.722 124.536 139.988 122.184C140.418 121.472 139.479 122.764 139.323 122.947C137.549 125.296 135.986 127.789 134.492 130.315C133.605 131.781 132.845 133.318 132.222 134.909C131.689 134.451 131.127 134.028 130.539 133.64C129.386 132.972 128.133 132.473 126.869 132.044C126.809 132.025 126.748 132.007 126.687 131.988C127.304 132.426 127.918 132.87 128.557 133.278C129.706 133.986 130.871 134.678 132.071 135.304C130.745 138.823 130.063 142.544 130.057 146.296C128.857 145.539 127.744 144.354 127.03 143.21C125.625 140.792 125.211 136.651 125.82 133.862C126.292 131.651 126.885 130.421 127.83 128.598C129.37 125.709 130.859 123.839 132.991 121.565C134.192 120.316 135.437 119.098 136.807 118.027C137.521 117.489 138.896 116.613 139.877 116C138.714 116.491 137.536 116.958 136.433 117.569C135.164 118.287 134 119.165 132.866 120.069C130.325 122.116 128.145 124.601 126.662 127.486C125.005 130.452 123.835 133.775 124.019 137.193C124.206 141.802 125.504 145.328 129.677 147.836C129.846 147.926 130.014 148.006 130.182 148.079C130.748 152.592 132.609 156.987 136.192 160C133.907 157.153 132.686 154.213 132.047 150.682C131.911 149.96 131.799 149.248 131.718 148.531C136.622 149.296 140.744 143.506 142.549 139.503C143.612 137.216 144.389 134.798 144.658 132.292C144.97 129.869 144.964 127.38 144.403 124.992Z" fill="#2D2C4C"/>
<path d="M127.305 120.592C127.86 120.592 128.31 120.152 128.31 119.609C128.31 119.065 127.86 118.625 127.305 118.625C126.749 118.625 126.299 119.065 126.299 119.609C126.299 120.152 126.749 120.592 127.305 120.592Z" fill="#2D2C4C"/>
<path d="M151.105 133.598C151.599 133.598 151.999 133.207 151.999 132.724C151.999 132.241 151.599 131.85 151.105 131.85C150.611 131.85 150.211 132.241 150.211 132.724C150.211 133.207 150.611 133.598 151.105 133.598Z" fill="#2D2C4C"/>
<path d="M139.372 152.616C139.866 152.616 140.266 152.224 140.266 151.742C140.266 151.259 139.866 150.867 139.372 150.867C138.879 150.867 138.479 151.259 138.479 151.742C138.479 152.224 138.879 152.616 139.372 152.616Z" fill="#2D2C4C"/>
</g>
<path d="M141.694 14.3901C138.476 -19.9329 104.651 18.6281 88.739 13.2747C79.0054 6.78118 67.5 17.3261 57 15.5C68.5 17.5 75 9.43408 87 15.5C107 25.6099 132.5 -19 141.694 14.3901Z" fill="#2D2C4C"/>
<path d="M84.6944 38.3901C81.4761 4.06715 47.6509 42.6281 31.739 37.2747C22.0054 30.7812 10.5 41.3261 0 39.5C11.5 41.5 18 33.4341 30 39.5C50 49.6099 75.5 5 84.6944 38.3901Z" fill="#2D2C4C"/>
<path d="M119.694 55.3901C116.476 21.0671 82.6509 59.6281 66.739 54.2747C57.0054 47.7812 45.5 58.3261 35 56.5C46.5 58.5 53 50.4341 65 56.5C85 66.6099 110.5 22 119.694 55.3901Z" fill="#2D2C4C"/>
<defs>
<clipPath id="clip0_659_6417">
<rect width="99" height="159" fill="white" transform="translate(142 1)"/>
</clipPath>
<clipPath id="clip1_659_6417">
<rect width="42" height="68" fill="white" transform="translate(224 92)"/>
</clipPath>
<clipPath id="clip2_659_6417">
<rect width="28" height="44" fill="white" transform="translate(124 116)"/>
</clipPath>
</defs>
</svg>
