<svg width="93" height="92" viewBox="0 0 93 92" fill="none" xmlns="http://www.w3.org/2000/svg">
<g clip-path="url(#clip0_659_6256)">
<path d="M7.61328 61.4543C9.02108 57.2099 14.2984 54.764 18.4098 56.4505C23.2588 58.4395 28.7877 55.402 32.2678 51.4589C35.7479 47.5158 38.1192 42.6073 42.0029 39.0681C45.8867 35.5288 52.2783 33.7861 56.2401 37.2363C60.3625 40.8266 66.677 41.6015 71.5332 39.1131C76.3894 36.6248 79.491 31.0249 79.0451 25.5508C71.9344 32.7893 60.2332 34.9539 51.0372 30.732C46.631 28.7091 41.3551 31.3261 38.1949 35.0244C35.0347 38.7227 33.2106 43.3908 30.3338 47.3173C27.4571 51.2438 22.8209 54.565 18.0784 53.5834C13.3354 52.6017 8.2132 56.6461 7.61328 61.4543Z" fill="#FFEAF5"/>
<path d="M79.2607 68.4686C74.5274 68.604 69.8131 69.0545 65.0974 69.4622C59.7721 69.8475 54.4421 70.1723 49.1148 70.5293C49.9906 64.7405 49.9626 58.8757 49.7251 53.038C49.5946 50.2858 49.5385 47.5308 49.4101 44.7785C49.3511 43.1675 49.1657 41.5616 49.1702 39.9486C49.1653 39.824 49.2041 39.4441 49.1436 39.7703C48.7721 41.6546 48.6986 43.5835 48.4871 45.49C48.2121 48.2586 47.9979 51.0352 48.038 53.8198C48.0331 56.8041 48.3361 59.7754 48.5655 62.7475C48.7796 65.3394 48.8926 67.9381 49.0567 70.5332C48.3778 70.5787 47.6987 70.6228 47.0199 70.6697C42.3954 71.1603 37.784 71.835 33.1279 71.937L33.116 71.937C33.2603 69.9767 33.367 68.0092 33.2364 66.0456C33.0203 63.269 32.5845 60.9836 32.163 57.9762C32.1344 57.7402 32.1134 57.5034 32.0951 57.2666C35.5289 55.5183 37.1865 51.7442 38.9512 48.4938C40.4462 45.594 42.3145 42.7471 44.2726 41.3616C46.7316 39.6903 49.4819 38.9879 51.9027 39.8134C54.1063 40.3661 56.2096 42.691 58.652 44.183C60.1507 45.1023 61.9797 45.4681 63.7189 45.4612C65.3853 45.3621 66.8605 44.4862 68.2123 43.5664C70.1509 42.2253 71.9292 40.6626 73.5119 38.9096C74.9019 37.397 76.1063 35.7182 77.5481 34.253C78.8404 33.0217 80.4898 31.9673 82.2806 31.0468C82.2154 33.5137 82.0648 35.9782 82.076 38.4471C82.1142 42.1106 82.0514 45.7778 82.2259 49.4382C82.6397 55.5852 82.7076 61.7452 82.9353 67.8999C83.6939 62.6705 84.3548 57.4059 84.2729 52.1107C84.2123 48.7465 84.0418 45.386 83.7616 42.0292C83.3708 38.5912 83.0102 35.1499 82.655 31.7081C82.622 31.4425 82.5855 31.1773 82.5498 30.9119C82.7308 30.821 82.9113 30.7296 83.0947 30.6413C83.8785 30.284 84.815 29.9905 85.7184 29.6817C85.8691 29.6311 86.0201 29.5813 86.1713 29.5321C86.4373 29.4447 86.7037 29.3585 86.9705 29.2736C86.8783 29.2867 86.7861 29.2999 86.6938 29.3131C85.2566 29.4841 83.8379 29.7867 82.4552 30.2171C82.4099 29.8952 82.364 29.5735 82.3174 29.2519C82.3119 29.5505 82.3064 29.8493 82.3008 30.148C82.3001 30.1892 82.2987 30.2305 82.298 30.2717C81.5204 30.5264 80.7633 30.841 80.0336 31.2129C78.8482 31.7568 77.7321 32.4427 76.7096 33.256C75.1212 34.6263 73.802 36.275 72.3052 37.7413C69.674 40.32 65.7354 43.8451 63.053 43.5585C62.462 43.498 61.877 43.3875 61.3043 43.2283C60.9822 43.1376 60.6591 43.0461 60.3465 42.9258C59.5043 42.4828 58.7014 41.9678 57.9465 41.3864C56.0704 39.989 54.2546 38.351 51.8952 37.8857C50.1721 37.4329 48.3577 37.6928 46.687 38.2432C44.4503 38.9536 42.4686 40.3084 40.9864 42.1407C37.4858 46.1834 35.619 52.9447 32.1407 55.2468C28.7352 57.4588 26.3424 57.0511 22.1545 55.9418C20.0796 55.3744 17.9582 54.7799 15.7908 54.8388C13.1569 54.9792 10.6328 56.0592 8.55807 57.6764C7.33962 58.5676 6.42773 59.7902 5.59783 61.0402C4.83646 62.1609 4.07401 63.2823 3.3995 64.4591C4.80768 62.7767 6.67736 60.5467 8.08707 59.3335C10.8508 57.3105 13.5324 56.3247 16.692 56.5207C17.1548 56.5645 17.6148 56.6347 18.0697 56.7309C17.8982 57.5812 17.8891 58.4692 17.7882 59.3296C17.4834 63.4678 17.6979 67.6324 18.0462 71.7631C15.8621 71.6313 13.6809 71.4429 11.4997 71.2737C8.65738 70.9857 5.29287 70.8026 3.82537 70.1857C3.79348 70.1688 3.7657 70.1454 3.73552 70.1258C3.67094 70.0613 3.60081 69.985 3.55978 69.9414C3.53569 69.9022 3.51384 69.8616 3.49432 69.8198C3.4496 69.6571 3.4131 69.4921 3.38498 69.3256C3.2786 66.9738 3.38397 64.614 3.32826 62.2595C3.24705 58.0812 3.16634 53.9033 3.14687 49.7243C3.11869 39.1537 2.12557 28.6151 0.774476 18.1406C0.643242 23.2617 0.441872 28.3832 0.515887 33.5067C0.579965 38.9612 0.949143 44.4079 0.930671 49.8646C0.928598 53.9495 1.04364 58.0327 1.13244 62.1163C1.24206 64.6249 1.15657 67.1502 1.44229 69.6467C1.55843 70.6731 2.15555 71.6744 3.14212 72.0509C4.49214 72.584 5.96235 72.6836 7.38789 72.875C10.466 73.1988 13.5481 73.4897 16.6378 73.6765C19.9074 73.9224 23.1861 73.8643 26.4613 73.8168C29.7135 73.808 32.9654 73.7395 36.2111 73.5218C40.4001 73.3043 44.5403 72.5584 48.7242 72.2876C59.9028 71.6122 71.0968 70.9764 82.2167 69.5986C85.4575 69.163 88.4467 68.7083 91.8521 68.5155C87.6659 68.0819 83.4559 68.3365 79.2607 68.4686ZM21.0693 71.9021C20.1143 71.8753 19.1603 71.829 18.2067 71.7728C18.5828 69.5642 18.9014 67.3365 18.9436 65.0944C18.9393 62.3 18.5248 59.5142 18.1826 56.7535C20.7751 57.291 24.1861 58.5023 27.0464 58.5793C27.9165 58.6054 28.7863 58.5155 29.6331 58.3119C30.4116 58.0712 31.1662 57.758 31.8872 57.3765C31.9574 57.3432 32.0223 57.3037 32.0911 57.2688C32.0674 57.4053 32.0448 57.542 32.0254 57.6792C31.515 62.4459 32.2649 67.2231 32.9555 71.9382C28.9942 71.9896 25.0305 71.9355 21.0693 71.9021Z" fill="#2D2C4C"/>
<path d="M66.2408 46.3225C66.1867 45.6057 66.1491 46.9247 66.1138 47.1535C65.9585 49.2104 65.8903 51.2726 65.7945 53.3329C65.475 58.4498 65.6981 63.5758 65.8736 68.6936C66.7265 64.6412 67.133 60.5064 67.0858 56.3641C67.0593 52.9999 66.6587 49.6559 66.2408 46.3225Z" fill="#2D2C4C"/>
<path d="M17.0493 46.6797C15.6041 46.7158 15.6078 48.8508 17.0493 48.8908C18.4946 48.8547 18.4909 46.7198 17.0493 46.6797Z" fill="#2D2C4C"/>
<path d="M28.5981 43.5039C27.1529 43.54 27.1567 45.675 28.5982 45.715C30.0435 45.6789 30.0397 43.544 28.5981 43.5039Z" fill="#2D2C4C"/>
<path d="M48.3286 30.4902C46.8834 30.5264 46.8871 32.6613 48.3286 32.7014C49.7739 32.6653 49.7701 30.5303 48.3286 30.4902Z" fill="#2D2C4C"/>
<path d="M65.6313 33.8086C64.1861 33.8447 64.1899 35.9797 65.6314 36.0197C67.0766 35.9836 67.0729 33.8487 65.6313 33.8086Z" fill="#2D2C4C"/>
<path d="M81.3306 24.4453C79.8853 24.4814 79.8891 26.6164 81.3306 26.6565C82.7759 26.6204 82.7721 24.4854 81.3306 24.4453Z" fill="#2D2C4C"/>
</g>
<defs>
<clipPath id="clip0_659_6256">
<rect width="92" height="92" fill="white" transform="translate(0.5)"/>
</clipPath>
</defs>
</svg>
