<svg width="31" height="69" viewBox="0 0 31 69" fill="none" xmlns="http://www.w3.org/2000/svg">
<g clip-path="url(#clip0_659_7412)">
<path d="M15.7836 43.543C25.2033 30.0104 25.7494 13.8051 17.2511 -0.00112968C16.4625 14.041 15.6739 28.0832 15.7836 43.543Z" fill="#FFEAF5"/>
<path d="M0.647687 41.0491C1.71915 45.9133 3.52853 50.562 5.40313 55.1477C7.09307 59.0724 8.64861 63.1106 10.9095 66.7328C12.0113 68.5907 14.3689 69.9797 16.112 68.1209C18.0795 65.3541 19.1234 62.0045 20.6375 58.9662C23.9826 51.411 27.4496 43.9064 30.5 36.2181C25.2856 42.9787 20.1322 49.8329 15.935 57.3257C15.4899 58.1443 15.0568 58.9699 14.6356 59.8027C14.6617 59.716 14.6926 59.5879 14.7307 59.4005C17.2547 49.6747 18.5017 39.5992 18.6914 29.5406C18.6506 19.6376 17.4975 9.7727 16.0183 1.39928e-05C13.6971 15.1263 12.4368 30.4818 13.381 45.7907C13.5999 50.078 13.9676 54.3561 14.4157 58.624C14.501 58.9882 14.4814 59.9403 14.5677 59.9369C14.291 60.4857 14.0232 61.039 13.7644 61.5968C13.353 60.8679 12.9505 60.1332 12.5366 59.4067C9.63858 54.135 6.35742 49.1048 2.98271 44.1476C2.1444 42.8932 1.31682 41.6312 0.499999 40.3618C0.549651 40.5904 0.596247 40.8205 0.647687 41.0491Z" fill="#4A4A4A"/>
<path d="M0.647687 41.0491C1.71915 45.9133 3.52853 50.562 5.40313 55.1477C7.09307 59.0724 8.64861 63.1106 10.9095 66.7328C12.0113 68.5907 14.3689 69.9797 16.112 68.1209C18.0795 65.3541 19.1234 62.0045 20.6375 58.9662C23.9826 51.411 27.4496 43.9064 30.5 36.2181C25.2856 42.9787 20.1322 49.8329 15.935 57.3257C15.4899 58.1443 15.0568 58.9699 14.6356 59.8027C14.6617 59.716 14.6926 59.5879 14.7307 59.4005C17.2547 49.6747 18.5017 39.5992 18.6914 29.5406C18.6506 19.6376 17.4975 9.7727 16.0183 1.39928e-05C13.6971 15.1263 12.4368 30.4818 13.381 45.7907C13.5999 50.078 13.9676 54.3561 14.4157 58.624C14.501 58.9882 14.4814 59.9403 14.5677 59.9369C14.291 60.4857 14.0232 61.039 13.7644 61.5968C13.353 60.8679 12.9505 60.1332 12.5366 59.4067C9.63858 54.135 6.35742 49.1048 2.98271 44.1476C2.1444 42.8932 1.31682 41.6312 0.499999 40.3618C0.549651 40.5904 0.596247 40.8205 0.647687 41.0491Z" fill="#B1BDD2"/>
</g>
<defs>
<clipPath id="clip0_659_7412">
<rect width="30" height="69" fill="white" transform="translate(30.5 69) rotate(-180)"/>
</clipPath>
</defs>
</svg>
