<svg width="52" height="37" viewBox="0 0 52 37" fill="none" xmlns="http://www.w3.org/2000/svg">
<g clip-path="url(#clip0_659_6451)">
<path d="M4.70941 8.2825C4.72205 7.59588 3.62662 7.36021 3.21105 7.90317C2.79549 8.44614 3.03249 9.28716 3.53873 9.74458C4.04497 10.202 4.73616 10.3731 5.39721 10.5288C6.25411 10.7306 7.13494 9.74042 6.84671 8.89934C6.55848 8.05825 5.26092 7.83234 4.70941 8.2825Z" fill="#FFEAF5"/>
<path d="M9.13537 8.69336C8.6991 9.30093 8.4619 10.0315 8.45711 10.7825C8.45231 11.5335 8.68016 12.2671 9.10864 12.8803C9.53712 13.4936 10.1447 13.9555 10.846 14.2014C11.5474 14.4473 12.3072 14.4646 13.0188 14.2511C14.7361 13.7357 16.754 14.5748 17.6168 16.1633C19.5805 19.7786 23.6523 22.1107 27.7265 21.9536C31.8006 21.7964 35.6852 19.1574 37.3711 15.4013C35.8281 16.6142 34.2291 17.8558 32.3404 18.3623C30.4517 18.8688 28.1794 18.4536 27.0349 16.8513C24.7796 13.6937 20.5477 12.132 16.8129 13.079C13.8529 13.8295 10.4823 11.8385 9.13537 8.69336Z" fill="#FFEAF5"/>
<path d="M51.8066 13.2297C51.6894 13.0035 51.5754 12.7758 51.4597 12.5488C50.9801 11.5973 50.4439 10.677 49.9299 9.74443C48.6039 7.31386 47.2051 4.92022 46.014 2.41736C45.7761 1.92151 45.5645 1.41317 45.3802 0.894502C45.2529 0.599573 45.1606 0.256103 44.8777 0.0750113C44.7563 0.00561315 44.6141 -0.0166288 44.4778 0.0124599C44.3414 0.0415486 44.2201 0.119971 44.1368 0.233021C43.9553 0.492967 43.9258 0.830043 43.8198 1.12482C43.7209 1.44723 43.61 1.76589 43.4843 2.07862C42.6515 4.04078 41.3563 5.05307 39.4187 6.01659C37.5176 6.95171 35.7348 7.08847 33.2484 6.97492C31.2838 6.88912 29.3295 6.64815 27.3675 6.52664C26.1133 6.50625 24.863 6.67458 23.6577 7.0261C22.8413 7.26464 22.0439 7.56528 21.2723 7.92545C20.4276 8.30915 19.598 8.82012 19.1103 9.64202C18.9966 9.82091 18.8947 10.0072 18.8052 10.1996C18.4846 9.40957 18.0868 8.63969 17.4349 8.08872C16.3088 7.1823 15.0171 6.50927 13.6338 6.10809C12.7773 5.88386 11.899 5.75529 11.0148 5.72468C9.56451 5.6413 7.95379 6.09214 7.02764 7.25876C5.87659 7.25978 4.7257 7.25723 3.5754 7.20168C2.84093 7.16052 2.10467 7.16422 1.37064 7.21276C1.10924 7.2163 0.849399 7.25413 0.597614 7.32529C0.39478 7.38183 0.221723 7.51616 0.115197 7.69973C0.0086709 7.8833 -0.0229326 8.10166 0.0271027 8.30843C0.17563 8.7661 0.549461 9.08541 0.919657 9.36315C1.30715 9.66788 1.72021 9.93777 2.15413 10.1697C3.68025 10.9856 5.30056 11.6016 6.91345 12.2172C7.31655 13.0041 7.86696 13.7043 8.53409 14.2788C9.25457 14.8893 10.1021 15.3116 10.9581 15.6906C11.926 16.1223 12.9125 16.5106 13.9009 16.8914C14.3872 18.1281 14.9736 19.3571 15.9436 20.2687C16.6933 20.9244 17.5756 21.3943 18.4527 21.8496C19.7323 22.5048 21.0772 23.0204 22.4647 23.3878C22.5893 24.2045 22.6989 24.8334 22.6816 25.7644C22.6632 27.2817 22.3564 28.8632 22.5982 30.6139C22.6716 31.3261 22.8631 32.0207 23.1647 32.6685C22.877 33.1538 22.6279 33.6614 22.4197 34.1866C22.0392 35.1097 21.706 36.0522 21.3933 37.0006C22.0446 36.0553 22.6538 35.0817 23.2701 34.113C23.4166 33.8945 23.5422 33.702 23.6587 33.5295C24.5391 34.797 25.9059 35.6479 27.5989 35.6028C28.1894 35.591 28.777 35.5176 29.3526 35.3836C29.4277 35.3666 29.5026 35.3486 29.5773 35.3304C29.5294 35.329 29.4815 35.3275 29.4336 35.3259C28.4971 35.2842 27.7829 35.2225 26.8883 34.9375C25.7671 34.5433 24.9872 33.8234 24.3234 32.7071C24.4686 32.5732 24.6265 32.454 24.7947 32.3513C25.3139 32.0459 25.3163 32.0243 25.9184 31.9074C25.937 31.9052 25.9579 31.9028 25.9795 31.9004C26.6636 31.861 27.3498 31.8978 28.0259 32.0101C28.7362 32.1309 29.5079 32.2818 30.1429 32.565C30.2169 32.5974 30.2905 32.6306 30.3637 32.6646C30.1994 32.5187 30.0271 32.3822 29.8477 32.2557C29.4702 32.0034 29.0684 31.7902 28.6485 31.6197C28.0679 31.3644 27.4599 31.1788 26.8366 31.0667C26.3645 30.9705 25.8793 30.9592 25.4033 31.0333C24.9867 31.1147 24.5909 31.2813 24.2401 31.5229C24.1161 31.6086 23.9931 31.6974 23.8772 31.7943C23.7428 31.3693 23.6442 30.9335 23.5823 30.4917C23.4207 29.2502 23.5647 26.7914 23.1856 25.2338C23.0349 24.6148 22.8365 24.0087 22.5924 23.421C22.7702 23.467 22.9485 23.5115 23.1275 23.5525C24.0164 23.745 24.92 23.8622 25.822 23.9708C26.7168 24.0654 27.6225 24.1317 28.5193 24.0275C29.7073 23.8644 30.8738 23.5686 31.9974 23.1455C32.2815 24.2909 32.6128 25.4351 33.2161 26.4523C33.4649 26.8401 33.7382 27.2112 34.0342 27.5634C33.9763 27.6802 33.9246 27.8 33.8793 27.9224C33.5226 28.8475 33.658 29.8649 33.6732 30.8344C33.7388 32.2536 33.8453 33.6709 33.9753 35.0854C34.2213 33.6137 34.3913 32.1301 34.4847 30.6405C34.5688 29.6588 34.5051 29.1034 34.7524 28.3615C35.1708 28.7959 35.6107 29.2101 36.0539 29.6141C36.2118 29.7545 36.3709 29.8937 36.5309 30.0317C36.3943 29.7909 36.2528 29.553 36.1096 29.3163C35.8433 28.8624 35.5612 28.4193 35.2715 27.9811C35.3148 27.9851 35.3572 27.9895 35.3857 27.9926C35.4095 27.9964 35.4332 28.0002 35.4569 28.004C36.8734 28.262 38.2443 28.7265 39.6647 28.9694C39.7785 28.9935 39.8923 29.0177 40.0061 29.042C39.8704 28.9714 39.7344 28.9014 39.5974 28.8336C38.6067 28.3766 37.6367 27.8706 36.6241 27.4639C35.9992 27.2359 35.3285 26.9499 34.6558 27.0688C34.3267 26.5887 33.9946 26.1107 33.6695 25.628C33.1352 24.8001 32.6715 23.9286 32.1666 23.0824C32.8401 22.8267 33.5003 22.5345 34.1447 22.2155C35.0079 21.7813 35.8838 21.3585 36.6741 20.7955C38.5305 19.4815 40.0268 17.6992 41.1219 15.6998C41.4547 15.1032 41.7478 14.4847 41.9992 13.8486C42.2638 13.2053 42.4964 12.6134 42.9767 12.3497C42.9908 12.3463 43.0077 12.3425 43.0303 12.338C43.0366 12.3367 43.0429 12.3362 43.0492 12.335C43.2999 12.3156 43.5519 12.3287 43.7993 12.3742C44.8447 12.5446 45.8962 12.7052 46.9131 13.0109C48.3644 13.4513 49.7534 14.1283 51.2534 14.389C51.3525 14.4049 51.4538 14.3985 51.5502 14.3704C51.6466 14.3423 51.7357 14.2932 51.8113 14.2264C51.8727 14.1695 51.9214 14.1 51.954 14.0225C51.9867 13.945 52.0025 13.8613 52.0004 13.777C51.9749 13.5827 51.9089 13.3962 51.8066 13.2297ZM6.71004 7.73585C6.37121 8.34993 6.29739 9.07239 6.29245 9.76471C6.30964 10.3731 6.41973 10.9752 6.61881 11.5496C5.60114 10.9082 4.55365 10.3144 3.49773 9.74081C2.81278 9.37489 2.11573 9.02061 1.50071 8.54012C1.32329 8.3918 1.2261 8.3182 1.15697 8.24986C1.93867 8.16979 3.65377 8.10995 4.6959 7.9637C5.40629 7.87454 6.11096 7.74377 6.80639 7.57206C6.77309 7.62552 6.74068 7.67985 6.71004 7.73585ZM47.238 12.0481C46.1961 11.7274 45.1158 11.5643 44.0428 11.3897C43.5235 11.3113 42.9521 11.2203 42.4636 11.4698C41.9965 11.7705 41.6257 12.2022 41.3964 12.7122C41.2444 13.0373 41.1144 13.3723 40.9776 13.7041C40.5477 14.6988 40.0277 15.6511 39.424 16.5486C38.6688 17.7297 37.2035 19.2089 36.1085 19.9579C35.075 20.6621 33.9382 21.1989 32.8097 21.7268C31.7798 22.2249 29.3568 22.984 28.178 23.0413C26.9956 23.115 25.7551 22.9544 24.9482 22.8413C22.1452 22.4451 19.9858 21.6208 17.6741 20.2642C16.8349 19.7476 16.5115 19.5104 15.8379 18.7066C15.2461 18.0052 14.4729 16.7552 13.8183 15.6815C13.5799 15.2797 13.3467 14.8746 13.1137 14.4695C13.2721 15.069 13.4432 15.666 13.655 16.2486C13.7266 16.4399 13.7997 16.6319 13.8746 16.8246C12.932 16.1371 11.96 15.4926 10.983 14.8565C9.64853 13.9986 8.68292 13.2497 7.9308 11.9899C7.29683 10.9581 7.18283 9.67356 7.3931 8.63741C7.5504 8.0514 7.91636 7.54496 8.42056 7.21559C9.3995 6.59409 10.3535 6.51564 11.7526 6.65519C13.0728 6.75555 14.5319 7.24831 15.8729 8.11217C16.3213 8.38592 16.726 8.72698 17.0731 9.12368C17.1008 9.15423 17.127 9.18606 17.1529 9.21821C17.4336 9.6152 17.6693 10.0429 17.8555 10.4931C17.9064 10.6168 17.9553 10.7413 18.0024 10.8665C18.079 11.0711 18.151 11.2775 18.2168 11.4859C18.2394 11.5911 18.2934 11.6867 18.3716 11.7598C18.4497 11.8328 18.5482 11.8798 18.6537 11.8943C19.2806 11.9556 19.4173 11.1309 19.6701 10.7059C20.1196 9.85336 20.239 9.69797 20.9178 9.25764C22.5962 8.3048 24.4564 7.72584 26.3739 7.55955C27.3537 7.48778 28.3307 7.61761 29.3063 7.69403C31.0786 7.84491 32.8523 8.02552 34.6327 8.02013C35.859 8.02423 37.0991 7.91837 38.2756 7.55169C40.061 6.97475 41.7699 6.03104 43.065 4.64354C43.8106 3.82696 44.2925 2.83912 44.6542 1.80414C44.667 1.83614 44.6805 1.86937 44.695 1.90436C45.7146 4.33014 47.0632 6.59644 48.3136 8.90423C49.0432 10.2468 49.817 11.5649 50.5199 12.9221C50.5687 13.0198 50.6185 13.1171 50.6685 13.2142C49.5052 12.889 48.3901 12.4108 47.238 12.0481Z" fill="#2D2C4C"/>
<path d="M36.16 8.85566C35.2919 9.26477 34.4882 9.80584 33.644 10.2633C32.5276 10.8855 31.3915 11.471 30.2615 12.0676C29.5882 12.4296 28.89 12.7495 28.2387 13.1511C28.1822 13.1902 28.1314 13.2295 28.0834 13.2689C27.9348 12.9884 27.7833 12.7108 27.6287 12.4392C27.7249 12.7694 27.8167 13.1008 27.9071 13.4326C27.5145 13.8573 27.5537 14.3221 27.8276 14.9573C28.0666 15.5519 28.3043 16.1471 28.5482 16.7397C28.6785 17.0562 28.8114 17.372 28.9668 17.6769C28.9999 17.7414 29.0324 17.8082 29.0686 17.8723C29.0616 17.8768 29.0547 17.8814 29.0477 17.8859C29.0557 17.8834 29.0638 17.8808 29.0719 17.8783C29.1302 17.993 29.2173 18.0903 29.3244 18.1604C29.4118 18.2091 29.5119 18.2298 29.6113 18.2195C29.7106 18.2093 29.8045 18.1686 29.8804 18.103C29.9563 18.0374 30.0107 17.9499 30.0362 17.8522C30.0618 17.7545 30.0573 17.6513 30.0233 17.5563C30.0201 17.5477 30.0166 17.5388 30.0134 17.5302C30.4794 17.3303 30.931 17.0974 31.3646 16.8331C32.3395 16.1693 33.2299 15.3865 34.0157 14.5023C34.7421 13.6565 35.3827 12.7389 35.9277 11.7634C36.2843 11.0791 36.6765 10.3947 36.8873 9.64775C37.005 9.16883 36.6674 8.71642 36.16 8.85566ZM31.8525 15.5078C31.2737 16.1691 30.6253 16.7645 29.9188 17.2834C29.6039 16.4722 29.212 15.5599 28.7709 14.6363C28.7128 14.4753 28.6601 14.3127 28.6149 14.1476C28.6499 14.1104 28.6995 14.0659 28.736 14.0341C29.2004 13.7285 29.7118 13.4994 30.2003 13.2358C31.4497 12.5855 32.6988 11.9339 33.9352 11.2586C34.473 10.9641 35 10.6493 35.5315 10.343C34.5161 12.4323 33.3731 13.7981 31.8525 15.5078Z" fill="#2D2C4C"/>
<path d="M40.543 8.49754C41.1484 8.33012 41.7364 8.10386 42.2988 7.82192C42.8283 7.52605 43.3298 7.18162 43.797 6.79297C42.6013 7.11123 41.49 7.69334 40.543 8.49754Z" fill="#2D2C4C"/>
<path d="M41.3242 10.1858C42.0875 10.0952 42.8259 9.85428 43.4977 9.47656C42.7226 9.50681 41.9707 9.75218 41.3242 10.1858Z" fill="#2D2C4C"/>
<path d="M43.5508 10.0735C44.3194 9.95059 45.0515 9.65665 45.6943 9.21289C44.9192 9.31106 44.1815 9.60724 43.5508 10.0735Z" fill="#2D2C4C"/>
<path d="M11.5486 10.8356C12.0554 10.8356 12.4663 10.4199 12.4663 9.90705C12.4663 9.39424 12.0554 8.97852 11.5486 8.97852C11.0417 8.97852 10.6309 9.39424 10.6309 9.90705C10.6309 10.4199 11.0417 10.8356 11.5486 10.8356Z" fill="#2D2C4C"/>
</g>
<defs>
<clipPath id="clip0_659_6451">
<rect width="52" height="37" fill="white"/>
</clipPath>
</defs>
</svg>
