<svg width="23" height="23" viewBox="0 0 23 23" fill="none" xmlns="http://www.w3.org/2000/svg">
    <path fill-rule="evenodd" clip-rule="evenodd" d="M6.12175 0.141055C3.38334 0.719336 1.18889 2.52889 0.334426 4.91316C-0.21547 6.44768 -0.0794363 8.34905 0.685088 9.81391C1.10057 10.6101 1.32402 10.9056 2.08288 11.6623L2.69264 12.2704L2.42904 14.0077C2.10241 16.1603 2.10052 16.2598 2.3815 16.5308C2.81508 16.9493 2.98226 16.8705 4.83281 15.3758C6.48853 14.0384 6.52751 13.9994 6.55407 13.6483C6.57703 13.3453 6.54335 13.2603 6.33935 13.1054C5.91567 12.7839 5.66764 12.8582 4.77717 13.5734C4.33099 13.9317 3.95133 14.2249 3.93351 14.2249C3.91577 14.2249 3.97438 13.7461 4.06387 13.1608C4.28903 11.6873 4.28858 11.6822 3.89354 11.3437C2.28616 9.96645 1.63714 8.87686 1.4849 7.30012C1.40802 6.50423 1.61887 5.51385 2.04263 4.68009C2.29804 4.17738 2.56525 3.83729 3.15197 3.26822C3.80567 2.63417 4.05595 2.45791 4.77573 2.12495C5.93575 1.58828 6.65418 1.42879 7.92233 1.42618C9.17724 1.42366 9.89162 1.58046 11.0362 2.10966C11.9845 2.548 12.9936 3.3934 13.5041 4.17712C13.9292 4.82976 14.3198 4.9949 14.7502 4.70406C15.2602 4.35937 15.1498 3.83938 14.3644 2.88739C13.3156 1.61625 11.8881 0.714645 10.167 0.236262C9.19461 -0.0339845 7.17554 -0.0815014 6.12175 0.141055ZM13.8192 5.54147C12.1841 5.78748 10.6119 6.52968 9.41978 7.61832C6.49393 10.2901 6.45206 14.5144 9.32461 17.2187L9.88793 17.7491L9.60478 19.683C9.34658 21.4467 9.33362 21.6374 9.4575 21.8505C9.6263 22.1406 10.0004 22.2803 10.3092 22.1684C10.4336 22.1233 11.2854 21.4839 12.2021 20.7476L13.8688 19.4088L14.9693 19.4247C18.557 19.4766 21.6008 17.5435 22.7198 14.5024C22.9809 13.7927 22.9978 13.671 22.9999 12.4875C23.0019 11.3978 22.9741 11.147 22.7936 10.6273C22.2573 9.08239 21.2196 7.74132 19.8745 6.85466C19.2131 6.41867 18.0339 5.90554 17.2403 5.70843C16.408 5.50177 14.6525 5.41604 13.8192 5.54147ZM16.6551 7.06106C17.9912 7.35919 19.0457 7.91315 19.9417 8.78791C20.9947 9.81591 21.5454 11.0514 21.552 12.4007C21.5594 13.9047 21.0728 15.0048 19.895 16.1473C19.2413 16.7813 18.991 16.9576 18.2712 17.2906C16.9237 17.9139 15.5775 18.1413 14.2714 17.966C13.4373 17.8541 13.4957 17.8265 12.0186 19.0318C11.5235 19.4359 11.1129 19.7608 11.1062 19.7538C11.0995 19.7468 11.1694 19.2524 11.2614 18.6552C11.3535 18.058 11.4298 17.4817 11.4311 17.3745C11.4327 17.2413 11.14 16.8976 10.5066 16.2886C9.75639 15.5674 9.51791 15.2734 9.25547 14.7461C8.83351 13.8983 8.69279 13.307 8.69729 12.4007C8.70684 10.4354 9.94608 8.60479 11.9005 7.66861C12.376 7.44084 13.063 7.18398 13.4271 7.09763C14.2666 6.89879 15.8472 6.88089 16.6551 7.06106ZM14.266 9.15102C12.9689 9.59544 12.3717 11.1808 13.4179 11.4025C13.7559 11.4741 14.076 11.2899 14.3272 10.8789C14.5566 10.5037 14.9954 10.3481 15.4318 10.4871C15.6007 10.5408 15.7628 10.6448 15.7919 10.718C15.9316 11.0692 15.8361 11.2615 15.2998 11.7098C14.681 12.2271 14.4044 12.6762 14.4044 13.1639C14.4044 13.5979 14.6922 13.8774 15.1389 13.8774C15.4959 13.8774 15.6996 13.7088 15.852 13.287C15.9103 13.1255 16.127 12.8875 16.3764 12.7108C17.2596 12.0852 17.5872 10.9342 17.1245 10.082C16.6461 9.20062 15.3518 8.77905 14.266 9.15102ZM14.6254 14.7856C14.1788 15.2165 14.4952 15.9623 15.1246 15.9623C15.3 15.9623 15.4846 15.8835 15.6238 15.749C15.7632 15.6146 15.8449 15.4365 15.8449 15.2673C15.8449 15.0981 15.7632 14.92 15.6238 14.7856C15.4846 14.6512 15.3 14.5724 15.1246 14.5724C14.9493 14.5724 14.7647 14.6512 14.6254 14.7856Z" fill="#FFFFFF"/>
</svg>
