<svg viewBox="0 0 330 198" fill="none" xmlns="http://www.w3.org/2000/svg">
    <g id="undraw_handcrafts_city 1">
        <path id="Vector" d="M18.9406 135.192C10.2099 116.645 23.2143 97.2948 43.8308 105.817C60.5744 103.029 52.7988 90.2813 64.4321 117.627C72.0079 136.96 49.062 143.031 34.8198 136.025C40.3124 153.88 10.2958 153.446 16.8546 135.849" fill="#FBE5F0" />
        <path id="Vector_2" d="M116.412 176.096C119.429 134.115 124.785 92.3335 132.455 50.9447L134.568 39.5898L130.416 39.8969C115.024 40.9344 99.7827 43.5748 84.9421 47.7748C72.2198 50.4767 63.8063 53.853 65.4809 68.524C62.377 108.21 59.8883 147.176 57.2324 186.875C60.5444 157.506 63.9937 125.199 67.3644 92.0375C71.4606 49.642 64.8454 57.099 107.266 47.5464C111.196 47.6005 129.771 42.1437 128.651 46.4574C121.305 87.8554 116.744 136.209 116.412 176.096Z" fill="#2D2C4C" />
        <path id="Vector_3" d="M165.25 179.342C165.559 120.194 171.74 60.7147 181.228 2.20872C181.16 1.68229 181.967 0.376303 180.886 0.688263C137.745 1.58722 132.887 -10.5437 134.218 39.226C139.708 -11.1708 129.813 5.07894 176.793 4.52501C165.709 58.5845 161.279 130.121 165.25 179.342Z" fill="#2D2C4C" />
        <path id="Vector_4" d="M248.45 181.734C243.317 139.085 244.155 95.7895 248.64 53.0784C238.217 38.0708 195.832 47.3638 176.957 51.7145C190.71 48.5215 236.263 44.2948 244.154 54.4863C238.366 96.3373 239.63 141.16 248.45 181.734Z" fill="#2D2C4C" />
        <path id="Vector_5" d="M122.678 64.3125C109.025 60.8645 95.2405 62.3118 82.1426 66.777C94.9303 67.9849 112.143 67.2375 122.678 64.3125Z" fill="#2D2C4C" />
        <path id="Vector_6" d="M117.739 81.6101C107.703 76.9652 97.0966 77.5274 87.002 81.3416C96.0562 83.0259 108.983 83.6708 117.739 81.6101Z" fill="#2D2C4C" />
        <path id="Vector_7" d="M113.636 105.156C108.303 95.9975 93.5294 99.2929 85.4961 103.153C94.478 105.016 105.264 102.259 113.636 105.156Z" fill="#2D2C4C" />
        <path id="Vector_8" d="M111.164 122.495C101.706 117.699 91.7661 117.864 81.9023 120.989C90.8904 123.434 103.279 124.371 111.164 122.495Z" fill="#2D2C4C" />
        <path id="Vector_9" d="M113.563 142.078C102.97 138.228 92.3226 139.337 82.0879 143.41C91.9668 144.974 105.324 144.708 113.563 142.078Z" fill="#2D2C4C" />
        <path id="Vector_10" d="M167.387 17.6669C162.149 12.466 156.121 12.5043 149.621 15.1272C154.747 17.8553 162.219 19.2239 167.387 17.6669Z" fill="#2D2C4C" />
        <path id="Vector_11" d="M164.133 35.7188C159.919 29.279 151.431 29.1088 146.066 34.1765C151.756 34.7673 158.445 35.7714 164.133 35.7188Z" fill="#2D2C4C" />
        <path id="Vector_12" d="M159.921 58.1679C154.992 53.6789 150.017 54.6689 144.838 58.0943C149.356 60.0881 155.724 60.4161 159.921 58.1679Z" fill="#2D2C4C" />
        <path id="Vector_13" d="M155.789 82.031C151.138 77.5269 146.445 78.5691 141.522 81.9759C145.773 83.9628 151.793 84.2826 155.789 82.031Z" fill="#2D2C4C" />
        <path id="Vector_14" d="M154.199 99.0897C150.035 94.0382 143.91 95.4364 140.312 100.124C144.774 100.833 149.933 100.77 154.199 99.0897Z" fill="#2D2C4C" />
        <path id="Vector_15" d="M152.486 123.251C148.162 117.801 142.039 118.03 136.582 121.571C141.279 123.442 147.551 124.502 152.486 123.251Z" fill="#2D2C4C" />
        <path id="Vector_16" d="M155.794 144.697C150.083 139.758 143.845 140.059 137.286 143C142.75 145.485 150.553 146.499 155.794 144.697Z" fill="#2D2C4C" />
        <path id="Vector_17" d="M237.75 70.4075C222.028 67.6106 206.817 67.4003 191.016 67.9154C205.403 72.8446 223.087 74.3796 237.75 70.4075Z" fill="#2D2C4C" />
        <path id="Vector_18" d="M233.653 94.9742C218.775 89.1189 202.481 88.8585 187.201 92.5692C200.87 94.3155 220.351 95.9066 233.653 94.9742Z" fill="#2D2C4C" />
        <path id="Vector_19" d="M234.465 117.357C218.435 111.332 201.286 110.052 184.504 111.925C199.934 115.597 221.1 118.198 234.465 117.357Z" fill="#2D2C4C" />
        <path id="Vector_20" d="M234.481 142.953C220.02 134.953 203.174 132.594 187.047 134.662C200.954 137.826 220.729 141.887 234.481 142.953Z" fill="#2D2C4C" />
        <path id="Vector_21" d="M206.826 171.151C207.362 165.873 207.803 160.573 207.508 155.276C207.742 150.336 206.617 150.998 202.496 152.332C200.233 152.881 197.555 153.571 195.333 154.191C192.139 154.369 191.143 155.422 191.703 158.573C193.026 173.217 192.862 170.617 195.772 158.587C208.215 155.368 201.815 159.312 206.826 171.151Z" fill="#2D2C4C" />
        <path id="Vector_22" d="M144.255 172.778C145.741 168.219 146.625 163.664 146.487 158.882C140.653 157.581 129.139 162.453 134.513 169.322C134.076 165.548 138.53 163.992 141.646 163.78C143.249 165.103 142.824 170.62 144.255 172.778Z" fill="#2D2C4C" />
        <path id="Vector_23" d="M94.253 171.214C95.4077 166.937 99.6975 156.818 92.5635 156.052C88.0715 156.735 78.1041 154.821 80.0636 161.694C81.0939 171.978 81.5705 170.023 83.3793 161.277C95.9005 160.032 91.9775 160.213 94.253 171.214Z" fill="#2D2C4C" />
        <path id="Vector_24" d="M250.336 129.39C250.731 132.157 258.162 138.706 261.047 142.591C259.938 144.379 256.971 146.087 257.015 148.942C256.345 154.682 262.813 156.183 266.361 153.832C270.627 164.028 263.643 169.091 261.748 175.976C266.869 170.746 273.192 164.403 270.981 155.333C270.933 148.418 267.939 146.188 262.085 150.297C260.669 149.081 262.64 147.133 263.629 146.212C269.793 139.06 252.191 133.146 250.336 129.39Z" fill="#2D2C4C" />
        <path id="Vector_25" d="M293.306 131.656C277.893 138.107 276.032 157.995 281.788 171.708C281.999 158.06 283.559 142.097 293.306 131.656Z" fill="#2D2C4C" />
        <path id="Vector_26" d="M292.095 143.345C311.118 135.717 305.277 115.733 296.767 102.818C296.988 98.6401 299.144 93.9273 296.745 89.9156C291.632 81.1952 281.767 87.8626 274.764 87.6583C253.66 72.5862 251.635 95.0498 253.676 110.745C244.098 117.389 234.283 135.121 253.058 136.31C234.445 132.536 247.424 119.241 256.254 112.593C261.282 104.841 250.651 91.0225 262.549 87.7531C276.05 89.1187 268.947 96.501 287.696 89.9058C296.941 89.5757 291.932 99.4935 293.097 104.903C302.633 116.561 308.956 134.436 292.095 143.345Z" fill="#2D2C4C" />
        <path id="Vector_27" d="M268.562 101.042C263.763 102.19 266.72 103.598 269.629 105.113C271.264 104.113 271.108 102.428 268.562 101.042Z" fill="#2D2C4C" />
        <path id="Vector_28" d="M260.31 113.688C258.394 118.295 261.406 117.488 264.855 116.469C264.938 114.304 263.236 112.929 260.31 113.688Z" fill="#2D2C4C" />
        <path id="Vector_29" d="M261.41 127.403C258.452 131.289 261.605 129.755 264.37 128.62C265.032 127.047 264.015 126.351 261.41 127.403Z" fill="#2D2C4C" />
        <path id="Vector_30" d="M286.117 120.698C281.278 119.317 282.196 122.258 283.469 125.717C285.724 125.527 287.062 123.605 286.117 120.698Z" fill="#2D2C4C" />
        <path id="Vector_31" d="M281.135 99.8936C276.123 100.321 278.046 102.734 280.478 105.499C282.512 104.525 283.065 102.264 281.135 99.8936Z" fill="#2D2C4C" />
        <path id="Vector_32" d="M272.995 114.762C268.277 116.82 270.376 119.075 273.497 121.614C275.303 119.788 275.385 116.929 272.995 114.762Z" fill="#2D2C4C" />
        <path id="Vector_33" d="M274.62 131.762C269.734 132.668 272.313 134.518 275.104 136.546C276.884 135.523 276.969 133.564 274.62 131.762Z" fill="#2D2C4C" />
        <path id="Vector_34" d="M297.769 123.509C295.04 119.482 296.502 123.022 297.399 125.514C298.406 126.658 298.697 126.074 297.769 123.509Z" fill="#2D2C4C" />
        <path id="Vector_35" d="M330 190.934C303.969 174.097 272.526 163.446 244.551 182.972C271.372 171.904 295.797 177.159 330 190.934Z" fill="#2D2C4C" />
        <path id="Vector_36" d="M8.75977 136.085C9.15591 138.853 16.5861 145.401 19.4716 149.286C18.3617 151.074 15.3956 152.783 15.4388 155.637C14.7688 161.377 21.2378 162.878 24.7851 160.528C29.0517 170.723 22.0661 175.787 20.1725 182.671C25.2922 177.442 31.6166 171.099 29.4053 162.028C29.3584 155.114 26.3629 152.884 20.5089 156.992C19.0927 155.777 21.0647 153.828 22.0536 152.907C28.2168 145.755 10.6156 139.842 8.75977 136.085Z" fill="#2D2C4C" />
        <path id="Vector_37" d="M51.7295 138.354C36.3163 144.805 34.4566 164.693 40.2119 178.406C40.4229 164.757 41.9817 148.795 51.7295 138.354Z" fill="#2D2C4C" />
        <path id="Vector_38" d="M50.5206 150.042C69.5438 142.414 63.7025 122.431 55.1933 109.515C55.4141 105.337 57.5698 100.625 55.1714 96.6129C50.0574 87.8926 40.1928 94.5599 33.1903 94.3555C12.0853 79.2835 10.061 101.747 12.1022 117.442C2.52344 124.087 -7.29085 141.818 11.4836 143.007C-7.12921 139.233 5.84981 125.939 14.6797 119.291C19.7075 111.539 9.077 97.7197 20.9747 94.4503C34.4756 95.8161 27.3735 103.198 46.1214 96.603C55.3672 96.2729 50.3578 106.191 51.5226 111.6C61.0588 123.258 67.3826 141.134 50.5206 150.042Z" fill="#2D2C4C" />
        <path id="Vector_39" d="M26.9862 107.737C22.1877 108.886 25.1448 110.293 28.0536 111.808C29.6893 110.809 29.5328 109.123 26.9862 107.737Z" fill="#2D2C4C" />
        <path id="Vector_40" d="M18.7337 120.385C16.8179 124.991 19.8298 124.185 23.279 123.166C23.3617 121 21.6597 119.626 18.7337 120.385Z" fill="#2D2C4C" />
        <path id="Vector_41" d="M19.8347 134.099C16.8771 137.985 20.0303 136.451 22.7944 135.317C23.4566 133.743 22.4401 133.048 19.8347 134.099Z" fill="#2D2C4C" />
        <path id="Vector_42" d="M44.5417 127.394C39.7033 126.013 40.6208 128.954 41.8938 132.413C44.149 132.223 45.4868 130.302 44.5417 127.394Z" fill="#2D2C4C" />
        <path id="Vector_43" d="M39.5592 106.59C34.5474 107.017 36.4711 109.43 38.903 112.195C40.9363 111.221 41.4898 108.96 39.5592 106.59Z" fill="#2D2C4C" />
        <path id="Vector_44" d="M31.4212 121.458C26.7023 123.516 28.8022 125.771 31.9228 128.31C33.7285 126.484 33.811 123.625 31.4212 121.458Z" fill="#2D2C4C" />
        <path id="Vector_45" d="M33.0447 138.458C28.1595 139.364 30.7372 141.215 33.529 143.242C35.3086 142.219 35.3933 140.26 33.0447 138.458Z" fill="#2D2C4C" />
        <path id="Vector_46" d="M56.1931 130.205C53.4639 126.178 54.9259 129.718 55.8229 132.21C56.8297 133.354 57.121 132.77 56.1931 130.205Z" fill="#2D2C4C" />
        <path id="Vector_47" d="M88.4242 197.63C62.3925 180.794 30.9499 170.143 2.97461 189.668C29.7956 178.601 54.2213 183.855 88.4242 197.63Z" fill="#2D2C4C" />
        <path id="Vector_48" d="M189.107 48.1C201.44 40.7842 196.738 20.7873 182.41 19.8945C191.928 25.5679 194.33 38.7667 189.107 48.1Z" fill="#2D2C4C" />
        <path id="Vector_49" d="M205.912 4.81641C200.117 5.51774 199.344 9.32281 200.131 14.428C203.49 12.6617 206.176 8.77063 205.912 4.81641Z" fill="#2D2C4C" />
        <path id="Vector_50" d="M224.767 19.7925C218.837 17.3485 214.999 20.0736 211.834 25.0496C216.432 25.3081 222.002 23.3644 224.767 19.7925Z" fill="#2D2C4C" />
        <path id="Vector_51" d="M222.433 40.48C219.383 35.6721 215.854 36.8342 211.879 39.8657C214.775 41.9973 219.192 42.5498 222.433 40.48Z" fill="#2D2C4C" />
        <path id="Vector_52" d="M280.569 25.2125C278.792 6.26486 260.119 27.552 251.335 24.5967C245.962 21.012 241.145 26.1297 239.887 31.2795C241.47 29.2484 243.328 26.8049 245.814 26.2843C259.984 38.8919 273.298 9.67759 280.569 25.2125Z" fill="#2D2C4C" />
        <path id="Vector_53" d="M123.401 18.9557C121.626 0.00785923 102.952 21.2953 94.1681 18.3398C88.7954 14.7551 83.9771 19.873 82.7197 25.0228C84.3022 22.9912 86.1609 20.5484 88.6469 20.0275C102.816 32.635 116.131 3.42075 123.401 18.9557Z" fill="#2D2C4C" />
    </g>
</svg>
    