<svg width="676" height="512" viewBox="0 0 676 512" fill="none" xmlns="http://www.w3.org/2000/svg">
<g clip-path="url(#clip0_816_4949)">
<g opacity="0.8">
<path d="M555.622 184.381C567.368 136.877 522.129 103.3 516.013 98.1387C489.429 79.0421 423.451 46.8289 370.538 83.4223C317.626 120.016 329.621 159.929 223.615 206.694C184.897 223.775 77.8784 259.458 125.585 356.967C182.767 473.839 325.338 453.062 384.4 435.923C443.463 418.785 456.886 345.974 488.018 296.145C519.15 246.315 543.877 231.885 555.622 184.381Z" fill="#F8FAFF"/>
<path d="M552.448 358.646C577.405 327.257 570.616 282.888 553.427 267.207C532.328 248.136 501.264 294.141 472.176 358.877C443.089 423.613 461.496 415.495 476.862 411.943C492.228 408.391 527.491 390.034 552.448 358.646Z" fill="#F8FAFF"/>
<path d="M130.255 143.598C158.723 56.0407 255.21 36.5126 299.894 37.6931C383.294 42.1553 331.501 90.7355 298.231 134.968C258.911 187.244 91.3516 263.245 130.255 143.598Z" fill="#F8FAFF"/>
</g>
<g clip-path="url(#clip1_816_4949)">
<path d="M500.83 367.301C496.733 375.805 489.184 382.131 481.27 387.273C472.621 392.889 463.302 397.399 453.532 400.699C452.192 401.16 450.84 401.59 449.481 401.999H394.529C394.146 401.583 393.781 401.147 393.437 400.699C389.756 395.985 387.767 389.946 388.488 384.029C389.418 376.429 395.192 369.447 402.67 367.834C410.154 366.215 418.685 370.682 420.961 377.996C422.21 363.901 423.653 349.221 431.144 337.219C437.932 326.355 449.682 318.58 462.414 317.188C469.902 316.409 477.457 317.792 484.183 321.174C484.801 321.486 485.413 321.811 486.011 322.149C490.047 324.437 493.61 327.476 496.506 331.101C504.445 341.153 506.389 355.761 500.83 367.301Z" fill="#4A4A4A"/>
<path d="M500.83 367.301C496.733 375.805 489.184 382.131 481.27 387.273C472.621 392.889 463.302 397.399 453.532 400.699C452.192 401.16 450.84 401.59 449.481 401.999H394.529C394.146 401.583 393.781 401.147 393.437 400.699C389.756 395.985 387.767 389.946 388.488 384.029C389.418 376.429 395.192 369.447 402.67 367.834C410.154 366.215 418.685 370.682 420.961 377.996C422.21 363.901 423.653 349.221 431.144 337.219C437.932 326.355 449.682 318.58 462.414 317.188C469.902 316.409 477.457 317.792 484.183 321.174C484.801 321.486 485.413 321.811 486.011 322.149C490.047 324.437 493.61 327.476 496.506 331.101C504.445 341.153 506.389 355.761 500.83 367.301Z" fill="#B1BDD2"/>
<path d="M485.607 323.042C460.053 343.851 439.86 370.481 426.722 400.701C426.533 401.13 426.344 401.566 426.162 402.001H423.574C423.756 401.566 423.938 401.13 424.127 400.701C426.63 394.85 429.394 389.103 432.431 383.505C438.892 371.601 446.494 360.353 455.13 349.919C463.761 339.471 473.4 329.9 483.91 321.345C483.993 321.277 484.085 321.22 484.183 321.176C484.365 321.097 484.564 321.059 484.763 321.067C484.962 321.075 485.156 321.128 485.332 321.222C485.508 321.316 485.66 321.448 485.777 321.609C485.895 321.77 485.974 321.955 486.01 322.151C486.029 322.322 486.001 322.495 485.93 322.652C485.859 322.808 485.748 322.943 485.607 323.042Z" fill="white"/>
<path d="M281.729 262.872C282.371 262.237 282.866 261.469 283.179 260.622C283.492 259.776 283.616 258.871 283.541 257.971C283.466 257.071 283.196 256.199 282.747 255.416C282.299 254.632 281.684 253.956 280.947 253.436L277.828 232.879L265.018 236.91L272.036 255.25C271.243 256.547 270.955 258.09 271.224 259.586C271.493 261.081 272.302 262.426 273.497 263.366C274.692 264.305 276.19 264.774 277.707 264.683C279.224 264.592 280.655 263.947 281.729 262.872H281.729Z" fill="#FFB8B8"/>
<path d="M268.532 253.201L260.629 216.301C259.86 212.766 260.01 209.093 261.067 205.633C262.124 202.174 264.051 199.043 266.665 196.541C276.78 186.795 289.78 174.511 294.27 171.334C298.485 168.33 303.585 166.825 308.755 167.059L308.864 167.071L315.661 173.494L300.853 197.867L278.374 211.95L280.875 248.116L268.532 253.201Z" fill="#E50075"/>
<path d="M296.206 203.059H263.044C261.608 203.059 260.443 204.223 260.443 205.659C260.443 207.095 261.608 208.26 263.044 208.26H296.206C297.643 208.26 298.807 207.095 298.807 205.659C298.807 204.223 297.643 203.059 296.206 203.059Z" fill="#CCCCCC"/>
<path d="M296.206 259.621H263.044C261.608 259.621 260.443 260.785 260.443 262.222C260.443 263.658 261.608 264.822 263.044 264.822H296.206C297.643 264.822 298.807 263.658 298.807 262.222C298.807 260.785 297.643 259.621 296.206 259.621Z" fill="#CCCCCC"/>
<path d="M279.951 401.348C279.626 401.348 279.313 401.226 279.073 401.007C278.833 400.787 278.685 400.486 278.656 400.163L262.077 205.771C262.047 205.427 262.154 205.086 262.376 204.821C262.597 204.557 262.914 204.391 263.258 204.361C263.601 204.33 263.943 204.437 264.207 204.659C264.472 204.88 264.638 205.197 264.668 205.541L279.933 385.143L294.763 205.544C294.778 205.374 294.826 205.208 294.904 205.057C294.983 204.905 295.091 204.771 295.222 204.661C295.352 204.551 295.503 204.468 295.666 204.416C295.829 204.365 296 204.346 296.171 204.36C296.341 204.375 296.506 204.423 296.658 204.502C296.809 204.58 296.944 204.688 297.054 204.819C297.164 204.949 297.247 205.1 297.299 205.263C297.35 205.426 297.369 205.597 297.354 205.768L281.247 400.159C281.219 400.483 281.071 400.785 280.831 401.005C280.591 401.225 280.278 401.347 279.953 401.348H279.951Z" fill="#CCCCCC"/>
<path d="M317.167 159.278C326.59 159.278 334.228 151.64 334.228 142.219C334.228 132.798 326.59 125.16 317.167 125.16C307.744 125.16 300.105 132.798 300.105 142.219C300.105 151.64 307.744 159.278 317.167 159.278Z" fill="#FFB8B8"/>
<path d="M266.319 393.554L258.205 390.969L264.319 358.445L276.295 362.262L266.319 393.554Z" fill="#FFB8B8"/>
<path d="M265.868 400.75L239.747 392.426L239.963 391.747C240.794 389.152 242.62 386.992 245.041 385.742C247.463 384.491 250.281 384.252 252.879 385.076L269.206 390.279L265.868 400.75Z" fill="#2F2E41"/>
<path d="M325.353 393.387H316.837L312.784 360.543H325.353V393.387Z" fill="#FFB8B8"/>
<path d="M300.738 400.967H326.854V391.277H310.368C307.815 391.28 305.367 392.296 303.562 394.101C301.757 395.905 300.741 398.353 300.738 400.905V400.967Z" fill="#2F2E41"/>
<path d="M325.104 382.727L322.23 382.298C313.512 381 312.991 380.922 311.607 380.314C310.9 380.004 310.85 375.313 311.274 348.941C311.586 329.584 311.973 305.493 311.221 292.559C311.19 292.049 310.988 291.564 310.647 291.183C310.307 290.801 309.848 290.545 309.344 290.457C308.841 290.368 308.322 290.452 307.872 290.694C307.421 290.936 307.066 291.323 306.862 291.792C300.376 306.769 289.493 340.286 282.292 362.465C279.787 370.18 277.808 376.273 276.557 379.926C276.315 380.617 275.824 381.192 275.18 381.541C274.537 381.889 273.786 381.985 273.075 381.81C267.149 380.329 267.545 379.699 259.105 377.516C258.374 377.33 257.745 376.868 257.347 376.228C256.949 375.588 256.814 374.819 256.971 374.082C258.498 366.884 286.436 250.166 288.574 239.07C288.647 238.691 288.794 238.329 289.007 238.006C289.22 237.684 289.494 237.406 289.815 237.19C290.136 236.974 290.496 236.824 290.875 236.748C291.254 236.672 291.645 236.672 292.024 236.748C298.314 238.016 302.141 239.36 308.357 240.66C315.065 242.063 322.001 243.513 328.766 244.867C329.439 245.003 330.043 245.373 330.469 245.911C332.143 248.025 334.625 249.212 337.253 250.468C339.025 251.315 335.01 251.239 336.553 252.46C342.802 257.406 333.816 357.84 328.386 380.523C328.212 381.233 327.779 381.853 327.172 382.26C326.565 382.668 325.828 382.835 325.104 382.727V382.727Z" fill="#2F2E41"/>
<path d="M324.439 157.145C323.443 152.919 328.479 143.826 327.483 139.6C326.808 136.738 320.077 138.684 318.507 136.198C316.936 133.712 314.305 131.698 311.364 131.665C307.984 131.627 304.659 134.134 301.457 133.051C298.219 131.955 297.185 127.523 298.616 124.42C300.047 121.317 303.13 119.339 306.177 117.79C311.364 115.151 317.404 113.224 322.956 114.97C326.312 116.025 329.118 118.312 331.833 120.548C334.309 122.587 336.826 124.672 338.556 127.372C341.946 132.66 341.742 139.786 338.845 145.36C335.948 150.934 330.669 155.025 324.853 157.399" fill="#2F2E41"/>
<path d="M282.545 255.492C284.387 252.416 287.183 238.005 290.63 213.815C292.978 197.303 295.023 180.524 296.037 171.954C296.116 171.26 296.37 170.598 296.775 170.029C297.18 169.46 297.722 169.004 298.352 168.702C299.01 168.384 299.665 168.084 300.316 167.8C308.719 164.145 317.235 162.935 325.625 164.201C334.004 165.487 341.863 169.068 348.331 174.545L348.407 174.617L348.427 174.72C348.464 174.911 351.988 193.898 344.769 206.726C337.651 219.384 337.568 252.903 337.568 253.24V253.671L337.153 253.553C326.078 250.389 283.297 255.924 282.866 255.981L282.2 256.068L282.545 255.492Z" fill="#E50075"/>
<path d="M346.925 211.508H313.763C312.327 211.508 311.162 212.672 311.162 214.108C311.162 215.545 312.327 216.709 313.763 216.709H346.925C348.362 216.709 349.526 215.545 349.526 214.108C349.526 212.672 348.362 211.508 346.925 211.508Z" fill="#CCCCCC"/>
<path d="M346.925 268.07H313.763C312.327 268.07 311.162 269.235 311.162 270.671C311.162 272.107 312.327 273.271 313.763 273.271H346.925C348.362 273.271 349.526 272.107 349.526 270.671C349.526 269.235 348.362 268.07 346.925 268.07Z" fill="#CCCCCC"/>
<path d="M330.669 401.999C330.344 401.999 330.031 401.878 329.791 401.658C329.551 401.439 329.402 401.138 329.374 400.814L312.795 214.224C312.78 214.054 312.799 213.882 312.85 213.719C312.901 213.557 312.984 213.405 313.093 213.274C313.203 213.143 313.337 213.035 313.489 212.956C313.64 212.877 313.805 212.829 313.976 212.814C314.146 212.799 314.317 212.817 314.48 212.868C314.643 212.919 314.794 213.002 314.925 213.112C315.056 213.221 315.164 213.356 315.243 213.507C315.322 213.658 315.371 213.824 315.386 213.994L330.65 385.794L345.481 213.997C345.51 213.654 345.675 213.336 345.939 213.114C346.203 212.892 346.545 212.784 346.888 212.813C347.232 212.843 347.55 213.008 347.772 213.272C347.994 213.536 348.102 213.877 348.072 214.221L331.965 400.811C331.937 401.135 331.788 401.437 331.549 401.657C331.309 401.877 330.996 401.999 330.671 401.999H330.669Z" fill="#CCCCCC"/>
<path d="M319.962 268.895C319.768 268.013 319.769 267.1 319.967 266.219C320.164 265.338 320.552 264.511 321.104 263.797C321.655 263.082 322.357 262.497 323.159 262.083C323.961 261.668 324.844 261.435 325.746 261.399L339.536 245.836L348.1 256.18L332.241 267.764C332.201 269.283 331.605 270.735 330.566 271.844C329.527 272.953 328.117 273.643 326.604 273.783C325.09 273.922 323.578 273.502 322.354 272.601C321.13 271.7 320.278 270.381 319.962 268.895V268.895Z" fill="#FFB8B8"/>
<path d="M327.99 258.063L349.745 229.061L338.527 205.025L339.342 176.519L348.539 174.82L348.636 174.869C353.104 177.482 356.567 181.516 358.473 186.328C360.516 191.435 364.753 208.81 367.948 222.487C368.783 226.007 368.7 229.682 367.707 233.161C366.713 236.64 364.844 239.805 362.277 242.354L335.589 269.038L327.99 258.063Z" fill="#E50075"/>
<path d="M236.794 393.934L266.558 401.099C267.135 401.252 267.748 401.197 268.289 400.945C268.83 400.692 269.266 400.257 269.519 399.717L295.086 331.75C295.199 331.489 295.258 331.207 295.258 330.922C295.258 330.638 295.201 330.356 295.089 330.095C294.96 329.801 294.773 329.537 294.538 329.318C294.304 329.098 294.028 328.929 293.727 328.82L271.349 320.275C270.995 320.14 270.617 320.081 270.239 320.102C269.861 320.123 269.491 320.223 269.155 320.397C268.862 320.541 268.604 320.746 268.398 320.999C268.191 321.251 268.041 321.545 267.958 321.861L267.958 321.864L252.163 381.767L251.929 381.781C251.838 381.787 242.783 382.403 238.712 387.29C237.952 388.206 237.389 389.269 237.059 390.412C236.73 391.555 236.639 392.754 236.794 393.934Z" fill="#CCCCCC"/>
<path d="M495.517 401.349C495.517 401.435 495.501 401.519 495.468 401.599C495.435 401.678 495.388 401.749 495.327 401.81C495.267 401.87 495.195 401.918 495.116 401.951C495.037 401.983 494.952 402 494.867 401.999H173.65C173.478 401.999 173.312 401.931 173.19 401.809C173.069 401.687 173 401.522 173 401.349C173 401.177 173.069 401.012 173.19 400.89C173.312 400.768 173.478 400.699 173.65 400.699H494.867C494.952 400.699 495.037 400.716 495.116 400.748C495.195 400.781 495.267 400.829 495.327 400.889C495.388 400.949 495.435 401.021 495.468 401.1C495.501 401.179 495.517 401.264 495.517 401.349Z" fill="#3F3D56"/>
<path d="M258.35 355.836L258.213 357.129L285.348 360.002L285.485 358.709L258.35 355.836Z" fill="#B3B3B3"/>
<path d="M255.985 366.548L255.451 367.734L277.288 377.558L277.822 376.372L255.985 366.548Z" fill="#B3B3B3"/>
<path d="M288.342 349.6L262.604 341.076L263.137 339.891L288.876 348.414L288.342 349.6Z" fill="#B3B3B3"/>
<path d="M290.942 343.751L265.204 331.326L265.738 330.141L291.476 342.565L290.942 343.751Z" fill="#B3B3B3"/>
<path d="M253.715 376.726L252.87 377.715L271.427 393.565L272.272 392.576L253.715 376.726Z" fill="#B3B3B3"/>
<path d="M248.446 381.983L247.262 382.52L254.713 398.948L255.897 398.411L248.446 381.983Z" fill="#B3B3B3"/>
<path d="M422.912 382.759V86.4222C422.912 82.4205 422.988 78.4104 422.912 74.4093C422.908 74.2343 422.912 74.059 422.912 73.8841C422.912 71.3741 419.01 71.3699 419.01 73.8841V370.22C419.01 374.222 418.934 378.232 419.01 382.233C419.014 382.408 419.01 382.584 419.01 382.759C419.01 385.269 422.912 385.273 422.912 382.759V382.759Z" fill="#4A4A4A"/>
<path d="M422.912 382.759V86.4222C422.912 82.4205 422.988 78.4104 422.912 74.4093C422.908 74.2343 422.912 74.059 422.912 73.8841C422.912 71.3741 419.01 71.3699 419.01 73.8841V370.22C419.01 374.222 418.934 378.232 419.01 382.233C419.014 382.408 419.01 382.584 419.01 382.759C419.01 385.269 422.912 385.273 422.912 382.759V382.759Z" fill="#B1BDD2"/>
<path d="M444.489 156.706H397.672C396.551 156.705 395.477 156.259 394.685 155.467C393.892 154.675 393.447 153.601 393.445 152.48V95.5931C393.447 94.4727 393.892 93.3986 394.685 92.6064C395.477 91.8141 396.551 91.3685 397.672 91.3672H444.489C445.609 91.3685 446.684 91.8141 447.476 92.6064C448.268 93.3986 448.714 94.4727 448.715 95.5931V152.48C448.714 153.601 448.268 154.675 447.476 155.467C446.684 156.259 445.609 156.705 444.489 156.706Z" fill="#4A4A4A"/>
<path d="M444.489 156.706H397.672C396.551 156.705 395.477 156.259 394.685 155.467C393.892 154.675 393.447 153.601 393.445 152.48V95.5931C393.447 94.4727 393.892 93.3986 394.685 92.6064C395.477 91.8141 396.551 91.3685 397.672 91.3672H444.489C445.609 91.3685 446.684 91.8141 447.476 92.6064C448.268 93.3986 448.714 94.4727 448.715 95.5931V152.48C448.714 153.601 448.268 154.675 447.476 155.467C446.684 156.259 445.609 156.705 444.489 156.706Z" fill="#B1BDD2"/>
</g>
</g>
<defs>
<clipPath id="clip0_816_4949">
<rect width="676" height="512" fill="white"/>
</clipPath>
<clipPath id="clip1_816_4949">
<rect width="331" height="330" fill="white" transform="translate(173 72)"/>
</clipPath>
</defs>
</svg>
