<svg width="24" height="24" viewBox="0 0 24 24" fill="none" xmlns="http://www.w3.org/2000/svg">
<path d="M6.77098 5.64645C6.57572 5.45118 6.25913 5.45118 6.06387 5.64645C5.86861 5.84171 5.86861 6.15829 6.06387 6.35355L11.2955 11.5852L5.85836 17.0223C5.6631 17.2176 5.6631 17.5342 5.85836 17.7295C6.05362 17.9247 6.37021 17.9247 6.56547 17.7295L12.0026 12.2923L17.3944 17.684C17.5896 17.8793 17.9062 17.8793 18.1015 17.684C18.2967 17.4888 18.2967 17.1722 18.1015 16.9769L12.7097 11.5852L17.896 6.39897C18.0912 6.20371 18.0912 5.88713 17.896 5.69187C17.7007 5.4966 17.3841 5.4966 17.1888 5.69187L12.0026 10.8781L6.77098 5.64645Z" fill="#E50075"/>
<path d="M12 23C5.92487 23 1 18.0751 1 12H-1C-1 19.1797 4.8203 25 12 25V23ZM23 12C23 18.0751 18.0751 23 12 23V25C19.1797 25 25 19.1797 25 12H23ZM12 1C18.0751 1 23 5.92487 23 12H25C25 4.8203 19.1797 -1 12 -1V1ZM12 -1C4.8203 -1 -1 4.8203 -1 12H1C1 5.92487 5.92487 1 12 1V-1Z" fill="#E50075"/>
</svg>
