<svg width="24" height="24" viewBox="0 0 24 24" fill="none" xmlns="http://www.w3.org/2000/svg">
<path fill-rule="evenodd" clip-rule="evenodd" d="M12.8221 0.901509C12.694 1.03076 12.5892 1.24015 12.5892 1.36694C12.5892 1.71627 13.0438 2.07653 13.4845 2.07653C13.8691 2.07653 13.8701 2.07783 13.8701 2.65993C13.8701 3.11619 13.8211 3.26977 13.6451 3.36483C13.5213 3.43169 13.386 3.59467 13.3443 3.72721C13.246 4.04012 13.572 4.54408 13.8728 4.54408C14.0701 4.54408 14.103 4.62457 14.103 5.1081C14.103 5.4183 14.1658 5.73556 14.2427 5.81311C14.6169 6.19076 15.1509 5.74014 15.1509 5.04664C15.1509 4.81375 15.2094 4.66159 15.2988 4.66159C15.8479 4.66159 18.2948 5.57576 18.2948 5.78092C18.2948 5.81264 18.1376 6.05763 17.9455 6.3253C17.5357 6.89613 17.5194 7.02268 17.8206 7.29775C18.1233 7.57412 18.4007 7.45885 18.7972 6.89249C18.9775 6.63492 19.1646 6.42412 19.2129 6.42412C19.4973 6.42412 21.3222 8.44622 21.3222 8.76136C21.3222 8.80613 21.0306 8.98697 20.6743 9.16334C20.1063 9.44452 20.0309 9.52219 20.063 9.79292C20.1267 10.3307 20.4168 10.3954 21.1464 10.0343C21.5021 9.85825 21.8159 9.71419 21.8437 9.71419C21.9473 9.71419 22.4611 11.5596 22.539 12.2111L22.6198 12.8868H21.9943C21.3144 12.8868 21.0893 13.0231 21.0893 13.4349C21.0893 13.7798 21.4083 13.9443 22.0767 13.9443H22.6136L22.5404 14.3849C22.4008 15.2255 22.1385 16.1894 21.8917 16.768L21.6438 17.3495L21.2043 16.9982C20.7373 16.625 20.4093 16.5575 20.1811 16.7878C19.866 17.1058 19.9936 17.346 20.8364 18.0211L21.1074 18.2383L20.6189 18.8574C20.3503 19.1979 19.8383 19.7167 19.4812 20.0101L18.832 20.5438L18.5033 19.8879C18.2162 19.3148 18.1312 19.2319 17.8312 19.2319C17.268 19.2319 17.2023 19.5473 17.5921 20.3791L17.9265 21.0924L17.3166 21.3422C16.5432 21.659 15.5343 21.9313 15.1274 21.933C14.8231 21.9344 14.8116 21.9105 14.7781 21.2123C14.7394 20.4088 14.5178 20.1166 14.1321 20.361C13.9814 20.4565 13.9192 20.6785 13.8936 21.2125C13.8656 21.7947 13.8035 21.991 13.5734 22.2232C13.2229 22.5768 13.2136 22.7995 13.5354 23.1243C13.7599 23.3508 13.8637 23.3668 14.6422 23.2956C19.2483 22.8745 22.94 19.5007 23.718 15.0018C24.1838 12.3075 23.5227 9.55333 21.8656 7.28483C21.4479 6.71294 21.3674 6.53258 21.4858 6.43329C21.597 6.34034 21.6911 6.36866 21.8465 6.5421C21.9623 6.67111 22.1683 6.77663 22.3043 6.77663C22.6265 6.77663 24.0003 5.38622 24.0003 5.06016C24.0003 4.8033 22.3867 3.13406 22.1383 3.13406C21.9529 3.13406 20.3907 4.66006 20.3907 4.84125C20.3907 4.91892 20.5022 5.12549 20.6386 5.30033C20.8016 5.5096 20.8471 5.65801 20.7716 5.73427C20.6959 5.81064 20.3615 5.63686 19.7943 5.22654C18.7206 4.44997 17.5844 3.91674 16.2768 3.57563L15.2673 3.31231V2.69436C15.2673 2.09545 15.2774 2.07653 15.5947 2.07653C15.9805 2.07653 16.4317 1.69395 16.4317 1.36694C16.4317 1.24015 16.327 1.03076 16.1989 0.901509C15.9908 0.691532 15.8108 0.666504 14.5105 0.666504C13.2102 0.666504 13.0302 0.691532 12.8221 0.901509ZM22.4306 4.73326C22.7465 5.05205 22.7428 5.31984 22.4209 5.44451C22.3046 5.48951 22.1185 5.40103 21.9305 5.21126C21.6344 4.91246 21.6324 4.9 21.8422 4.66605C21.9603 4.53433 22.0727 4.42658 22.0919 4.42658C22.111 4.42658 22.2635 4.56465 22.4306 4.73326ZM7.37274 6.56513C7.14114 6.79884 7.2067 7.33218 7.49186 7.5337C7.69621 7.67823 8.09443 7.71665 9.38715 7.71665C10.6799 7.71665 11.0781 7.67823 11.2824 7.5337C11.5676 7.33218 11.6332 6.79884 11.4016 6.56513C11.2057 6.36749 7.56859 6.36749 7.37274 6.56513ZM4.44428 9.53089C4.36778 9.62383 4.32213 9.84732 4.34274 10.0275C4.40877 10.6045 4.67518 10.6508 7.93165 10.6508C11.1881 10.6508 11.4545 10.6045 11.5206 10.0275C11.5966 9.36427 11.5825 9.36168 7.93165 9.36168C5.16003 9.36168 4.55944 9.39083 4.44428 9.53089ZM15.0927 11.3162C14.004 12.0015 13.0139 12.6485 12.8926 12.7539C12.5098 13.0862 12.2089 13.9167 12.2972 14.3969C12.6464 16.2981 15.0193 16.5716 15.8485 14.8062C16.9386 12.4854 17.7126 10.7175 17.7126 10.5487C17.7126 10.2985 17.4901 10.0661 17.2526 10.0685C17.1533 10.0695 16.1814 10.6309 15.0927 11.3162ZM15.8342 12.3874C15.7683 12.565 15.4959 13.16 15.2289 13.7093C14.6545 14.8909 14.3047 15.1744 13.7843 14.8807C13.3143 14.6153 13.1839 14.1409 13.4734 13.7496C13.6764 13.4752 15.6594 12.0875 15.8726 12.0707C15.9173 12.0672 15.9 12.2096 15.8342 12.3874ZM0.861198 13.1511C0.595948 13.4971 0.601654 13.7257 0.882972 14.0096L1.16755 14.2968H6.09563C10.3675 14.2968 11.0582 14.2725 11.2824 14.1138C11.5676 13.9123 11.6332 13.379 11.4016 13.1453C11.1952 12.937 1.02095 12.9427 0.861198 13.1511ZM4.75867 16.5387C4.46244 16.7129 4.49516 17.2963 4.81374 17.5214C5.03149 17.6755 5.54335 17.7044 8.04809 17.7044C10.5528 17.7044 11.0647 17.6755 11.2824 17.5214C11.5676 17.3199 11.6332 16.7865 11.4016 16.5528C11.2215 16.3712 5.06595 16.3581 4.75867 16.5387ZM8.07138 19.4904C7.83978 19.7241 7.90533 20.2575 8.19049 20.459C8.38681 20.5977 8.75988 20.6419 9.73646 20.6419C11.1927 20.6419 11.5413 20.509 11.5413 19.9537C11.5413 19.4018 11.3848 19.3494 9.73646 19.3494C8.70527 19.3494 8.16581 19.3951 8.07138 19.4904Z" fill="#E50075"/>
</svg>
