<svg width="24" height="24" viewBox="0 0 24 24" fill="none" xmlns="http://www.w3.org/2000/svg">
<path fill-rule="evenodd" clip-rule="evenodd" d="M6.87746 0.809603C4.09937 1.39627 1.87311 3.23204 1.00627 5.65087C0.4484 7.20763 0.586405 9.13656 1.36201 10.6226C1.78351 11.4303 2.0102 11.7301 2.78005 12.4978L3.39866 13.1147L3.13123 14.8772C2.79987 17.061 2.79796 17.1619 3.08301 17.4369C3.52287 17.8614 3.69248 17.7815 5.56984 16.2652C7.24956 14.9084 7.2891 14.8688 7.31605 14.5126C7.33934 14.2052 7.30518 14.119 7.09822 13.9619C6.6684 13.6357 6.41678 13.7111 5.5134 14.4366C5.06075 14.8001 4.67559 15.0976 4.65751 15.0976C4.63952 15.0976 4.69897 14.6118 4.78976 14.018C5.01818 12.5232 5.01773 12.518 4.61696 12.1746C2.98629 10.7774 2.32786 9.67202 2.17342 8.07242C2.09542 7.265 2.30932 6.26026 2.73923 5.41442C2.99834 4.90443 3.26942 4.55941 3.86464 3.98209C4.52781 3.33885 4.78172 3.16004 5.51193 2.82225C6.68877 2.2778 7.41761 2.116 8.70413 2.11336C9.97723 2.1108 10.702 2.26987 11.8632 2.80674C12.8252 3.25143 13.8489 4.10908 14.3668 4.90416C14.7981 5.56626 15.1943 5.73379 15.631 5.43874C16.1484 5.08905 16.0364 4.56153 15.2396 3.59574C14.1756 2.30618 12.7274 1.39151 10.9814 0.90619C9.99486 0.632027 7.94652 0.583821 6.87746 0.809603ZM14.6865 6.28829C13.0277 6.53786 11.4327 7.29082 10.2233 8.39523C7.25504 11.1058 7.21257 15.3913 10.1267 18.1348L10.6982 18.6729L10.411 20.6348C10.149 22.424 10.1359 22.6175 10.2616 22.8337C10.4328 23.128 10.8123 23.2697 11.1256 23.1562C11.2518 23.1104 12.116 22.4618 13.0459 21.7148L14.7368 20.3565L15.8533 20.3727C19.4929 20.4254 22.5808 18.4643 23.7161 15.379C23.981 14.6591 23.9981 14.5357 24.0002 13.335C24.0022 12.2295 23.974 11.975 23.791 11.4479C23.2468 9.88052 22.1941 8.52002 20.8295 7.62051C20.1586 7.1782 18.9623 6.65763 18.1572 6.45767C17.3128 6.24801 15.5319 6.16103 14.6865 6.28829ZM17.5635 7.8299C18.919 8.13235 19.9887 8.69433 20.8977 9.58177C21.966 10.6247 22.5246 11.8781 22.5313 13.2469C22.5388 14.7727 22.0452 15.8888 20.8503 17.0478C20.1871 17.6911 19.9332 17.8699 19.203 18.2077C17.8359 18.8401 16.4702 19.0707 15.1453 18.8928C14.299 18.7793 14.3582 18.7513 12.8598 19.9742C12.3575 20.3841 11.9409 20.7137 11.9341 20.7066C11.9274 20.6994 11.9983 20.1979 12.0916 19.592C12.185 18.9862 12.2625 18.4015 12.2638 18.2928C12.2654 18.1577 11.9685 17.809 11.3259 17.1912C10.5648 16.4596 10.3228 16.1613 10.0566 15.6263C9.62852 14.7662 9.48577 14.1664 9.49033 13.2469C9.50002 11.2532 10.7572 9.396 12.74 8.44626C13.2223 8.21519 13.9193 7.9546 14.2887 7.867C15.1403 7.66527 16.7439 7.64712 17.5635 7.8299ZM15.1398 9.95015C13.8238 10.401 13.218 12.0093 14.2793 12.2342C14.6223 12.3069 14.947 12.12 15.2019 11.7031C15.4346 11.3225 15.8797 11.1645 16.3225 11.3055C16.4938 11.3601 16.6582 11.4656 16.6878 11.5399C16.8294 11.8961 16.7326 12.0912 16.1886 12.546C15.5607 13.0708 15.2802 13.5264 15.2802 14.0212C15.2802 14.4615 15.5721 14.7451 16.0253 14.7451C16.3875 14.7451 16.5941 14.574 16.7487 14.1461C16.8079 13.9822 17.0277 13.7408 17.2807 13.5615C18.1767 12.9269 18.5091 11.7592 18.0397 10.8946C17.5544 10.0005 16.2413 9.57279 15.1398 9.95015ZM15.5044 15.6664C15.0513 16.1035 15.3723 16.8601 16.0108 16.8601C16.1887 16.8601 16.376 16.7802 16.5173 16.6438C16.6587 16.5074 16.7415 16.3268 16.7415 16.1551C16.7415 15.9834 16.6587 15.8028 16.5173 15.6664C16.376 15.53 16.1887 15.4501 16.0108 15.4501C15.8329 15.4501 15.6457 15.53 15.5044 15.6664Z" fill="#E50075"/>
</svg>
