<svg width="117" height="114" viewBox="0 0 117 114" fill="none" xmlns="http://www.w3.org/2000/svg">
    <g clip-path="url(#clip0_721_3818)">
        <path d="M61.7741 73.5392C76.0697 72.3949 85.9509 54.2961 79.1935 41.6332C72.4361 28.9703 51.9146 27.1301 43.0166 38.3891C34.1186 49.6482 40.2616 75.2612 61.7741 73.5392Z"
              fill="#FFEAF5"/>
        <path d="M115.722 44.3672C113.515 34.7485 107.831 26.3799 101.644 18.8639C93.3951 9.04629 81.0063 4.1065 68.747 1.5276C57.4029 -1.38229 45.3174 -0.0521386 34.6974 4.81181C24.5542 9.18351 16.1388 16.9323 10.131 26.1359C6.2854 31.7455 2.77618 37.7564 1.16618 44.4239C-0.477519 51.1062 -0.168361 58.0334 0.773488 64.796C1.65556 72.6515 3.65766 80.4992 8.14214 87.1116C17.4214 101.009 29.5149 108.86 45.8261 112.235C54.0888 113.568 62.5769 114.594 70.9317 113.607C79.8895 112.372 88.9423 108.962 95.5024 102.574C96.5228 101.564 97.5315 100.541 98.4651 99.4503C99.0073 98.7603 99.5761 98.29 98.4344 99.2599C96.0065 101.322 93.3675 103.12 90.5614 104.626C84.6782 107.51 78.0718 108.933 71.6329 109.247C62.8908 109.378 54.9698 107.749 46.2546 105.545C36.0908 102.255 28.6738 98.8664 21.3125 91.1228C16.4831 85.8734 14.5159 83.8194 11.3844 77.0836C10.5669 75.0891 9.92767 73.026 9.47432 70.9184C9.18655 69.8685 8.50726 65.5515 8.34814 64.5633C7.73274 59.6488 7.24102 54.6639 7.85876 49.7291C9.15051 41.9663 10.9302 38.8638 15.3675 31.9749C20.863 22.8415 30.8869 14.5858 39.3067 11.6432C51.2132 7.48276 57.5442 7.29464 68.5647 9.99243C77.7509 12.3235 81.8005 13.5111 89.245 18.5784C94.5579 21.6954 103.927 34.8993 106.097 41.0947C109.415 49.1384 109.05 59.3093 108.061 65.7263C104.498 82.3338 89.6729 90.0976 79.0473 78.4714C78.1669 77.6461 77.3546 76.7509 76.6182 75.7947C81.9256 70.6839 85.1573 63.7283 88.4711 57.2322C84.3643 62.8707 80.6051 69.2249 74.9233 73.5084C67.7255 63.2885 59.0788 45.5848 44.4887 48.3549C33.1797 51.925 34.346 66.5749 40.9794 74.0753C48.2719 82.7995 60.7243 84.9383 70.5786 80.0784C82.5041 96.773 103.005 95.1863 112.619 76.8247C117.755 66.9482 117.78 55.0901 115.722 44.3672ZM46.4503 71.1574C43.5623 67.3879 42.6275 64.6689 42.7307 59.7287C42.8124 59.4156 42.9387 58.9303 43.0768 58.5317C43.2253 58.2485 43.6444 57.427 44.0139 56.8471C44.1256 56.722 44.4435 56.3565 44.7626 56.0557C45.103 55.817 45.4634 55.6083 45.8399 55.4322C46.0864 55.348 46.3383 55.2805 46.5939 55.2304C47.1675 55.1829 47.7442 55.1886 48.3167 55.2473C56.7201 57.0842 61.2957 67.179 68.3189 76.9958C60.2375 79.6217 51.6888 77.3038 46.4503 71.1574Z"
              fill="#2D2C4C"/>
    </g>
    <defs>
        <clipPath id="clip0_721_3818">
            <rect width="117" height="114" fill="white"/>
        </clipPath>
    </defs>
</svg>
