<svg viewBox="0 0 32 32"
     fill="none"
     xmlns="http://www.w3.org/2000/svg">
<g id="Icon / Deposit">
<path id="6496266 1 (Traced)"
      fill-rule="evenodd"
      clip-rule="evenodd"
      d="M19.7607 2.68407C17.6948 2.88756 16.4095 3.20138 15.2449 3.78668C14.4532 4.18458 13.9609 4.61787 13.7019 5.14471L13.5074 5.54031L13.508 8.97094C13.5082 10.8578 13.5089 11.9682 13.5094 12.4853C13.5094 12.7092 13.6765 13.3115 14.2159 13.8517L14.6499 14.2023L14.8352 14.3345C15.2972 14.6639 16.4665 15.0922 17.5398 15.325C18.8225 15.6033 19.9183 15.6934 21.5374 15.6538C23.929 15.5951 25.6139 15.237 27.0543 14.4811L27.534 14.2294V15.0805V15.9316L27.276 16.2118C26.8089 16.7194 25.6749 17.2121 24.2978 17.5061C23.2147 17.7372 22.5303 17.7955 20.8497 17.7995L19.2102 17.8035L19.0857 17.9573C18.8999 18.1872 18.9454 18.5769 19.1785 18.7504C19.3507 18.8786 19.4276 18.8838 21.1456 18.8826C22.5603 18.8817 23.0858 18.8573 23.6632 18.7658C25.0859 18.5402 26.452 18.1157 27.193 17.6689L27.534 17.4632V18.3193V19.1753L27.2427 19.4871C26.2966 20.5001 23.4537 21.1554 20.4355 21.056L19.2702 21.0176L19.0871 21.201C18.7655 21.5231 18.8804 21.9491 19.3289 22.0973C19.6401 22.2001 22.1429 22.2019 23.0286 22.0998C25.7994 21.7806 27.862 20.8773 28.4744 19.7148L28.6444 19.3923L28.6615 12.5304C28.676 6.6116 28.6655 5.63056 28.5846 5.39281C28.161 4.14778 26.2815 3.19369 23.4728 2.79789C22.8396 2.70866 20.3012 2.63081 19.7607 2.68407ZM22.8883 3.85748C24.8759 4.07362 26.5341 4.63503 27.2326 5.32824C27.4834 5.57717 27.534 5.66659 27.534 5.86118C27.534 6.31075 27.1998 6.65723 26.3601 7.07857C24.2419 8.14121 20.0671 8.36542 17.1416 7.5737C15.7727 7.20326 14.7499 6.58414 14.6145 6.04409C14.4031 5.20044 16.3729 4.23179 18.9992 3.88786C19.7841 3.78503 22.0592 3.7673 22.8883 3.85748ZM15.2587 8.06673C15.7421 8.31051 16.7764 8.65591 17.4818 8.80894C20.6955 9.50629 24.647 9.18752 26.9153 8.04798L27.534 7.73722V8.53148C27.534 9.48354 27.4912 9.59215 26.9626 9.98185C26.3061 10.4659 25.2323 10.8428 23.7546 11.1079C23.0239 11.239 22.7343 11.2553 21.125 11.2564C19.6686 11.2574 19.1807 11.2351 18.6185 11.1419C16.5184 10.7935 15.0394 10.1438 14.6602 9.40302C14.6188 9.32218 14.5891 8.92893 14.5891 8.46132V7.65841L14.7636 7.7817C14.8595 7.84951 15.0824 7.97776 15.2587 8.06673ZM15.2108 11.2764C16.1231 11.7472 17.4122 12.1097 18.904 12.3149C19.6925 12.4234 22.4208 12.4256 23.219 12.3184C24.7386 12.1144 25.8952 11.7993 26.8518 11.3289L27.534 10.9935V11.8403V12.6872L27.3179 12.9257C26.1003 14.2695 21.7911 14.9431 18.2953 14.3361C16.4931 14.0231 15.027 13.3513 14.6801 12.6797C14.5834 12.4922 14.5436 10.9403 14.6367 10.9829C14.6628 10.9949 14.9212 11.1269 15.2108 11.2764ZM8.78292 15.7118C8.67822 15.7262 8.32128 15.7688 7.98973 15.8065C5.50386 16.089 3.44112 17.0296 2.84331 18.1531L2.6912 18.439L2.67172 22.0296C2.65808 24.5524 2.6735 25.6959 2.72369 25.8745C3.09028 27.1794 5.0784 28.1796 8.11664 28.5875C8.90152 28.6929 11.646 28.6931 12.3999 28.5878C15.2171 28.1945 17.072 27.35 17.6325 26.2054L17.8257 25.8109L17.828 22.2283C17.8307 18.0174 17.8609 18.2399 17.1967 17.5761C16.3592 16.7392 14.9027 16.1596 12.8123 15.8314C12.1788 15.7318 9.26543 15.6454 8.78292 15.7118ZM11.3529 16.8191C13.5657 16.9691 15.5 17.53 16.2996 18.2534C16.8287 18.7321 16.8568 19.0633 16.4065 19.5131C15.7576 20.1612 14.2146 20.7058 12.3047 20.9607C11.5095 21.0668 8.95717 21.0659 8.18009 20.9592C6.20308 20.6877 4.71194 20.1499 4.08982 19.4838C3.84197 19.2184 3.80167 19.1377 3.80167 18.9067C3.80167 18.6678 3.83657 18.6044 4.11679 18.3339C5.04254 17.4402 7.28442 16.8516 10.0838 16.7673C10.2757 16.7615 10.8468 16.7848 11.3529 16.8191ZM16.7466 21.5118C16.7466 22.2561 16.7338 22.3476 16.6023 22.543C15.9522 23.5091 13.6079 24.2194 10.8064 24.299C7.96168 24.3798 5.58807 23.8834 4.29155 22.9366C3.84501 22.6105 3.80167 22.4879 3.80167 21.5508C3.80167 21.1093 3.82312 20.7578 3.84927 20.7697C3.87541 20.7816 4.07777 20.8856 4.29885 21.001C7.39191 22.6147 13.5169 22.5782 16.3341 20.9293C16.5435 20.8067 16.722 20.7039 16.7307 20.7007C16.7394 20.6976 16.7466 21.0626 16.7466 21.5118ZM16.6766 25.6679C16.5818 25.897 16.1032 26.3204 15.7167 26.517C14.9766 26.8935 14.0241 27.185 12.9075 27.3768C11.9389 27.5432 9.60105 27.6094 8.54871 27.5002C6.53558 27.2914 4.83117 26.7281 4.12358 26.0379L3.80167 25.7239V24.8631V24.0024L4.35691 24.2889C5.28494 24.7677 6.47714 25.1027 7.99683 25.3117C8.98731 25.4479 11.3479 25.4651 12.3047 25.343C14.0655 25.1183 15.8961 24.5621 16.5879 24.0416C16.7129 23.9476 16.7151 23.958 16.7327 24.7174C16.744 25.2017 16.7231 25.5553 16.6766 25.6679Z"
      fill="#E50075" />
</g>
</svg>