<svg width="68" height="84" viewBox="0 0 68 84" fill="none" xmlns="http://www.w3.org/2000/svg">
<g clip-path="url(#clip0_659_6271)">
<path d="M54.6512 35.8605C54.5731 35.5871 54.4347 35.335 54.2464 35.1228C54.0581 34.9105 53.8247 34.7437 53.5636 34.6346C52.9296 34.3657 52.198 34.4699 51.5218 34.4297C50.1231 34.443 48.7262 34.5616 47.3305 34.6488C45.1986 34.827 43.1107 35.3175 40.9953 35.618C38.5954 35.9498 32.1325 36.7079 27.9753 36.7351C25.1917 36.8701 22.4107 37.0615 19.6238 37.1157C17.8704 37.2025 16.1169 37.2689 14.373 37.0163C15.8497 37.5307 17.3753 37.8898 18.9256 38.0879C20.8954 38.4335 22.8672 38.7665 24.8526 39.0105C25.231 39.0576 25.6048 39.1061 25.9767 39.1548C23.0539 39.285 20.1271 39.3027 17.2063 39.5015C17.9107 39.6694 18.6206 39.815 19.3318 39.9508C21.509 40.3366 23.6576 40.8809 25.8498 41.1794C29.3461 41.6047 32.8572 41.9766 36.3751 42.1583C40.0528 42.3422 43.7395 42.2044 47.3935 41.7464C49.1435 41.4693 51.0574 41.5312 52.6077 40.5631C53.6213 39.9338 53.8967 38.7309 54.2878 37.6739C54.322 37.5989 54.3529 37.5222 54.3918 37.4495C54.54 37.2162 54.6395 36.955 54.6841 36.6818C54.7287 36.4087 54.7175 36.1292 54.6512 35.8605Z" fill="#FFEAF5"/>
<path d="M7.17665 16.3887L6.66043 70.7401C6.62659 74.3027 9.74463 77.5971 13.2843 77.7386C25.0402 78.2084 36.7961 78.6782 48.5521 79.148C49.3889 79.1815 50.2081 78.9004 50.8501 78.3595C51.492 77.8187 51.9108 77.0568 52.0248 76.2224C52.1388 75.3879 51.9397 74.5407 51.4665 73.8458C50.9933 73.1509 50.2798 72.658 49.465 72.4633C42.5954 70.8216 35.5871 69.1227 29.6029 65.3534C23.6187 61.5842 18.733 55.3073 18.5026 48.2096C18.1275 36.6526 13.8796 25.2569 7.17665 16.3887Z" fill="#FFEAF5"/>
<path d="M67.3464 15.402C67.3217 12.824 67.3945 10.2466 67.4055 7.66876C67.3671 6.19959 67.5732 4.63634 67.0152 3.24636C66.2862 1.88884 64.514 1.8653 63.1748 1.60321C61.038 1.33176 60.2081 1.15849 58.4709 1.02126C49.8955 0.203966 41.2862 0.635243 32.6923 0.765687C26.198 0.846098 19.6427 0.617599 13.235 1.87503C7.32978 3.1095 5.98299 5.20244 4.96392 11.0076C4.83288 11.754 4.73066 12.5057 4.65165 13.2593C4.80305 12.7411 4.96093 12.2247 5.13234 11.7127C5.26319 11.3098 5.41843 10.8736 5.57716 10.4488C4.88581 13.2268 4.17959 16.0046 3.73209 18.8348C2.83645 24.2241 2.42111 29.6794 2.11553 35.1307C1.65317 43.1194 1.00749 51.1016 0.822327 59.1037C0.75552 63.819 0.988572 68.5315 1.12641 73.2437C1.23401 75.3657 1.25643 77.494 1.43945 79.6111C1.50875 83.8927 6.3814 83.1656 9.37576 83.1468C12.6169 83.006 15.8474 82.6658 19.0918 82.5859C21.6558 82.5054 24.2201 82.638 26.7846 82.6247C30.2129 82.6414 33.6351 82.3843 37.062 82.3353C41.0871 82.3816 45.114 82.1799 49.1372 82.3169C51.8091 82.4641 54.4655 82.8104 57.124 83.1057C58.5208 83.216 59.9208 83.5593 61.3237 83.4398C62.9465 83.3446 63.8601 81.7947 64.3787 80.4144C65.2623 78.3949 65.3061 76.1325 65.4528 73.9633C65.6252 70.5528 65.5186 67.1326 65.7815 63.726C66.0759 59.2731 66.6969 54.8502 67.0432 50.4019C67.3981 45.6277 67.4596 40.8376 67.5173 36.0522C67.6305 29.1681 67.3309 22.2863 67.3464 15.402ZM65.0648 49.2187C64.7287 54.0915 64.0069 58.9282 63.6751 63.8013C63.3421 68.1883 63.6302 74.0848 63.0966 77.4761C62.724 80.0489 61.5718 81.5464 61.1443 81.3969C59.7138 81.4387 58.2935 81.1104 56.8715 80.9797C53.5706 80.5996 50.264 80.1527 46.936 80.1555C43.3139 80.1898 39.6919 80.2166 36.0698 80.2359C33.5188 80.3122 30.9697 80.4504 28.4178 80.495C24.857 80.5623 21.2954 80.3323 17.7363 80.5102C13.3854 80.6171 5.20155 81.7786 3.80243 80.4257C3.78911 80.4042 3.7753 80.3829 3.76346 80.3605C3.68867 80.0916 3.63593 79.8169 3.60578 79.5393C3.55559 78.5593 3.36919 74.5247 3.32431 72.4515C3.23119 67.8457 3.01882 63.2386 3.14887 58.6314C3.36699 50.2673 3.95639 41.9201 4.37226 33.565C4.57325 28.8253 4.6045 24.0791 4.88095 19.3425C5.03509 16.212 5.43077 13.102 5.75287 9.98618C5.96856 9.42833 6.17701 8.92222 6.32641 8.58112C6.74302 7.55845 7.32307 6.61117 8.04361 5.77675C9.60191 4.34382 12.0086 4.15168 13.5425 3.937C18.127 3.55478 22.7319 3.43742 27.3305 3.37113C36.6291 3.34129 45.9237 2.55839 55.2198 3.08019C57.3358 3.17463 59.4477 3.35125 61.5523 3.59005C63.1936 3.82634 63.5254 3.73838 65.1257 4.22745C65.1322 4.23117 65.1393 4.2339 65.1458 4.23772C65.1987 4.38514 65.237 4.53743 65.2603 4.69239L65.2554 4.65639C65.3378 5.40939 65.3552 6.16773 65.3737 6.92452C65.3463 13.4726 65.3689 20.0205 65.4961 26.5681C65.6067 34.1184 65.5045 41.6797 65.0648 49.2187Z" fill="#2D2C4C"/>
<path d="M24.2424 16.958C23.6842 15.7094 22.5993 14.6387 21.2733 14.2628C20.7891 14.1582 20.2948 14.1073 19.7996 14.1111C20.3624 14.2299 20.9025 14.4392 21.399 14.7309C21.9096 15.0718 22.3447 15.515 22.6771 16.0328C23.0095 16.5506 23.2321 17.1318 23.3309 17.74C23.4579 19.3428 23.0704 20.6506 22.083 22.0315C20.6912 24.1537 18.1776 25.5089 16.5978 25.2005C14.638 24.8231 13.4246 22.7155 13.2831 20.4082C13.1301 18.6675 13.4453 16.9536 14.4754 15.4343C15.376 14.2394 16.7416 13.5685 17.9554 12.752C15.9787 13.4577 13.7846 14.2211 12.7582 16.2198C11.532 18.4448 11.1437 21.2589 12.0039 23.676C13.2267 27.0491 16.5659 28.5962 19.8024 26.891C22.1669 25.7229 23.8605 23.2811 24.494 20.7455C24.7173 19.493 24.7605 18.1449 24.2424 16.958Z" fill="#2D2C4C"/>
<path d="M47.6496 14.3419C43.1113 14.2179 38.5707 14.4864 34.0781 15.1446C37.9575 15.6599 41.8798 16.0898 45.7974 15.9257C48.7158 15.7757 51.5746 15.1354 54.4589 14.7128C52.9076 14.342 49.7503 14.3903 47.6496 14.3419Z" fill="#2D2C4C"/>
<path d="M55.3474 20.9305C50.5904 19.8831 45.7068 20.4722 40.9334 21.078C38.5693 21.3502 36.1869 21.3681 33.8145 21.5265C36.6156 22.1152 39.453 22.6433 42.3268 22.5552C46.4548 22.4708 50.0211 21.5865 53.4383 21.2928C54.3347 21.2077 55.2334 21.1514 56.1325 21.1059C55.8717 21.0443 55.61 20.9848 55.3474 20.9305Z" fill="#2D2C4C"/>
<path d="M48.611 26.5058C43.2222 26.0098 37.8626 27.0623 32.4922 27.3738C35.265 27.8799 38.0775 28.1339 40.8957 28.133C44.9877 28.0921 49.0523 27.5429 53.1283 27.2384C53.2962 27.2265 53.4643 27.2156 53.6319 27.2041C51.9763 26.855 50.2986 26.6216 48.611 26.5058Z" fill="#2D2C4C"/>
<path d="M51.9577 38.561C46.2183 37.9992 40.4472 38.2709 34.6944 38.409C27.0883 38.5229 19.4834 38.7647 11.877 38.8042C18.874 40.3075 26.0485 41.1118 33.2074 40.959C39.5086 40.6964 45.7265 39.5379 52.0017 38.9783C52.6726 38.9085 53.3446 38.8492 54.0163 38.7917C53.332 38.6991 52.6457 38.6221 51.9577 38.561Z" fill="#2D2C4C"/>
<path d="M49.7756 48.4206C44.7741 47.7483 39.7134 47.5867 34.6723 47.5156C27.5784 47.5189 20.5427 48.607 13.4609 48.9064C25.3446 50.8094 37.3909 49.3342 49.3071 48.5321C49.6454 48.4912 50.6556 48.5215 49.7756 48.4206Z" fill="#2D2C4C"/>
<path d="M52.2492 62.5824C49.8647 62.0103 47.4755 61.4312 45.0432 61.1033C42.6049 60.7733 40.1451 60.6403 37.695 60.4264C34.1944 60.1676 30.6875 59.9212 27.1755 59.9518C22.6924 60.0623 18.211 60.2388 13.7266 60.0714C18.058 61.218 21.8794 61.7722 26.212 62.132C29.26 62.3913 32.2998 62.7851 35.3604 62.8614C38.5202 62.9708 41.6792 62.8368 44.8368 62.73C47.1427 62.6815 49.4493 62.7288 51.7554 62.6946C52.1035 62.6657 53.1527 62.7635 52.2492 62.5824Z" fill="#2D2C4C"/>
<path d="M20.5366 18.9252C20.4553 18.6603 20.3592 18.4002 20.2575 18.1425C20.2494 18.592 20.2178 19.0408 20.1627 19.4869C19.9263 20.7199 19.5065 21.681 18.3515 22.1767C17.6728 22.4105 17.557 22.4683 16.8269 22.2529C16.6121 22.1318 16.3539 21.665 16.2464 21.4238C15.8185 20.143 15.7677 18.9537 15.8445 17.5789C15.9339 16.9501 15.8859 16.0364 16.588 15.7754C16.0993 15.774 15.8048 16.1739 15.5988 16.5734C15.2321 17.2854 14.9698 18.0472 14.8203 18.8349C14.137 21.6143 15.1224 25.1417 18.6197 23.8083C20.4959 23.0524 21.1816 20.7531 20.5366 18.9252Z" fill="#FFEAF5"/>
</g>
<defs>
<clipPath id="clip0_659_6271">
<rect width="66.7324" height="82.9296" fill="white" transform="translate(0.810547 0.535156)"/>
</clipPath>
</defs>
</svg>
