<svg viewBox="0 0 32 32"
     fill="none"
     xmlns="http://www.w3.org/2000/svg">
<g id="Icon / engineering">
<g id="Vector">
<path fill-rule="evenodd"
      clip-rule="evenodd"
      d="M6.05402 23.1938C8.35293 25.4391 11.5121 26.8235 15.0003 26.8235C18.5298 26.8235 21.7224 25.4062 24.0278 23.1138C23.6861 21.9945 22.9617 21.2281 22.12 20.6994C21.1354 20.081 20.0258 19.8168 19.33 19.7647H10.6285C9.29081 19.7647 8.22515 20.3769 7.39554 21.2306C6.7844 21.8595 6.33709 22.5866 6.05402 23.1938ZM4.66699 23.4632C5.19691 21.8382 7.13109 18.5882 10.6285 18.5882H19.3721C21.0943 18.701 24.6978 19.8338 25.3337 23.4632C22.7877 26.2489 19.1013 28 15.0003 28C10.8994 28 7.2129 26.2489 4.66699 23.4632Z"
      fill="#2D2C4C" />
<path fill-rule="evenodd"
      clip-rule="evenodd"
      d="M11.246 12.6667C11.4442 14.3015 13.0025 15.6471 15.0003 15.6471C16.9982 15.6471 18.5565 14.3015 18.7547 12.6667C19.0003 12.6667 19.3541 12.6667 19.9535 12.6667C19.7541 15.0357 17.5635 16.8235 15.0003 16.8235C12.4372 16.8235 10.2465 15.0357 10.0472 12.6667C10.3337 12.6667 11.0003 12.6667 11.246 12.6667Z"
      fill="#2D2C4C" />
<path fill-rule="evenodd"
      clip-rule="evenodd"
      d="M13.2119 5.2549C13.2119 4.93003 13.4788 4.66666 13.808 4.66666H15.7952C16.1244 4.66666 16.3914 4.93003 16.3914 5.2549V5.55792C18.3214 5.86964 19.6055 6.82769 20.4082 7.96279C21.1049 8.94789 21.4276 10.0481 21.5249 10.9412H21.7567C22.086 10.9412 22.3529 11.2045 22.3529 11.5294C22.3529 11.8543 21.9962 12.0279 21.667 12.0279H8.15417C7.82493 12.0279 7.64776 11.8543 7.64776 11.5294C7.64776 11.2045 7.91467 10.9412 8.24392 10.9412H8.47579C8.56913 10.0842 8.86997 9.03743 9.50861 8.08454C10.2478 6.98169 11.4307 6.02045 13.2119 5.63306V5.2549ZM13.2119 6.84382C11.8966 7.19269 11.0464 7.92282 10.5031 8.73349C10.0132 9.46453 9.76679 10.2721 9.67651 10.9412H13.2119V6.84382ZM14.4042 10.9412H15.199V5.84313H14.4042V10.9412ZM16.3914 10.9412H20.3241C20.2298 10.2417 19.9649 9.39179 19.4304 8.63602C18.8325 7.79055 17.8838 7.04127 16.3914 6.75305V10.9412Z"
      fill="#2D2C4C" />
</g>
</g>
</svg>