<svg width="676" height="512" viewBox="0 0 676 512" fill="none" xmlns="http://www.w3.org/2000/svg">
<g clip-path="url(#clip0_816_4997)">
<g opacity="0.8">
<path d="M577.062 177.176C589.99 124.892 540.199 87.9362 533.468 82.2551C504.208 61.2369 431.591 25.7823 373.354 66.0578C315.118 106.333 328.319 150.264 211.647 201.734C169.032 220.534 51.2449 259.808 103.752 367.128C166.688 495.761 323.605 472.893 388.611 454.03C453.617 435.167 468.39 355.029 502.655 300.186C536.92 245.342 564.135 229.46 577.062 177.176Z" fill="#F8FAFF"/>
<path d="M573.569 368.978C601.037 334.431 593.564 285.597 574.646 268.338C551.424 247.348 517.234 297.982 485.219 369.232C453.205 440.482 473.464 431.548 490.376 427.638C507.289 423.728 546.101 403.525 573.569 368.978Z" fill="#F8FAFF"/>
<path d="M108.891 132.291C140.225 35.9236 246.42 14.4304 295.601 15.7298C387.393 20.641 330.388 74.1097 293.77 122.794C250.494 180.33 66.0736 263.978 108.891 132.291Z" fill="#F8FAFF"/>
</g>
<path d="M309.362 350.083C312.766 351.447 318.655 354.028 318.655 349.174C318.655 347.136 316.989 346.975 315.411 346.447C309.483 344.289 304.418 340.248 300.989 334.937C294.793 325.758 293.361 316.594 293.361 305.611C293.361 281.301 326.736 276.902 326.736 252.577C326.736 243.266 320.891 240.538 320.891 237.914C320.891 236.242 321.417 236.242 323.083 236.242C329.118 236.242 337.505 246.33 340.062 251.257C341.489 253.813 342.12 256.739 341.874 259.659C341.874 264.967 341.348 270.421 341.348 275.788C341.348 296.242 365.43 290.788 365.43 280.934C365.43 276.389 362.712 272.137 362.712 267.738C362.712 267.21 362.712 266.829 363.252 266.829C365.81 266.829 370.339 272.694 371.625 274.483C376.009 281.227 378.04 290.245 378.04 298.265C378.04 322.811 355.771 335.391 355.771 340.699C355.771 341.447 357.963 346.564 364.904 342.166C387.334 330.729 405 306.095 405 274.131C405 248.676 398.424 230.421 380.758 211.55C377.836 208.442 368.381 198.75 363.778 198.75C357.583 198.75 369.214 212.841 369.214 222.386C369.289 223.63 369.1 224.875 368.659 226.04C368.218 227.204 367.536 228.262 366.657 229.142C365.779 230.022 364.724 230.705 363.563 231.146C362.401 231.586 361.16 231.774 359.921 231.697C351.153 231.697 348.976 212.459 347.924 206.477C343.54 180.861 338.25 162.386 312.854 150.334C305.007 146.551 285.295 141.389 285.295 148.677C285.295 150.495 287.341 151.771 288.773 152.533C295.714 156.771 303.575 168.75 303.575 181.477C303.575 216.404 260.001 248.295 260.001 284.658C259.855 315.186 281.218 339.658 309.303 349.966L309.362 350.083Z" fill="#E50075"/>
<path d="M234.426 351.222C235.834 351.776 238.271 352.823 238.271 350.853C238.271 350.026 237.582 349.961 236.929 349.747C234.476 348.871 232.38 347.231 230.961 345.076C228.397 341.351 227.805 337.632 227.805 333.176C227.805 323.31 241.615 321.525 241.615 311.654C241.615 307.876 239.196 306.769 239.196 305.704C239.196 305.026 239.414 305.026 240.103 305.026C242.6 305.026 246.071 309.12 247.129 311.119C247.72 312.156 247.981 313.343 247.879 314.528C247.879 316.682 247.661 318.895 247.661 321.073C247.661 329.374 257.626 327.16 257.626 323.162C257.626 321.317 256.501 319.592 256.501 317.807C256.501 317.592 256.501 317.438 256.725 317.438C257.783 317.438 259.658 319.818 260.19 320.544C262.004 323.281 262.844 326.94 262.844 330.195C262.844 340.155 253.629 345.26 253.629 347.414C253.629 347.718 254.536 349.794 257.408 348.009C266.69 343.368 274 333.372 274 320.401C274 310.072 271.279 302.664 263.969 295.006C262.76 293.745 258.847 289.812 256.943 289.812C254.379 289.812 259.192 295.53 259.192 299.403C259.223 299.908 259.145 300.413 258.962 300.886C258.78 301.358 258.498 301.787 258.134 302.145C257.771 302.502 257.334 302.779 256.853 302.958C256.373 303.136 255.859 303.213 255.346 303.181C251.719 303.181 250.818 295.375 250.382 292.947C248.568 282.552 246.379 275.055 235.871 270.164C232.624 268.629 224.467 266.535 224.467 269.492C224.467 270.23 225.313 270.747 225.906 271.057C228.778 272.776 232.031 277.638 232.031 282.802C232.031 296.975 214 309.917 214 324.673C213.94 337.061 222.78 346.992 234.401 351.175L234.426 351.222Z" fill="#FFC0E0"/>
<path d="M385.426 366.222C386.834 366.776 389.271 367.823 389.271 365.853C389.271 365.026 388.582 364.961 387.929 364.747C385.476 363.871 383.38 362.231 381.961 360.076C379.397 356.351 378.805 352.632 378.805 348.176C378.805 338.31 392.615 336.525 392.615 326.654C392.615 322.876 390.196 321.769 390.196 320.704C390.196 320.026 390.414 320.026 391.103 320.026C393.6 320.026 397.071 324.12 398.129 326.119C398.72 327.156 398.981 328.343 398.879 329.528C398.879 331.682 398.661 333.895 398.661 336.073C398.661 344.374 408.626 342.16 408.626 338.162C408.626 336.317 407.501 334.592 407.501 332.807C407.501 332.592 407.501 332.438 407.725 332.438C408.783 332.438 410.658 334.818 411.19 335.544C413.004 338.281 413.844 341.94 413.844 345.195C413.844 355.155 404.629 360.26 404.629 362.414C404.629 362.718 405.536 364.794 408.408 363.009C417.69 358.368 425 348.372 425 335.401C425 325.072 422.279 317.664 414.969 310.006C413.76 308.745 409.847 304.812 407.943 304.812C405.379 304.812 410.192 310.53 410.192 314.403C410.223 314.908 410.145 315.413 409.962 315.886C409.78 316.358 409.498 316.787 409.134 317.145C408.771 317.502 408.334 317.779 407.853 317.958C407.373 318.136 406.859 318.213 406.346 318.181C402.719 318.181 401.818 310.375 401.382 307.947C399.568 297.552 397.379 290.055 386.871 285.164C383.624 283.629 375.467 281.535 375.467 284.492C375.467 285.23 376.313 285.747 376.906 286.057C379.778 287.776 383.031 292.638 383.031 297.802C383.031 311.975 365 324.917 365 339.673C364.94 352.061 373.78 361.992 385.401 366.175L385.426 366.222Z" fill="#FFC0E0"/>
</g>
<defs>
<clipPath id="clip0_816_4997">
<rect width="676" height="512" fill="white"/>
</clipPath>
</defs>
</svg>
