<svg width="24" height="24" viewBox="0 0 24 24" fill="none" xmlns="http://www.w3.org/2000/svg">
<path fill-rule="evenodd" clip-rule="evenodd" d="M9.17255 0.978026C5.37222 2.0006 1.97495 5.43291 0.979634 9.25572C0.562778 10.8566 0.562778 13.7983 0.979634 15.3992C1.99385 19.2947 5.37944 22.6686 9.28553 23.6763C10.9406 24.1031 13.7894 24.1084 15.4044 23.6875C19.2979 22.6728 22.6701 19.2856 23.6773 15.3776C24.108 13.7066 24.108 10.9484 23.6773 9.27739C22.6701 5.36938 19.2979 1.98212 15.4044 0.967405C13.8482 0.561818 10.6992 0.567127 9.17255 0.978026ZM14.8996 2.73125C17.666 3.45383 19.9898 5.36003 21.2454 7.93697C24.1815 13.9626 20.517 21.0233 13.8737 22.1406C7.31783 23.2433 1.42367 17.3462 2.5258 10.7871C3.34422 5.91668 7.47944 2.36625 12.3341 2.36625C12.9765 2.36625 14.1311 2.53048 14.8996 2.73125ZM11.7395 3.23415C11.5728 3.40093 11.4847 4.28222 11.4847 5.78368V8.07826H9.89201C9.01605 8.07826 8.29934 8.01792 8.29934 7.94419C8.29934 7.87026 8.70218 7.05335 9.19485 6.12872C9.90306 4.79871 10.0426 4.37166 9.86207 4.08505C9.19782 3.02955 8.24179 3.7891 7.09783 6.28105L6.28196 8.0585L5.24205 8.1216C3.45613 8.22974 3.28604 9.55422 5.02948 9.77794L5.85725 9.88418V12.3275V14.7708L5.02948 14.877C3.27372 15.1022 3.45805 16.4261 5.2601 16.5336L6.31827 16.5965L6.78673 17.7276C7.58795 19.6614 8.43122 20.8259 9.03049 20.8259C10.0517 20.8259 10.0857 20.163 9.15195 18.4493C8.68626 17.5946 8.30401 16.8236 8.30232 16.736C8.30062 16.6485 9.01286 16.5767 9.88501 16.5767H11.4707L11.5308 18.9441C11.5811 20.9266 11.6514 21.3498 11.9625 21.5457C12.233 21.7161 12.4352 21.7161 12.7057 21.5457C13.0168 21.3498 13.0871 20.9266 13.1375 18.9441L13.1976 16.5767H14.6798H16.1623L15.8314 17.3734C15.6496 17.8117 15.2661 18.5267 14.9792 18.9624C14.6923 19.398 14.4577 19.8809 14.4577 20.0353C14.4577 20.459 14.9106 20.8259 15.4337 20.8259C15.9646 20.8259 16.914 19.4904 17.66 17.6947L18.1161 16.5965L19.2909 16.5336C20.131 16.4883 20.5323 16.3644 20.699 16.0987C21.0879 15.4789 20.6062 14.9926 19.5326 14.9206L18.5986 14.8581V12.3275V9.79685L19.5326 9.73439C20.6062 9.66236 21.0879 9.17604 20.699 8.55629C20.5325 8.29072 20.1312 8.16643 19.2945 8.1216L18.1232 8.05871L17.5396 6.68472C16.4719 4.17152 15.4396 3.14406 14.7125 3.87153C14.3233 4.26097 14.4054 4.82102 14.9792 5.69253C15.2661 6.12829 15.6496 6.84343 15.8314 7.28153L16.1623 8.07826H14.6728H13.1835V5.78368C13.1835 3.44937 13.041 2.9792 12.3341 2.9792C12.1472 2.9792 11.8797 3.09392 11.7395 3.23415ZM11.4847 12.3275V14.877H9.6013H7.71791L7.58625 14.0803C7.41806 13.0624 7.41806 11.5926 7.58625 10.5747L7.71791 9.77794H9.6013H11.4847V12.3275ZM16.8709 11.1058C16.9737 11.7914 16.9737 12.8635 16.8709 13.5491L16.6874 14.7708L14.9355 14.8324L13.1835 14.8942V12.3275V9.76074L14.9355 9.82256L16.6874 9.88418L16.8709 11.1058Z" fill="#E50075"/>
</svg>
