<svg viewBox="0 0 32 32"
     fill="none"
     xmlns="http://www.w3.org/2000/svg">
<g id="Icon / Handshake">
<path id="Vector"
      d="M31.7334 14.6918L27.5205 5.33334L22.9538 7.3835L23.2594 8.06689C22.2865 8.38045 21.2172 8.45281 20.1319 8.27593C19.4243 8.16337 18.7088 8.16337 18.0093 8.27593C17.4546 8.36437 16.8998 8.53321 16.3772 8.76636C16.136 8.87088 15.9029 8.99952 15.6697 9.14424L13.6356 10.1412C13.3221 10.0849 13.0085 10.0447 12.695 10.0286C11.5855 9.98038 10.5403 9.69095 9.63981 9.18444L10.074 8.58949L5.99775 5.66297L0 13.9923L4.06014 16.9188L4.49429 16.3238C5.26612 17.0153 5.86911 17.9157 6.26306 18.9529C6.29522 19.0413 6.32738 19.1217 6.36758 19.2102L5.85303 19.9177C5.33848 20.6332 5.49928 21.6382 6.21483 22.1528C6.44798 22.3216 6.70526 22.41 6.97057 22.4422C6.97057 22.5226 6.97861 22.603 6.98665 22.6834C7.05901 23.1015 7.28413 23.4713 7.62984 23.7286C7.9032 23.9296 8.23283 24.0341 8.56247 24.0341C8.61071 24.0341 8.65091 24.0341 8.69915 24.0261C8.78759 24.3959 9.00466 24.7175 9.31822 24.9426C9.59961 25.1436 9.92925 25.2481 10.2508 25.2481C10.4197 25.2481 10.5885 25.224 10.7493 25.1677C10.8619 25.417 11.0388 25.634 11.2639 25.7948C11.5372 25.9958 11.8669 26.1003 12.1965 26.1003C12.2849 26.1003 12.3734 26.0923 12.4538 26.0762C12.8799 26.0039 13.2497 25.7787 13.499 25.433L13.8205 24.9828L15.3562 25.8672C15.6295 26.028 15.935 26.1003 16.2245 26.1003C16.6988 26.1003 17.1571 25.9074 17.4787 25.5375C17.6556 25.3285 17.7842 25.0873 17.8485 24.822C18.1621 24.9265 18.4917 24.9506 18.8294 24.8944C19.3761 24.8059 19.8505 24.5084 20.1721 24.0582C20.3811 23.7607 20.5178 23.415 20.5499 23.0613C20.566 22.9005 20.566 22.7397 20.5419 22.5869C21.1047 22.5548 21.6434 22.3055 22.0132 21.8553C22.3267 21.4774 22.4875 21.0191 22.4875 20.5367C22.6081 20.5448 22.7207 20.5367 22.8413 20.5126C23.2835 20.4403 23.6694 20.1991 23.9267 19.8373C24.1438 19.5318 24.2804 19.178 24.3206 18.8001C24.3206 18.7841 24.3206 18.7599 24.3287 18.7439C24.4412 18.5991 24.5457 18.4464 24.6422 18.2936C25.2291 17.361 25.9929 16.6133 26.8693 16.0907L27.1667 16.7419L31.7334 14.6918ZM30.246 14.129L27.7376 15.2545L24.4493 7.9463L26.9577 6.82071L30.246 14.129ZM6.25502 7.23879L8.49011 8.84676L4.08426 14.9571L3.80286 15.351L1.56778 13.743L6.25502 7.23879ZM6.76958 20.5769L7.46905 19.6041L7.50925 19.5478C7.52533 19.5237 7.54944 19.4996 7.56552 19.4835C7.58964 19.4674 7.60572 19.4433 7.62984 19.4353C7.62984 19.4353 7.63788 19.4353 7.63788 19.4272C7.662 19.4112 7.68612 19.4031 7.71024 19.387H7.71828C7.7424 19.379 7.77456 19.371 7.80672 19.3629H7.81476C7.83084 19.3629 7.85496 19.3549 7.87104 19.3549C7.87908 19.3549 7.88712 19.3549 7.88712 19.3549C7.9032 19.3549 7.92732 19.3549 7.9434 19.3629C7.95144 19.3629 7.95948 19.3629 7.96752 19.3629C7.9836 19.3629 7.99968 19.371 8.01576 19.371C8.0238 19.371 8.0238 19.371 8.03184 19.379C8.04792 19.387 8.07204 19.3951 8.08812 19.4031C8.09616 19.4031 8.09616 19.4112 8.1042 19.4112C8.12028 19.4192 8.1444 19.4353 8.16047 19.4433C8.28107 19.5318 8.35343 19.6684 8.35343 19.8132C8.35343 19.8373 8.35343 19.8534 8.35343 19.8775C8.35343 19.9016 8.34539 19.9257 8.34539 19.9418C8.32931 19.9981 8.30519 20.0544 8.27303 20.1026L7.53337 21.1317C7.38061 21.3407 7.08313 21.389 6.87409 21.2362C6.66506 21.0835 6.61682 20.786 6.76958 20.5769ZM8.29715 22.812C8.19264 22.7397 8.12832 22.6271 8.1042 22.5065C8.08008 22.3779 8.11224 22.2573 8.1846 22.1528L9.84081 19.8534C9.91317 19.7488 10.0257 19.6845 10.1463 19.6604C10.1704 19.6604 10.1946 19.6524 10.2187 19.6524H10.2267C10.2508 19.6524 10.2669 19.6524 10.291 19.6604H10.2991C10.3152 19.6604 10.3393 19.6684 10.3554 19.6765H10.3634C10.3875 19.6845 10.4036 19.6926 10.4197 19.7006C10.4277 19.7006 10.4277 19.7086 10.4358 19.7086C10.4518 19.7167 10.476 19.7328 10.492 19.7408C10.5966 19.8132 10.6609 19.9257 10.685 20.0463C10.693 20.0865 10.693 20.1267 10.685 20.175C10.685 20.2071 10.677 20.2473 10.6609 20.2795C10.6609 20.2875 10.6609 20.2955 10.6528 20.2955C10.6448 20.3036 10.6448 20.3197 10.6368 20.3277C10.6368 20.3357 10.6287 20.3438 10.6287 20.3518C10.6207 20.3599 10.6126 20.3759 10.6126 20.384C10.6046 20.392 10.6046 20.4001 10.5966 20.4081L8.94034 22.7075C8.86799 22.812 8.75543 22.8763 8.63483 22.9005C8.52227 22.9165 8.39363 22.8924 8.29715 22.812ZM9.97749 24.0261C9.87297 23.9537 9.80865 23.8411 9.78453 23.7205C9.76041 23.5919 9.79257 23.4713 9.86493 23.3668L11.5211 21.0674C11.5372 21.0433 11.5533 21.0272 11.5774 21.0031C11.5855 20.995 11.5855 20.995 11.5935 20.987C11.6096 20.9709 11.6337 20.9548 11.6578 20.9387C11.6659 20.9387 11.6659 20.9307 11.6739 20.9307C11.69 20.9227 11.7141 20.9066 11.7382 20.8985C11.7463 20.8985 11.7463 20.8985 11.7543 20.8905C11.7784 20.8825 11.8025 20.8744 11.8347 20.8664C11.8427 20.8664 11.8508 20.8664 11.8588 20.8583C11.8669 20.8583 11.8669 20.8583 11.8749 20.8583C11.891 20.8583 11.899 20.8583 11.9151 20.8583H11.9231C11.9473 20.8583 11.9714 20.8583 11.9875 20.8664C11.9875 20.8664 11.9875 20.8664 11.9955 20.8664C12.0196 20.8664 12.0357 20.8744 12.0598 20.8825H12.0679C12.092 20.8905 12.1081 20.8985 12.1322 20.9066C12.1322 20.9066 12.1402 20.9066 12.1402 20.9146C12.1563 20.9227 12.1804 20.9387 12.1965 20.9468C12.2287 20.9709 12.2608 21.0031 12.2849 21.0352C12.3493 21.1156 12.3895 21.2121 12.3895 21.3166C12.3895 21.3407 12.3895 21.3568 12.3895 21.3809C12.3814 21.4211 12.3734 21.4613 12.3653 21.5015C12.3653 21.5096 12.3573 21.5096 12.3573 21.5176C12.3412 21.5498 12.3251 21.5819 12.3091 21.6141L10.6528 23.9135C10.484 24.1306 10.1865 24.1788 9.97749 24.0261ZM12.2769 24.9587C12.1483 24.9828 12.0277 24.9506 11.9231 24.8783C11.8186 24.8059 11.7543 24.6934 11.7302 24.5728C11.7061 24.4441 11.7382 24.3235 11.8106 24.219L12.5502 23.1899C12.5583 23.1738 12.5744 23.1658 12.5824 23.1577C12.5904 23.1497 12.6065 23.1336 12.6146 23.1256C12.6226 23.1175 12.6387 23.1095 12.6548 23.0934C12.6628 23.0854 12.6789 23.0773 12.6869 23.0693C12.703 23.0613 12.7191 23.0532 12.7352 23.0452C12.7432 23.0371 12.7593 23.0371 12.7673 23.0291C12.7995 23.0211 12.8236 23.013 12.8558 23.005C12.8799 23.005 12.904 22.9969 12.9281 22.9969C12.9362 22.9969 12.9362 22.9969 12.9442 22.9969C12.9683 22.9969 12.9844 22.9969 13.0085 23.005C13.0166 23.005 13.0166 23.005 13.0246 23.005C13.0407 23.005 13.0648 23.013 13.0809 23.0211H13.0889C13.105 23.0291 13.1291 23.0371 13.1452 23.0452C13.1532 23.0452 13.1532 23.0532 13.1613 23.0532C13.1774 23.0613 13.2015 23.0773 13.2176 23.0854C13.3542 23.1819 13.4266 23.3507 13.4105 23.5195C13.4025 23.5999 13.3703 23.6803 13.3221 23.7527L12.5824 24.7818C12.51 24.8702 12.4055 24.9426 12.2769 24.9587ZM23.2031 18.6876C23.187 18.8645 23.1227 19.0333 23.0182 19.178C22.9297 19.2986 22.8091 19.371 22.6644 19.3951C22.5197 19.4192 22.375 19.387 22.2624 19.2986L21.6353 18.8484L20.4052 17.964C20.156 17.7791 19.8022 17.8434 19.6173 18.0926C19.4324 18.3419 19.4967 18.6956 19.7459 18.8805L20.976 19.7649C21.1851 19.9177 21.3218 20.1508 21.362 20.4081C21.3941 20.6654 21.3218 20.9227 21.1529 21.1317C20.8474 21.5096 20.2525 21.5658 19.8344 21.2684L19.7138 21.1799L19.7057 21.1719L18.1862 20.0785C17.937 19.8936 17.5832 19.9579 17.3983 20.2071C17.2134 20.4563 17.2777 20.8101 17.5269 20.995L19.0465 22.0884C19.3118 22.2814 19.4565 22.611 19.4243 22.9487C19.4083 23.1175 19.352 23.2703 19.2555 23.3989C19.1108 23.5999 18.8937 23.7366 18.6445 23.7768C18.3952 23.817 18.146 23.7607 17.945 23.608L17.2053 23.0773C17.2053 23.0773 17.1973 23.0773 17.1973 23.0693L15.7582 22.0322C15.5089 21.8472 15.1552 21.9116 14.9703 22.1608C14.7853 22.41 14.8497 22.7638 15.0989 22.9487L16.538 23.9859C16.6667 24.0743 16.739 24.211 16.7551 24.3637C16.7712 24.5165 16.7229 24.6692 16.6265 24.7898C16.4576 24.9828 16.1602 25.023 15.9109 24.8783L14.4396 24.0341C14.4477 24.01 14.4557 23.9939 14.4637 23.9698C14.4637 23.9617 14.4718 23.9457 14.4718 23.9376C14.4798 23.9135 14.4879 23.8894 14.4879 23.8653C14.4879 23.8572 14.4959 23.8492 14.4959 23.8411C14.5039 23.817 14.5039 23.7849 14.512 23.7607C14.512 23.7527 14.512 23.7447 14.52 23.7366C14.5281 23.7045 14.5281 23.6643 14.5361 23.6321C14.5924 23.0613 14.3431 22.5065 13.8768 22.1688C13.8366 22.1367 13.7964 22.1126 13.7562 22.0884C13.7402 22.0804 13.7321 22.0724 13.716 22.0643C13.6839 22.0482 13.6598 22.0322 13.6276 22.0161C13.6115 22.008 13.5954 22 13.5794 21.992C13.5472 21.9759 13.5231 21.9678 13.4909 21.9598C13.4748 21.9518 13.4588 21.9437 13.4427 21.9437C13.4346 21.9437 13.4186 21.9357 13.4105 21.9357V21.9276C13.4186 21.9116 13.4266 21.8874 13.4346 21.8714C13.4427 21.8553 13.4427 21.8472 13.4507 21.8312C13.4588 21.807 13.4668 21.791 13.4668 21.7668C13.4668 21.7508 13.4748 21.7427 13.4748 21.7266C13.4829 21.7025 13.4829 21.6784 13.4909 21.6543C13.4909 21.6462 13.499 21.6302 13.499 21.6221C13.507 21.59 13.507 21.5498 13.515 21.5176C13.5713 20.9468 13.3221 20.392 12.8558 20.0544C12.8156 20.0222 12.7673 19.9981 12.7271 19.974C12.711 19.9659 12.703 19.9579 12.6869 19.9498C12.6548 19.9338 12.6226 19.9177 12.5904 19.9016C12.5744 19.8936 12.5663 19.8936 12.5502 19.8855C12.5181 19.8694 12.4859 19.8614 12.4457 19.8453C12.4296 19.8373 12.4216 19.8373 12.4055 19.8292C12.3653 19.8212 12.3332 19.8051 12.293 19.7971C12.2849 19.7971 12.2689 19.789 12.2608 19.789C12.2206 19.781 12.1804 19.773 12.1402 19.7649C12.1322 19.7649 12.1241 19.7649 12.1161 19.7649C12.0759 19.7569 12.0277 19.7569 11.9875 19.7569C11.9794 19.7569 11.9714 19.7569 11.9714 19.7569C11.9231 19.7569 11.8749 19.7569 11.8347 19.7569H11.8267C11.8186 19.7569 11.8106 19.7569 11.8025 19.7569C11.8025 19.7488 11.7945 19.7408 11.7945 19.7328C11.7865 19.7006 11.7784 19.6684 11.7704 19.6363C11.7704 19.6202 11.7623 19.6122 11.7543 19.5961C11.7463 19.5639 11.7302 19.5318 11.7141 19.4996C11.7141 19.4916 11.7061 19.4835 11.7061 19.4755C11.69 19.4353 11.6739 19.4031 11.6498 19.3629C11.6417 19.3549 11.6417 19.3468 11.6337 19.3308C11.6176 19.3066 11.6015 19.2745 11.5855 19.2504C11.5774 19.2423 11.5694 19.2262 11.5613 19.2182C11.5372 19.186 11.5211 19.1539 11.497 19.1298L11.489 19.1217C11.4649 19.0896 11.4327 19.0574 11.4086 19.0252C11.4005 19.0172 11.3925 19.0092 11.3845 19.0011C11.3603 18.977 11.3362 18.9529 11.3121 18.9368C11.3041 18.9288 11.296 18.9207 11.2799 18.9127C11.2478 18.8886 11.2156 18.8564 11.1754 18.8323C10.8297 18.5831 10.4036 18.4785 9.98553 18.5509C9.93729 18.5589 9.88905 18.567 9.84885 18.5831C9.84081 18.5831 9.82473 18.5911 9.81669 18.5911C9.77649 18.5991 9.73629 18.6152 9.69609 18.6313C9.68805 18.6313 9.68805 18.6313 9.68001 18.6393C9.63981 18.6554 9.59157 18.6715 9.55137 18.6956C9.54333 18.7037 9.52726 18.7037 9.51922 18.7117C9.48706 18.7278 9.44686 18.7519 9.4147 18.768C9.40666 18.776 9.39862 18.776 9.39058 18.776C9.35038 18.8001 9.31822 18.8243 9.27802 18.8564C9.26998 18.8645 9.26194 18.8725 9.2539 18.8805C9.23782 18.8886 9.22978 18.9046 9.2137 18.9127C9.18958 18.8805 9.16546 18.8484 9.14134 18.8162C9.1333 18.8082 9.12526 18.8001 9.11722 18.7921C9.10114 18.768 9.07702 18.7439 9.06094 18.7278C9.0529 18.7197 9.04486 18.7117 9.02878 18.6956C9.00466 18.6715 8.98858 18.6554 8.96446 18.6393C8.95642 18.6313 8.94838 18.6233 8.9323 18.6152C8.90014 18.5911 8.86798 18.567 8.83583 18.5429C8.79563 18.5187 8.75543 18.4866 8.71523 18.4705C8.70719 18.4625 8.69111 18.4544 8.68307 18.4464C8.65091 18.4303 8.61875 18.4142 8.58659 18.3981C8.57855 18.3901 8.56247 18.3901 8.55443 18.3821C8.51423 18.366 8.48207 18.3499 8.44187 18.3338C8.42579 18.3258 8.40167 18.3177 8.38559 18.3177C8.36147 18.3097 8.34539 18.3017 8.32127 18.3017C8.28911 18.2936 8.24891 18.2856 8.21675 18.2775C8.19264 18.2695 8.17656 18.2695 8.15244 18.2695C8.12832 18.2695 8.1042 18.2615 8.08008 18.2615C8.064 18.2615 8.03988 18.2615 8.0238 18.2534C7.99164 18.2534 7.95144 18.2534 7.91928 18.2534C7.89516 18.2534 7.863 18.2534 7.83888 18.2534C7.81476 18.2534 7.79868 18.2534 7.77456 18.2615C7.7424 18.2615 7.71024 18.2695 7.68612 18.2695C7.67808 18.2695 7.662 18.2695 7.65396 18.2695C7.64592 18.2695 7.63788 18.2695 7.62984 18.2775C7.59768 18.2856 7.56552 18.2936 7.52533 18.3017C7.50925 18.3097 7.48513 18.3097 7.46905 18.3177C7.43689 18.3258 7.40473 18.3338 7.38061 18.3499C7.35649 18.3579 7.33237 18.366 7.30825 18.374C7.29217 18.3821 7.27609 18.3901 7.25197 18.3981C6.77762 17.2243 6.06207 16.2193 5.1616 15.4395L8.98054 10.1412C9.73629 10.5914 10.5805 10.905 11.4809 11.0658L10.9986 15.8173C10.9262 16.5329 11.4488 17.168 12.1563 17.2404C12.8236 17.3047 13.4668 17.1118 13.9813 16.6937C14.4959 16.2756 14.8175 15.6726 14.8899 15.0133L15.0185 13.7672C15.6697 13.743 16.3049 13.5501 16.8677 13.2205L22.8252 17.8193C22.8654 17.8514 22.8895 17.8755 22.9137 17.8916L22.9217 17.8997C22.9297 17.9077 22.9458 17.9238 22.9538 17.9318L22.9699 17.9479C22.978 17.9559 22.978 17.964 22.986 17.964L23.0021 17.9801C23.0101 17.9881 23.0182 17.9961 23.0262 18.0042L23.0744 18.0765C23.0986 18.1087 23.1146 18.1409 23.1227 18.165L23.1307 18.1811C23.1388 18.1971 23.1468 18.2052 23.1468 18.2213C23.1548 18.2373 23.1629 18.2534 23.1629 18.2695C23.1709 18.2856 23.1709 18.3017 23.179 18.3177L23.195 18.366C23.2031 18.4062 23.2111 18.4464 23.2192 18.4785V18.4946C23.2192 18.5107 23.2192 18.5268 23.2272 18.5429V18.5509V18.5911C23.2111 18.6072 23.2111 18.6474 23.2031 18.6876ZM23.9347 17.3369L23.9267 17.3208C23.9026 17.2886 23.8865 17.2645 23.8704 17.2484C23.8704 17.2484 23.8704 17.2404 23.8624 17.2404C23.8543 17.2324 23.8463 17.2243 23.8382 17.2082C23.8302 17.2002 23.8302 17.2002 23.8222 17.1922C23.8061 17.1761 23.798 17.16 23.782 17.1439C23.7578 17.1118 23.7257 17.0876 23.7016 17.0635C23.6935 17.0555 23.6855 17.0474 23.6774 17.0394C23.6694 17.0314 23.6694 17.0314 23.6614 17.0233C23.6533 17.0153 23.6533 17.0153 23.6453 17.0072C23.6051 16.9751 23.5649 16.9349 23.5086 16.8947L16.8837 11.7813L16.538 12.0386C15.9672 12.4647 15.2677 12.6657 14.5522 12.5933L13.9894 12.5371L13.7562 14.8606C13.716 15.2224 13.5392 15.552 13.2578 15.7852C12.9764 16.0183 12.6146 16.1229 12.2528 16.0827C12.1563 16.0746 12.092 15.9862 12.1 15.8977L12.502 11.9502L15.3803 10.5351L16.1762 10.1412L16.2245 10.1171C16.4335 9.98842 16.6345 9.88391 16.8355 9.79547C17.2697 9.60251 17.7279 9.45779 18.1862 9.38543C18.7651 9.28896 19.36 9.28896 19.9469 9.38543C21.2494 9.60251 22.5438 9.49799 23.7176 9.10404L26.3949 15.0616C25.4462 15.6083 24.602 16.3801 23.9347 17.3369Z"
      fill="#2D2C4C" />
<path id="Vector_2"
      d="M28.3564 14.4991C28.3886 14.4991 28.4127 14.5071 28.4449 14.5071C28.6378 14.5071 28.8227 14.4428 28.9675 14.3222C29.1363 14.1775 29.2489 13.9845 29.273 13.7594C29.2971 13.5343 29.2328 13.3172 29.0881 13.1484C28.9433 12.9795 28.7504 12.867 28.5253 12.8428C28.3001 12.8187 28.0831 12.883 27.9142 13.0278C27.7454 13.1725 27.6328 13.3654 27.6087 13.5906C27.5685 14.0488 27.9062 14.4589 28.3564 14.4991ZM28.1715 13.6468C28.1795 13.5745 28.2117 13.5102 28.268 13.4619C28.3162 13.4217 28.3725 13.3976 28.4368 13.3976C28.4449 13.3976 28.4529 13.3976 28.4609 13.3976C28.5333 13.4056 28.5976 13.4378 28.6459 13.4941C28.6941 13.5504 28.7102 13.6227 28.7021 13.6951C28.6941 13.7674 28.6619 13.8317 28.6057 13.88C28.5494 13.9282 28.477 13.9443 28.4047 13.9363C28.268 13.9282 28.1635 13.7916 28.1715 13.6468Z"
      fill="#2D2C4C" />
<path id="Vector_3"
      d="M4.17275 13.6142C4.22099 13.1559 3.88331 12.7459 3.42504 12.6977C3.19993 12.6735 2.98285 12.7379 2.81401 12.8826C2.64517 13.0273 2.53262 13.2203 2.5085 13.4454C2.46026 13.9036 2.79793 14.3137 3.2562 14.3619C3.28836 14.3619 3.31248 14.37 3.34464 14.37C3.77076 14.3619 4.13255 14.0403 4.17275 13.6142ZM3.07933 13.5017C3.08737 13.4293 3.11953 13.365 3.17581 13.3167C3.22405 13.2765 3.28032 13.2524 3.34464 13.2524C3.35268 13.2524 3.36072 13.2524 3.36876 13.2524C3.51348 13.2685 3.62604 13.3971 3.60996 13.5499C3.59388 13.6946 3.46524 13.8072 3.31248 13.7911C3.16777 13.783 3.06325 13.6544 3.07933 13.5017Z"
      fill="#2D2C4C" />
</g>
</svg>