<svg width="35" height="36" viewBox="0 0 35 36" fill="none" xmlns="http://www.w3.org/2000/svg">
    <path fill-rule="evenodd" clip-rule="evenodd"
          d="M25.8139 30.992C23.4536 32.4751 20.6606 33.3328 17.6674 33.3328C14.5469 33.3328 11.6441 32.4006 9.22231 30.7996L13.8533 26.1686C15.0116 26.7104 16.3041 27.013 17.6673 27.013C18.8985 27.013 20.0721 26.7662 21.1411 26.3193L25.8139 30.992ZM12.1028 25.0907L7.61513 29.5784C6.85197 28.9152 6.155 28.1779 5.53546 27.3777L10.0667 22.8464C10.615 23.7045 11.3046 24.4635 12.1028 25.0907ZM2.33398 17.9994C2.33398 20.801 3.08534 23.4271 4.39753 25.6872L9.11601 20.9687L9.17534 21.028C8.8378 20.0815 8.65399 19.0621 8.65399 17.9997C8.65399 16.7684 8.90089 15.5947 9.34789 14.5256L4.67491 9.85257C3.19176 12.2129 2.33398 15.006 2.33398 17.9994ZM5.86315 8.21239L10.3653 12.7146C10.9268 11.9401 11.6085 11.2585 12.3831 10.697L7.88081 6.1948C7.1475 6.80343 6.47181 7.47909 5.86315 8.21239ZM9.52105 5.00662C11.8813 3.52366 14.6742 2.66602 17.6674 2.66602C20.469 2.66602 23.0951 3.41738 25.3552 4.72959L20.6372 9.44752L20.6983 9.50864C19.7511 9.17048 18.7307 8.98633 17.6673 8.98633C16.4364 8.98633 15.2631 9.23307 14.1942 9.6798L9.52105 5.00662ZM27.4541 29.8038C28.1874 29.1952 28.8631 28.5195 29.4717 27.7862L24.9698 23.2843C24.4083 24.0588 23.7267 24.7404 22.9522 25.3019L27.4541 29.8038ZM25.9871 21.4731L30.6599 26.146C32.143 23.7857 33.0007 20.9927 33.0007 17.9994C33.0007 14.8789 32.0686 11.9762 30.4676 9.55438L25.8363 14.1856C26.3781 15.344 26.6807 16.6365 26.6807 17.9997C26.6807 19.2307 26.4339 20.4042 25.9871 21.4731ZM29.2463 7.9472C28.5832 7.18403 27.8459 6.48706 27.0457 5.86752L22.5141 10.3991C23.3722 10.9474 24.1312 11.637 24.7584 12.4351L29.2463 7.9472ZM35.0007 17.9994C35.0007 27.5723 27.2403 35.3328 17.6674 35.3328C8.0944 35.3328 0.333984 27.5723 0.333984 17.9994C0.333984 8.42643 8.0944 0.666016 17.6674 0.666016C27.2403 0.666016 35.0007 8.42643 35.0007 17.9994ZM24.6807 17.9997C24.6807 21.8731 21.5407 25.013 17.6673 25.013C13.794 25.013 10.654 21.8731 10.654 17.9997C10.654 14.1263 13.794 10.9863 17.6673 10.9863C21.5407 10.9863 24.6807 14.1263 24.6807 17.9997Z"
          fill="#2D2C4C"/>
</svg>
