<svg width="458" height="283" viewBox="0 0 458 283" fill="none" xmlns="http://www.w3.org/2000/svg">
    <g id="Group 799">
        <g id="Group 795">
            <path id="Vector" d="M22.2485 118.921C39.9461 106.657 52.3136 89.7827 59.4023 71.7449C47.2858 85.0451 31.0397 104.505 22.2485 118.921Z" fill="#B1BDD2" />
            <path id="Vector_2" d="M52.8228 120.652C65.0047 111.453 73.936 99.214 79.4767 86.3452C70.8895 96.0744 59.2935 110.257 52.8228 120.652Z" fill="#B1BDD2" />
            <path id="Intersect" d="M34.3692 106.867L35.1014 107.18C27.6072 113.677 22.9873 124.639 25.2907 130.981C26.1989 133.893 30.5163 135.411 35.3579 133.673C39.9572 132.236 45.0819 128.481 49.742 125.047C44.9895 130.15 39.5433 135.954 32.3016 137.691C20.6627 140.251 17.4726 130.37 21.2675 121.823C23.1693 117.45 26.1724 113.155 30.1489 109.72C31.4539 108.645 32.8708 107.687 34.3692 106.867Z" fill="#B1BDD2" />
        </g>
        <g id="Group 798">
            <path id="Vector_3" d="M325.303 108.052C301.246 98.0216 287.646 81.4884 283.086 62.4174C297.66 74.9086 316.573 93.5222 325.303 108.052Z" fill="#B1BDD2" />
            <path id="Vector_4" d="M281.971 108.369C263.131 96.0676 249.763 79.4334 241.897 61.8017C254.915 74.9704 272.409 94.2011 281.971 108.369Z" fill="#B1BDD2" />
            <path id="Vector_5" d="M81.8601 116.808C107.387 107.417 121.052 90.9123 124.68 71.4359C109.668 83.7365 90.3568 102.176 81.8601 116.808Z" fill="#B1BDD2" />
            <path id="Vector_6" d="M225.832 110.242C209.938 102.297 202.328 85.8564 201.489 65.4638C210.306 77.3331 221.442 95.38 225.832 110.242Z" fill="#B1BDD2" />
            <path id="Vector_7" d="M146.197 114.267C162.011 106.258 169.617 89.8152 170.507 69.4625C161.715 81.3507 150.6 99.4147 146.197 114.267Z" fill="#B1BDD2" />
            <path id="Vector_8" d="M320.249 114.215C233.353 121.149 138.702 124.009 50.2701 123.646C129.797 120.072 243.073 115.668 320.249 114.215Z" fill="#B1BDD2" />
            <path id="Vector_9" d="M291.155 62.2155C215.502 69.4862 133.122 72.7099 56.1718 72.6867C125.394 68.8056 223.989 63.9654 291.155 62.2155Z" fill="#B1BDD2" />
            <path id="Intersect_2" d="M312.802 96.4069L312.043 96.6919C320.052 103.163 325.159 113.885 322.901 119.968C322.02 122.764 317.534 124.129 312.419 122.329C307.566 120.825 302.105 117.066 297.139 113.628C302.243 118.683 308.09 124.434 315.719 126.291C327.975 129.053 331.077 119.567 326.893 111.202C324.794 106.923 321.543 102.692 317.293 99.2712C315.9 98.1987 314.392 97.2372 312.802 96.4069Z" fill="#B1BDD2" />
            <path id="Intersect_3" d="M269.617 96.6179L268.499 97.999C276.508 104.47 280.257 111.916 277.999 117.999C277.118 120.795 273.613 122.799 268.499 120.999C263.645 119.496 258.92 117.277 253.954 113.839C259.057 118.894 264.905 124.645 272.534 126.502C284.79 129.264 287.891 119.778 283.707 111.413C281.608 107.134 278.357 102.903 274.107 99.4822C272.714 98.4097 271.206 97.4482 269.617 96.6179Z" fill="#B1BDD2" />
            <path id="Intersect_4" d="M92.4714 105.618L93.2309 105.903C85.2212 112.374 80.1141 123.096 82.3727 129.179C83.2533 131.975 87.7395 133.34 92.8541 131.54C97.7076 130.036 103.168 126.277 108.134 122.839C103.031 127.894 97.1834 133.645 89.5543 135.502C77.2983 138.264 74.1969 128.778 78.3809 120.413C80.4799 116.134 83.7308 111.903 87.9805 108.482C89.3738 107.41 90.8816 106.448 92.4714 105.618Z" fill="#B1BDD2" />
            <path id="Intersect_5" d="M220.807 102.618L220.388 102.903C224.801 109.374 225.743 116.416 224.499 122.499C224.014 125.296 221.542 126.66 218.724 124.86C216.05 123.356 214.913 123.277 212.178 119.839C214.989 124.894 218.211 130.645 222.414 132.502C229.166 135.264 230.875 125.778 228.57 117.413C227.413 113.134 225.622 108.903 223.281 105.482C222.513 104.41 221.683 103.448 220.807 102.618Z" fill="#B1BDD2" />
            <path id="Intersect_6" d="M151.482 103.618L151.901 103.903C147.488 110.374 144.674 121.096 145.919 127.179C146.404 129.975 148.875 131.34 151.693 129.54C154.367 128.036 157.376 124.277 160.112 120.839C157.3 125.894 154.078 131.645 149.875 133.502C143.123 136.264 141.414 126.778 143.719 118.413C144.876 114.134 146.667 109.903 149.008 106.482C149.776 105.41 150.607 104.448 151.482 103.618Z" fill="#B1BDD2" />
        </g>
        <path id="Vector_10" d="M151.088 147.171C143.829 148.599 137.254 150.811 130.238 152.522C121.999 154.661 119.934 154.798 106.562 157.762C104.219 158.421 102.028 159.213 100.031 160.125C90.4025 164.665 96.6632 171.697 96.3756 177.485C96.485 179.135 96.5036 180.785 96.4891 182.435C94.8166 184.144 93.1787 185.861 91.4933 187.566C87.8196 191.521 82.3353 195.327 82 199.842C83.2061 210.451 100.26 211.349 117.025 210.916C132.431 210.633 148.771 210.814 163.054 207.473C174.886 204.367 177.303 197.44 177.34 191.192C178.065 185.085 178.915 178.976 179 172.855C178.708 164.099 179.177 144.997 151.088 147.171Z" fill="#FBE5F0" />
        <path id="Vector_11" d="M188.489 167.914C185.534 148.895 105.414 157.197 89.1 161.984C82.9982 163.995 76.7017 165.806 71.0737 168.574C68.1268 170.218 64.9918 172.008 63.8367 174.828C62.5554 177.993 62.762 181.409 62.0176 184.665C60.9274 190.995 58.2771 204.663 57 213.483C61.4619 202.805 66.0514 192.152 69.8617 181.316C70.1668 180.314 70.8787 178.567 71.1348 177.99C71.6691 177.285 71.5855 177.217 72.1926 176.794C77.3044 174.33 77.4784 174.575 82.7216 173.117C91.4421 170.88 158.135 160.616 171.306 165.809C178.299 169.728 176.427 178.154 176.169 187.371C175.944 194.315 176.74 211.951 176.169 218.884C176.175 219.813 175.863 220.725 175.268 221.527C167.207 227.769 152.893 230.69 142.059 230.717C156.355 233.423 163.385 231.335 172.153 229.164C177.331 227.297 180.655 227.463 183.188 223.386C186.641 216.104 186.038 197.394 187.525 189.753C188.336 182.511 189.77 175.167 188.489 167.914Z" fill="#B1BDD2" />
        <path id="Vector_12" d="M234.857 156.019C224.5 156.019 208.859 155.165 203.271 165.013C201.051 169.538 200.924 243.438 200.413 248.367C199.84 255.281 199.863 262.23 200.482 269.139C200.515 273.171 205.89 274.598 207.54 270.762C207.873 269.501 207.962 268.188 207.802 266.894C208.094 263.514 208.575 257.676 209.12 254.027C209.206 253.43 209.284 252.796 209.306 252.582C209.513 251.055 209.375 251.806 210.123 246.95C210.911 242.317 211.5 170.453 212.608 169.164C213.801 166.72 230.81 166.114 235.306 165.013C237.777 169.292 239.239 245.956 240.414 256.216C241.083 262.209 241.757 268.201 242.527 274.183C242.733 272.386 242.947 270.587 243.136 268.788C244.167 258.453 244.412 178.717 244.5 168.33C244.103 162.029 243.5 156.019 234.857 156.019Z" fill="#B1BDD2" />
        <path id="Vector_13" d="M311.558 42.9692C311.558 42.9692 311.558 22.4992 296.357 22.9992C281.156 23.4992 181.012 29.3587 121.715 37.1151C70.8824 42.1049 48.2134 44.4989 44.999 63.499C43.5608 72 42.9989 76.5 44.999 81.999C49.4993 37.1151 161.745 41.811 210.914 36.6934C226.616 36.7934 300.834 26.716 296.357 34.6823C303.412 42.9692 300.887 66.4591 298.499 73.9996C305.999 57.9996 307.499 54.9995 311.558 42.9692Z" fill="#B1BDD2" />
        <path id="Vector_14" d="M30 283C37.7222 234.973 36.2569 180.013 45.282 132C45.282 132 50 146.411 50 168.265C50 190.119 39.6299 247.47 30 283Z" fill="#B1BDD2" />
        <path id="Vector_15" d="M293.093 123.392C283.043 171.31 279.764 218.047 278.253 266.707C293.569 223.215 300.714 169.075 293.093 123.392Z" fill="#B1BDD2" />
        <g id="Group 785">
            <g id="undraw_handcrafts_small_tree 1">
                <path id="Vector_16" d="M367.726 174.886C368.299 168.443 369.462 162.066 371.199 155.836C367.785 162.043 365.082 168.615 363.141 175.428C360.124 185.477 358.553 195.992 359.049 206.492C359.299 214.958 360.442 223.46 363.473 231.409C364.34 233.593 365.129 235.871 366.509 237.792C366.277 237.151 366.104 236.49 365.992 235.817C365.529 233.088 365.213 230.335 365.044 227.572C364.303 216.635 365.557 205.707 366.097 194.788C366.414 188.137 367.014 181.505 367.726 174.886Z" fill="#FBE5F0" />
                <path id="Vector_17" d="M387.659 201.739C387.066 193.311 385.597 184.963 383.899 176.694C381.142 163.609 376.499 144.962 372.524 137.037C371.251 134.066 367.429 134.423 366.66 137.598C365.486 142.323 364.285 147.041 363.059 151.754C360.465 161.988 357.59 172.189 356.084 182.656C354.853 191.552 354.589 200.6 355.716 209.521C356.358 214.355 357.155 219.231 358.886 223.807C361.28 229.929 365.549 235.139 369.228 240.555C368.997 243.941 368.894 247.338 368.877 250.73C368.716 256.619 368.59 262.51 368.66 268.4C369.699 263.766 370.683 259.11 371.455 254.422C371.67 254.192 371.884 253.961 372.096 253.729C372.378 253.682 372.645 253.574 372.881 253.414C373.117 253.254 373.316 253.045 373.464 252.801C375.2 250.566 376.023 249.446 377.158 247.954C377.974 247.078 379.08 246.072 378.361 245.071C377.873 244.447 377.208 244.535 376.659 244.897C376.801 244.581 376.946 244.267 377.087 243.951C376.32 244.902 375.563 245.861 374.814 246.827C374.406 247.321 374.017 247.832 373.642 248.354C373.095 249.081 372.556 249.815 372.037 250.563C372.285 248.749 372.497 246.93 372.658 245.104C373.323 235.865 373.725 226.607 373.863 217.331C373.865 216.933 373.868 216.535 373.871 216.137C372.922 219.061 372.125 222.032 371.44 225.028C370.319 230.006 369.589 235.065 369.259 240.158C366.478 234.063 363.278 228.791 361.658 222.702C360.446 217.472 360.162 212.336 359.94 206.068C359.787 199.45 359.898 192.815 360.689 186.236C361.594 177.217 366.728 159.515 370.475 145.722C372.422 151.137 373.906 156.715 375.285 162.298C377.247 170.044 379.085 177.828 380.425 185.709C381.916 195.173 383.286 202.995 383.192 213.593C382.878 218.22 381.979 224.258 379.943 229.963C378.978 232.682 376.985 235.918 374.728 238.493C374.566 238.685 374.401 238.874 374.238 239.065C376.119 237.721 377.838 236.163 379.359 234.422C381.954 231.378 383.68 227.696 384.933 223.923C385.937 220.845 386.897 217.731 387.369 214.522C387.89 210.281 387.987 205.999 387.659 201.739Z" fill="#B1BDD2" />
            </g>
            <g id="undraw_handcrafts_small_tree 2">
                <path id="Vector_18" d="M419.238 223.969C419.569 220.191 420.24 216.452 421.244 212.798C419.272 216.438 417.711 220.291 416.591 224.286C414.849 230.179 413.941 236.345 414.228 242.502C414.372 247.466 415.032 252.451 416.782 257.112C417.283 258.392 417.738 259.728 418.535 260.855C418.401 260.479 418.301 260.091 418.237 259.697C417.969 258.096 417.787 256.482 417.689 254.862C417.262 248.449 417.985 242.041 418.298 235.638C418.48 231.738 418.827 227.85 419.238 223.969Z" fill="#FBE5F0" />
                <path id="Vector_19" d="M430.746 239.714C430.404 234.772 429.556 229.877 428.576 225.029C426.983 217.356 424.303 206.422 422.007 201.775C421.272 200.033 419.065 200.242 418.621 202.104C417.943 204.874 417.25 207.641 416.542 210.404C415.044 216.405 413.384 222.387 412.514 228.525C411.804 233.741 411.652 239.047 412.302 244.278C412.673 247.112 413.133 249.971 414.132 252.655C415.515 256.244 417.98 259.299 420.104 262.475C419.971 264.461 419.911 266.453 419.902 268.441C419.809 271.894 419.736 275.349 419.776 278.803C420.376 276.085 420.944 273.355 421.39 270.606C421.514 270.471 421.638 270.336 421.76 270.2C421.923 270.172 422.077 270.109 422.213 270.015C422.35 269.921 422.464 269.798 422.55 269.656C423.553 268.345 424.028 267.688 424.683 266.814C425.154 266.3 425.793 265.71 425.378 265.123C425.096 264.757 424.712 264.808 424.395 265.021C424.477 264.836 424.561 264.651 424.642 264.466C424.199 265.024 423.762 265.586 423.33 266.152C423.094 266.442 422.869 266.742 422.653 267.048C422.337 267.475 422.026 267.905 421.726 268.344C421.869 267.28 421.992 266.213 422.085 265.142C422.469 259.725 422.701 254.296 422.781 248.857C422.782 248.624 422.783 248.39 422.785 248.157C422.237 249.871 421.777 251.613 421.381 253.37C420.734 256.29 420.313 259.256 420.122 262.242C418.516 258.668 416.668 255.577 415.733 252.006C415.033 248.939 414.869 245.928 414.741 242.253C414.653 238.372 414.717 234.481 415.174 230.624C415.696 225.335 418.661 214.956 420.824 206.868C421.948 210.043 422.805 213.313 423.602 216.587C424.734 221.129 425.796 225.694 426.57 230.315C427.431 235.864 428.222 240.451 428.167 246.665C427.986 249.378 427.467 252.919 426.291 256.264C425.734 257.858 424.583 259.756 423.28 261.266C423.187 261.379 423.091 261.49 422.997 261.601C424.083 260.813 425.076 259.9 425.954 258.879C427.452 257.094 428.449 254.935 429.173 252.722C429.752 250.918 430.307 249.092 430.579 247.21C430.88 244.723 430.936 242.212 430.746 239.714Z" fill="#B1BDD2" />
            </g>
            <g id="undraw_handcrafts_small_tree 3">
                <path id="Vector_20" d="M441.264 199.678C441.732 194.335 442.683 189.048 444.104 183.881C441.311 189.028 439.1 194.477 437.513 200.127C435.045 208.46 433.76 217.179 434.166 225.886C434.37 232.906 435.305 239.956 437.784 246.547C438.493 248.358 439.139 250.247 440.268 251.841C440.078 251.309 439.936 250.76 439.845 250.202C439.466 247.939 439.207 245.657 439.069 243.366C438.463 234.296 439.489 225.235 439.931 216.18C440.19 210.665 440.681 205.166 441.264 199.678Z" fill="#FBE5F0" />
                <path id="Vector_21" d="M457.567 221.945C457.082 214.956 455.88 208.034 454.491 201.177C452.236 190.327 448.438 174.864 445.186 168.293C444.145 165.83 441.018 166.125 440.389 168.758C439.429 172.676 438.447 176.589 437.444 180.496C435.322 188.983 432.97 197.442 431.738 206.121C430.731 213.498 430.516 221 431.437 228.398C431.962 232.406 432.615 236.449 434.03 240.244C435.988 245.32 439.481 249.64 442.49 254.132C442.301 256.94 442.217 259.756 442.203 262.569C442.071 267.452 441.969 272.337 442.026 277.221C442.876 273.378 443.681 269.518 444.312 265.63C444.488 265.44 444.663 265.248 444.837 265.056C445.067 265.016 445.285 264.927 445.478 264.794C445.671 264.661 445.834 264.488 445.955 264.286C447.375 262.433 448.048 261.504 448.977 260.267C449.644 259.541 450.549 258.706 449.961 257.876C449.562 257.358 449.018 257.431 448.569 257.732C448.685 257.47 448.803 257.209 448.919 256.947C448.292 257.736 447.672 258.531 447.06 259.332C446.726 259.742 446.407 260.166 446.101 260.598C445.653 261.202 445.212 261.81 444.788 262.43C444.99 260.926 445.165 259.418 445.296 257.904C445.84 250.242 446.169 242.565 446.282 234.874C446.284 234.544 446.286 234.214 446.288 233.884C445.512 236.308 444.86 238.772 444.3 241.256C443.382 245.384 442.786 249.579 442.515 253.802C440.241 248.749 437.623 244.376 436.297 239.328C435.306 234.99 435.074 230.732 434.892 225.535C434.767 220.047 434.858 214.545 435.506 209.089C436.246 201.611 440.445 186.932 443.511 175.495C445.103 179.985 446.316 184.61 447.445 189.239C449.049 195.663 450.553 202.118 451.65 208.652C452.869 216.5 453.99 222.986 453.913 231.774C453.656 235.611 452.921 240.618 451.255 245.349C450.466 247.603 448.836 250.287 446.989 252.421C446.857 252.581 446.722 252.738 446.588 252.896C448.127 251.781 449.533 250.49 450.778 249.046C452.9 246.522 454.312 243.469 455.337 240.34C456.158 237.788 456.944 235.205 457.33 232.544C457.756 229.028 457.835 225.477 457.567 221.945Z" fill="#B1BDD2" />
            </g>
        </g>
    </g>
</svg>
    