<svg width="2560" height="240" viewBox="0 0 2560 240" fill="none" xmlns="http://www.w3.org/2000/svg">
    <g id="Frame 627" clip-path="url(#clip0_460_3504)">
        <path id="Subtract" d="M0 5.03723V240H1280H2560V5.03724C2291.32 146.268 1818.46 240 1280 240C741.535 240 268.682 146.268 0 5.03723Z" fill="white" />
        <path id="Intersect" d="M1280 236.5C861.761 236.5 483.179 179.934 209.208 88.5196C130.24 62.1709 59.9907 32.9361 0 1.34229V4.73146C59.8719 36.1433 129.803 65.1877 208.258 91.3653C482.61 182.906 861.528 239.5 1280 239.5C1698.47 239.5 2077.39 182.906 2351.74 91.3653C2430.2 65.1877 2500.13 36.1433 2560 4.73143V1.34229C2500.01 32.9361 2429.76 62.1709 2350.79 88.5196C2076.82 179.934 1698.24 236.5 1280 236.5Z" fill="#E50075" />
        <g id="Intersect_2" opacity="0.2">
            <path d="M1950.05 185.997C1937.26 171.826 1920.43 160.558 1897.13 153.827C1833.1 135.329 1770.72 163.484 1706.74 192.361C1681.03 203.97 1655.05 215.696 1628.6 224.553C1741.11 215.713 1848.78 202.688 1950.05 185.997Z" fill="#C7DBEE" />
            <path d="M1490.51 233.159C1421.71 236.35 1351.43 238 1280 238C1161.15 238 1045.49 233.433 934.523 224.797C985.727 175.723 1056.11 137.237 1135.12 126.219C1212.91 115.371 1282 147.749 1352.19 180.642C1397 201.642 1442.25 222.852 1490.51 233.159Z" fill="#C7DBEE" />
        </g>
        <path id="Intersect_3" opacity="0.04" d="M1830.76 203.559C1660.06 225.796 1474.3 238 1280 238C1095.48 238 918.662 226.993 755.125 206.84C786.905 185.945 822.971 169.426 862.532 159.327C945.603 138.123 1029.18 165.521 1114.1 193.356C1186.33 217.034 1259.52 241.027 1334.18 235.69C1398.61 231.085 1453.36 197.2 1506.99 164.013C1570.65 124.615 1632.72 86.2023 1707.5 98.9296C1773.05 110.087 1803.43 154.678 1830.76 203.559Z" fill="#FB2392" />
    </g>
    <defs>
        <clipPath id="clip0_460_3504">
            <rect width="2560" height="240" fill="white" />
        </clipPath>
    </defs>
</svg>
    