<svg width="22" height="24" viewBox="0 0 22 24" fill="none" xmlns="http://www.w3.org/2000/svg">
<path d="M5.19914 6.62391H0.414062V23.7107H5.19914V6.62391Z" fill="white"/>
<path d="M16.5625 6.62391C13.2237 6.62391 12.6495 7.86636 12.3768 9.06488V6.62391H7.59168V23.7107H12.3768V13.9468C12.3768 12.3638 13.2177 11.5058 14.7693 11.5058C16.2838 11.5058 17.1618 12.3455 17.1618 13.9468V23.7107H21.9469V15.1673C21.9469 10.2854 21.3236 6.62391 16.5625 6.62391Z" fill="white"/>
<path d="M2.8066 5.40342C4.12796 5.40342 5.19914 4.31056 5.19914 2.96245C5.19914 1.61434 4.12796 0.521484 2.8066 0.521484C1.48524 0.521484 0.414062 1.61434 0.414062 2.96245C0.414062 4.31056 1.48524 5.40342 2.8066 5.40342Z" fill="white"/>
</svg>
