<svg width="50" height="88" viewBox="0 0 50 88" fill="none" xmlns="http://www.w3.org/2000/svg">
<g clip-path="url(#clip0_183_2420)">
<path d="M32.5682 1.14267C46.09 2.65908 54.6301 20.6399 47.3172 32.1958C40.0043 43.7517 20.2162 43.5449 13.1429 31.8387C6.06954 20.1324 15.0468 -0.822283 32.5682 1.14267Z" fill="#FFC0E0"/>
<path d="M18.6664 79.9648C13.4091 80.0961 13.4227 87.854 18.6664 87.9996C23.924 87.8684 23.9103 80.1105 18.6664 79.9648Z" fill="black"/>
<path d="M40.032 15.6578C37.3848 5.5348 28.0304 -1.4831 17.5564 0.268264C11.7657 1.10974 6.84481 5.31455 3.63749 10.0675C0.681162 14.5293 -0.371476 19.9922 0.113214 25.2908C0.831125 33.5947 3.28086 41.6632 6.84628 49.1642C9.60761 54.6693 12.9381 59.8615 16.0519 65.1705C15.9855 65.2905 15.9224 65.4125 15.8557 65.5325C14.5813 67.966 13.3831 70.4392 12.0936 72.8646C12.3624 72.5655 12.6362 72.2701 12.8967 71.9631C20.9188 62.3803 28.9284 52.6974 35.2876 41.8816C39.7484 34.0939 42.3125 24.5457 40.032 15.6578ZM31.6491 31.0773C29.9541 37.9817 28.492 40.3475 25.3689 46.944C22.4705 52.9324 19.5083 58.8858 16.3 64.7123C14.0049 58.0869 11.1902 51.6331 9.44842 44.8313C7.0537 35.3573 5.6673 23.6712 8.20248 17.7484C10.8187 12.8524 11.6333 12.7323 14.3101 10.5902C17.2448 8.84541 15.642 9.44701 18.9968 8.63423C19.5236 8.57011 20.054 8.54028 20.5846 8.54491C20.8436 8.5679 20.9999 8.58004 21.1053 8.58684C22.4324 8.80529 23.7285 9.1843 24.9655 9.71565C29.9599 12.5274 34.4054 19.0201 31.6491 31.0773H31.6491Z" fill="black"/>
<path d="M23.1038 23.2134C22.4739 22.5888 21.7089 22.1197 20.8688 21.8429C21.3968 22.2903 21.8446 22.8257 22.1926 23.4257C23.7114 25.8928 22.6067 29.4295 19.7071 29.9264C13.9923 30.6821 19.0189 22.243 19.7648 19.8018C17.7644 22.3858 14.8777 24.992 14.8018 28.481C14.8801 31.8277 18.1802 33.3946 21.0567 32.1176C24.7217 30.7949 25.8746 26.01 23.1038 23.2134Z" fill="black"/>
</g>
<defs>
<clipPath id="clip0_183_2420">
<rect width="50" height="88" fill="white"/>
</clipPath>
</defs>
</svg>
