<svg viewBox="0 0 87 159" fill="none" xmlns="http://www.w3.org/2000/svg">
    <g id="undraw_handcrafts_lock 1" clip-path="url(#clip0_283_3112)">
        <path id="Vector" d="M68.246 112.269C65.1763 110.287 61.0738 111.115 57.7248 112.585C54.3757 114.054 51.1755 116.121 47.535 116.502C39.767 117.314 33.5328 110.403 29.389 103.822C25.4527 97.5712 21.3328 90.4138 14.4521 88.0312C14.9982 102.029 18.6467 115.735 25.1372 128.169C28.2037 134.026 32.001 139.683 37.348 143.599C42.6955 147.516 49.8245 149.468 56.1414 147.426C65.3059 144.464 70.0952 134.35 71.6153 124.892C72.3476 120.335 72.1396 114.784 68.246 112.269Z" fill="#FFEAF5" />
        <path id="Vector_2" d="M86.0222 75.9363C83.7802 75.8032 81.5406 75.6387 79.3019 75.4624C79.2823 74.7476 79.2604 74.0329 79.2491 73.3181C79.1986 71.934 79.1445 70.55 79.0868 69.166C78.7898 71.1057 78.4892 73.2089 78.1925 75.3712C65.8296 74.3673 53.5023 72.8966 41.0986 72.4861C30.161 72.2042 19.2172 72.717 8.3547 74.0204C8.33512 73.762 8.3129 73.5048 8.29399 73.2461C8.26346 73.5093 8.23726 73.7739 8.20771 74.0375C5.46694 74.3513 2.73103 74.6981 0 75.078C2.66179 75.4055 5.32624 75.735 7.99334 76.0666C5.5519 100.761 8.61291 127.114 25.8215 146.302C29.4521 150.041 33.6448 153.198 38.2497 155.66C43.3632 158.454 49.455 160.124 55.149 158.121C68.1115 153.692 74.3078 132.991 76.8757 120.815C78.3173 113.85 79.5942 106.814 79.9506 99.702C80.1697 92.2789 79.6231 84.8616 79.3613 77.4412C81.6013 77.073 83.837 76.6777 86.0634 76.236C87.1004 76.0178 87.5235 76.0354 86.0222 75.9363ZM75.6993 95.0559C74.574 103.128 72.0911 110.927 69.5613 118.655C66.6543 127.244 65.4168 130.899 60.4337 139.035C57.2104 143.614 57.979 143.412 54.2277 146.734C53.8898 146.973 53.5379 147.191 53.1738 147.388C52.9113 147.527 52.7115 147.63 52.5502 147.712C52.1386 147.864 51.7178 147.991 51.2902 148.09C51.0967 148.125 50.9351 148.155 50.8024 148.18C50.4543 148.208 50.1065 148.248 49.7567 148.247C49.4092 148.24 49.0615 148.229 48.7144 148.209C47.9227 148.045 47.1454 147.82 46.3897 147.534C46.2888 147.495 46.188 147.456 46.0871 147.417C45.2153 147.004 43.3453 146.121 42.731 145.735C39.6837 144.138 36.8136 142.228 34.1679 140.035C28.0021 134.436 26.7958 132.463 22.337 125.906C12.9642 111.452 9.99212 94.1245 8.52036 76.1309C27.0752 78.4116 45.7433 80.4596 64.4349 79.1175C68.9392 78.8712 73.4274 78.3886 77.8806 77.6718C77.0274 84.0584 76.2326 90.6704 75.6993 95.0559Z" fill="#2D2C4C" />
        <path id="Vector_3" d="M55.1851 12.335C52.6514 7.13673 48.5942 2.50447 42.9669 0.604535C37.1346 -1.45165 30.7458 1.97569 28.079 7.28168C25.1783 12.6573 24.5086 18.853 24.1363 24.8515C23.4955 39.7059 27.4429 53.5592 28.5682 67.75C30.3151 55.2958 29.5375 37.4373 30.9847 28.2283C32.4489 16.973 36.078 9.84919 38.2619 9.6767C38.3336 9.66237 38.3718 9.65427 38.4295 9.64248C38.478 9.64223 38.5261 9.64487 38.5742 9.64577C38.7733 9.6903 38.9758 9.72049 39.1706 9.78175C39.372 9.84788 39.5688 9.92695 39.7685 9.99811C40.0433 10.1252 40.3062 10.2758 40.5726 10.4191C44.0339 12.7453 42.4433 11.5644 45.0772 14.5797C49.2518 20.818 51.907 27.9369 52.8326 35.3722C54.6877 45.6771 55.1327 54.2455 56.3144 65.4423C56.3542 65.8023 56.3901 66.1627 56.4259 66.5224C56.7717 64.5259 57.0697 62.5214 57.3827 60.5197C59.5971 44.6665 62.7414 27.2516 55.1851 12.335Z" fill="#2D2C4C" />
        <path id="Vector_4" d="M44.2343 92.5703C37.0676 92.7468 37.0862 103.182 44.2343 103.378C51.4013 103.201 51.3824 92.7661 44.2343 92.5703Z" fill="#2D2C4C" />
        <path id="Vector_5" d="M46.9134 125.013C47.0615 120.867 46.7813 116.718 46.0771 112.629C45.4572 117.638 44.4228 123.153 45.7044 128.04C46.2968 128.369 46.6157 128.084 46.78 127.514L46.7839 127.515C46.7846 127.508 46.7843 127.501 46.7849 127.493C46.9427 126.676 46.986 125.842 46.9134 125.013Z" fill="#2D2C4C" />
    </g>
    <defs>
        <clipPath id="clip0_283_3112">
            <rect width="87" height="159" fill="white" />
        </clipPath>
    </defs>
</svg>
    