<svg width="44" height="96" viewBox="0 0 44 96" fill="none" xmlns="http://www.w3.org/2000/svg">
<g clip-path="url(#clip0_183_2429)">
<path d="M33.8043 64.168C34.4814 67.5938 31.4511 71.2455 27.9485 71.2248C25.6221 71.2111 23.3074 71.5888 20.981 71.5891C18.6545 71.5894 16.224 71.1649 14.3826 69.7477C12.5411 68.3304 11.4847 65.7235 12.4077 63.5947C7.58244 72.0331 4.53829 81.3655 3.46217 91.0191C3.42148 91.3865 3.51895 91.7559 3.73572 92.0557C3.95248 92.3556 4.27314 92.5647 4.63562 92.6425C4.99811 92.7203 5.37666 92.6613 5.69802 92.4769C6.01937 92.2925 6.26069 91.9958 6.37526 91.6443L12.8122 71.8944C11.8352 72.9916 13.1323 74.7101 14.5193 75.2007C15.9064 75.6913 17.5818 75.7676 18.5092 76.9069C21.9875 81.1802 29.0621 81.8993 33.3341 78.4139C37.6061 74.9284 38.2974 67.8731 33.8043 64.168Z" fill="#FFC0E0"/>
<path d="M18.7571 25.25C17.8063 25.2735 17.8088 26.6621 18.7571 26.6881C19.7079 26.6646 19.7054 25.2761 18.7571 25.25Z" fill="black"/>
<path d="M32.4309 25.0371C31.4801 25.0606 31.4826 26.4492 32.4309 26.4752C33.3818 26.4517 33.3793 25.0632 32.4309 25.0371Z" fill="black"/>
<path d="M15.4453 18.8342C16.5303 18.9376 17.6249 18.8662 18.6871 18.6226C17.6019 18.5409 16.5106 18.6121 15.4453 18.8342Z" fill="black"/>
<path d="M28.6914 18.3021C30.2226 18.5444 32.0876 18.6278 33.4766 18.392C31.9023 18.0549 30.2774 18.0243 28.6914 18.3021Z" fill="black"/>
<path d="M25.9149 32.5723C25.209 33.3069 24.5602 34.3065 25.0406 35.3373C24.9003 34.3227 25.5148 33.4538 25.9149 32.5723Z" fill="black"/>
<path d="M31.3753 37.2834C30.983 37.8959 30.5138 38.4559 29.9792 38.9499C28.3346 40.4101 26.3648 41.1745 24.0563 41.0361C22.9083 40.9866 21.7926 40.5924 20.6797 40.2392C21.6729 40.8572 22.6997 41.4665 23.8599 41.7055C26.6252 42.318 29.166 41.2367 30.7075 38.8838C31.0444 38.3228 31.3081 37.7213 31.4922 37.0938C31.4531 37.1568 31.4146 37.2204 31.3753 37.2834Z" fill="black"/>
<path d="M40.183 32.2674C40.175 32.2128 40.1668 32.1582 40.1589 32.1037C40.1409 32.4749 40.1153 32.8456 40.0852 33.216C39.9854 34.3833 39.8549 35.5434 39.7171 36.4667C39.1268 41.3076 38.0822 43.4512 34.771 46.6431C33.1687 48.24 31.5352 49.1707 29.2359 50.2744C28.2112 50.756 26.2161 51.3174 24.8794 51.2698C23.642 51.2622 22.8762 51.0439 21.4019 50.6834C19.1244 49.9572 17.2324 49.2116 15.127 47.6186C14.7164 47.274 14.3216 46.9132 13.9452 46.5317C13.3624 45.9465 12.8126 45.3295 12.2983 44.6836C11.7822 44.015 11.3799 43.2663 11.1075 42.4675C10.2385 39.7079 9.74166 37.6313 9.73932 35.0565C9.74223 33.7338 9.83693 32.3964 10.4243 31.1875C9.76737 32.182 9.3582 33.3186 9.2309 34.5026C8.80371 36.7812 9.05894 39.1148 9.52175 41.3678C9.75161 42.3933 10.029 43.4237 10.5198 44.3591C11.0721 45.3018 11.7334 46.1768 12.4903 46.9658C14.4459 49.2205 17.0529 50.6414 19.8289 51.653C23.7917 53.0878 26.6318 53.0263 29.9848 51.5516C29.6889 52.9643 29.4413 54.3876 29.2867 55.8228C29.1155 57.7698 29.0487 59.7245 29.0866 61.6785C29.9738 58.5746 30.2287 54.8792 30.2187 51.4474C30.8348 51.1665 31.4688 50.8394 32.1315 50.4649C33.8903 49.5287 35.4203 48.2228 36.7829 46.7819C38.896 44.7202 40.2767 42.2162 40.4352 39.2344C40.5826 36.9095 40.4981 34.5757 40.183 32.2674Z" fill="black"/>
<path d="M43.4465 18.5089C43.4725 18.0236 43.5643 17.5414 43.4249 17.0633C43.2354 16.2513 43.1385 16.148 42.822 15.31C42.5983 14.734 42.3112 14.1715 42.1741 13.5669C42.2756 13.2974 42.5544 12.5032 42.5221 11.7792C42.4296 10.7435 42.2539 10.6209 42.63 9.60409C42.7602 8.92624 42.8705 8.1741 42.5488 7.53354C41.7284 6.23028 40.2086 5.62371 39.0174 4.72026C36.7021 2.82541 38.7996 2.81525 34.048 2.38373C33.1282 2.26858 32.6159 2.28267 32.2219 2.04744C32.2166 2.04443 32.214 2.04284 32.2093 2.04016C31.6187 1.53511 30.9146 1.1796 30.1567 1.00383C29.1259 0.818012 28.0699 0.857259 27.0322 0.724697C26.8508 0.706201 26.671 0.674952 26.4941 0.631183C26.3197 0.605221 26.1515 0.547247 25.9983 0.460197C25.3574 0.00423729 24.5221 -0.082112 23.7632 0.0671499C22.0276 0.624458 20.3101 1.96275 18.9602 2.33754C18.8644 2.36635 18.7671 2.38959 18.6687 2.40714C18.632 2.40976 18.5951 2.41011 18.5583 2.40819C18.5066 2.39838 18.4556 2.38527 18.4056 2.36896C17.8304 2.09125 17.1956 1.95832 16.557 1.9818C15.6895 1.9739 14.8704 2.36507 14.228 2.92842C13.4743 3.61229 13.0438 4.5628 12.6858 5.49582C11.8236 7.72683 11.9377 10.1907 12.4452 12.4917C12.4659 12.5792 12.533 12.9225 12.5634 13.0676C12.2343 13.4644 12.0766 13.7305 11.5495 14.639C10.6474 16.0528 10.1198 17.5684 9.67454 19.1758C9.60682 19.3887 9.62415 19.6195 9.72293 19.82C9.72237 19.8342 9.7236 19.8484 9.72662 19.8623C9.72686 19.9535 9.71529 20.0444 9.69219 20.1327C9.53867 20.7 9.41959 21.276 9.33562 21.8576C9.28367 22.31 9.2017 22.8004 9.3837 23.2323C9.80064 23.8039 10.5088 23.1588 10.9624 22.944C10.5509 23.0714 9.70853 23.5927 9.57187 23.0568C9.53978 22.072 10.0251 21.1556 10.3277 20.24C10.3954 20.0482 10.4198 19.8439 10.3991 19.6416C10.3957 19.5939 10.3808 19.5477 10.3555 19.507C10.5945 18.7095 10.8543 18.2779 11.2197 17.4306C11.4703 16.7204 11.8001 16.2486 12.3294 15.4465C12.5138 15.1726 12.6933 14.8952 12.876 14.62C12.2231 16.8231 11.6984 19.0619 11.3044 21.3253C10.8261 24.5977 10.6269 27.9043 10.3257 31.1959C11.4464 27.4522 12.1478 23.6028 12.6501 19.7322C12.8212 18.4286 13.1658 16.0729 13.3476 13.9541C13.5583 13.7405 13.8096 13.5351 13.7998 13.2068C13.7958 12.5123 13.5371 11.8394 13.4572 11.1502C13.3371 10.3535 13.2886 9.54779 13.3123 8.74256C13.3153 8.42861 13.3519 8.11703 13.386 7.8053C13.7278 6.0137 14.2222 4.57989 15.2451 3.69131C15.4709 3.50198 15.7323 3.35944 16.014 3.27202C16.2958 3.18461 16.5922 3.15407 16.8859 3.18221C17.6522 3.23111 17.3178 3.20254 18.1374 3.49979C18.8094 3.68185 19.468 3.37024 20.0705 3.1016C21.011 2.66666 21.9088 2.1487 22.8229 1.66247C23.7269 1.22574 23.7575 1.09399 24.6051 1.13328C24.622 1.1349 24.6388 1.13724 24.6557 1.13912C24.7561 1.15295 24.8556 1.17341 24.9533 1.20033C24.992 1.21058 25.0296 1.22432 25.0671 1.2381C24.9902 1.20949 24.9436 1.17362 25.0672 1.23812C25.079 1.24249 25.0914 1.24536 25.1032 1.25006C25.0909 1.24652 25.0787 1.24241 25.0672 1.23813L25.0762 1.24276C25.5766 1.5858 26.1583 1.79221 26.7636 1.84142C28.1189 2.02259 29.7641 1.98051 30.294 2.2754C30.5822 2.41474 30.8588 2.57675 31.1212 2.75988C31.2891 2.9263 31.4776 3.07073 31.682 3.1897C32.2675 3.4997 32.9517 3.44616 33.5906 3.54134C34.8487 3.68965 35.2752 3.69681 36.4723 3.9535C36.5236 3.96758 36.5738 3.9853 36.6238 4.00341C36.6388 4.01097 36.6535 4.0189 36.668 4.0272C36.7588 4.1183 36.7476 4.16431 37.0225 4.49072C37.8462 5.48166 38.968 6.15183 40.0218 6.87031C40.5851 7.23698 40.7018 7.34751 41.3084 7.97389C41.3234 7.99617 41.334 8.01064 41.3427 8.02188C41.3707 8.06527 41.396 8.11034 41.4184 8.15684C41.4269 8.18451 41.4372 8.22041 41.4455 8.25722C41.4435 8.94116 41.4646 8.98798 41.3574 9.39025C41.0398 10.1021 41.1383 10.8736 41.2196 11.6226C41.2268 11.7368 41.2242 11.8514 41.2118 11.9652C41.1686 12.2544 41.1082 12.5407 41.031 12.8228C40.9033 13.1666 40.8039 13.526 40.9066 13.8911C41.2431 15.0371 42.0744 16.2815 42.3739 17.5334C42.3845 17.5784 42.3951 17.6234 42.4045 17.6686C42.4103 17.7713 42.4008 17.8742 42.4019 17.9769C42.4089 18.3173 42.4353 18.6571 42.4809 18.9945C42.5639 19.7096 42.6987 20.4169 42.8374 21.1228C42.8868 21.517 42.8792 21.9162 42.8148 22.3082C42.5813 22.7783 41.9926 22.8828 41.5381 23.0441C41.248 23.1347 40.9591 23.2295 40.6693 23.3208C40.8012 23.3035 40.9332 23.2868 41.0652 23.2708C41.9003 23.1544 43.1694 23.1818 43.3464 22.1321C43.4709 21.6559 43.5134 21.1621 43.4722 20.6718C43.434 19.9516 43.4213 19.2297 43.4465 18.5089Z" fill="black"/>
<path d="M39.7237 14.2734C39.8535 14.2689 39.9834 14.2641 40.1129 14.2603C40.5315 14.25 40.1235 14.2323 39.9231 14.2008C39.8533 14.1915 39.7834 14.1823 39.7134 14.1733C39.6985 14.0292 39.6841 13.885 39.669 13.741C39.6516 13.588 39.6338 13.4351 39.6156 13.2822C39.5831 13.5706 39.5559 13.8597 39.5265 14.1484C39.1652 14.1058 38.8069 14.0407 38.4538 13.9533C38.1793 13.8628 37.9129 13.7489 37.6349 13.6686C37.0466 13.4765 36.4188 13.4594 35.8324 13.2592C34.8628 12.9604 34.2446 12.5738 33.1686 12.2373C30.8755 11.6001 28.4676 11.1598 26.084 11.4411C25.2523 11.5782 24.4646 11.9011 23.6367 12.0596C22.8532 12.2635 21.4663 12.1365 20.2888 12.462C17.9177 13.1455 16.8252 13.5382 14.3584 12.7874C16.1597 13.637 17.4021 13.8039 19.3635 13.4474C20.3612 13.2811 20.8311 13.1446 21.8847 13.1802C22.7 13.2495 23.5209 13.2115 24.3263 13.0673C24.9614 12.9636 25.5787 12.7705 26.2139 12.6694C27.1883 12.6044 28.1659 12.6017 29.1406 12.6613C30.7233 12.7621 31.6241 12.9184 33.265 13.2326C34.5183 13.5832 35.7584 14.0354 37.0783 14.0213C37.4972 14.0483 37.9151 14.1659 38.4398 14.2564C38.7967 14.2867 39.1552 14.2943 39.513 14.279C39.4403 15.0045 39.3734 15.7305 39.3191 16.4575C39.0571 19.7418 39.1533 23.0402 39.4231 26.3206C39.5607 28.4065 39.708 30.4924 39.9354 32.5708C40.1964 29.9817 40.4505 27.3843 40.4357 24.7796C40.3972 21.2688 40.0839 17.7648 39.7237 14.2734Z" fill="black"/>
<path d="M22.9551 46.4306C24.5754 46.3866 26.1788 46.0898 27.707 45.5508C26.0866 45.5948 24.4832 45.8916 22.9551 46.4306Z" fill="black"/>
<path d="M31.5243 61.8168C31.0098 61.562 30.4529 61.4033 29.881 61.3483C30.0921 61.4131 30.3826 61.5352 30.5338 61.5961C32.0753 62.2655 32.7753 63.6661 31.8216 64.9705C30.6895 66.3738 27.6068 66.8787 26.0302 67.0371C24.2915 67.1488 22.5473 67.1435 20.8094 67.0213C19.1741 66.9121 18.2874 66.865 16.8237 66.523C15.8482 66.2667 15.3607 66.1444 14.6047 65.7344C14.3755 65.6304 14.1769 65.4696 14.0277 65.2674C13.8785 65.0653 13.7836 64.8284 13.7522 64.5793C13.7281 64.3654 13.7493 64.1488 13.8145 63.9435C13.8797 63.7382 13.9874 63.5489 14.1307 63.3878C14.3669 63.4289 14.6022 63.4723 14.8357 63.5082C14.6354 63.4288 14.44 63.3535 14.2481 63.2839C14.9531 62.8831 15.774 63.0277 16.5491 63.1144C16.547 63.1406 16.5452 63.1669 16.543 63.1931C16.5514 63.1676 16.5598 63.1421 16.5683 63.1166C16.6473 63.1253 16.7258 63.1336 16.8036 63.1404C16.7303 63.1199 16.6561 63.0984 16.5815 63.0767C16.595 63.0358 16.6085 62.9949 16.622 62.9541C17.8141 59.4641 18.3754 55.791 18.2796 52.1055C17.6374 55.0002 16.9661 57.8978 16.7272 60.8598C16.6608 61.5953 16.6112 62.3321 16.5526 63.0683C15.6968 62.8186 14.7633 62.5294 13.9302 62.9653C13.864 63.0103 13.8011 63.0599 13.7418 63.1136C12.6401 62.775 11.6207 62.7055 10.4159 63.3217C8.90635 64.0083 7.82863 65.3065 7.04051 66.727C5.956 68.5987 5.23089 70.6468 4.67606 72.7299C3.75366 76.1796 2.98944 79.6735 2.28937 83.1741C1.99585 84.8722 1.79408 87.0825 1.5971 88.3238C1.29208 90.5523 0.888053 92.765 0.561375 94.9901C0.540332 95.1388 0.520385 95.2876 0.5 95.4363C0.568991 95.215 0.640225 94.9945 0.711549 94.774C1.58984 92.2014 2.40798 89.6056 2.96976 86.9435C3.65759 83.3323 4.41086 79.7343 5.22956 76.1497C5.96375 72.959 6.80976 69.8516 8.079 67.2782C8.68485 66.0726 9.07895 65.3078 9.99593 64.5131C10.6083 63.9823 11.3104 63.5133 12.1094 63.3261C12.5889 63.2311 13.0815 63.2221 13.5641 63.2996C13.2652 63.6751 13.102 64.1402 13.101 64.6196C13.1 65.099 13.2613 65.5647 13.5587 65.9414C14.659 67.1377 16.7269 67.686 18.2891 67.9836C20.1538 68.2955 22.0509 68.3458 23.938 68.3636C25.579 68.3797 27.2308 68.2193 28.7945 67.7016C30.004 67.3225 31.2265 66.7937 32.138 65.8925C33.4024 64.5967 33.1564 62.6642 31.5243 61.8168Z" fill="black"/>
<path d="M37.2098 64.3187C36.8207 63.7801 36.3947 63.2078 35.7791 62.9168C34.8046 62.4818 33.7221 62.3462 32.6699 62.5272C33.7043 62.5273 34.7157 62.8315 35.5774 63.4018C35.9657 63.7035 36.209 64.1528 36.4473 64.5736C37.6131 66.6346 36.8948 70.2834 36.6494 72.9238C36.3608 75.6251 35.9987 78.3208 35.8334 81.0334C35.6585 84.1903 35.6714 87.3541 35.6377 90.5148C35.6369 90.6957 35.6362 90.8767 35.6345 91.0576C35.6553 90.9557 35.6769 90.8539 35.6979 90.752C36.4195 87.3253 36.8426 83.8476 37.2518 80.3728C37.5576 77.8575 37.7948 75.3344 38.0964 72.8185C38.3575 70.2073 38.7472 66.5854 37.2098 64.3187Z" fill="black"/>
<path d="M13.0383 80.3224C10.7979 85.0936 9.02843 90.1292 8.43945 95.3867C9.68074 91.8671 11.1728 88.4271 12.0836 84.8004C12.4958 83.2399 12.8206 81.6584 13.1662 80.0824C13.2147 79.9026 13.0696 80.2698 13.0383 80.3224Z" fill="black"/>
<path d="M30.1959 80.0034C29.2752 82.5266 28.6088 85.1349 28.2066 87.7898C27.8318 90.5084 27.7822 93.2609 27.8736 96.0003C28.8345 91.5063 29.545 87.6013 29.9522 83.2527C30.066 82.1267 30.1378 80.9966 30.268 79.8723C30.2979 79.6966 30.2246 79.946 30.1959 80.0034Z" fill="black"/>
<path d="M29.1134 75.248C28.5584 76.3779 27.6217 77.3835 26.6921 77.725C25.8088 78.0424 25.0671 77.9641 24.8771 77.7526C24.9625 76.1586 25.2431 74.0943 25.2902 72.3359C24.9142 73.8179 24.5438 75.3018 24.2162 76.7952C24.1494 77.2183 23.9641 77.6788 24.1264 78.0974C24.5409 78.9099 25.6593 78.9195 26.4342 78.703C28.6916 78.0747 29.4955 75.5703 30.0003 73.5368C30.0229 73.4419 30.0438 73.3466 30.0638 73.2512C29.7762 73.93 29.4605 74.5974 29.1134 75.248Z" fill="black"/>
</g>
<defs>
<clipPath id="clip0_183_2429">
<rect width="43" height="96" fill="white" transform="translate(0.5)"/>
</clipPath>
</defs>
</svg>
