<svg viewBox="0 0 32 32"
     fill="none"
     xmlns="http://www.w3.org/2000/svg">
<g id="Icon / Multirisk">
<path id="Union (Stroke)"
      fill-rule="evenodd"
      clip-rule="evenodd"
      d="M18.4719 6.66667H14.1941C13.918 6.66667 13.6941 6.89052 13.6941 7.16667V10.5278C13.6941 12.2767 12.2764 13.6944 10.5275 13.6944H7.16634C6.8902 13.6944 6.66634 13.9183 6.66634 14.1944L6.66634 18.4722C6.66634 18.7484 6.8902 18.9722 7.16634 18.9722H10.5275C12.2764 18.9722 13.6941 20.39 13.6941 22.1389V25.5C13.6941 25.7761 13.918 26 14.1941 26H18.4719C18.748 26 18.9719 25.7761 18.9719 25.5V22.1389C18.9719 20.39 20.3897 18.9722 22.1386 18.9722H25.4997C25.7758 18.9722 25.9997 18.7484 25.9997 18.4722V14.1944C25.9997 13.9183 25.7758 13.6944 25.4997 13.6944H22.1386C20.3897 13.6944 18.9719 12.2767 18.9719 10.5278V7.16667C18.9719 6.89052 18.748 6.66667 18.4719 6.66667ZM18.4719 5.33333C19.4844 5.33333 20.3052 6.15414 20.3052 7.16667V10.5278C20.3052 11.5403 21.126 12.3611 22.1386 12.3611H25.4997C26.5122 12.3611 27.333 13.1819 27.333 14.1944V18.4722C27.333 19.4847 26.5122 20.3056 25.4997 20.3056H22.1386C21.126 20.3056 20.3052 21.1264 20.3052 22.1389V25.5C20.3052 26.5125 19.4844 27.3333 18.4719 27.3333H14.1941C13.1816 27.3333 12.3608 26.5125 12.3608 25.5V22.1389C12.3608 21.1264 11.54 20.3056 10.5275 20.3056H7.16634C6.15382 20.3056 5.33301 19.4847 5.33301 18.4722V14.1944C5.33301 13.1819 6.15382 12.3611 7.16634 12.3611H10.5275C11.54 12.3611 12.3608 11.5403 12.3608 10.5278V7.16667C12.3608 6.15414 13.1816 5.33333 14.1941 5.33333H18.4719Z"
      fill="#2D2C4C" />
</g>
</svg>