<svg width="676" height="512" viewBox="0 0 676 512" fill="none" xmlns="http://www.w3.org/2000/svg">
<g clip-path="url(#clip0_816_5006)">
<g opacity="0.8">
<path d="M577.062 177.176C589.99 124.892 540.199 87.9362 533.468 82.2551C504.208 61.2369 431.591 25.7823 373.354 66.0578C315.118 106.333 328.319 150.264 211.647 201.734C169.032 220.534 51.2449 259.808 103.752 367.128C166.688 495.761 323.605 472.893 388.611 454.03C453.617 435.167 468.39 355.029 502.655 300.186C536.92 245.342 564.135 229.46 577.062 177.176Z" fill="#F8FAFF"/>
<path d="M573.569 368.978C601.037 334.431 593.564 285.597 574.646 268.338C551.424 247.348 517.234 297.982 485.219 369.232C453.205 440.482 473.464 431.548 490.376 427.638C507.289 423.728 546.101 403.525 573.569 368.978Z" fill="#F8FAFF"/>
<path d="M108.891 132.291C140.225 35.9236 246.42 14.4304 295.601 15.7298C387.393 20.641 330.388 74.1097 293.77 122.794C250.494 180.33 66.0736 263.978 108.891 132.291Z" fill="#F8FAFF"/>
</g>
<g clip-path="url(#clip1_816_5006)">
<path d="M509.14 165.475C513.382 163.629 504.778 162.554 495.017 162.201C485.255 161.847 473.447 161.867 467.209 160.861C461.175 159.889 461.62 158.161 461.113 156.594C460.605 155.028 458.286 153.422 448.871 153.074C437.14 152.64 417.795 154.31 408.939 153.308C400.675 152.372 405.587 149.437 393.536 149.325C386.655 149.261 377.79 150.228 370.134 150.462C362.945 150.681 357.627 150.227 353.895 149.617C350.163 149.006 347.564 148.232 343.364 147.693C332.336 146.278 310.762 146.754 291.506 148.568C272.25 150.382 255.744 153.355 246.435 156.299C237.126 159.243 234.554 162.143 236.723 164.601C238.107 166.171 241.65 167.639 250.245 168.269C266.322 169.449 294.945 167.418 311.557 168.492C320.816 169.09 324.923 170.573 333.047 171.385C341.774 172.257 354.55 172.303 367.103 172.283C393.239 172.24 420.043 171.972 447.376 171.48C458.792 171.275 470.754 171.008 482.902 170.029C495.05 169.051 507.44 167.163 510.003 165.393" fill="#4A4A4A"/>
<path d="M509.14 165.475C513.382 163.629 504.778 162.554 495.017 162.201C485.255 161.847 473.447 161.867 467.209 160.861C461.175 159.889 461.62 158.161 461.113 156.594C460.605 155.028 458.286 153.422 448.871 153.074C437.14 152.64 417.795 154.31 408.939 153.308C400.675 152.372 405.587 149.437 393.536 149.325C386.655 149.261 377.79 150.228 370.134 150.462C362.945 150.681 357.627 150.227 353.895 149.617C350.163 149.006 347.564 148.232 343.364 147.693C332.336 146.278 310.762 146.754 291.506 148.568C272.25 150.382 255.744 153.355 246.435 156.299C237.126 159.243 234.554 162.143 236.723 164.601C238.107 166.171 241.65 167.639 250.245 168.269C266.322 169.449 294.945 167.418 311.557 168.492C320.816 169.09 324.923 170.573 333.047 171.385C341.774 172.257 354.55 172.303 367.103 172.283C393.239 172.24 420.043 171.972 447.376 171.48C458.792 171.275 470.754 171.008 482.902 170.029C495.05 169.051 507.44 167.163 510.003 165.393" fill="#B1BDD2"/>
<path d="M546.248 317.756C541.601 327.125 534.266 335.312 525.835 341.629C512.912 351.314 497.529 357.134 482.133 362.044C395.175 389.791 300.192 391.934 212.069 368.141C187.692 361.561 163.192 352.671 144.231 336.02C138.162 330.688 132.869 324.536 128.505 317.743C153.74 303.898 184.326 298.68 213.513 299.317C255.354 300.231 296.219 311.379 337.669 317.146C386.482 323.928 436.046 323.246 484.654 315.125C501.515 312.301 518.967 308.607 535.472 313.078C539.266 314.124 542.894 315.699 546.248 317.756Z" fill="#4A4A4A"/>
<path d="M546.248 317.756C541.601 327.125 534.266 335.312 525.835 341.629C512.912 351.314 497.529 357.134 482.133 362.044C395.175 389.791 300.192 391.934 212.069 368.141C187.692 361.561 163.192 352.671 144.231 336.02C138.162 330.688 132.869 324.536 128.505 317.743C153.74 303.898 184.326 298.68 213.513 299.317C255.354 300.231 296.219 311.379 337.669 317.146C386.482 323.928 436.046 323.246 484.654 315.125C501.515 312.301 518.967 308.607 535.472 313.078C539.266 314.124 542.894 315.699 546.248 317.756Z" fill="#B1BDD2"/>
<path d="M523.64 380.04C522.937 382.009 521.787 383.789 520.279 385.238C518.008 387.469 515.155 389.008 512.276 390.371C495.891 398.086 477.635 400.951 459.669 398.627C454.733 397.979 449.713 396.883 445.571 394.126C444.245 393.243 443.05 392.179 442.019 390.966C446.586 387.601 452.425 385.781 458.144 385.142C466.343 384.226 474.62 385.335 482.871 385.377C492.586 385.426 502.252 383.996 511.536 381.137C514.757 380.145 518.069 378.966 521.412 379.408C522.181 379.513 522.931 379.726 523.64 380.04Z" fill="#4A4A4A"/>
<path d="M523.64 380.04C522.937 382.009 521.787 383.789 520.279 385.238C518.008 387.469 515.155 389.008 512.276 390.371C495.891 398.086 477.635 400.951 459.669 398.627C454.733 397.979 449.713 396.883 445.571 394.126C444.245 393.243 443.05 392.179 442.019 390.966C446.586 387.601 452.425 385.781 458.144 385.142C466.343 384.226 474.62 385.335 482.871 385.377C492.586 385.426 502.252 383.996 511.536 381.137C514.757 380.145 518.069 378.966 521.412 379.408C522.181 379.513 522.931 379.726 523.64 380.04Z" fill="#B1BDD2"/>
<path d="M246.665 386.786C245.352 388.414 243.678 389.716 241.776 390.589C238.896 391.949 235.694 392.465 232.526 392.805C214.511 394.704 196.327 391.409 180.13 383.309C175.683 381.074 171.305 378.389 168.303 374.424C167.343 373.155 166.565 371.757 165.991 370.273C171.414 368.597 177.527 368.798 183.139 370.074C191.183 371.905 198.632 375.672 206.408 378.424C215.566 381.663 225.165 383.491 234.874 383.843C238.242 383.964 241.759 383.941 244.769 385.457C245.461 385.809 246.099 386.256 246.665 386.786Z" fill="#4A4A4A"/>
<path d="M246.665 386.786C245.352 388.414 243.678 389.716 241.776 390.589C238.896 391.949 235.694 392.465 232.526 392.805C214.511 394.704 196.327 391.409 180.13 383.309C175.683 381.074 171.305 378.389 168.303 374.424C167.343 373.155 166.565 371.757 165.991 370.273C171.414 368.597 177.527 368.798 183.139 370.074C191.183 371.905 198.632 375.672 206.408 378.424C215.566 381.663 225.165 383.491 234.874 383.843C238.242 383.964 241.759 383.941 244.769 385.457C245.461 385.809 246.099 386.256 246.665 386.786Z" fill="#B1BDD2"/>
<path d="M371.072 400.833C370.113 402.691 368.736 404.302 367.048 405.539C364.5 407.448 361.468 408.595 358.432 409.563C341.166 415.036 322.69 415.453 305.193 410.765C300.388 409.468 295.558 407.716 291.82 404.433C290.624 403.382 289.58 402.169 288.72 400.83C293.694 398.101 299.724 397.072 305.478 397.198C313.726 397.378 321.782 399.575 329.953 400.712C339.576 402.049 349.347 401.915 358.929 400.314C362.253 399.757 365.694 399.029 368.948 399.91C369.696 400.117 370.411 400.427 371.072 400.833Z" fill="#4A4A4A"/>
<path d="M371.072 400.833C370.113 402.691 368.736 404.302 367.048 405.539C364.5 407.448 361.468 408.595 358.432 409.563C341.166 415.036 322.69 415.453 305.193 410.765C300.388 409.468 295.558 407.716 291.82 404.433C290.624 403.382 289.58 402.169 288.72 400.83C293.694 398.101 299.724 397.072 305.478 397.198C313.726 397.378 321.782 399.575 329.953 400.712C339.576 402.049 349.347 401.915 358.929 400.314C362.253 399.757 365.694 399.029 368.948 399.91C369.696 400.117 370.411 400.427 371.072 400.833Z" fill="#B1BDD2"/>
<path d="M390.49 290.724L378.073 285.256V280.556L382.498 280.531C383.185 280.527 383.853 280.308 384.409 279.906C384.965 279.504 385.381 278.938 385.598 278.287L388.706 268.979C388.871 268.486 388.916 267.96 388.837 267.447C388.759 266.933 388.559 266.445 388.255 266.023C387.95 265.601 387.549 265.258 387.086 265.021C386.622 264.784 386.109 264.661 385.588 264.661H378.073V260.286H387.508C388.251 260.286 388.973 260.034 389.555 259.572C390.136 259.11 390.544 258.464 390.711 257.74L392.851 248.445C392.962 247.964 392.963 247.465 392.853 246.984C392.744 246.503 392.527 246.052 392.219 245.666C391.912 245.281 391.521 244.969 391.075 244.755C390.63 244.54 390.142 244.429 389.648 244.429H378.073V243.336C378.073 242.756 377.843 242.199 377.432 241.789C377.021 241.379 376.463 241.148 375.882 241.148C375.301 241.148 374.744 241.379 374.333 241.789C373.922 242.199 373.691 242.756 373.691 243.336V244.429H296.09V243.336C296.09 242.756 295.859 242.199 295.448 241.789C295.038 241.379 294.48 241.148 293.899 241.148C293.318 241.148 292.761 241.379 292.35 241.789C291.939 242.199 291.708 242.756 291.708 243.336V244.429H282.507C282.013 244.429 281.525 244.54 281.08 244.755C280.634 244.969 280.243 245.281 279.936 245.666C279.628 246.052 279.411 246.503 279.302 246.984C279.192 247.465 279.193 247.964 279.304 248.445L281.444 257.74C281.611 258.464 282.019 259.11 282.6 259.572C283.182 260.034 283.904 260.286 284.647 260.286H291.708V264.661H286.567C286.049 264.661 285.538 264.783 285.076 265.017C284.615 265.252 284.215 265.592 283.91 266.01C283.605 266.428 283.403 266.912 283.321 267.422C283.239 267.933 283.28 268.455 283.438 268.947L286.611 278.776C286.825 279.44 287.246 280.018 287.812 280.427C288.378 280.836 289.059 281.055 289.758 281.051L291.708 281.04V285.256L281.666 290.724C281.234 290.724 280.807 290.809 280.408 290.974C280.009 291.139 279.647 291.381 279.342 291.685C279.036 291.99 278.794 292.352 278.629 292.75C278.464 293.148 278.379 293.574 278.379 294.005C278.379 294.875 278.725 295.71 279.342 296.325C279.958 296.94 280.794 297.286 281.666 297.286H291.708V321.345C291.708 321.925 291.939 322.481 292.35 322.891C292.761 323.301 293.318 323.532 293.899 323.532C294.48 323.532 295.038 323.301 295.448 322.891C295.859 322.481 296.09 321.925 296.09 321.345V297.286H373.691V321.345C373.691 321.925 373.922 322.481 374.333 322.891C374.744 323.301 375.301 323.532 375.882 323.532C376.463 323.532 377.021 323.301 377.432 322.891C377.843 322.481 378.073 321.925 378.073 321.345V297.286H390.49C391.361 297.286 392.197 296.94 392.814 296.325C393.43 295.71 393.776 294.875 393.776 294.005C393.776 293.574 393.691 293.148 393.526 292.75C393.361 292.352 393.119 291.99 392.814 291.685C392.508 291.381 392.146 291.139 391.747 290.974C391.348 290.809 390.921 290.724 390.49 290.724ZM296.09 260.286H373.691V264.661H296.09L296.09 260.286ZM296.09 285.256V281.015L373.691 280.58V285.256H296.09Z" fill="#4A4A4A"/>
<path d="M390.49 290.724L378.073 285.256V280.556L382.498 280.531C383.185 280.527 383.853 280.308 384.409 279.906C384.965 279.504 385.381 278.938 385.598 278.287L388.706 268.979C388.871 268.486 388.916 267.96 388.837 267.447C388.759 266.933 388.559 266.445 388.255 266.023C387.95 265.601 387.549 265.258 387.086 265.021C386.622 264.784 386.109 264.661 385.588 264.661H378.073V260.286H387.508C388.251 260.286 388.973 260.034 389.555 259.572C390.136 259.11 390.544 258.464 390.711 257.74L392.851 248.445C392.962 247.964 392.963 247.465 392.853 246.984C392.744 246.503 392.527 246.052 392.219 245.666C391.912 245.281 391.521 244.969 391.075 244.755C390.63 244.54 390.142 244.429 389.648 244.429H378.073V243.336C378.073 242.756 377.843 242.199 377.432 241.789C377.021 241.379 376.463 241.148 375.882 241.148C375.301 241.148 374.744 241.379 374.333 241.789C373.922 242.199 373.691 242.756 373.691 243.336V244.429H296.09V243.336C296.09 242.756 295.859 242.199 295.448 241.789C295.038 241.379 294.48 241.148 293.899 241.148C293.318 241.148 292.761 241.379 292.35 241.789C291.939 242.199 291.708 242.756 291.708 243.336V244.429H282.507C282.013 244.429 281.525 244.54 281.08 244.755C280.634 244.969 280.243 245.281 279.936 245.666C279.628 246.052 279.411 246.503 279.302 246.984C279.192 247.465 279.193 247.964 279.304 248.445L281.444 257.74C281.611 258.464 282.019 259.11 282.6 259.572C283.182 260.034 283.904 260.286 284.647 260.286H291.708V264.661H286.567C286.049 264.661 285.538 264.783 285.076 265.017C284.615 265.252 284.215 265.592 283.91 266.01C283.605 266.428 283.403 266.912 283.321 267.422C283.239 267.933 283.28 268.455 283.438 268.947L286.611 278.776C286.825 279.44 287.246 280.018 287.812 280.427C288.378 280.836 289.059 281.055 289.758 281.051L291.708 281.04V285.256L281.666 290.724C281.234 290.724 280.807 290.809 280.408 290.974C280.009 291.139 279.647 291.381 279.342 291.685C279.036 291.99 278.794 292.352 278.629 292.75C278.464 293.148 278.379 293.574 278.379 294.005C278.379 294.875 278.725 295.71 279.342 296.325C279.958 296.94 280.794 297.286 281.666 297.286H291.708V321.345C291.708 321.925 291.939 322.481 292.35 322.891C292.761 323.301 293.318 323.532 293.899 323.532C294.48 323.532 295.038 323.301 295.448 322.891C295.859 322.481 296.09 321.925 296.09 321.345V297.286H373.691V321.345C373.691 321.925 373.922 322.481 374.333 322.891C374.744 323.301 375.301 323.532 375.882 323.532C376.463 323.532 377.021 323.301 377.432 322.891C377.843 322.481 378.073 321.925 378.073 321.345V297.286H390.49C391.361 297.286 392.197 296.94 392.814 296.325C393.43 295.71 393.776 294.875 393.776 294.005C393.776 293.574 393.691 293.148 393.526 292.75C393.361 292.352 393.119 291.99 392.814 291.685C392.508 291.381 392.146 291.139 391.747 290.974C391.348 290.809 390.921 290.724 390.49 290.724ZM296.09 260.286H373.691V264.661H296.09L296.09 260.286ZM296.09 285.256V281.015L373.691 280.58V285.256H296.09Z" fill="#B1BDD2"/>
<path d="M258.814 215.508C257.143 212.418 256.909 208.368 258.962 205.516C259.977 209.198 262.265 212.403 265.419 214.564C266.639 215.392 268.082 216.188 268.499 217.6C268.719 218.501 268.583 219.451 268.121 220.255C267.66 221.049 267.099 221.78 266.451 222.432L266.392 222.653C263.366 220.862 260.486 218.598 258.814 215.508Z" fill="#FFC0E0"/>
<path d="M330.098 221.656C328.426 218.566 328.192 214.516 330.245 211.664C331.26 215.346 333.548 218.551 336.703 220.712C337.922 221.541 339.365 222.336 339.782 223.749C340.002 224.649 339.867 225.6 339.405 226.404C338.943 227.197 338.382 227.929 337.735 228.58L337.676 228.801C334.649 227.011 331.77 224.746 330.098 221.656Z" fill="#FFC0E0"/>
<path d="M451.933 335.266C448.577 334.214 445.581 331.473 445.061 328C448.36 329.933 452.238 330.639 456.009 329.993C457.462 329.738 459.052 329.304 460.338 330.026C461.124 330.519 461.691 331.295 461.922 332.193C462.145 333.083 462.254 333.997 462.244 334.915L462.356 335.115C458.936 335.937 455.29 336.318 451.933 335.266Z" fill="#FFC0E0"/>
<path d="M458.094 343.61C454.737 342.558 451.741 339.817 451.221 336.344C454.52 338.277 458.399 338.983 462.169 338.336C463.623 338.082 465.212 337.648 466.498 338.37C467.285 338.863 467.851 339.638 468.082 340.536C468.305 341.426 468.414 342.341 468.405 343.259L468.517 343.458C465.096 344.281 461.45 344.661 458.094 343.61Z" fill="#FFC0E0"/>
<path d="M438.733 339.219C435.376 338.167 432.381 335.426 431.86 331.953C435.16 333.886 439.038 334.592 442.809 333.946C444.262 333.691 445.852 333.257 447.138 333.979C447.924 334.472 448.491 335.248 448.721 336.146C448.945 337.036 449.054 337.951 449.044 338.868L449.156 339.068C445.736 339.89 442.09 340.271 438.733 339.219Z" fill="#FFC0E0"/>
<path d="M453.693 329.555C450.336 328.503 447.341 325.762 446.82 322.289C450.12 324.222 453.998 324.928 457.769 324.282C459.222 324.027 460.812 323.593 462.098 324.315C462.884 324.808 463.451 325.584 463.681 326.482C463.905 327.372 464.014 328.286 464.004 329.204L464.116 329.404C460.696 330.226 457.05 330.607 453.693 329.555Z" fill="#FFC0E0"/>
<path d="M212.702 335.087C209.465 333.71 206.755 330.687 206.58 327.18C209.673 329.428 213.462 330.512 217.279 330.24C218.75 330.13 220.375 329.854 221.583 330.7C222.317 331.267 222.804 332.095 222.945 333.011C223.08 333.919 223.097 334.84 222.997 335.752L223.089 335.962C219.604 336.444 215.938 336.463 212.702 335.087Z" fill="#FFC0E0"/>
<path d="M235.493 291.496C233.821 288.406 233.588 284.356 235.641 281.504C236.656 285.186 238.943 288.391 242.098 290.552C243.318 291.381 244.761 292.176 245.178 293.589C245.397 294.489 245.262 295.44 244.8 296.244C244.339 297.037 243.778 297.769 243.13 298.42L243.071 298.641C240.044 296.851 237.165 294.586 235.493 291.496Z" fill="#FFC0E0"/>
<path d="M237.987 319.838C234.664 318.683 231.755 315.851 231.343 312.363C234.581 314.398 238.435 315.223 242.224 314.694C243.685 314.484 245.287 314.1 246.55 314.862C247.321 315.379 247.863 316.171 248.065 317.076C248.261 317.972 248.341 318.89 248.304 319.807L248.409 320.01C244.965 320.726 241.309 320.994 237.987 319.838Z" fill="#FFC0E0"/>
<path d="M244.147 308.858C240.824 307.703 237.915 304.871 237.503 301.383C240.741 303.417 244.595 304.243 248.384 303.713C249.845 303.504 251.447 303.119 252.71 303.881C253.481 304.398 254.023 305.191 254.226 306.095C254.421 306.992 254.501 307.91 254.464 308.826L254.569 309.029C251.125 309.746 247.469 310.013 244.147 308.858Z" fill="#FFC0E0"/>
<path d="M231.826 312.811C228.504 311.656 225.595 308.824 225.183 305.336C228.421 307.37 232.275 308.196 236.064 307.666C237.525 307.457 239.127 307.072 240.39 307.834C241.161 308.351 241.703 309.144 241.905 310.048C242.101 310.945 242.181 311.863 242.143 312.78L242.249 312.982C238.805 313.699 235.149 313.966 231.826 312.811Z" fill="#FFC0E0"/>
<path d="M108.293 203.361C108.189 203.361 108.086 203.361 107.983 203.359C102.54 203.279 97.2987 201.298 93.1691 197.759C89.0395 194.22 86.2834 189.348 85.3802 183.99C84.4771 178.633 85.4841 173.129 88.226 168.436C90.9679 163.742 95.2713 160.157 100.387 158.304C101.068 158.064 101.656 157.618 102.069 157.028C102.483 156.438 102.701 155.733 102.694 155.013L102.694 154.93C102.693 153.075 102.915 151.227 103.355 149.424C103.505 148.844 103.497 148.235 103.334 147.659C103.171 147.083 102.857 146.56 102.426 146.145C98.5231 142.481 95.4272 138.047 93.3348 133.124C91.2425 128.201 90.1996 122.897 90.2725 117.55C90.5763 96.6745 107.846 79.6914 128.769 79.6914L128.957 79.6918C134.16 79.698 139.307 80.7662 144.082 82.831C148.856 84.8957 153.157 87.9132 156.72 91.6981C158.511 93.5848 160.667 95.0892 163.057 96.1202C165.447 97.1513 168.021 97.6876 170.625 97.6966L170.699 97.916L170.699 97.6964L170.851 97.696C178.138 97.7175 185.271 99.7924 191.429 103.682C197.586 107.571 202.518 113.118 205.658 119.682C205.828 120.044 206.096 120.351 206.433 120.567C206.77 120.784 207.161 120.902 207.561 120.907L207.826 120.912C214.705 121.075 221.414 123.074 227.255 126.703C233.097 130.332 237.858 135.457 241.042 141.545C244.226 147.633 245.718 154.462 245.362 161.32C245.006 168.179 242.815 174.817 239.017 180.544C235.219 186.271 229.953 190.877 223.766 193.883C217.58 196.889 210.7 198.186 203.842 197.637C196.983 197.089 190.398 194.716 184.77 190.765C179.142 186.815 174.677 181.431 171.841 175.173C171.754 174.987 171.616 174.83 171.443 174.72C171.269 174.61 171.068 174.553 170.862 174.554C168.216 174.555 165.577 174.286 162.986 173.751C153.564 171.777 143.764 172.694 134.873 176.383C134.574 176.507 134.272 176.625 133.967 176.736C133.275 176.987 132.677 177.442 132.252 178.042C131.828 178.642 131.597 179.357 131.592 180.091V180.136C131.592 186.295 129.141 192.202 124.778 196.558C120.415 200.913 114.498 203.361 108.328 203.361H108.293V203.361Z" fill="#FFC0E0"/>
<path d="M167.743 320.63C166.405 320.634 165.085 320.311 163.901 319.689C162.716 319.067 161.702 318.165 160.947 317.062C160.116 315.868 159.613 314.477 159.49 313.029C159.367 311.58 159.627 310.125 160.244 308.808C164.886 298.743 166.57 287.535 165.25 275.497C162.004 245.907 132.403 199.724 132.104 199.26L118.514 181.999C115.42 178.068 116.94 173.849 119.662 171.593C122.34 169.372 126.706 168.669 129.961 172.374C130.903 173.367 131.63 174.542 132.097 175.828C133.016 169.802 136.598 142.574 130.266 120.157C128.286 113.144 132.687 108.295 137.614 106.757C142.452 105.247 148.722 106.708 151.057 113.484C152.409 117.408 152.84 121.85 152.339 126.686C151.053 139.098 150.081 150.666 149.451 161.07C149.379 162.259 149.688 163.44 150.334 164.442C150.979 165.444 151.927 166.214 153.041 166.642C154.154 167.07 155.375 167.133 156.527 166.822C157.679 166.511 158.702 165.842 159.447 164.912L170.079 151.655C176.475 143.68 186.095 143.366 192.792 146.594C198.861 149.519 205.104 156.625 202.724 167.028C202.154 169.52 201.128 171.505 199.674 172.928C199.37 173.226 199.062 173.524 198.75 173.823C191.671 180.569 186.861 189.339 184.982 198.926C183.103 208.514 184.246 218.447 188.256 227.359C197.756 248.299 204.044 266.262 206.943 280.746C210.926 300.644 208.298 313.342 199.134 318.488L199.049 318.513L168.329 320.61L168.315 320.41L168.329 320.61C168.133 320.623 167.937 320.63 167.743 320.63Z" fill="#E6E6E6"/>
<path d="M105.235 175.67C105.131 175.67 105.029 175.669 104.925 175.668C99.4831 175.588 94.2412 173.606 90.1116 170.068C85.9819 166.529 83.2258 161.657 82.3226 156.299C81.4195 150.941 82.4265 145.437 85.1685 140.744C87.9104 136.051 92.2138 132.466 97.33 130.613C98.0103 130.373 98.5984 129.926 99.0119 129.336C99.4255 128.746 99.6439 128.042 99.6365 127.322L99.6363 127.239C99.6359 125.384 99.858 123.535 100.298 121.733C100.447 121.153 100.44 120.544 100.276 119.968C100.113 119.392 99.7997 118.869 99.3681 118.453C95.4656 114.79 92.3697 110.355 90.2774 105.432C88.1851 100.509 87.1422 95.2053 87.2151 89.8581C87.5189 68.983 104.788 52 125.712 52L125.899 52.0004C131.102 52.0066 136.25 53.0749 141.024 55.1396C145.799 57.2043 150.1 60.2218 153.663 64.0067C155.454 65.8934 157.609 67.3978 159.999 68.4288C162.389 69.4599 164.964 69.9962 167.567 70.0052L167.642 70.2246L167.641 70.005L167.794 70.0046C175.081 70.0262 182.214 72.1012 188.371 75.9907C194.529 79.8802 199.461 85.4262 202.6 91.9904C202.77 92.3524 203.039 92.6593 203.376 92.876C203.712 93.0926 204.103 93.2103 204.504 93.2154L204.769 93.2208C211.647 93.3833 218.356 95.3829 224.198 99.0115C230.039 102.64 234.8 107.765 237.984 113.853C241.169 119.941 242.66 126.77 242.304 133.629C241.948 140.488 239.757 147.126 235.959 152.853C232.161 158.579 226.895 163.186 220.709 166.192C214.523 169.198 207.642 170.494 200.784 169.946C193.926 169.398 187.34 167.025 181.712 163.074C176.084 159.123 171.62 153.739 168.783 147.482C168.697 147.296 168.559 147.139 168.385 147.029C168.212 146.919 168.01 146.861 167.805 146.863C165.159 146.864 162.519 146.595 159.928 146.06C150.506 144.085 140.706 145.003 131.816 148.692C131.517 148.816 131.215 148.933 130.909 149.045C130.218 149.295 129.619 149.751 129.195 150.351C128.77 150.95 128.54 151.665 128.534 152.4V152.445C128.534 158.604 126.083 164.511 121.72 168.866C117.358 173.222 111.441 175.669 105.27 175.67H105.235Z" fill="#FFC0E0"/>
<path d="M202.953 112.332C203.025 112.321 203.096 112.31 203.168 112.3C206.948 111.775 210.794 112.589 214.036 114.601C217.277 116.613 219.709 119.696 220.909 123.313C222.109 126.93 222.001 130.853 220.603 134.399C219.205 137.944 216.606 140.889 213.259 142.719C212.813 142.958 212.453 143.33 212.229 143.783C212.006 144.237 211.93 144.748 212.012 145.247L212.021 145.304C212.22 146.59 212.264 147.895 212.153 149.191C212.111 149.609 212.182 150.03 212.357 150.412C212.532 150.794 212.805 151.123 213.148 151.365C217.615 154.418 221.059 158.741 223.033 163.773C225.008 168.805 225.421 174.313 224.22 179.582C223.018 184.851 220.258 189.638 216.297 193.322C212.336 197.005 207.357 199.415 202.007 200.238L201.877 200.258C198.27 200.809 194.588 200.618 191.057 199.696C187.526 198.775 184.222 197.142 181.347 194.899C179.903 193.783 178.248 192.97 176.481 192.511C174.714 192.051 172.872 191.954 171.066 192.226L170.991 192.081L171.015 192.234L170.909 192.25C165.856 193.013 160.69 192.336 156.005 190.297C151.321 188.259 147.308 184.941 144.429 180.726C144.272 180.493 144.053 180.309 143.796 180.195C143.54 180.081 143.256 180.041 142.978 180.08L142.794 180.105C138.009 180.726 133.144 180.056 128.706 178.165C124.269 176.273 120.42 173.229 117.561 169.349C114.701 165.469 112.936 160.895 112.448 156.103C111.96 151.311 112.768 146.475 114.787 142.101C116.806 137.726 119.963 133.971 123.928 131.227C127.894 128.483 132.524 126.85 137.337 126.498C142.149 126.146 146.968 127.088 151.293 129.226C155.617 131.363 159.288 134.619 161.924 138.653C162.004 138.773 162.117 138.867 162.249 138.925C162.381 138.982 162.527 139.001 162.669 138.978C164.503 138.695 166.361 138.6 168.215 138.694C174.957 139.057 181.651 137.375 187.418 133.869C187.612 133.751 187.809 133.637 188.009 133.527C188.461 133.28 188.827 132.9 189.058 132.439C189.288 131.978 189.371 131.458 189.296 130.948L189.291 130.917C188.631 126.648 189.697 122.292 192.255 118.807C194.812 115.323 198.652 112.995 202.928 112.336L202.953 112.332Z" fill="#FFC0E0"/>
<path d="M400.465 223.868C398.196 225.539 397.619 228.596 398.399 231.19C398.804 232.608 399.605 233.881 400.707 234.863C401.808 235.844 403.167 236.493 404.624 236.735C407.891 237.349 411.389 236.07 413.93 234.045C416.795 231.761 418.457 228.431 420.106 225.249C422.341 220.939 424.794 216.732 427.155 212.489C429.788 207.757 432.42 203.025 435.051 198.292C440.965 187.645 446.851 176.983 452.71 166.305C458.561 155.616 464.346 144.89 470.064 134.128C474.698 125.358 479.287 116.557 483.579 107.615C484.001 106.737 484.419 105.856 484.833 104.974C484.955 104.647 484.943 104.286 484.801 103.967C484.659 103.649 484.397 103.399 484.072 103.271C483.745 103.153 483.384 103.166 483.066 103.308C482.748 103.45 482.498 103.709 482.367 104.031C478.46 112.359 474.234 120.538 469.966 128.686C464.615 138.899 459.168 149.061 453.624 159.171C447.893 169.684 442.119 180.173 436.301 190.639C431.267 199.718 426.222 208.791 421.169 217.86C419.941 220.068 418.697 222.266 417.535 224.51C416.034 227.408 414.473 230.442 411.751 232.388C409.439 234.041 406.162 234.916 403.484 233.639C401.489 232.687 400.472 230.311 400.746 228.256C400.801 227.788 400.954 227.337 401.195 226.932C401.435 226.527 401.758 226.176 402.143 225.903C403.513 224.894 401.83 222.863 400.465 223.868V223.868Z" fill="#2F2E41"/>
<path d="M543.261 167.786L543.105 167.767C537.108 167.032 531.166 166.145 525.445 165.131C521.374 164.409 517.398 163.624 513.63 162.797C510.451 162.104 507.31 161.361 504.292 160.589C500.927 159.734 497.588 158.813 494.368 157.851C493.024 157.456 491.657 157.038 490.304 156.609C487.796 155.814 485.379 155.006 483.121 154.207C480.928 153.442 478.718 152.626 476.55 151.781C476.504 151.767 476.459 151.751 476.414 151.731C472.023 150.028 467.711 148.191 463.603 146.271C462.806 145.903 462.015 145.528 461.229 145.149C437.53 133.716 417.688 118.205 402.256 99.0464L402.168 98.9377L402.229 98.8124C410.479 81.9225 424.759 68.7241 442.263 61.812C459.768 54.8999 479.229 54.7742 496.821 61.4597C498.989 62.2861 501.123 63.2108 503.164 64.2082L508.659 66.8903C511.629 68.3391 514.501 69.9792 517.257 71.8003C532.508 81.9032 543.56 97.1944 548.357 114.827C553.153 132.459 551.366 151.23 543.33 167.645L543.261 167.786Z" fill="#E50075"/>
<path d="M413.249 109.589C433.729 94.4345 456.061 81.947 479.704 72.4283C486.337 69.7565 493.06 67.3242 499.872 65.1314C500.679 64.8717 500.12 63.6767 499.319 63.9347C474.95 71.785 451.685 82.708 430.086 96.4387C424.051 100.271 418.159 104.315 412.41 108.572C411.726 109.078 412.568 110.093 413.249 109.589Z" fill="#3F3D56"/>
<path d="M513.04 69.4609C512.963 69.5727 512.923 69.7063 512.926 69.8423C512.929 69.9784 512.976 70.1097 513.06 70.2174C516.788 75.3776 519.949 80.9232 522.489 86.7584C525.03 92.5935 526.967 98.6724 528.27 104.9C529.587 111.129 530.278 117.473 530.335 123.838C530.394 130.203 529.811 136.557 528.595 142.805C527.555 148.147 526.026 153.383 524.027 158.447C523.692 159.297 523.343 160.142 522.98 160.98C522.666 161.704 522.343 162.423 522.01 163.137C521.652 163.91 522.889 164.374 523.246 163.61C523.683 162.663 524.107 161.712 524.506 160.749C526.599 155.764 528.241 150.602 529.411 145.324C530.807 139.03 531.554 132.609 531.643 126.163C531.737 119.707 531.191 113.258 530.015 106.91C528.841 100.568 527.028 94.3617 524.603 88.3844C522.172 82.3837 519.1 76.6619 515.441 71.3178C515.275 71.0722 515.105 70.8262 514.934 70.5845L513.04 69.4609Z" fill="#3F3D56"/>
<path d="M447.529 137.194L468.711 111.717L489.892 86.239L501.815 71.8973C502.359 71.243 501.285 70.4757 500.745 71.1253L479.564 96.6029L458.383 122.08L446.459 136.422C445.915 137.076 446.989 137.844 447.529 137.194H447.529Z" fill="#3F3D56"/>
<path d="M493.882 156.859L499.903 125.66L505.903 94.569L509.287 77.0332C509.448 76.2009 508.133 76.0788 507.973 76.9058L501.952 108.105L495.952 139.196L492.568 156.732C492.408 157.564 493.723 157.686 493.882 156.859Z" fill="#3F3D56"/>
<path d="M517.135 71.9862C515.851 74.2736 513.819 76.0507 511.378 77.019C508.938 77.9874 506.238 78.0881 503.731 77.3042C501.225 76.5203 499.065 74.8996 497.615 72.7142C496.164 70.5287 495.511 67.9116 495.764 65.3022C495.884 64.0448 496.214 62.8163 496.742 61.668C498.869 62.4788 500.977 63.3923 503.066 64.4084L508.561 67.0904C511.523 68.5344 514.387 70.1698 517.135 71.9862Z" fill="#3F3D56"/>
<path d="M249.799 79.1641C251.852 86.3265 254.926 93.1571 258.927 99.4462C260.066 101.233 261.278 102.971 262.563 104.659C263.069 105.326 264.216 104.67 263.702 103.994C259.238 98.1266 255.645 91.6464 253.037 84.7539C252.301 82.8014 251.646 80.8214 251.072 78.8138C251.021 78.6507 250.908 78.5138 250.758 78.432C250.608 78.3502 250.431 78.3298 250.266 78.3753C250.101 78.4207 249.96 78.5284 249.873 78.6755C249.786 78.8227 249.76 78.9979 249.799 79.1641H249.799Z" fill="#4A4A4A"/>
<path d="M249.799 79.1641C251.852 86.3265 254.926 93.1571 258.927 99.4462C260.066 101.233 261.278 102.971 262.563 104.659C263.069 105.326 264.216 104.67 263.702 103.994C259.238 98.1266 255.645 91.6464 253.037 84.7539C252.301 82.8014 251.646 80.8214 251.072 78.8138C251.021 78.6507 250.908 78.5138 250.758 78.432C250.608 78.3502 250.431 78.3298 250.266 78.3753C250.101 78.4207 249.96 78.5284 249.873 78.6755C249.786 78.8227 249.76 78.9979 249.799 79.1641H249.799Z" fill="#B1BDD2"/>
<path d="M288.893 107.711L296.911 121.635C297.003 121.779 297.147 121.883 297.313 121.923C297.48 121.964 297.655 121.938 297.803 121.852C297.951 121.766 298.06 121.626 298.106 121.461C298.152 121.296 298.133 121.12 298.051 120.97L290.033 107.046C289.941 106.901 289.797 106.798 289.631 106.757C289.464 106.717 289.289 106.742 289.141 106.828C288.993 106.915 288.884 107.055 288.838 107.219C288.792 107.384 288.811 107.56 288.893 107.711Z" fill="#4A4A4A"/>
<path d="M288.893 107.711L296.911 121.635C297.003 121.779 297.147 121.883 297.313 121.923C297.48 121.964 297.655 121.938 297.803 121.852C297.951 121.766 298.06 121.626 298.106 121.461C298.152 121.296 298.133 121.12 298.051 120.97L290.033 107.046C289.941 106.901 289.797 106.798 289.631 106.757C289.464 106.717 289.289 106.742 289.141 106.828C288.993 106.915 288.884 107.055 288.838 107.219C288.792 107.384 288.811 107.56 288.893 107.711Z" fill="#B1BDD2"/>
<path d="M306.784 87.8095L313.314 101.734C313.674 102.501 314.813 101.833 314.454 101.068L307.924 87.1444C307.564 86.377 306.425 87.0453 306.784 87.8095Z" fill="#4A4A4A"/>
<path d="M306.784 87.8095L313.314 101.734C313.674 102.501 314.813 101.833 314.454 101.068L307.924 87.1444C307.564 86.377 306.425 87.0453 306.784 87.8095Z" fill="#B1BDD2"/>
<path d="M371.685 97.1719C373.738 104.334 376.812 111.165 380.813 117.454C381.951 119.241 383.163 120.979 384.448 122.667C384.955 123.334 386.102 122.678 385.588 122.002C381.123 116.134 377.531 109.654 374.922 102.762C374.186 100.809 373.532 98.8292 372.958 96.8216C372.907 96.6585 372.794 96.5216 372.644 96.4398C372.493 96.358 372.317 96.3377 372.152 96.3831C371.987 96.4285 371.846 96.5362 371.759 96.6833C371.672 96.8305 371.645 97.0057 371.685 97.1719H371.685Z" fill="#4A4A4A"/>
<path d="M371.685 97.1719C373.738 104.334 376.812 111.165 380.813 117.454C381.951 119.241 383.163 120.979 384.448 122.667C384.955 123.334 386.102 122.678 385.588 122.002C381.123 116.134 377.531 109.654 374.922 102.762C374.186 100.809 373.532 98.8292 372.958 96.8216C372.907 96.6585 372.794 96.5216 372.644 96.4398C372.493 96.358 372.317 96.3377 372.152 96.3831C371.987 96.4285 371.846 96.5362 371.759 96.6833C371.672 96.8305 371.645 97.0057 371.685 97.1719H371.685Z" fill="#B1BDD2"/>
<path d="M410.778 125.718L418.797 139.643C418.889 139.787 419.033 139.891 419.199 139.931C419.365 139.972 419.541 139.946 419.689 139.86C419.837 139.774 419.945 139.633 419.992 139.469C420.038 139.304 420.018 139.128 419.937 138.978L411.918 125.053C411.827 124.909 411.683 124.805 411.516 124.765C411.35 124.724 411.174 124.75 411.026 124.836C410.879 124.922 410.77 125.063 410.724 125.227C410.678 125.392 410.697 125.568 410.778 125.718Z" fill="#4A4A4A"/>
<path d="M410.778 125.718L418.797 139.643C418.889 139.787 419.033 139.891 419.199 139.931C419.365 139.972 419.541 139.946 419.689 139.86C419.837 139.774 419.945 139.633 419.992 139.469C420.038 139.304 420.018 139.128 419.937 138.978L411.918 125.053C411.827 124.909 411.683 124.805 411.516 124.765C411.35 124.724 411.174 124.75 411.026 124.836C410.879 124.922 410.77 125.063 410.724 125.227C410.678 125.392 410.697 125.568 410.778 125.718Z" fill="#B1BDD2"/>
<path d="M428.671 105.817L435.201 119.741C435.561 120.509 436.699 119.84 436.341 119.076L429.81 105.152C429.45 104.385 428.312 105.053 428.671 105.817Z" fill="#4A4A4A"/>
<path d="M428.671 105.817L435.201 119.741C435.561 120.509 436.699 119.84 436.341 119.076L429.81 105.152C429.45 104.385 428.312 105.053 428.671 105.817Z" fill="#B1BDD2"/>
<path d="M351.884 182.383C353.937 189.545 357.011 196.376 361.012 202.665C362.151 204.452 363.363 206.19 364.648 207.878C365.154 208.545 366.301 207.889 365.787 207.212C361.323 201.345 357.73 194.865 355.121 187.973C354.386 186.02 353.731 184.04 353.157 182.033C353.106 181.869 352.993 181.733 352.843 181.651C352.693 181.569 352.516 181.549 352.351 181.594C352.186 181.639 352.045 181.747 351.958 181.894C351.871 182.041 351.845 182.217 351.884 182.383H351.884Z" fill="#4A4A4A"/>
<path d="M351.884 182.383C353.937 189.545 357.011 196.376 361.012 202.665C362.151 204.452 363.363 206.19 364.648 207.878C365.154 208.545 366.301 207.889 365.787 207.212C361.323 201.345 357.73 194.865 355.121 187.973C354.386 186.02 353.731 184.04 353.157 182.033C353.106 181.869 352.993 181.733 352.843 181.651C352.693 181.569 352.516 181.549 352.351 181.594C352.186 181.639 352.045 181.747 351.958 181.894C351.871 182.041 351.845 182.217 351.884 182.383H351.884Z" fill="#B1BDD2"/>
<path d="M390.978 210.929L398.996 224.854C399.088 224.998 399.232 225.102 399.398 225.142C399.565 225.183 399.74 225.157 399.888 225.071C400.036 224.985 400.145 224.844 400.191 224.68C400.237 224.515 400.217 224.339 400.136 224.189L392.117 210.264C392.026 210.12 391.882 210.016 391.716 209.976C391.549 209.935 391.374 209.961 391.226 210.047C391.078 210.133 390.969 210.274 390.923 210.438C390.877 210.603 390.896 210.779 390.978 210.929Z" fill="#4A4A4A"/>
<path d="M390.978 210.929L398.996 224.854C399.088 224.998 399.232 225.102 399.398 225.142C399.565 225.183 399.74 225.157 399.888 225.071C400.036 224.985 400.145 224.844 400.191 224.68C400.237 224.515 400.217 224.339 400.136 224.189L392.117 210.264C392.026 210.12 391.882 210.016 391.716 209.976C391.549 209.935 391.374 209.961 391.226 210.047C391.078 210.133 390.969 210.274 390.923 210.438C390.877 210.603 390.896 210.779 390.978 210.929Z" fill="#B1BDD2"/>
<path d="M408.869 191.028L415.399 204.952C415.759 205.72 416.898 205.051 416.539 204.287L410.009 190.363C409.649 189.596 408.51 190.264 408.869 191.028Z" fill="#4A4A4A"/>
<path d="M408.869 191.028L415.399 204.952C415.759 205.72 416.898 205.051 416.539 204.287L410.009 190.363C409.649 189.596 408.51 190.264 408.869 191.028Z" fill="#B1BDD2"/>
<path d="M218.557 217.961C220.61 225.123 223.684 231.954 227.685 238.243C228.824 240.03 230.035 241.768 231.32 243.456C231.827 244.123 232.974 243.467 232.46 242.791C227.995 236.923 224.403 230.443 221.794 223.551C221.058 221.598 220.404 219.618 219.83 217.611C219.779 217.448 219.666 217.311 219.516 217.229C219.365 217.147 219.189 217.127 219.024 217.172C218.859 217.218 218.718 217.325 218.631 217.472C218.544 217.62 218.517 217.795 218.557 217.961H218.557Z" fill="#4A4A4A"/>
<path d="M218.557 217.961C220.61 225.123 223.684 231.954 227.685 238.243C228.824 240.03 230.035 241.768 231.32 243.456C231.827 244.123 232.974 243.467 232.46 242.791C227.995 236.923 224.403 230.443 221.794 223.551C221.058 221.598 220.404 219.618 219.83 217.611C219.779 217.448 219.666 217.311 219.516 217.229C219.365 217.147 219.189 217.127 219.024 217.172C218.859 217.218 218.718 217.325 218.631 217.472C218.544 217.62 218.517 217.795 218.557 217.961H218.557Z" fill="#B1BDD2"/>
<path d="M257.651 246.508L265.67 260.432C265.762 260.576 265.906 260.68 266.072 260.72C266.239 260.761 266.414 260.735 266.562 260.649C266.71 260.563 266.818 260.423 266.865 260.258C266.911 260.093 266.891 259.917 266.81 259.767L258.791 245.842C258.7 245.698 258.556 245.594 258.389 245.554C258.223 245.513 258.047 245.539 257.899 245.625C257.752 245.712 257.643 245.852 257.597 246.016C257.551 246.181 257.57 246.357 257.651 246.508Z" fill="#4A4A4A"/>
<path d="M257.651 246.508L265.67 260.432C265.762 260.576 265.906 260.68 266.072 260.72C266.239 260.761 266.414 260.735 266.562 260.649C266.71 260.563 266.818 260.423 266.865 260.258C266.911 260.093 266.891 259.917 266.81 259.767L258.791 245.842C258.7 245.698 258.556 245.594 258.389 245.554C258.223 245.513 258.047 245.539 257.899 245.625C257.752 245.712 257.643 245.852 257.597 246.016C257.551 246.181 257.57 246.357 257.651 246.508Z" fill="#B1BDD2"/>
<path d="M275.543 226.606L282.073 240.53C282.433 241.298 283.571 240.63 283.213 239.865L276.682 225.941C276.322 225.174 275.184 225.842 275.543 226.606Z" fill="#4A4A4A"/>
<path d="M275.543 226.606L282.073 240.53C282.433 241.298 283.571 240.63 283.213 239.865L276.682 225.941C276.322 225.174 275.184 225.842 275.543 226.606Z" fill="#B1BDD2"/>
<path d="M387.526 262.324C389.579 269.487 392.653 276.317 396.654 282.606C397.792 284.394 399.004 286.131 400.289 287.819C400.796 288.486 401.943 287.83 401.429 287.154C396.964 281.287 393.372 274.807 390.763 267.914C390.027 265.962 389.372 263.982 388.799 261.974C388.748 261.811 388.635 261.674 388.485 261.592C388.334 261.51 388.158 261.49 387.993 261.535C387.828 261.581 387.687 261.689 387.6 261.836C387.513 261.983 387.486 262.158 387.526 262.324H387.526Z" fill="#4A4A4A"/>
<path d="M387.526 262.324C389.579 269.487 392.653 276.317 396.654 282.606C397.792 284.394 399.004 286.131 400.289 287.819C400.796 288.486 401.943 287.83 401.429 287.154C396.964 281.287 393.372 274.807 390.763 267.914C390.027 265.962 389.372 263.982 388.799 261.974C388.748 261.811 388.635 261.674 388.485 261.592C388.334 261.51 388.158 261.49 387.993 261.535C387.828 261.581 387.687 261.689 387.6 261.836C387.513 261.983 387.486 262.158 387.526 262.324H387.526Z" fill="#B1BDD2"/>
<path d="M426.619 290.871L434.638 304.795C434.729 304.94 434.874 305.043 435.04 305.084C435.206 305.124 435.382 305.099 435.53 305.012C435.678 304.926 435.786 304.786 435.832 304.621C435.879 304.457 435.859 304.28 435.778 304.13L427.759 290.206C427.668 290.061 427.524 289.958 427.357 289.917C427.191 289.877 427.015 289.902 426.867 289.989C426.719 290.075 426.611 290.215 426.565 290.38C426.518 290.544 426.538 290.72 426.619 290.871Z" fill="#4A4A4A"/>
<path d="M426.619 290.871L434.638 304.795C434.729 304.94 434.874 305.043 435.04 305.084C435.206 305.124 435.382 305.099 435.53 305.012C435.678 304.926 435.786 304.786 435.832 304.621C435.879 304.457 435.859 304.28 435.778 304.13L427.759 290.206C427.668 290.061 427.524 289.958 427.357 289.917C427.191 289.877 427.015 289.902 426.867 289.989C426.719 290.075 426.611 290.215 426.565 290.38C426.518 290.544 426.538 290.72 426.619 290.871Z" fill="#B1BDD2"/>
<path d="M444.51 270.97L451.041 284.894C451.401 285.661 452.539 284.993 452.181 284.229L445.65 270.305C445.29 269.537 444.152 270.205 444.51 270.97Z" fill="#4A4A4A"/>
<path d="M444.51 270.97L451.041 284.894C451.401 285.661 452.539 284.993 452.181 284.229L445.65 270.305C445.29 269.537 444.152 270.205 444.51 270.97Z" fill="#B1BDD2"/>
<path d="M460.129 215.324C462.183 222.487 465.257 229.317 469.257 235.606C470.396 237.394 471.608 239.131 472.893 240.819C473.399 241.486 474.546 240.83 474.033 240.154C469.568 234.287 465.975 227.807 463.367 220.914C462.631 218.962 461.976 216.982 461.402 214.974C461.351 214.811 461.238 214.674 461.088 214.592C460.938 214.51 460.761 214.49 460.596 214.535C460.431 214.581 460.29 214.689 460.203 214.836C460.116 214.983 460.09 215.158 460.129 215.324H460.129Z" fill="#4A4A4A"/>
<path d="M460.129 215.324C462.183 222.487 465.257 229.317 469.257 235.606C470.396 237.394 471.608 239.131 472.893 240.819C473.399 241.486 474.546 240.83 474.033 240.154C469.568 234.287 465.975 227.807 463.367 220.914C462.631 218.962 461.976 216.982 461.402 214.974C461.351 214.811 461.238 214.674 461.088 214.592C460.938 214.51 460.761 214.49 460.596 214.535C460.431 214.581 460.29 214.689 460.203 214.836C460.116 214.983 460.09 215.158 460.129 215.324H460.129Z" fill="#B1BDD2"/>
<path d="M499.224 243.871L507.242 257.795C507.334 257.94 507.478 258.043 507.644 258.084C507.811 258.124 507.986 258.099 508.134 258.012C508.282 257.926 508.391 257.786 508.437 257.621C508.483 257.457 508.464 257.28 508.382 257.13L500.364 243.206C500.272 243.061 500.128 242.958 499.962 242.917C499.795 242.877 499.62 242.902 499.472 242.989C499.324 243.075 499.215 243.215 499.169 243.38C499.123 243.544 499.142 243.72 499.224 243.871Z" fill="#4A4A4A"/>
<path d="M499.224 243.871L507.242 257.795C507.334 257.94 507.478 258.043 507.644 258.084C507.811 258.124 507.986 258.099 508.134 258.012C508.282 257.926 508.391 257.786 508.437 257.621C508.483 257.457 508.464 257.28 508.382 257.13L500.364 243.206C500.272 243.061 500.128 242.958 499.962 242.917C499.795 242.877 499.62 242.902 499.472 242.989C499.324 243.075 499.215 243.215 499.169 243.38C499.123 243.544 499.142 243.72 499.224 243.871Z" fill="#B1BDD2"/>
<path d="M517.114 223.97L523.644 237.894C524.004 238.661 525.143 237.993 524.784 237.229L518.254 223.305C517.894 222.537 516.755 223.205 517.114 223.97Z" fill="#4A4A4A"/>
<path d="M517.114 223.97L523.644 237.894C524.004 238.661 525.143 237.993 524.784 237.229L518.254 223.305C517.894 222.537 516.755 223.205 517.114 223.97Z" fill="#B1BDD2"/>
<path d="M476.85 116.059C478.903 123.221 481.977 130.052 485.978 136.341C487.116 138.128 488.328 139.866 489.613 141.553C490.12 142.221 491.267 141.565 490.753 140.888C486.288 135.021 482.696 128.541 480.087 121.648C479.351 119.696 478.697 117.716 478.123 115.708C478.072 115.545 477.959 115.408 477.809 115.327C477.658 115.245 477.482 115.224 477.317 115.27C477.152 115.315 477.011 115.423 476.924 115.57C476.837 115.717 476.81 115.892 476.85 116.059H476.85Z" fill="#4A4A4A"/>
<path d="M476.85 116.059C478.903 123.221 481.977 130.052 485.978 136.341C487.116 138.128 488.328 139.866 489.613 141.553C490.12 142.221 491.267 141.565 490.753 140.888C486.288 135.021 482.696 128.541 480.087 121.648C479.351 119.696 478.697 117.716 478.123 115.708C478.072 115.545 477.959 115.408 477.809 115.327C477.658 115.245 477.482 115.224 477.317 115.27C477.152 115.315 477.011 115.423 476.924 115.57C476.837 115.717 476.81 115.892 476.85 116.059H476.85Z" fill="#B1BDD2"/>
<path d="M515.944 144.605L523.963 158.529C524.055 158.674 524.199 158.777 524.365 158.818C524.531 158.859 524.707 158.833 524.855 158.747C525.003 158.66 525.111 158.52 525.158 158.356C525.204 158.191 525.184 158.015 525.103 157.864L517.084 143.94C516.993 143.796 516.849 143.692 516.682 143.652C516.516 143.611 516.34 143.637 516.192 143.723C516.045 143.809 515.936 143.949 515.89 144.114C515.844 144.279 515.863 144.455 515.944 144.605Z" fill="#4A4A4A"/>
<path d="M515.944 144.605L523.963 158.529C524.055 158.674 524.199 158.777 524.365 158.818C524.531 158.859 524.707 158.833 524.855 158.747C525.003 158.66 525.111 158.52 525.158 158.356C525.204 158.191 525.184 158.015 525.103 157.864L517.084 143.94C516.993 143.796 516.849 143.692 516.682 143.652C516.516 143.611 516.34 143.637 516.192 143.723C516.045 143.809 515.936 143.949 515.89 144.114C515.844 144.279 515.863 144.455 515.944 144.605Z" fill="#B1BDD2"/>
<path d="M533.835 124.704L540.365 138.628C540.725 139.395 541.863 138.727 541.505 137.963L534.974 124.039C534.614 123.272 533.476 123.94 533.835 124.704Z" fill="#4A4A4A"/>
<path d="M533.835 124.704L540.365 138.628C540.725 139.395 541.863 138.727 541.505 137.963L534.974 124.039C534.614 123.272 533.476 123.94 533.835 124.704Z" fill="#B1BDD2"/>
<path d="M120.432 80.918C122.485 88.0804 125.559 94.911 129.56 101.2C130.699 102.987 131.91 104.725 133.195 106.413C133.702 107.08 134.849 106.424 134.335 105.748C129.87 99.8805 126.278 93.4003 123.669 86.5078C122.933 84.5553 122.279 82.5753 121.705 80.5677C121.654 80.4046 121.541 80.2677 121.391 80.1859C121.24 80.1041 121.064 80.0838 120.899 80.1292C120.734 80.1746 120.593 80.2823 120.506 80.4294C120.419 80.5766 120.392 80.7518 120.432 80.918H120.432Z" fill="#4A4A4A"/>
<path d="M120.432 80.918C122.485 88.0804 125.559 94.911 129.56 101.2C130.699 102.987 131.91 104.725 133.195 106.413C133.702 107.08 134.849 106.424 134.335 105.748C129.87 99.8805 126.278 93.4003 123.669 86.5078C122.933 84.5553 122.279 82.5753 121.705 80.5677C121.654 80.4046 121.541 80.2677 121.391 80.1859C121.24 80.1041 121.064 80.0838 120.899 80.1292C120.734 80.1746 120.593 80.2823 120.506 80.4294C120.419 80.5766 120.392 80.7518 120.432 80.918H120.432Z" fill="#B1BDD2"/>
<path d="M159.526 109.465L167.545 123.389C167.637 123.533 167.781 123.637 167.947 123.677C168.113 123.718 168.289 123.692 168.437 123.606C168.585 123.52 168.693 123.38 168.74 123.215C168.786 123.05 168.766 122.874 168.685 122.724L160.666 108.8C160.575 108.655 160.431 108.552 160.264 108.511C160.098 108.47 159.922 108.496 159.774 108.582C159.627 108.669 159.518 108.809 159.472 108.973C159.426 109.138 159.445 109.314 159.526 109.465Z" fill="#4A4A4A"/>
<path d="M159.526 109.465L167.545 123.389C167.637 123.533 167.781 123.637 167.947 123.677C168.113 123.718 168.289 123.692 168.437 123.606C168.585 123.52 168.693 123.38 168.74 123.215C168.786 123.05 168.766 122.874 168.685 122.724L160.666 108.8C160.575 108.655 160.431 108.552 160.264 108.511C160.098 108.47 159.922 108.496 159.774 108.582C159.627 108.669 159.518 108.809 159.472 108.973C159.426 109.138 159.445 109.314 159.526 109.465Z" fill="#B1BDD2"/>
<path d="M177.418 89.5673L183.948 103.491C184.308 104.259 185.446 103.59 185.088 102.826L178.557 88.9022C178.197 88.1348 177.059 88.8031 177.418 89.5673Z" fill="#4A4A4A"/>
<path d="M177.418 89.5673L183.948 103.491C184.308 104.259 185.446 103.59 185.088 102.826L178.557 88.9022C178.197 88.1348 177.059 88.8031 177.418 89.5673Z" fill="#B1BDD2"/>
<path d="M148.154 136.703C150.207 143.866 153.281 150.696 157.281 156.985C158.42 158.773 159.632 160.51 160.917 162.198C161.424 162.865 162.571 162.209 162.057 161.533C157.592 155.666 154 149.185 151.391 142.293C150.655 140.34 150 138.36 149.427 136.353C149.376 136.19 149.263 136.053 149.113 135.971C148.962 135.889 148.786 135.869 148.621 135.914C148.456 135.96 148.315 136.067 148.228 136.215C148.14 136.362 148.114 136.537 148.154 136.703H148.154Z" fill="#4A4A4A"/>
<path d="M148.154 136.703C150.207 143.866 153.281 150.696 157.281 156.985C158.42 158.773 159.632 160.51 160.917 162.198C161.424 162.865 162.571 162.209 162.057 161.533C157.592 155.666 154 149.185 151.391 142.293C150.655 140.34 150 138.36 149.427 136.353C149.376 136.19 149.263 136.053 149.113 135.971C148.962 135.889 148.786 135.869 148.621 135.914C148.456 135.96 148.315 136.067 148.228 136.215C148.14 136.362 148.114 136.537 148.154 136.703H148.154Z" fill="#B1BDD2"/>
<path d="M187.248 165.25L195.267 179.174C195.358 179.319 195.502 179.422 195.669 179.463C195.835 179.503 196.011 179.477 196.159 179.391C196.307 179.305 196.415 179.165 196.461 179C196.508 178.835 196.488 178.659 196.407 178.509L188.388 164.585C188.297 164.44 188.152 164.337 187.986 164.296C187.82 164.256 187.644 164.281 187.496 164.367C187.348 164.454 187.24 164.594 187.194 164.759C187.147 164.923 187.167 165.099 187.248 165.25Z" fill="#4A4A4A"/>
<path d="M187.248 165.25L195.267 179.174C195.358 179.319 195.502 179.422 195.669 179.463C195.835 179.503 196.011 179.477 196.159 179.391C196.307 179.305 196.415 179.165 196.461 179C196.508 178.835 196.488 178.659 196.407 178.509L188.388 164.585C188.297 164.44 188.152 164.337 187.986 164.296C187.82 164.256 187.644 164.281 187.496 164.367C187.348 164.454 187.24 164.594 187.194 164.759C187.147 164.923 187.167 165.099 187.248 165.25Z" fill="#B1BDD2"/>
<path d="M205.139 145.349L211.67 159.273C212.03 160.04 213.168 159.372 212.81 158.608L206.279 144.683C205.919 143.916 204.781 144.584 205.139 145.349Z" fill="#4A4A4A"/>
<path d="M205.139 145.349L211.67 159.273C212.03 160.04 213.168 159.372 212.81 158.608L206.279 144.683C205.919 143.916 204.781 144.584 205.139 145.349Z" fill="#B1BDD2"/>
<path d="M84.3511 237.289C86.4042 244.452 89.4782 251.282 93.4788 257.571C94.6175 259.359 95.8293 261.096 97.1143 262.784C97.621 263.451 98.7679 262.795 98.2542 262.119C93.7893 256.252 90.1969 249.771 87.5883 242.879C86.8524 240.926 86.1977 238.946 85.624 236.939C85.5728 236.776 85.4601 236.639 85.3098 236.557C85.1594 236.475 84.9831 236.455 84.818 236.5C84.653 236.546 84.512 236.653 84.4249 236.801C84.3378 236.948 84.3113 237.123 84.3511 237.289H84.3511Z" fill="#4A4A4A"/>
<path d="M84.3511 237.289C86.4042 244.452 89.4782 251.282 93.4788 257.571C94.6175 259.359 95.8293 261.096 97.1143 262.784C97.621 263.451 98.7679 262.795 98.2542 262.119C93.7893 256.252 90.1969 249.771 87.5883 242.879C86.8524 240.926 86.1977 238.946 85.624 236.939C85.5728 236.776 85.4601 236.639 85.3098 236.557C85.1594 236.475 84.9831 236.455 84.818 236.5C84.653 236.546 84.512 236.653 84.4249 236.801C84.3378 236.948 84.3113 237.123 84.3511 237.289H84.3511Z" fill="#B1BDD2"/>
<path d="M123.444 265.836L131.463 279.76C131.555 279.904 131.699 280.008 131.865 280.048C132.031 280.089 132.207 280.063 132.355 279.977C132.503 279.891 132.611 279.751 132.658 279.586C132.704 279.421 132.684 279.245 132.603 279.095L124.584 265.171C124.493 265.026 124.349 264.923 124.182 264.882C124.016 264.842 123.84 264.867 123.692 264.953C123.545 265.04 123.436 265.18 123.39 265.344C123.344 265.509 123.363 265.685 123.444 265.836Z" fill="#4A4A4A"/>
<path d="M123.444 265.836L131.463 279.76C131.555 279.904 131.699 280.008 131.865 280.048C132.031 280.089 132.207 280.063 132.355 279.977C132.503 279.891 132.611 279.751 132.658 279.586C132.704 279.421 132.684 279.245 132.603 279.095L124.584 265.171C124.493 265.026 124.349 264.923 124.182 264.882C124.016 264.842 123.84 264.867 123.692 264.953C123.545 265.04 123.436 265.18 123.39 265.344C123.344 265.509 123.363 265.685 123.444 265.836Z" fill="#B1BDD2"/>
<path d="M141.337 245.934L147.867 259.859C148.227 260.626 149.365 259.958 149.007 259.193L142.476 245.269C142.116 244.502 140.978 245.17 141.337 245.934Z" fill="#4A4A4A"/>
<path d="M141.337 245.934L147.867 259.859C148.227 260.626 149.365 259.958 149.007 259.193L142.476 245.269C142.116 244.502 140.978 245.17 141.337 245.934Z" fill="#B1BDD2"/>
<path d="M261.24 158.664C263.293 165.827 266.367 172.657 270.367 178.946C271.506 180.733 272.718 182.471 274.003 184.159C274.51 184.826 275.657 184.17 275.143 183.494C270.678 177.627 267.086 171.146 264.477 164.254C263.741 162.301 263.086 160.321 262.513 158.314C262.461 158.151 262.349 158.014 262.198 157.932C262.048 157.85 261.872 157.83 261.707 157.875C261.542 157.921 261.401 158.028 261.314 158.176C261.226 158.323 261.2 158.498 261.24 158.664H261.24Z" fill="#4A4A4A"/>
<path d="M261.24 158.664C263.293 165.827 266.367 172.657 270.367 178.946C271.506 180.733 272.718 182.471 274.003 184.159C274.51 184.826 275.657 184.17 275.143 183.494C270.678 177.627 267.086 171.146 264.477 164.254C263.741 162.301 263.086 160.321 262.513 158.314C262.461 158.151 262.349 158.014 262.198 157.932C262.048 157.85 261.872 157.83 261.707 157.875C261.542 157.921 261.401 158.028 261.314 158.176C261.226 158.323 261.2 158.498 261.24 158.664H261.24Z" fill="#B1BDD2"/>
<path d="M300.333 187.211L308.352 201.135C308.443 201.279 308.587 201.383 308.754 201.423C308.92 201.464 309.096 201.438 309.244 201.352C309.392 201.266 309.5 201.126 309.546 200.961C309.593 200.796 309.573 200.62 309.492 200.47L301.473 186.546C301.382 186.401 301.237 186.298 301.071 186.257C300.905 186.217 300.729 186.242 300.581 186.328C300.433 186.415 300.325 186.555 300.278 186.719C300.232 186.884 300.252 187.06 300.333 187.211Z" fill="#4A4A4A"/>
<path d="M300.333 187.211L308.352 201.135C308.443 201.279 308.587 201.383 308.754 201.423C308.92 201.464 309.096 201.438 309.244 201.352C309.392 201.266 309.5 201.126 309.546 200.961C309.593 200.796 309.573 200.62 309.492 200.47L301.473 186.546C301.382 186.401 301.237 186.298 301.071 186.257C300.905 186.217 300.729 186.242 300.581 186.328C300.433 186.415 300.325 186.555 300.278 186.719C300.232 186.884 300.252 187.06 300.333 187.211Z" fill="#B1BDD2"/>
<path d="M318.225 167.309L324.756 181.234C325.116 182.001 326.254 181.333 325.896 180.568L319.365 166.644C319.005 165.877 317.867 166.545 318.225 167.309Z" fill="#4A4A4A"/>
<path d="M318.225 167.309L324.756 181.234C325.116 182.001 326.254 181.333 325.896 180.568L319.365 166.644C319.005 165.877 317.867 166.545 318.225 167.309Z" fill="#B1BDD2"/>
<path d="M175.677 246.564C180.667 245.499 183.148 237.328 181.218 228.314C179.288 219.299 173.677 212.855 168.687 213.92C163.696 214.984 161.215 223.155 163.145 232.17C165.076 241.184 170.686 247.629 175.677 246.564Z" fill="#FFC0E0"/>
<path d="M180.542 238.147C180.542 241.786 180.228 249.128 176.582 249.128C172.937 249.128 167.342 241.786 167.342 238.147C167.342 236.4 168.037 234.724 169.275 233.488C170.513 232.253 172.192 231.559 173.942 231.559C175.693 231.559 177.371 232.253 178.609 233.488C179.847 234.724 180.542 236.4 180.542 238.147Z" fill="#E6E6E6"/>
<path d="M175.418 241.59C175.222 241.695 174.992 241.718 174.779 241.654C174.566 241.59 174.388 241.444 174.282 241.248C174.268 241.22 174.265 241.188 174.274 241.158C174.283 241.128 174.304 241.102 174.332 241.087C174.36 241.072 174.392 241.069 174.422 241.078C174.453 241.087 174.478 241.108 174.493 241.135C174.569 241.275 174.696 241.379 174.848 241.425C175 241.471 175.165 241.454 175.304 241.379C175.444 241.304 175.549 241.177 175.595 241.025C175.641 240.873 175.624 240.71 175.549 240.57C175.534 240.542 175.531 240.509 175.541 240.479C175.55 240.449 175.571 240.424 175.598 240.409C175.626 240.394 175.659 240.39 175.689 240.399C175.72 240.408 175.745 240.429 175.76 240.457C175.865 240.652 175.888 240.882 175.824 241.094C175.76 241.307 175.614 241.485 175.418 241.59Z" fill="white"/>
<path d="M174.54 239.829C175.006 239.579 175.306 239.231 175.21 239.052C175.114 238.873 174.658 238.931 174.191 239.18C173.725 239.43 173.425 239.778 173.521 239.957C173.617 240.136 174.073 240.079 174.54 239.829Z" fill="white"/>
<path d="M169.583 240.132C169.646 239.827 169.775 239.539 169.962 239.289C170.149 239.039 170.388 238.833 170.663 238.686C170.939 238.538 171.243 238.453 171.555 238.436C171.866 238.419 172.178 238.47 172.468 238.587C172.614 238.142 172.624 237.664 172.498 237.213C172.371 236.762 172.114 236.359 171.758 236.054C171.402 235.75 170.963 235.557 170.498 235.501C170.032 235.445 169.561 235.529 169.142 235.74C168.724 235.952 168.378 236.283 168.148 236.691C167.918 237.099 167.815 237.565 167.851 238.032C167.887 238.499 168.06 238.944 168.35 239.312C168.639 239.681 169.032 239.955 169.478 240.1C169.512 240.112 169.548 240.122 169.583 240.132Z" fill="white"/>
<path d="M170.291 239.273C170.742 239.273 171.107 238.908 171.107 238.459C171.107 238.009 170.742 237.645 170.291 237.645C169.841 237.645 169.476 238.009 169.476 238.459C169.476 238.908 169.841 239.273 170.291 239.273Z" fill="#3F3D56"/>
<path d="M175.227 237.202C175.291 236.897 175.42 236.609 175.607 236.359C175.793 236.109 176.033 235.904 176.308 235.756C176.583 235.609 176.887 235.523 177.199 235.506C177.511 235.489 177.823 235.541 178.112 235.657C178.258 235.212 178.269 234.734 178.142 234.283C178.016 233.833 177.758 233.429 177.402 233.125C177.046 232.82 176.608 232.628 176.142 232.572C175.677 232.516 175.205 232.599 174.787 232.811C174.369 233.022 174.023 233.353 173.793 233.761C173.563 234.169 173.459 234.636 173.495 235.102C173.531 235.569 173.705 236.015 173.994 236.383C174.284 236.751 174.676 237.025 175.122 237.171C175.157 237.182 175.192 237.193 175.227 237.202Z" fill="white"/>
<path d="M176.235 236.3C176.686 236.3 177.051 235.936 177.051 235.486C177.051 235.036 176.686 234.672 176.235 234.672C175.785 234.672 175.42 235.036 175.42 235.486C175.42 235.936 175.785 236.3 176.235 236.3Z" fill="#3F3D56"/>
<path d="M180.327 235.429L177.543 238.262L177.824 238.537L180.609 235.705L180.327 235.429Z" fill="white"/>
<path d="M181.213 236.8L177.849 238.914L178.058 239.247L181.423 237.132L181.213 236.8Z" fill="white"/>
<path d="M171.57 241.461L167.666 242.211L167.74 242.597L171.644 241.847L171.57 241.461Z" fill="white"/>
<path d="M171.945 242.074L168.32 243.703L168.482 244.062L172.107 242.432L171.945 242.074Z" fill="white"/>
<path d="M180.034 244.543C181.105 244.543 181.973 243.677 181.973 242.608C181.973 241.538 181.105 240.672 180.034 240.672C178.963 240.672 178.095 241.538 178.095 242.608C178.095 243.677 178.963 244.543 180.034 244.543Z" fill="#FFC0E0"/>
<path d="M174.26 248.004C175.331 248.004 176.199 247.137 176.199 246.068C176.199 244.999 175.331 244.133 174.26 244.133C173.189 244.133 172.321 244.999 172.321 246.068C172.321 247.137 173.189 248.004 174.26 248.004Z" fill="#FFC0E0"/>
<path d="M173.943 229.361C173.063 228.922 172.586 232.19 172.586 232.19H174.66C174.66 232.19 174.823 229.8 173.943 229.361Z" fill="#E6E6E6"/>
<path d="M166.94 232.338C166.077 232.808 168.493 235.064 168.493 235.064L169.677 233.364C169.677 233.364 167.804 231.867 166.94 232.338Z" fill="#E6E6E6"/>
</g>
</g>
<defs>
<clipPath id="clip0_816_5006">
<rect width="676" height="512" fill="white"/>
</clipPath>
<clipPath id="clip1_816_5006">
<rect width="469" height="362" fill="white" transform="translate(82 52)"/>
</clipPath>
</defs>
</svg>
