<svg width="33" height="33" viewBox="0 0 33 33" fill="none" xmlns="http://www.w3.org/2000/svg">
    <path d="M9.8233 18.1439C10.8821 18.1439 11.7403 17.2856 11.7403 16.2269C11.7403 15.1681 10.8821 14.3098 9.8233 14.3098C8.76454 14.3098 7.90625 15.1681 7.90625 16.2269C7.90625 17.2856 8.76454 18.1439 9.8233 18.1439Z"
          fill="#2D2C4C"/>
    <path d="M16.8536 16.2269C16.8536 17.2856 15.9953 18.1439 14.9366 18.1439C13.8778 18.1439 13.0195 17.2856 13.0195 16.2269C13.0195 15.1681 13.8778 14.3098 14.9366 14.3098C15.9953 14.3098 16.8536 15.1681 16.8536 16.2269Z"
          fill="#2D2C4C"/>
    <path d="M20.0567 18.1439C21.1154 18.1439 21.9737 17.2856 21.9737 16.2269C21.9737 15.1681 21.1154 14.3098 20.0567 14.3098C18.9979 14.3098 18.1396 15.1681 18.1396 16.2269C18.1396 17.2856 18.9979 18.1439 20.0567 18.1439Z"
          fill="#2D2C4C"/>
    <path fill-rule="evenodd" clip-rule="evenodd"
          d="M32.2007 16.2254C32.2007 25.0483 25.0483 32.2007 16.2254 32.2007H0.250044L0.25 16.2254C0.25 7.40242 7.40242 0.25 16.2254 0.25C25.0483 0.25 32.2007 7.40242 32.2007 16.2254ZM30.4201 16.2254C30.4201 24.0649 24.0649 30.4201 16.2254 30.4201H2.03117L2.03064 30.3101L2.03061 16.2254C2.03061 8.38582 8.38582 2.03061 16.2254 2.03061C24.0649 2.03061 30.4201 8.38582 30.4201 16.2254Z"
          fill="#2D2C4C"/>
</svg>
