<svg width="16" height="16" viewBox="0 0 16 16" fill="none" xmlns="http://www.w3.org/2000/svg">
<path d="M1.13184 7.14053C0.855694 7.14053 0.631836 7.36439 0.631836 7.64053C0.631836 7.91667 0.855694 8.14053 1.13184 8.14053H7.40674V14.7958C7.40674 15.0719 7.6306 15.2958 7.90674 15.2958C8.18288 15.2958 8.40674 15.0719 8.40674 14.7958L8.40674 8.14053H15.0058C15.2819 8.14053 15.5058 7.91667 15.5058 7.64053C15.5058 7.36439 15.2819 7.14053 15.0058 7.14053H8.40674L8.40674 0.921875C8.40674 0.645733 8.18288 0.421875 7.90674 0.421875C7.6306 0.421875 7.40674 0.645733 7.40674 0.921875L7.40674 7.14053H1.13184Z" fill="#2D2C4C"/>
</svg>
