<svg width="143" height="154" viewBox="0 0 143 154" fill="none" xmlns="http://www.w3.org/2000/svg">
<g clip-path="url(#clip0_816_3926)">
<path d="M68.1386 2.96042C86.9962 -6.50435 113.256 7.95338 115.285 28.9178C117.314 49.8822 94.313 69.0868 73.9886 63.3977C53.6642 57.7086 36.1559 19.0128 68.1386 2.96042Z" fill="#FFC0E0"/>
<path d="M55.3104 98.4766C54.8318 98.5351 54.3533 98.5936 53.875 98.6522C54.6643 98.5653 55.1094 98.5083 55.3104 98.4766Z" fill="#2D2C4C"/>
<path d="M137.346 151.867C129.278 134.901 118.269 119.334 105.719 105.382C98.4242 97.9723 90.1315 91.6499 81.5139 85.8354C96.4858 72.1023 105.87 50.5614 100.353 30.4426C95.7717 14.3525 78.9482 2.87005 62.4632 9.13244C57.1728 11.2001 52.1772 13.9617 47.2548 16.7745C54.5593 14.7301 61.9424 11.8313 69.6377 12.2052C73.0447 12.5143 76.3098 13.7145 79.1035 15.6847C80.8074 16.6046 83.7747 19.1823 85.4816 21.4701C92.4466 33.2109 91.642 40.4219 86.5399 55.097C79.3298 70.8958 59.7705 88.4874 43.7815 83.5146C40.1904 82.6402 29.7303 72.9515 28.2908 65.0993C22.6913 44.3175 31.2652 22.2461 58.3503 16.7683C28.7091 16.1909 12.3886 41.4789 17.1572 69.1212C19.7606 81.897 29.106 94.0228 41.8024 97.9861C45.47 98.9237 49.278 99.1867 53.0401 98.7623C54.4034 98.5077 55.8916 98.3845 55.3099 98.4761C55.3957 98.4656 55.4815 98.4552 55.5668 98.4447C64.563 97.8837 72.5304 93.3979 79.3395 87.7631C85.3832 95.2041 91.6045 102.501 97.737 109.869C105.748 120.228 114.469 130.022 123.835 139.18C128.582 144.203 133.368 149.19 138.331 154.001C138.004 153.29 137.678 152.577 137.346 151.867Z" fill="#2D2C4C"/>
<path d="M138.33 71.0938C132.097 71.2479 132.113 80.3604 138.33 80.5314C144.565 80.3772 144.548 71.2648 138.33 71.0938Z" fill="#2D2C4C"/>
<path d="M4.66933 0C-1.56452 0.15416 -1.54836 9.26663 4.66933 9.43764C10.9035 9.28349 10.8872 0.171095 4.66933 0Z" fill="#2D2C4C"/>
<path d="M9.33925 109.621C3.1054 109.775 3.12156 118.888 9.33925 119.059C15.5734 118.905 15.5571 109.792 9.33925 109.621Z" fill="#2D2C4C"/>
</g>
<defs>
<clipPath id="clip0_816_3926">
<rect width="143" height="154" fill="white"/>
</clipPath>
</defs>
</svg>
