<svg width="18" height="18" viewBox="0 0 18 18" fill="none" xmlns="http://www.w3.org/2000/svg">
<path fill-rule="evenodd" clip-rule="evenodd" d="M7.80638 15.6853C12.1177 15.6853 15.6128 12.174 15.6128 7.84266C15.6128 3.51128 12.1177 0 7.80638 0C3.49503 0 0 3.51128 0 7.84266C0 12.174 3.49503 15.6853 7.80638 15.6853ZM7.80639 13.287C10.7993 13.287 13.2255 10.8495 13.2255 7.84267C13.2255 4.83584 10.7993 2.39833 7.80639 2.39833C4.81347 2.39833 2.38724 4.83584 2.38724 7.84267C2.38724 10.8495 4.81347 13.287 7.80639 13.287Z" fill="#4A4A4A"/>
<path fill-rule="evenodd" clip-rule="evenodd" d="M7.80638 15.6853C12.1177 15.6853 15.6128 12.174 15.6128 7.84266C15.6128 3.51128 12.1177 0 7.80638 0C3.49503 0 0 3.51128 0 7.84266C0 12.174 3.49503 15.6853 7.80638 15.6853ZM7.80639 13.287C10.7993 13.287 13.2255 10.8495 13.2255 7.84267C13.2255 4.83584 10.7993 2.39833 7.80639 2.39833C4.81347 2.39833 2.38724 4.83584 2.38724 7.84267C2.38724 10.8495 4.81347 13.287 7.80639 13.287Z" fill="#B1BDD2"/>
<path fill-rule="evenodd" clip-rule="evenodd" d="M12.5598 12.5345C12.9275 12.1652 13.5236 12.1652 13.8912 12.5345L17.7243 16.3853C18.0919 16.7547 18.0919 17.3536 17.7243 17.723C17.3566 18.0923 16.7605 18.0923 16.3928 17.723L12.5598 13.8722C12.1921 13.5028 12.1921 12.9039 12.5598 12.5345Z" fill="#4A4A4A"/>
<path fill-rule="evenodd" clip-rule="evenodd" d="M12.5598 12.5345C12.9275 12.1652 13.5236 12.1652 13.8912 12.5345L17.7243 16.3853C18.0919 16.7547 18.0919 17.3536 17.7243 17.723C17.3566 18.0923 16.7605 18.0923 16.3928 17.723L12.5598 13.8722C12.1921 13.5028 12.1921 12.9039 12.5598 12.5345Z" fill="#B1BDD2"/>
</svg>
