<svg width="231" height="130" viewBox="0 0 231 130" fill="none" xmlns="http://www.w3.org/2000/svg">
<path d="M11.7979 101.509C15.6731 89.9216 30.1999 83.2445 41.5174 87.8484C54.8653 93.2784 70.0848 84.9861 79.6645 74.2214C89.2442 63.4566 95.7715 50.0566 106.462 40.3945C117.153 30.7323 134.747 25.9745 145.653 35.3937C157.001 45.1951 174.383 47.3107 187.75 40.5174C201.118 33.7242 209.656 18.4365 208.428 3.49219C188.855 23.2533 156.645 29.1628 131.331 17.637C119.202 12.1145 104.679 19.2587 95.9799 29.3551C87.2808 39.4516 82.2596 52.1954 74.3408 62.9148C66.422 73.6341 53.66 82.7011 40.6051 80.0213C27.5491 77.3413 13.4492 88.3824 11.7979 101.509Z" fill="#FFC0E0"/>
<path d="M37.7748 61.1758C33.7965 61.2743 33.8068 67.1028 37.7748 67.2122C41.7534 67.1136 41.7429 61.2852 37.7748 61.1758Z" fill="#2D2C4C"/>
<path d="M69.5677 52.5039C65.5894 52.6026 65.5998 58.431 69.5678 58.5403C73.5463 58.4418 73.5359 52.6133 69.5677 52.5039Z" fill="#2D2C4C"/>
<path d="M123.876 16.9805C119.898 17.0791 119.908 22.9076 123.876 23.0169C127.855 22.9183 127.844 17.0899 123.876 16.9805Z" fill="#2D2C4C"/>
<path d="M171.511 26.0391C167.533 26.1377 167.543 31.9661 171.511 32.0755C175.49 31.9769 175.479 26.1485 171.511 26.0391Z" fill="#2D2C4C"/>
<path d="M214.724 0.476562C210.746 0.575206 210.756 6.40365 214.724 6.51298C218.703 6.41442 218.692 0.585987 214.724 0.476562Z" fill="#2D2C4C"/>
<path d="M0.218908 109.684C0.216825 109.688 0.214772 109.691 0.212689 109.695C4.08723 105.103 9.22991 99.0287 13.1054 95.7203C20.7132 90.1984 28.0947 87.5066 36.7922 88.0418C38.0661 88.1614 39.3324 88.3525 40.5847 88.6152C40.2836 90.0955 40.1643 91.6178 40.0454 93.1363C39.9779 93.9989 39.9104 94.8596 39.8098 95.7105C38.9764 106.932 39.5533 118.224 40.5008 129.426L40.9901 129.515C42.0131 123.54 42.8751 117.513 42.9903 111.448C42.98 104.916 42.1423 98.4023 41.3103 91.9325L41.0431 89.8475L40.8955 88.677C43.1493 89.1407 45.6278 89.7867 48.2123 90.4611L48.2309 90.467C53.8248 91.9276 59.9138 93.5176 65.2947 93.6617C67.69 93.7333 70.0842 93.4872 72.4152 92.9314C74.5582 92.2746 76.6354 91.4198 78.6202 90.3778C78.7005 90.3405 78.7783 90.3003 78.8553 90.2582L78.9531 90.2053L79.1814 90.0837C79.1162 90.4562 79.0541 90.8297 79.0006 91.2042C77.6493 103.718 79.5065 116.259 81.3417 128.651L81.5146 129.819H82.0255C82.411 124.57 82.6867 119.303 82.3341 114.045C81.9157 108.714 81.1985 104.047 80.4061 98.8915C80.0716 96.7153 79.7237 94.4518 79.3793 92.0148C79.3255 91.5747 79.2815 91.1346 79.243 90.6925L79.1925 90.0778C87.5214 85.8724 92.0542 77.3725 96.3374 69.3411C96.915 68.2579 97.488 67.1835 98.0652 66.1287C102.181 58.212 107.323 50.4394 112.714 46.6575C119.482 42.0943 127.053 40.1769 133.717 42.4305C137.525 43.3775 141.225 46.232 145.115 49.2336C147.421 51.0128 149.793 52.844 152.296 54.3595C156.421 56.87 161.456 57.8679 166.243 57.8493C170.83 57.5787 174.891 55.1878 178.612 52.6764C183.949 49.015 188.844 44.7489 193.2 39.9632C194.871 38.1604 196.444 36.2714 198.017 34.3825L198.036 34.3589C200.059 31.9278 202.082 29.4968 204.311 27.2509C207.868 23.8896 212.409 21.0105 217.338 18.4981C217.276 20.8243 217.186 23.1495 217.096 25.4747C216.925 29.882 216.755 34.2883 216.775 38.7006C216.787 39.8691 216.796 41.0385 216.802 42.208L216.811 44.3548L216.82 47.6603C216.835 54.6791 216.851 61.6978 217.188 68.7068C217.967 80.1859 218.3 91.6806 218.634 103.176C218.788 108.486 218.942 113.798 219.14 119.107C221.229 104.831 223.048 90.4582 222.822 76.002C222.656 66.8178 222.186 57.6434 221.415 48.4798C220.339 39.0946 219.346 29.6997 218.369 20.3027C218.278 19.5783 218.177 18.8539 218.079 18.1295C218.577 17.8815 219.074 17.6315 219.579 17.3903C221.332 16.5983 223.363 15.9209 225.396 15.2426L226.801 14.771C227.216 14.6328 227.632 14.4966 228.048 14.3623C228.78 14.1241 229.514 13.8888 230.248 13.6565L229.486 13.7653C225.53 14.2319 221.625 15.0573 217.819 16.2326L217.44 13.5977L217.394 16.0444L217.386 16.3816C215.245 17.0767 213.162 17.9364 211.153 18.9509C207.89 20.4361 204.817 22.3084 202.003 24.5287C199.365 26.7853 196.998 29.3183 194.63 31.8524C193.072 33.5188 191.514 35.1853 189.879 36.7733C182.636 43.8137 171.794 53.4371 164.41 52.6548C162.783 52.4891 161.173 52.1882 159.597 51.7529L159.578 51.7471L159.561 51.7412L159.545 51.7353C159.165 51.6304 158.785 51.5255 158.407 51.4128C158.236 51.3618 158.065 51.3089 157.896 51.254C157.581 51.153 157.269 51.0452 156.96 50.9276C154.642 49.7179 152.432 48.3122 150.354 46.7251C149.622 46.185 148.893 45.6301 148.164 45.0753L148.119 45.04L148.068 45.0018L147.994 44.9459C143.628 41.6198 139.199 38.2447 133.696 37.1684C128.953 35.9323 123.958 36.642 119.36 38.1438C113.203 40.0837 107.748 43.7823 103.668 48.7847C99.4665 53.5959 96.1203 59.8177 92.8887 65.8268C88.7076 73.6013 84.7183 81.0191 79.3178 84.5638C69.9437 90.6023 63.357 89.4897 51.8287 86.4616L51.4791 86.3675C45.879 84.8461 40.1562 83.2924 34.3116 83.4502C27.0611 83.8335 20.1131 86.7821 14.402 91.1963C11.0479 93.6294 8.53775 96.9672 6.25327 100.38L6.23646 100.403C4.15257 103.445 2.06648 106.492 0.218908 109.684Z" fill="#2D2C4C"/>
<path d="M125.86 125.934L126.099 125.911C128.452 110.228 128.371 94.344 127.722 78.5341C127.54 74.7228 127.411 70.9105 127.281 67.0972L127.281 67.0825C127.155 63.3829 127.029 59.6834 126.856 55.9858C126.791 54.2281 126.67 52.4734 126.55 50.7188C126.369 48.0808 126.188 45.4439 126.195 42.8001C126.191 42.6903 126.199 42.508 126.206 42.3413C126.222 41.9914 126.235 41.71 126.122 42.3129C125.423 45.8282 125.107 49.3993 124.792 52.9695L124.791 52.9783C124.645 54.6301 124.499 56.2818 124.315 57.9277C123.558 65.4856 122.968 73.0661 123.078 80.6682C123.068 87.2478 123.609 93.8048 124.151 100.359L124.367 102.985L124.531 105.041C124.922 109.738 125.19 114.444 125.459 119.149C125.588 121.411 125.717 123.674 125.86 125.934Z" fill="#2D2C4C"/>
<path d="M43.501 129.819C43.107 129.8 42.713 129.778 42.3191 129.756L42.6616 129.819H43.501Z" fill="#2D2C4C"/>
<path d="M0.0429484 111.384C0.044235 111.162 0.0454297 110.941 0.0465938 110.719L0 110.998L0.0429484 111.384Z" fill="#2D2C4C"/>
<path d="M173.184 60.2019C173.082 58.8609 173.001 60.1314 172.929 61.2636C172.896 61.7831 172.865 62.2743 172.835 62.4703C172.51 66.7325 172.324 71.0026 172.138 75.2727C172.078 76.6294 172.019 77.9851 171.956 79.3409C171.147 92.1884 171.601 105.056 172.055 117.91L172.173 121.275C174.521 110.213 175.64 98.9238 175.51 87.6154C175.437 78.4312 174.335 69.3018 173.184 60.2019Z" fill="#2D2C4C"/>
</svg>
