<svg width="24" height="22" viewBox="0 0 24 22" fill="none" xmlns="http://www.w3.org/2000/svg">
<path fill-rule="evenodd" clip-rule="evenodd" d="M15.0569 0.772599C14.2462 1.06961 13.5756 1.68373 13.2721 2.40727L13.1083 2.7978L7.08661 2.79807L1.06503 2.79843L0.866815 3.00513C0.595331 3.28847 0.601346 3.77717 0.879573 4.03345L1.09055 4.22765H7.10775H13.125L13.2316 4.57647C13.3745 5.04373 14.0745 5.78978 14.6477 6.08572C15.0581 6.29751 15.2158 6.32601 15.979 6.32637C16.7687 6.32681 16.8876 6.30359 17.3327 6.06187C17.9141 5.74628 18.4537 5.17218 18.6831 4.62515L18.8496 4.22827L21.226 4.228C23.5919 4.22765 23.6032 4.22675 23.8005 4.02095C24.072 3.7376 24.066 3.2489 23.7877 2.99262C23.5823 2.80352 23.5147 2.79843 21.2049 2.79843H18.833L18.7263 2.44961C18.5823 1.9785 17.8794 1.23281 17.3102 0.947053C16.7471 0.664425 15.5957 0.575278 15.0569 0.772599ZM16.7657 2.35912C17.0793 2.54912 17.4371 3.16395 17.4371 3.51304C17.4371 3.869 17.0778 4.47785 16.7509 4.67598C16.2695 4.96754 15.8732 4.99451 15.3959 4.76798C14.3046 4.25016 14.2762 2.84273 15.3459 2.28319C15.814 2.03835 16.2771 2.06309 16.7657 2.35912ZM6.30816 8.276C5.49744 8.57301 4.82689 9.18713 4.52342 9.91067L4.35956 10.3012L2.71225 10.3015C1.10841 10.3018 1.05974 10.3073 0.866815 10.5085C0.595331 10.7919 0.601346 11.2806 0.879573 11.5369C1.08007 11.7214 1.17202 11.731 2.73339 11.731H4.37624L4.48286 12.0799C4.62576 12.5471 5.32575 13.2932 5.89897 13.5891C6.30934 13.8009 6.46709 13.8294 7.23024 13.8298C8.01999 13.8302 8.13883 13.807 8.58401 13.5653C9.16535 13.2497 9.70494 12.6756 9.93441 12.1285L10.1009 11.7317L16.8516 11.7314L23.6023 11.731L23.8005 11.5243C24.072 11.241 24.066 10.7523 23.7877 10.496L23.5768 10.3018H16.8305H10.0842L9.97761 9.95301C9.83362 9.4819 9.13072 8.73621 8.5615 8.45045C7.99839 8.16783 6.84693 8.07868 6.30816 8.276ZM7.83599 9.77221C8.46864 10.0724 8.77849 10.7138 8.60178 11.357C8.31462 12.4025 7.01042 12.7524 6.2348 11.9921C5.33896 11.1142 5.96924 9.65475 7.26979 9.59526C7.36675 9.59088 7.62156 9.67047 7.83599 9.77221ZM15.0569 15.7794C14.2462 16.0764 13.5756 16.6905 13.2721 17.4141L13.1083 17.8046L7.08661 17.8049L1.06503 17.8052L0.866815 18.0119C0.595331 18.2953 0.601346 18.784 0.879573 19.0403L1.09055 19.2344H7.10775H13.125L13.2316 19.5833C13.3745 20.0505 14.0745 20.7966 14.6477 21.0925C15.0581 21.3043 15.2158 21.3328 15.979 21.3332C16.7687 21.3336 16.8876 21.3104 17.3327 21.0687C17.9141 20.7531 18.4537 20.179 18.6831 19.6319L18.8496 19.2351L21.226 19.2348C23.5919 19.2344 23.6032 19.2336 23.8005 19.0277C24.072 18.7444 24.066 18.2557 23.7877 17.9994C23.5823 17.8103 23.5147 17.8052 21.2049 17.8052H18.833L18.7263 17.4564C18.5823 16.9853 17.8794 16.2396 17.3102 15.9539C16.7471 15.6712 15.5957 15.5821 15.0569 15.7794ZM16.5847 17.2756C17.2174 17.5758 17.5272 18.2172 17.3505 18.8604C17.0633 19.9059 15.7591 20.2558 14.9835 19.4955C14.0877 18.6176 14.718 17.1581 16.0185 17.0987C16.1155 17.0943 16.3703 17.1739 16.5847 17.2756Z" fill="#E50075"/>
</svg>
