<svg viewBox="0 0 32 32"
     fill="none"
     xmlns="http://www.w3.org/2000/svg">
<path fill-rule="evenodd"
      clip-rule="evenodd"
      d="M20.667 14.3333C20.667 16.7266 18.7269 18.6667 16.3337 18.6667C13.9404 18.6667 12.0003 16.7266 12.0003 14.3333C12.0003 11.9401 13.9404 10 16.3337 10C18.7269 10 20.667 11.9401 20.667 14.3333ZM19.3337 14.3333C19.3337 15.9902 17.9905 17.3333 16.3337 17.3333C14.6768 17.3333 13.3337 15.9902 13.3337 14.3333C13.3337 12.6765 14.6768 11.3333 16.3337 11.3333C17.9905 11.3333 19.3337 12.6765 19.3337 14.3333Z"
      fill="#2D2C4C" />
<path fill-rule="evenodd"
      clip-rule="evenodd"
      d="M7.17102 23.5561C7.32996 23.7575 7.49539 23.9534 7.66699 24.1437C9.80227 26.5116 12.8941 28 16.3337 28C19.7732 28 22.865 26.5116 25.0003 24.1437C25.1877 23.936 25.3676 23.7215 25.5398 23.5006C27.0817 21.5229 28.0003 19.0354 28.0003 16.3333C28.0003 9.89001 22.777 4.66667 16.3337 4.66667C9.89034 4.66667 4.66699 9.89001 4.66699 16.3333C4.66699 19.0607 5.60288 21.5695 7.17102 23.5561ZM20.0445 19.3348L20.0224 19.3333H12.667C10.9705 19.3333 9.66823 20.1375 8.75246 21.0925C8.40198 21.458 8.10275 21.8506 7.85315 22.2393C6.68472 20.5652 6.00033 18.5302 6.00033 16.3333C6.00033 10.6264 10.6267 6 16.3337 6C22.0406 6 26.667 10.6264 26.667 16.3333C26.667 18.4635 26.0235 20.4415 24.9192 22.0858C24.4569 21.355 23.8452 20.7992 23.2 20.3885C22.089 19.6813 20.8606 19.3889 20.0445 19.3348ZM24.0101 23.2508L24.0276 23.2314C23.6737 22.4664 23.1108 21.9123 22.484 21.5133C21.5994 20.9502 20.6068 20.7122 19.9773 20.6667H12.667C11.4301 20.6667 10.4546 21.2438 9.71485 22.0153C9.31012 22.4374 8.98694 22.9074 8.74452 23.3465C10.634 25.3901 13.3339 26.6667 16.3337 26.6667C19.38 26.6667 22.117 25.3501 24.0101 23.2508Z"
      fill="#2D2C4C" />
</svg>