<svg width="23" height="23" viewBox="0 0 23 23" fill="none" xmlns="http://www.w3.org/2000/svg">
<path d="M5.13292 9.8335V21.6002H1.39994V9.06683H5.83289C6.21918 9.06683 6.53286 8.75388 6.53286 8.36683C6.53286 7.97978 6.21918 7.66683 5.83289 7.66683H0.69997C0.313684 7.66683 0 7.97978 0 8.36683V22.3002C0 22.6872 0.313684 23.0002 0.69997 23.0002H5.83289C6.21918 23.0002 6.53286 22.6872 6.53286 22.3002V10.4798C8.63627 10.153 10.1992 8.37245 10.1992 6.16683V2.50016C10.1992 2.08803 10.5538 1.7335 10.9658 1.7335C11.7184 1.7335 12.2657 1.94822 12.625 2.30758C12.9843 2.66694 13.1989 3.21436 13.1989 3.96683V11.3002C13.1989 12.5553 12.2207 13.5335 10.9658 13.5335C10.5795 13.5335 10.2658 13.8464 10.2658 14.2335C10.2658 14.6205 10.5795 14.9335 10.9658 14.9335C13.0003 14.9335 14.5989 13.3348 14.5989 11.3002V10.3944C14.8356 10.4838 15.0933 10.5335 15.3655 10.5335H20.4984C20.6462 10.5335 20.8038 10.5465 20.9393 10.5833C21.0779 10.621 21.1583 10.6739 21.1984 10.7263C21.2625 10.8099 21.318 11.0239 21.192 11.4914L19.177 19.5658C19.0971 19.8858 18.9429 20.2227 18.7246 20.4728C18.5103 20.7184 18.2484 20.8668 17.9319 20.8668H12.4324C11.7122 20.8668 11.2005 20.5807 10.5798 20.2258L10.5639 20.2167C9.89585 19.8349 9.13514 19.4002 8.03271 19.4002H7.29944C6.91315 19.4002 6.59947 19.7131 6.59947 20.1002C6.59947 20.4872 6.91315 20.8002 7.29944 20.8002H8.03271C8.75286 20.8002 9.26461 21.0863 9.88529 21.4412L9.90118 21.4503C10.5692 21.8321 11.3299 22.2668 12.4324 22.2668H17.9319C19.1942 22.2668 20.1899 21.2866 20.5351 19.9048L22.5464 11.8462C22.7517 11.0812 22.7071 10.3938 22.3095 9.87467C21.9179 9.36324 21.2636 9.1335 20.4984 9.1335H15.3655C14.9328 9.1335 14.5989 8.79979 14.5989 8.36683V3.96683C14.5989 2.87919 14.2597 1.96282 13.6146 1.31773C12.9695 0.672639 12.0532 0.333496 10.9658 0.333496C9.77087 0.333496 8.79929 1.30519 8.79929 2.50016V6.16683C8.79929 7.83333 7.49919 9.1335 5.83289 9.1335C5.4466 9.1335 5.13292 9.44644 5.13292 9.8335Z" fill="#E50075"/>
<path d="M2.19982 19.7335C2.19982 20.322 2.67791 20.8002 3.26643 20.8002C3.85495 20.8002 4.33304 20.322 4.33304 19.7335C4.33304 19.145 3.85495 18.6668 3.26643 18.6668C2.67791 18.6668 2.19982 19.145 2.19982 19.7335Z" fill="#E50075"/>
</svg>
