<svg width="1015" height="234" viewBox="0 0 1015 234" fill="none" xmlns="http://www.w3.org/2000/svg">
<g clip-path="url(#clip0_816_4056)">
<path d="M669.794 106.785C665.975 102.486 663.088 97.4461 661.317 91.9815C659.545 86.517 658.927 80.746 659.5 75.0316C660.074 69.3172 661.827 63.783 664.65 58.7769C667.472 53.7707 671.303 49.401 675.901 45.9425C687.576 37.123 696.418 25.0989 701.343 11.3438C701.342 47.5798 688.452 83.6865 669.794 106.785Z" fill="#FFC0E0"/>
<path d="M722.055 33.7203C720.361 27.2446 718.272 20.7737 715.04 14.8851C712.36 10.4863 708.952 6.39815 704.804 3.30769C704.521 3.11103 704.227 2.92998 703.932 2.75283C704.671 3.42468 705.354 4.15625 705.972 4.94008C710.086 10.3139 712.776 15.4601 714.357 21.7376C717.196 32.5081 718.428 40.3504 717.935 51.687C717.909 52.6757 717.869 53.655 717.816 54.625C703.923 58.0921 692.171 66.5083 682.813 77.1503C694.046 69.3631 705.446 61.706 717.606 55.4162C717.66 55.3885 717.714 55.3607 717.769 55.3329C716.873 69.9361 712.919 82.5928 705.12 95.6691C697.935 107.721 686.109 119.299 674.931 116.205C674.718 111.442 674.902 106.669 675.481 101.936C676.217 94.0196 678.975 81.0692 683.044 71.4496C685.898 64.1214 688.321 59.2245 692.712 50.0786C697.012 41.0847 701.157 32.0115 705.813 23.1916C707.394 20.5217 703.939 25.3637 703.368 26.0518C696.842 34.8598 691.093 44.2096 685.594 53.6802C682.332 59.1802 679.539 64.9435 677.243 70.9094C675.285 69.1927 673.218 67.6034 671.055 66.1515C666.815 63.6451 662.204 61.7733 657.554 60.166C657.332 60.0947 657.108 60.0252 656.886 59.9552C659.155 61.5984 661.412 63.2617 663.762 64.7907C667.992 67.4462 672.276 70.0426 676.691 72.3883C671.812 85.5877 669.304 99.5409 669.281 113.608C664.868 110.77 660.773 106.326 658.146 102.036C652.977 92.9709 651.454 77.4427 653.694 66.9829C655.433 58.6923 657.612 54.0774 661.089 47.2414C666.755 36.4069 672.232 29.3972 680.076 20.8671C684.492 16.1852 689.073 11.6191 694.112 7.59981C696.738 5.58516 701.795 2.29833 705.404 0C701.128 1.84219 696.793 3.5916 692.734 5.88399C688.069 8.57573 683.786 11.8705 679.613 15.2582C670.266 22.9335 662.249 32.2532 656.792 43.0715C650.698 54.1932 646.393 66.655 647.07 79.472C647.759 96.7588 652.532 109.98 667.882 119.384C668.504 119.721 669.124 120.023 669.741 120.297C671.822 137.219 678.67 153.703 691.849 165C683.444 154.323 678.953 143.298 676.603 130.057C676.102 127.349 675.69 124.682 675.39 121.993C693.432 124.86 708.594 103.149 715.235 88.1374C719.143 79.5587 722.002 70.4911 722.992 61.0953C724.14 52.009 724.117 42.6762 722.055 33.7203Z" fill="#2D2C4C"/>
<path d="M659.157 17.2174C661.2 17.2174 662.856 15.5659 662.856 13.5286C662.856 11.4914 661.2 9.83984 659.157 9.83984C657.113 9.83984 655.457 11.4914 655.457 13.5286C655.457 15.5659 657.113 17.2174 659.157 17.2174Z" fill="#2D2C4C"/>
<path d="M746.71 65.9914C748.527 65.9914 749.999 64.5234 749.999 62.7125C749.999 60.9016 748.527 59.4336 746.71 59.4336C744.894 59.4336 743.422 60.9016 743.422 62.7125C743.422 64.5234 744.894 65.9914 746.71 65.9914Z" fill="#2D2C4C"/>
<path d="M703.55 137.308C705.366 137.308 706.839 135.84 706.839 134.029C706.839 132.218 705.366 130.75 703.55 130.75C701.734 130.75 700.262 132.218 700.262 134.029C700.262 135.84 701.734 137.308 703.55 137.308Z" fill="#2D2C4C"/>
</g>
<path d="M0 233.498C186.333 182.665 650.1 105.098 1014.5 201.498C749.5 152.998 399 134.499 0 233.498Z" fill="#2D2C4C"/>
<g clip-path="url(#clip1_816_4056)">
<path d="M461.867 124.269C461.465 122.827 460.924 121.427 460.252 120.09L460.243 120.07L460.241 120.065L460.249 120.083L460.236 120.055C458.098 115.694 454.55 109.315 448.795 110.717C446.381 111.463 444.898 113.701 443.983 115.933C442.562 119.023 441.177 122.13 439.739 125.212C435.435 134.186 430.549 142.869 426.015 151.729C424.929 153.165 423.882 154.658 423.62 156.407C423.166 159.675 427.046 161.97 429.74 160.168C429.926 160.059 429.89 160.064 429.765 160.117C430.418 159.754 431.07 159.29 430.829 159.35C431.953 158.738 432.851 157.793 433.872 157.015C437.275 154.227 440.721 151.49 444.073 148.64C450.641 142.723 458.705 137.217 461.764 128.573C462.538 125.058 461.936 125.45 461.867 124.269ZM447.2 131.362L447.201 131.36C448.219 129.633 449.175 127.87 450.132 126.109C449.841 126.434 449.546 126.756 449.239 127.067C444.958 131.696 440.292 135.973 435.844 140.448C438.134 137.584 440.401 134.7 442.595 131.761C446.048 126.989 447.51 124.526 450.304 119.93C450.449 120.205 450.573 120.447 450.654 120.604C451.32 122.028 451.834 123.518 452.186 125.05C452.17 125.132 452.149 125.214 452.133 125.295C450.756 127.808 451.831 126.215 449.401 129.128C448.675 129.881 447.938 130.621 447.2 131.362Z" fill="#FFC0E0"/>
<path d="M459.92 119.395C460.027 119.613 460.13 119.834 460.236 120.054L460.24 120.064C460.13 119.827 459.988 119.527 459.92 119.395Z" fill="#FFC0E0"/>
<path d="M531.952 104.193C528.049 96.0483 520.426 88.369 510.665 91.0815C502.838 93.5978 496.585 108.122 493.801 115.436C499.066 108.795 505.007 101.43 510.779 98.0989C511.094 97.9708 511.416 97.859 511.742 97.7639C512.25 97.6954 512.762 97.671 513.273 97.691C513.36 97.7029 513.448 97.7098 513.534 97.7239C514.226 97.8437 514.907 98.0213 515.57 98.2551C517.447 99.0991 517.246 98.9284 518.125 99.8336C517.51 99.8283 516.895 99.864 516.286 99.9407C509.113 100.398 504.167 106.539 500.091 111.827C499.185 112.989 500.586 111.675 501.082 111.435C503.222 110.042 505.459 108.804 507.724 107.626C513.492 104.068 519.374 105.972 521.576 107.756C523.885 109.23 525.659 111.998 528.53 112.313C533.294 112.446 534.159 107.666 531.952 104.193Z" fill="#FFC0E0"/>
<path d="M587.711 106.1C582.095 97.7546 568.924 94.5073 569.724 108.377C571.943 100.276 576.072 100.899 579.931 105.415C583.656 110.482 585.265 115.638 586.601 118.064C589.338 124.375 592.11 130.677 594.363 137.182C595.652 140.687 596.817 144.239 597.775 147.849C598.179 144.624 598.301 141.369 598.14 138.122C597.629 126.785 594.585 115.283 587.711 106.1Z" fill="#FFC0E0"/>
<path d="M489.821 83.0208C488.001 83.2037 486.244 83.7825 484.672 84.7167C483.1 85.6508 481.751 86.9176 480.722 88.428C477.65 92.2246 480.205 96.1385 482.148 99.7481C482.065 98.891 481.933 98.0394 481.752 97.1977C481.816 97.302 481.887 97.4026 481.962 97.4993C482.263 97.8299 482.656 98.063 483.09 98.1688C482.706 100.771 483.249 103.128 486.325 104.079C489.486 104.793 491.979 102.157 493.836 99.9571C496.26 96.8369 498.259 93.1465 498.37 89.119C498.459 83.052 492.826 82.8886 489.821 83.0208ZM481.394 94.2088C481.381 93.3235 481.604 92.4507 482.041 91.6803C482.496 91.1372 483.003 90.6385 483.553 90.1906L483.535 90.2159C482.605 91.4196 481.882 92.7688 481.394 94.2088Z" fill="#FFC0E0"/>
<path d="M554.882 145.401C554.684 145 554.488 144.598 554.294 144.195C552.433 140.152 549.896 135.12 547.335 130.747C542.228 121.983 535.883 111.963 525.379 109.434C521.994 108.913 518.847 110.602 515.862 111.957C518.807 111.202 522.816 110.445 524.679 111.174C525.81 111.602 526.88 112.176 527.861 112.881C529.738 114.23 531.452 115.792 532.968 117.536C538.93 125.01 544.136 133.072 550.395 140.318C551.834 142.061 553.293 143.791 554.882 145.401Z" fill="#2D2C4C"/>
<path d="M578.129 137.233C576.496 126.593 570.611 116.689 560.767 111.828C563.985 115.32 566.264 117.549 568.65 121.847C571.522 126.736 574.465 131.593 576.857 136.742C577.418 137.928 578.021 139.094 578.578 140.281C578.473 139.259 578.306 138.244 578.129 137.233Z" fill="#2D2C4C"/>
<path d="M456.175 115.788C452.184 113.705 449.074 116.123 446.499 119.099C441.463 125.016 438.109 132.147 434.809 139.121C431.4 146.289 427.617 153.274 423.475 160.046C429.34 154.315 434.442 147.854 438.657 140.822C441.572 135.901 443.69 130.565 446.128 125.403C447.161 123.129 448.383 120.945 449.78 118.875C450.813 117.422 451.775 116.356 453.463 116.038C454.649 115.868 455.858 115.974 456.996 116.349C457.768 116.621 456.422 115.925 456.175 115.788Z" fill="#2D2C4C"/>
<path d="M526.337 149.741C526.066 148.747 525.769 147.76 525.422 146.79C523.339 141.188 520.129 136.073 515.99 131.76C515.116 130.935 514.183 130.045 512.989 129.74C512.649 129.66 512.297 129.65 511.953 129.711C511.609 129.771 511.281 129.901 510.989 130.092C510.697 130.283 510.447 130.531 510.254 130.822C510.061 131.113 509.93 131.439 509.867 131.783C509.588 134.324 511.84 136.203 513.248 138.054C516.326 141.745 519.847 145.04 522.984 148.671C525.397 151.952 526.41 154.998 528.261 158.731C527.717 155.727 527.318 152.64 526.337 149.741Z" fill="#2D2C4C"/>
<path d="M579.78 155.977C579.934 155.975 580.089 155.974 580.243 155.973C579.226 152.839 578.086 149.746 576.88 146.681C578.92 147.895 580.641 149.648 582.308 151.346C582.547 151.59 582.784 151.832 583.022 152.072C583.473 152.569 583.871 153.048 584.301 153.614C583.676 151.943 582.818 150.368 581.753 148.936C580.612 147.343 575.65 141.364 574.108 144.861C574.083 146.064 574.669 147.163 575.242 148.238C575.464 148.656 575.686 149.071 575.868 149.487C577.062 151.715 578.367 153.881 579.78 155.977Z" fill="#2D2C4C"/>
<path d="M541.078 156.742C540.095 152.068 538.728 146.089 537.566 142.311C537.58 142.321 537.593 142.332 537.606 142.342C539.949 144.303 542.289 146.411 543.734 149.147C544.038 149.687 544.318 150.241 544.59 150.798C544.273 148.818 543.593 146.913 542.582 145.181C541.618 143.57 535.575 135.088 534.007 138.97C533.81 140 534.233 141.137 534.642 142.237C534.851 142.799 535.056 143.351 535.173 143.874C536.631 148.271 538.351 152.575 540.323 156.765C540.575 156.757 540.827 156.749 541.078 156.742Z" fill="#2D2C4C"/>
<path d="M518.799 157.582C518.558 153.787 517.96 150.021 517.011 146.335C516.848 150.119 517.102 153.905 517.768 157.628C518.111 157.612 518.455 157.597 518.799 157.582Z" fill="#2D2C4C"/>
<path d="M501.856 158.412C502.01 155.439 501.783 152.453 501.174 149.527C500.866 152.497 500.771 155.484 500.889 158.464C501.211 158.447 501.533 158.429 501.856 158.412Z" fill="#2D2C4C"/>
<path fill-rule="evenodd" clip-rule="evenodd" d="M483.527 159.498C483.709 158.584 483.865 157.666 483.996 156.744C484.331 157.518 484.648 158.255 484.932 158.916C484.788 158.303 484.645 157.689 484.502 157.075C484.386 156.572 484.269 156.07 484.151 155.568C484.555 152.169 484.591 148.737 484.258 145.33C483.756 147.316 483.365 149.211 483.055 151.078C482.423 148.567 481.664 146.09 480.782 143.656C479.717 140.938 478.544 138.264 477.371 135.591C476.274 133.088 475.176 130.586 474.167 128.047C473.937 127.513 473.709 126.977 473.481 126.441C479.146 117.559 485.014 109.858 491.902 101.054C492.829 99.8956 493.748 98.7251 494.667 97.5534C497.727 93.6532 500.799 89.739 504.26 86.2039C504.764 86.6896 505.27 87.1848 505.782 87.7054C505.421 87.0764 505.04 86.4455 504.649 85.8159C505.782 84.6773 506.946 83.568 508.179 82.5275C512.981 78.3056 515.165 79.6274 524.206 89.4115C525.158 90.479 526.943 92.6575 528.997 95.1645C531.512 98.2342 534.43 101.796 536.716 104.414C538.426 106.408 539.905 108.079 541.277 109.628C543.875 112.561 546.085 115.057 548.74 118.485C552.658 123.557 556.561 128.648 560.25 133.89C563.552 138.719 566.79 143.597 569.885 148.56C569.779 148.279 569.674 147.997 569.567 147.716C564.726 135.383 558.607 123.591 551.31 112.531C555.053 105.189 558.865 99.0845 564.737 93.1798C573.357 85.8278 580.834 82.313 585.506 90.3453C587.332 93.0634 588.678 96.2944 590.322 100.24C591.429 102.897 592.67 105.878 594.284 109.245C599.08 119.359 603.052 129.809 607.025 140.26C608.554 144.284 610.084 148.308 611.661 152.314C611.726 152.453 611.816 152.694 611.902 152.925C612.096 153.447 612.272 153.919 612.102 153.062C611.103 146.703 609.82 140.394 608.539 134.087C608.425 133.525 608.311 132.963 608.197 132.401C605.514 119.14 600.449 106.53 595.26 94.0843C592.4 87.1814 587.328 79.4023 578.943 79.6626C572.456 79.6988 567.363 84.3735 563.049 88.7111C557.209 95.4005 553.642 103.723 551.071 112.16C550.001 110.562 548.904 108.983 547.779 107.422C546.234 105.444 544.702 103.452 543.17 101.459C537.77 94.4386 532.362 87.4075 526.352 80.909C521.814 76.1366 515.772 70.8402 508.769 73.7154C505.651 75.3315 502.879 77.541 500.609 80.2196C497.246 76.2934 493.076 73.1393 487.888 72.2717C483.677 71.5638 479.35 72.2748 475.588 74.2928C468.484 77.9144 466.153 87.3379 469.932 94.171C472.41 99.1973 477.4 102.072 482.131 104.797C482.627 105.083 483.12 105.367 483.607 105.652C479.795 112.314 476.39 119.201 473.409 126.274C473.261 125.924 473.112 125.574 472.963 125.224C469.306 116.617 465.672 108.062 460.292 102.652C456.835 99.1509 450.963 95.7887 446.512 99.5144C443.398 102.343 441.05 105.906 438.729 109.427C438.173 110.271 437.618 111.113 437.055 111.942C426.055 128.843 417.535 147.175 410.182 165.915C410.49 165.881 410.797 165.846 411.105 165.812C423.346 144.487 438.15 120.998 449.65 105.831C449.941 105.456 450.259 105.103 450.602 104.775C450.629 104.756 450.655 104.737 450.68 104.717C450.722 104.685 450.763 104.654 450.807 104.626C450.905 104.573 450.98 104.532 451.041 104.499C451.079 104.484 451.118 104.472 451.156 104.46C451.181 104.452 451.206 104.444 451.231 104.435C454.211 105.151 457.512 108.369 460.223 112.63C463.132 117.172 465.65 121.937 468.169 126.703C469.884 129.949 471.599 133.195 473.438 136.371C474.109 137.523 474.804 138.661 475.499 139.8C477.094 142.413 478.688 145.025 480 147.795C480.559 148.926 481.603 151.261 482.675 153.708C482.443 155.66 482.295 157.619 482.232 159.582C482.663 159.554 483.095 159.526 483.527 159.498ZM479.507 78.3271C473.356 81.1767 471.326 87.0847 473.999 93.844C475.277 97.1285 478.56 100.431 481.904 103.794C482.489 104.383 483.077 104.974 483.656 105.567C487.033 99.6198 490.668 93.8157 494.474 88.1436C494.625 87.9362 494.776 87.728 494.927 87.5192C496.296 85.6311 497.699 83.6953 499.21 81.854C492.438 76.7669 486.179 75.3241 479.507 78.3271Z" fill="#2D2C4C"/>
<path d="M464.028 160.872C465.147 155.919 466.086 150.894 465.453 145.851C465.036 143.452 464.381 140.871 462.653 139.067C461.352 137.695 458.909 137.377 457.874 139.216C456.647 141.876 456.886 145.02 457.105 147.89C457.11 147.962 457.116 148.035 457.121 148.108C457.4 151.019 458.29 155.591 458.698 157.555C459.104 159.336 459.065 160.401 458.371 161.314C458.895 161.272 459.419 161.231 459.944 161.189C460.846 159.828 460.801 157.993 460.748 155.84C460.743 155.653 460.739 155.464 460.735 155.273C460.721 154.634 460.704 153.982 460.688 153.326C460.61 150.275 460.529 147.113 460.736 144.615C462.261 148.914 462.346 153.656 462.436 158.664C462.45 159.434 462.464 160.209 462.483 160.991C462.997 160.951 463.512 160.912 464.028 160.872Z" fill="#2D2C4C"/>
<path d="M449.86 162.017C451.494 155.558 452.806 148.431 449.757 142.309C448.679 140.624 446.105 139.858 444.499 141.238C442.742 142.814 443.081 145.533 443.465 147.632C444.173 149.915 444.933 151.419 445.552 152.641C446.953 155.413 447.623 156.738 445.288 162.413C445.391 162.404 445.494 162.395 445.597 162.386C445.68 162.269 445.764 162.152 445.848 162.035C447.142 160.23 448.506 158.326 448.651 156.055C448.856 154.426 448.281 152.916 447.71 151.417C447.519 150.916 447.328 150.416 447.168 149.914C446.541 148.28 446.274 146.53 446.384 144.784C446.41 144.515 446.47 144.25 446.561 143.995L446.583 144.002C446.604 144.019 446.627 144.033 446.652 144.044C446.792 144.187 446.914 144.347 447.015 144.52C449.068 150.161 449.167 155.284 449.266 162.068C449.464 162.051 449.662 162.034 449.86 162.017Z" fill="#2D2C4C"/>
</g>
<defs>
<clipPath id="clip0_816_4056">
<rect width="103" height="165" fill="white" transform="translate(647)"/>
</clipPath>
<clipPath id="clip1_816_4056">
<rect width="203" height="89" fill="white" transform="translate(405.105 75.6016) rotate(-2.57237)"/>
</clipPath>
</defs>
</svg>
