<svg width="24" height="18" viewBox="0 0 24 18" fill="none" xmlns="http://www.w3.org/2000/svg">
<path d="M24.6953 2.13074C23.813 2.49268 22.8635 2.73682 21.8672 2.84608C22.8845 2.28406 23.6644 1.39382 24.0323 0.331818C23.0808 0.852925 22.0275 1.23105 20.9055 1.43518C20.0077 0.55213 18.7278 0 17.3116 0C14.5926 0 12.3881 2.03452 12.3881 4.54429C12.3881 4.89994 12.4315 5.24659 12.5158 5.57976C8.42347 5.39002 4.79494 3.58121 2.36634 0.831793C1.9425 1.50262 1.69988 2.28316 1.69988 3.11675C1.69988 4.69311 2.56901 6.08423 3.89025 6.89894C3.08347 6.87511 2.32396 6.67053 1.65993 6.33017C1.65944 6.34905 1.65944 6.36839 1.65944 6.38772C1.65944 8.58905 3.35678 10.4253 5.60951 10.8434C5.19638 10.9468 4.76133 11.0026 4.31214 11.0026C3.9945 11.0026 3.68612 10.9743 3.38553 10.9208C4.01253 12.726 5.83069 14.0402 7.985 14.0766C6.29984 15.2955 4.1772 16.0221 1.86991 16.0221C1.47285 16.0221 1.08067 16.0005 0.695312 15.9583C2.87496 17.2482 5.46287 18 8.24321 18C17.3004 18 22.2526 11.0759 22.2526 5.07079C22.2526 4.87386 22.2482 4.67737 22.2389 4.48224C23.2006 3.84288 24.0357 3.04211 24.6953 2.13074Z" fill="white"/>
</svg>
