<svg width="475" height="326" viewBox="0 0 475 326" fill="none" xmlns="http://www.w3.org/2000/svg">
    <g id="Group 804">
        <g id="undraw_handcrafts_plants 1" clip-path="url(#clip0_988_6881)">
            <path id="Vector" d="M142.542 242.926C150.035 253.24 148.54 269.083 139.252 277.795C131.385 285.174 131.375 299.33 139.232 306.724C147.089 314.118 161.158 313.193 167.982 304.834C174.807 296.474 172.95 282.441 164.188 276.156C159.394 272.717 157.053 266.624 156.745 260.717C156.438 254.81 157.89 248.97 159.331 243.236C154.017 243.714 148.703 244.192 142.542 242.926Z" fill="#FBE5F0" />
            <path id="Vector_2" d="M179.61 188.903C177.969 188.768 176.365 189.38 174.847 189.937C172.758 190.766 171.781 191.211 168.977 192.572C163.984 195.08 159.017 198.259 154.924 202.239C155.066 201.716 155.225 201.198 155.409 200.686C156.476 197.924 158.088 195.415 159.624 192.898C161.454 189.897 163.465 187.011 165.648 184.259C166.086 184.639 166.651 184.839 167.229 184.817C170.248 184.631 170.077 180.187 167.06 180.214C164.977 180.343 164.414 182.499 165.256 183.814C163.564 185.139 161.959 186.573 160.452 188.107C157.218 191.509 154.002 195.133 151.96 199.402C150.855 196.346 149.341 193.456 147.46 190.809C145.192 187.725 142.266 184.771 138.557 183.572C136.055 182.944 133.598 184.569 134.396 187.332C135.486 190.505 136.205 191.899 137.185 194.372C138.819 198.458 140.271 201.76 142.859 205.69C144.414 207.785 146.484 209.381 148.576 210.931C148.57 211.212 148.599 211.493 148.664 211.767C148.788 212.161 149.027 212.508 149.349 212.764C149.262 220.668 151.316 228.688 154.026 236.052C151.965 236.5 148.047 237.476 145.57 238.05C142.296 238.704 139.262 239.138 135.86 239.678C135.638 239.288 135.267 238.883 135.105 238.611C135.254 238.981 135.384 239.357 135.516 239.733C135.134 239.794 134.752 239.855 134.359 239.919C134.773 239.937 135.187 239.948 135.601 239.963C135.81 240.575 136.003 241.193 136.166 241.821C137.192 245.966 137.387 250.58 137.754 255.155C137.884 259.423 137.108 264.167 135.893 268.222C134.008 272.873 131.991 274.081 129.725 278.546C126.368 285.208 122.838 292.254 122.841 299.889C123.073 303.935 124.495 307.822 126.927 311.057C129.01 313.881 132.118 315.681 135.376 316.827C141.285 319.096 147.561 320.25 153.887 320.232C161.245 320.062 168.452 316.292 172.452 310.031C178.228 301.366 180.49 287.18 177.06 277.267C175.3 272.693 173.613 270.216 170.927 267.438C169.317 265.767 167.369 264.456 165.826 262.718C165.428 262.24 165.097 261.71 164.841 261.142C164.383 259.935 164.031 258.69 163.79 257.422L163.89 258.005C163.479 256.161 163.712 253.101 163.766 253.083C164.432 248.758 165.27 245.431 166.712 242.59C167.257 241.529 167.855 240.497 168.506 239.499C168.956 238.966 169.304 238.354 169.531 237.694C169.632 237.207 169.576 236.701 169.373 236.248C169.169 235.795 168.828 235.419 168.398 235.172C167.96 234.898 167.334 234.899 166.765 234.902C162.817 235.097 158.838 235.181 154.936 235.866C154.747 235.9 154.506 235.949 154.222 236.009C153.148 227.446 152.566 218.179 153.445 210.508C153.695 210.053 153.984 209.621 154.307 209.216C157.913 204.773 160.387 202.747 164.709 199.778C169.389 196.715 172.187 195.582 177.582 193.598C177.808 193.525 177.987 193.47 178.148 193.423C177.866 193.988 177.529 194.524 177.196 195.059C174.579 198.718 171.371 201.912 167.704 204.509C164.975 206.496 161.27 208.186 158.549 209.471C157.25 210.078 155.934 210.649 154.63 211.244C155.236 211.101 155.844 210.964 156.451 210.825C165.506 208.849 173.079 205.98 179.342 198.792C180.627 197.181 182.073 195.528 182.553 193.474C182.955 191.472 181.831 189.033 179.61 188.903ZM163.777 239.073C161.876 242.182 160.776 245.721 160.032 249.279C159.031 253.49 158.934 257.947 160.478 262.042C161.637 265.551 164.742 267.772 167.247 270.285C169.35 272.255 171.421 275.613 172.306 277.9C174.876 285.079 174.547 290.034 172.724 298.046C171.76 301.499 171.604 302.176 169.819 305.466C168.008 308.48 169.143 306.851 167.353 309.051C165.611 310.876 165.795 310.678 163.44 312.3C161.552 313.576 157.882 315.039 154.281 315.192C147.461 315.313 139.583 313.474 133.529 310.294C130.457 308.654 128.063 303.975 127.539 300.152C127.407 296.185 127.462 297.364 127.922 294.468C128.448 292.291 129.117 290.152 129.924 288.064C130.075 287.667 130.267 287.158 129.957 287.973C131.022 284.955 132.447 282.931 134.323 279.238C135.308 277.59 136.376 276.592 137.978 274.059C138.267 273.616 137.877 274.177 137.768 274.329C140.99 269.529 141.135 263.548 141.445 260.622C141.824 258.009 140.78 252.9 139.535 248.925C138.627 245.743 137.751 242.737 136.041 239.978C142.063 240.175 148.086 240.057 154.048 239.082C156.426 238.755 160.185 238.925 163.777 239.073L163.777 239.073ZM145.031 206.008C142.072 201.227 140.871 194.427 138.744 188.555C138.634 188.233 138.507 187.915 138.38 187.597C138.478 187.654 138.579 187.707 138.674 187.768C138.801 187.855 138.929 187.941 139.056 188.027C139.115 188.071 139.185 188.121 139.269 188.183C140.584 189.178 141.775 190.328 142.818 191.608L142.743 191.518C143.179 191.919 145.157 194.729 146.167 196.674C147.506 199.19 148.445 201.373 148.643 203.956C148.779 205.736 148.789 207.523 148.672 209.304C148.67 209.601 148.642 209.898 148.616 210.196C147.328 208.884 146.13 207.485 145.031 206.008Z" fill="#B1BDD2" />
            <path id="Vector_3" d="M163.554 174.393C160.536 174.58 160.707 179.024 163.724 178.996C166.742 178.81 166.571 174.366 163.554 174.393Z" fill="#B1BDD2" />
            <path id="Vector_4" d="M168.572 167.597C165.553 167.784 165.724 172.228 168.741 172.2C171.76 172.014 171.588 167.57 168.572 167.597Z" fill="#B1BDD2" />
            <path id="Vector_5" d="M174.587 170.02C171.569 170.207 171.74 174.651 174.757 174.623C177.776 174.437 177.604 169.993 174.587 170.02Z" fill="#B1BDD2" />
            <path id="Vector_6" d="M179.408 175.793C176.389 175.98 176.56 180.424 179.577 180.396C182.596 180.21 182.424 175.766 179.408 175.793Z" fill="#B1BDD2" />
            <path id="Vector_7" d="M172.369 181.341C169.35 181.528 169.521 185.972 172.538 185.944C175.557 185.758 175.385 181.314 172.369 181.341Z" fill="#B1BDD2" />
            <path id="Vector_8" d="M170.177 175.472C167.158 175.658 167.33 180.102 170.347 180.075C173.365 179.888 173.194 175.444 170.177 175.472Z" fill="#B1BDD2" />
            <path id="Vector_9" d="M152.73 306.319C149.604 306.205 146.992 305.383 145.066 303.466C143.749 301.782 143.254 300.507 142.4 298.105C141.144 293.95 141.219 294.196 140.899 290.314C140.9 286.869 141.165 284.788 142.11 281.006C142.717 279.062 144.014 276.576 145.17 274.231C143.366 276.156 141.546 278.113 140.235 280.421C137.564 285.744 136.427 292.184 138.636 297.866C140.026 301.36 142.042 305.307 145.889 306.458C147.926 307.124 150.11 307.184 152.18 306.632C152.666 306.495 153.904 306.325 152.73 306.319Z" fill="#B1BDD2" />
            <path id="Vector_10" d="M300.29 257.414C299.147 255.671 296.933 256.109 295.162 256.289C293.373 256.471 291.577 256.578 289.783 256.697C281.997 257.2 274.22 257.919 266.422 258.219C264.398 258.201 262.377 258.231 260.358 258.294C260.742 257.922 261.127 257.551 261.504 257.172C264.895 253.866 267.549 249.918 270.411 246.166C274.39 240.945 278.663 234.446 281.549 227.419C283.628 221.732 288.438 208.381 279.721 206.358C274.979 205.723 272.313 210.882 270.411 214.443C269.592 216.025 268.759 217.85 267.958 219.719C267.905 215.081 267.605 210.417 266.53 205.896C265.689 203.13 264.62 200.439 263.333 197.851C260.81 192.344 253.894 185.694 248.506 191.894C247.328 193.194 246.317 194.637 245.496 196.189C244.64 198.353 244.078 200.623 243.826 202.937C242.89 210.792 243.693 218.626 244.872 226.421C243.276 223.653 241.521 220.902 238.933 219.012C235.673 216.482 230.066 215.35 227.156 218.951C226.272 220.091 225.668 221.424 225.392 222.842C225.324 223.034 225.364 222.961 225.429 222.815C225.009 224.064 224.983 225.392 224.849 226.7C224.753 228.297 224.882 229.9 225.23 231.462C225.256 231.575 225.271 231.636 225.281 231.678C225.293 231.742 225.303 231.805 225.313 231.869C225.769 233.914 226.338 235.967 227.407 237.783C230.299 242.312 233.779 246.621 238.081 249.871C239.82 251.208 241.705 252.332 243.508 253.575C245.255 254.831 246.895 256.22 248.508 257.642C248.573 258.103 248.64 258.564 248.697 259.026C239.946 259.815 231.226 261.057 222.519 262.205C221.781 262.327 221.046 262.465 220.314 262.619C221.253 262.597 222.192 262.595 223.132 262.613C230.948 262.903 238.763 263.257 246.587 263.156C247.554 263.126 248.521 263.117 249.487 263.119C249.633 263.383 249.814 263.625 250.026 263.839C250.513 264.288 251.126 264.575 251.781 264.66C252.437 264.746 253.102 264.625 253.687 264.316C254.301 264.503 254.955 264.511 255.573 264.339C256.192 264.167 256.749 263.823 257.18 263.346C261.921 263.566 266.661 263.835 271.406 263.62C280.654 263.24 287.194 262.318 295.255 261.312C294.038 266.804 292.566 272.243 291.163 277.69C289.705 283.075 287.711 288.294 285.99 293.596C283.941 299.443 282.821 303.017 279.703 308.735C278.689 310.374 277.915 310.804 275.482 311.066C266.444 312.325 259.908 310.808 250.393 311.285C246.762 311.35 243.825 310.461 239.075 310.08C234.169 309.751 229.802 309.837 227.123 308.675C227.091 308.643 227.06 308.611 227.035 308.586C226.994 308.527 226.958 308.466 226.921 308.405C226.879 308.288 226.825 308.131 226.773 307.953C225.886 304.673 224.993 301.395 223.949 298.161C219.918 285.631 215.954 273.081 211.417 260.724C214.44 275.041 216.981 289.481 220.977 303.569C221.419 305.222 221.809 306.888 222.189 308.556C222.381 309.798 222.925 310.958 223.756 311.897C225.088 313.329 227.114 313.725 228.961 314.044C231.922 314.547 234.929 314.629 237.925 314.695C242.109 314.813 242.484 315.154 247.207 315.695C250.18 316.08 253.171 315.835 256.156 315.853C261.839 316.097 264.989 316.222 269.865 315.943C273.047 315.763 276.309 315.714 279.388 314.823C282.177 313.853 283.635 311.019 284.82 308.498C286.079 305.744 287.199 302.929 288.175 300.061C290.319 293.619 292.503 287.191 294.725 280.775C296.546 275.173 297.999 269.463 299.612 263.799C299.824 262.99 300.079 262.193 300.321 261.392C300.389 261.254 300.437 261.106 300.463 260.954C300.752 259.785 300.965 258.489 300.29 257.414ZM275.824 218.753C276.974 216.418 277.657 215.035 278.291 214.114C278.472 216.061 277.919 218.107 277.14 222.057C274.736 231.957 268.621 241.996 263.223 252.585C262.521 253.866 261.744 255.1 260.941 256.318C262.503 252.627 263.859 248.852 265.003 245.009C265.153 244.455 265.28 243.896 265.416 243.338C266.7 240.439 268.001 237.547 269.289 234.649C271.554 229.387 273.344 223.923 275.824 218.753L275.824 218.753ZM251.098 201.101C251.544 199.053 251.746 198.945 251.958 198.561C252.951 197.098 252.493 197.522 253.694 196.31C254.272 196.643 254.665 196.963 255.852 198.299C255.886 198.345 255.916 198.388 255.963 198.455C257.984 201.413 258.248 202.593 259.82 207.028C261.154 211.584 261.227 219.461 260.774 226.65C260.428 231.845 260.242 234.958 258.803 241.443C258.606 242.2 258.418 242.899 258.234 243.567C257.489 245.305 256.752 247.046 256.046 248.801C255.762 249.513 255.484 250.228 255.203 250.942C253.822 233.661 248.491 215.104 251.098 201.101ZM237.596 243.601C235.98 241.301 234.575 238.86 233.076 236.483C231.708 234.058 231.932 234.924 231.247 232.297C230.337 229.449 230.931 224.828 231.344 223.825C231.365 223.772 231.377 223.739 231.393 223.697C231.483 223.491 231.586 223.291 231.701 223.098C231.741 223.053 231.775 223.014 231.806 222.98C231.852 222.967 231.899 222.958 231.945 222.946C232.027 222.941 232.1 222.938 232.166 222.937C232.597 223.002 233.022 223.104 233.437 223.239C233.468 223.25 233.482 223.254 233.508 223.264C233.643 223.318 233.78 223.369 233.912 223.43C234.905 223.98 234.815 223.817 236.478 225.512L236.486 225.521C237.514 226.9 238.415 228.373 239.305 229.845C240.402 231.715 241.402 233.641 242.336 235.597C242.467 235.891 242.602 236.183 242.725 236.48C245.086 242.175 247.322 250.655 248.151 255.282C247.155 254.006 246.122 252.762 245.009 251.586C241.955 248.499 239.436 246.376 237.596 243.601L237.596 243.601Z" fill="#B1BDD2" />
            <path id="Vector_11" d="M232.949 203.455C228.661 203.719 228.905 210.033 233.19 209.994C237.479 209.729 237.235 203.416 232.949 203.455Z" fill="#B1BDD2" />
            <path id="Vector_12" d="M272.69 197.899C268.401 198.164 268.645 204.478 272.93 204.439C277.219 204.174 276.975 197.86 272.69 197.899Z" fill="#B1BDD2" />
            <path id="Vector_13" d="M283.36 244.161C279.071 244.426 279.315 250.74 283.6 250.701C287.889 250.436 287.645 244.122 283.36 244.161Z" fill="#B1BDD2" />
            <path id="Vector_14" d="M225.426 273.412L230.379 304.615C244.049 304.942 257.72 305.268 270.905 307.896C275.221 295.709 279.538 283.522 285.269 272.284C276.261 281.782 267.252 291.279 257.192 299.467C249.949 298.739 242.705 298.01 235.948 297.26C232.619 289.805 229.29 282.35 225.426 273.412Z" fill="#FBE5F0" />
            <path id="Vector_15" d="M55.0245 223.143C54.4466 219.832 53.5713 216.499 51.7279 213.693C49.8844 210.887 46.9325 208.656 43.5964 208.377C39.2724 208.016 35.14 211.109 33.4163 215.106C31.6925 219.103 32.0625 223.761 33.5027 227.871C34.943 231.981 37.3716 235.656 39.7759 239.283L51.518 256.996C55.771 246.252 56.9845 234.537 55.0245 223.143Z" fill="#FBE5F0" />
            <path id="Vector_16" d="M50.181 260.108L54.5651 261.594C53.5489 260.061 52.5327 258.529 51.5166 256.996C51.0999 258.045 50.6547 259.083 50.181 260.108Z" fill="#FBE5F0" />
            <path id="Vector_17" d="M51.5532 290.589C51.5508 290.57 51.5484 290.549 51.5458 290.531C51.5367 290.479 51.5264 290.428 51.5172 290.376C51.5085 290.346 51.515 290.407 51.5532 290.589Z" fill="#B1BDD2" />
            <path id="Vector_18" d="M91.0479 253.263C90.2234 248.775 88.9886 243.96 85.6607 240.656C84.2154 239.2 81.9395 238.499 79.9942 239.287C78.0285 240.175 76.9035 242.136 76.2878 244.125C73.8104 251.411 72.2322 258.979 69.3945 266.146C67.6223 271.263 65.5374 276.266 63.1517 281.126C61.3601 284.73 59.2867 288.18 57.281 291.665C57.0196 291.854 56.7715 292.061 56.5386 292.285C56.653 283.616 56.2072 274.949 55.204 266.338C55.5454 266.193 55.8434 265.961 56.0688 265.666C57.3416 264.144 58.1304 262.279 58.8772 260.456C59.7568 258.111 60.548 255.734 61.3112 253.349C63.7176 245.975 65.1871 238.325 65.6849 230.581C66.0292 226.194 65.7451 221.745 64.4396 217.526C63.3353 213.603 61.2592 209.828 57.7968 207.543C55.8743 206.225 53.5528 205.733 51.2942 205.346C49.11 204.968 46.9229 204.596 44.7201 204.345C42.8803 204.153 41.006 204.06 39.1853 204.452C37.2572 204.886 35.4577 205.768 33.9318 207.028C31.3856 209.347 29.5073 212.31 28.4934 215.608C27.8812 217.51 27.4991 219.479 27.3553 221.472C27.1224 223.569 27.1247 225.686 27.3621 227.783C27.9156 231.939 29.7409 235.795 31.5821 239.515C33.8581 243.96 36.6813 248.099 39.9853 251.837C44.0012 256.202 48.507 260.077 52.9394 264.008C52.8813 264.6 52.9831 265.197 53.234 265.736C53.3721 265.986 53.5804 266.189 53.8328 266.321C54.0853 266.453 54.3707 266.507 54.6535 266.476C54.3045 272.952 53.9843 279.432 53.7862 285.915C52.8045 282.236 51.3436 278.704 49.4413 275.41C46.5845 270.27 42.4527 265.956 37.7909 262.428C35.6024 260.836 33.4714 259.105 31.0249 257.922C28.2427 256.689 25.2623 255.969 22.2263 255.797C19.715 255.556 17.073 255.924 14.944 257.356C11.5877 259.364 8.77924 262.773 9.50962 266.921C9.91307 270.267 11.7144 273.162 13.8904 275.647C16.4163 278.764 19.4687 281.394 22.6465 283.817C27.7408 287.72 33.2542 291.037 38.8511 294.153C40.7706 295.174 42.793 295.986 44.8841 296.575C47.7407 297.262 50.6714 297.566 53.5817 297.942C53.5293 304.619 53.9634 311.292 53.8885 317.966C53.0467 317.921 52.203 317.933 51.3627 318C50.4767 318.105 49.6073 318.321 48.7747 318.643C48.0869 318.851 47.3746 318.968 46.6564 318.989C45.4908 319.067 44.3638 319.44 43.3801 320.072C42.8295 320.308 42.2346 320.422 41.6361 320.405C40.0327 320.022 37.5925 319.397 35.8109 320.336C34.1201 321.409 32.6497 322.814 31.0675 324.041C32.7828 323.135 34.4177 322.053 36.1788 321.243C37.8315 320.789 39.3442 321.474 40.4144 321.93C41.5763 322.448 42.8887 322.513 44.0956 322.112C45.2472 321.634 45.4145 321.534 46.1103 321.492C47.1442 321.434 48.1863 321.496 49.2054 321.266C49.4587 321.228 50.5786 320.952 50.8443 320.875C51.8339 320.778 52.831 320.789 53.8181 320.909C53.8134 321.037 53.8129 321.165 53.8077 321.293C53.8347 321.168 53.8557 321.042 53.8819 320.918C54.3037 320.974 54.7924 321.045 55.7179 321.099C56.9202 321.237 58.0976 320.915 59.2918 320.844C60.929 320.787 61.3709 320.969 63.5141 321.285C66.862 321.767 70.1723 322.511 73.5376 322.864C76.29 323.142 79.0574 323.002 81.8138 322.868C81.999 322.858 82.1842 322.847 82.3695 322.838C82.3172 322.828 82.2651 322.819 82.2127 322.81C79.2191 322.27 76.2003 321.839 73.2642 321.023C70.1671 320.142 67.1004 319.149 63.9469 318.482C62.4093 318.127 60.8516 317.754 59.2649 317.767C58.2035 317.773 57.163 318.038 56.102 318.038C55.5447 318.035 54.9865 318.011 54.4284 317.987C55.2689 312.938 55.6209 307.817 56.0113 302.714C56.1405 301.206 56.2465 299.697 56.3291 298.187C57.6643 299.483 59.9751 299.965 62.062 299.822C64.5233 299.797 66.808 298.865 68.9381 297.698C71.9056 296.052 74.6631 294.051 77.1501 291.738C81.0669 288.314 84.3112 284.184 86.7158 279.562C87.8312 277.441 88.8037 275.247 89.6268 272.996C90.2631 270.929 90.7349 268.815 91.0377 266.673C91.7864 262.235 91.7899 257.702 91.0479 253.263ZM53.583 297.311C53.5808 297.48 53.5835 297.649 53.582 297.818C50.8107 296.926 47.608 296.001 45.4768 295.142C43.5219 294.282 41.652 293.239 39.8919 292.027C33.3842 287.322 27.5274 283.743 21.9204 279.125C19.8793 277.457 17.9965 275.604 16.2959 273.588C15.3409 272.391 14.3346 271.219 13.6379 269.846C13.1234 268.791 12.758 267.669 12.5522 266.513C12.5327 266.289 12.467 265.618 12.4736 265.193C12.481 265.15 12.4958 265.046 12.5171 264.887C12.7513 262.335 15.648 260.176 17.8597 259.161C19.5003 258.51 21.1953 258.647 23.6968 258.85C25.6068 259.14 27.4791 259.641 29.2797 260.344C32.1307 261.717 33.2357 262.764 35.4198 264.346C39.7332 267.662 42.7941 270.676 45.4134 274.667C48.3153 279.216 49.6465 282.484 51.0043 287.848C51.2051 288.685 51.3684 289.529 51.5185 290.376C51.5309 290.428 51.5405 290.479 51.5473 290.532C51.5574 290.59 51.5693 290.648 51.5794 290.706C51.5691 290.659 51.5623 290.627 51.5548 290.59C51.5623 290.65 51.5694 290.715 51.574 290.789C51.5822 291.718 51.6586 291.293 51.4915 291.905C51.4165 291.906 51.3418 291.899 51.2668 291.895C51.2161 291.885 51.1547 291.873 51.0752 291.856C48.0309 290.944 42.6838 284.916 38.3929 281.273C32.704 276.369 26.4571 272.147 20.9654 267.009C24.7055 272.565 31.2753 278.568 36.5163 283.753C39.706 286.607 49.0365 298.139 53.6063 294.588C53.5966 295.496 53.586 296.403 53.583 297.311ZM48.0393 220.671C47.3553 219.312 46.5341 218.027 45.5885 216.836C45.7754 217.179 45.9618 217.523 46.128 217.876C47.521 220.913 48.4365 224.348 49.2314 227.659C51.2193 235.634 52.4552 241.878 52.9554 249.813C53.1565 253.319 53.1521 256.836 53.0833 260.346C53.0534 261.425 53.0101 262.503 52.9533 263.581C52.9524 263.609 52.9514 263.638 52.9503 263.667C49.2852 259.15 45.7887 255.199 42.4098 250.837C38.8152 246.093 35.6956 241.004 33.0962 235.645C32.5828 234.499 31.0369 231.121 30.509 228.639C30.4719 228.471 30.4037 228.121 30.3677 227.939C30.1013 226.168 30.0303 224.373 30.1563 222.587C30.2241 220.463 30.5751 218.358 31.1998 216.328C32.4472 212.232 35.3618 208.082 39.5702 207.142C41.9625 206.589 45.2252 207.064 48.6734 207.647C50.5437 207.902 52.3923 208.298 54.2036 208.831C54.6289 208.976 55.0402 209.159 55.4324 209.379C55.858 209.594 56.2604 209.852 56.6334 210.15C59.5756 212.659 60.4205 214.517 61.6525 218.37C62.6197 221.725 62.8887 223.68 62.8906 227.511C62.739 236.118 61.0662 244.75 58.1465 253.725C57.419 255.961 56.6691 258.242 55.89 260.167C56.0945 254.059 55.9927 247.922 55.0542 241.874C53.7148 234.512 51.3535 227.375 48.0393 220.671ZM87.7006 266.545C87.0652 269.896 86.6746 271.668 85.5302 274.138C84.7684 275.921 82.9022 279.376 82.6819 279.715C82.2153 280.502 81.7201 281.271 81.2039 282.026C76.9881 287.902 70.5929 293.215 65.778 295.444C63.8958 296.356 61.7871 296.689 59.7166 296.402C58.9061 296.173 59.3143 296.391 58.4418 295.861C58.3983 295.825 58.3601 295.793 58.3282 295.764C58.3166 295.587 58.3138 295.41 58.3199 295.232C58.3322 295.125 58.3508 295.018 58.3757 294.912L58.3766 294.909C58.3984 294.866 58.4256 294.825 58.4506 294.783C59.0861 294.018 58.9231 294.246 60.1383 293.519C65.6645 290.474 69.9877 285.729 73.7726 280.748C76.9866 276.652 79.6873 272.11 81.276 267.125C82.0753 264.193 82.6941 261.215 83.1287 258.207C83.5263 255.327 83.6945 252.42 83.6317 249.513C83.607 249.661 83.5815 249.809 83.5563 249.957C83.0666 252.933 82.3981 255.877 81.5546 258.772C80.7268 261.472 79.7047 264.771 78.9738 266.544C77.4413 269.879 75.5776 273.05 73.4111 276.01C71.6172 278.52 66.9355 284.462 63.3948 287.46C62.1154 288.579 60.7351 289.576 59.2715 290.438C58.6561 290.793 58.0012 291.156 57.4016 291.579C60.7803 287.499 64.0634 283.319 66.716 278.718C69.982 273.173 72.422 267.187 74.3969 261.069C75.8217 256.657 76.811 252.122 78.1151 247.675C78.7962 245.516 78.935 244.491 79.7689 242.978L79.7961 242.942C80.0363 242.655 80.3 242.388 80.5844 242.145C82.114 241.031 83.7952 242.131 85.6592 245.719C86.0748 246.432 87.2005 249.696 87.6119 251.759C87.6423 251.971 87.8073 252.797 87.8805 253.144C88.6022 257.587 88.5413 262.123 87.7006 266.545Z" fill="#B1BDD2" />
        </g>
        <g id="undraw_handcrafts_woman 3" clip-path="url(#clip1_988_6881)">
            <path id="Vector_19" d="M340.81 189.037L332.823 182.028C324.513 201.815 316.202 221.602 307.891 241.389C328.729 232.736 341.968 208.693 340.81 189.037Z" fill="#FBE5F0" />
            <path id="Vector_20" d="M352.369 184.444C347.009 196.579 353.339 212.526 365.555 217.661C377.77 222.796 393.565 216.15 398.456 203.818C400.761 198.004 409.529 197.18 414.287 201.232C419.045 205.283 420.301 212.217 419.659 218.44C419.018 224.662 416.821 230.626 415.924 236.817C415.027 243.008 415.671 249.915 419.894 254.523C423.811 245.866 425.939 236.505 426.153 227.003C426.366 217.501 424.66 208.054 421.136 199.229C418.528 192.801 409.766 189.812 403.783 193.309C387.567 202.788 364.778 198.79 352.369 184.444Z" fill="#FBE5F0" />
            <path id="Vector_21" d="M366.327 84.4941C363.593 84.562 363.6 88.5735 366.327 88.6488C369.06 88.5809 369.053 84.5695 366.327 84.4941Z" fill="#B1BDD2" />
            <path id="Vector_22" d="M408.586 83.8806C405.853 83.9485 405.86 87.9599 408.587 88.0352C411.32 87.9674 411.313 83.9559 408.586 83.8806Z" fill="#B1BDD2" />
            <path id="Vector_23" d="M379.853 60.8525C379.076 59.0455 377.925 57.4246 376.475 56.0977C375.025 54.7707 373.31 53.768 371.444 53.1562C368.522 52.3775 365.29 52.3051 362.439 53.3952C358.087 55.0895 355.377 59.2071 353.129 63.0958C356.063 59.6738 359.256 56.2676 362.904 55.1406C364.77 54.59 365.515 54.5748 367.511 54.5581C370.194 54.4673 372.839 55.2073 375.087 56.6774C376.977 57.8408 378.607 59.3841 379.872 61.2098C379.99 61.3639 380.102 61.5225 380.217 61.6787C380.1 61.4014 379.979 61.1256 379.853 60.8525Z" fill="#B1BDD2" />
            <path id="Vector_24" d="M429.389 59.9366C429.137 58.1278 428.535 56.3856 427.617 54.8075C425.781 51.393 421.922 49.8175 418.209 49.6255C414.883 49.2951 411.529 49.8266 408.467 51.1689C405.644 52.215 403.414 54.3393 401.547 56.6449C399.735 58.9755 398.268 61.5564 397.193 64.3075C400.075 60.0162 403.248 56.3032 407.617 54.0154C409.564 53.1794 411.604 52.5802 413.694 52.2306C416.843 51.9504 422.758 51.5247 425.879 54.9459C427.512 56.6329 428.526 58.6858 429.374 61.1037C429.93 62.924 429.469 60.5897 429.389 59.9366Z" fill="#B1BDD2" />
            <path id="Vector_25" d="M379.973 19.8319C377.725 15.6437 374.59 9.0672 369.962 7.33853C363.371 5.53296 356.941 11.3013 353.552 16.4326C349.345 23.2433 346.351 30.721 342.967 37.9582C339.517 45.7916 335.716 53.4658 332.125 61.2355C328.855 68.3937 324.997 75.2775 321.956 82.539C319.31 89.3639 318.86 95.3381 321.375 102.299C322.411 105.371 323.836 108.288 325.137 111.25C327.173 116.131 329.487 120.985 333.027 124.968C335.638 127.6 338.609 130.074 342.078 131.46C340.418 130.441 338.909 129.194 337.595 127.757C336.144 126.322 334.853 124.734 333.744 123.021C330.691 118.007 329.589 114.001 327.551 108.469C324.801 101.667 322.488 95.1509 323.718 89.9819C325.199 82.5239 328.64 77.2257 332.067 69.8293C334.887 64.0385 337.562 58.1787 340.251 52.3263C342.227 48.1166 344.272 43.9387 346.047 39.6378C349.536 32.0927 353.551 21.7255 357.717 16.3315C361.438 12.1158 365.365 9.63095 369.053 10.6383C370.331 11.0118 372.732 13.6692 374.391 16.1366C380.598 24.7876 382.924 30.3426 383.369 40.9388C384.175 33.4611 383.546 26.5767 379.973 19.8319Z" fill="#B1BDD2" />
            <path id="Vector_26" d="M462.986 95.5978C462.796 89.2857 462.243 82.9898 461.33 76.7414C460.186 68.6736 458.591 60.6822 456.709 52.7564C455.577 47.9149 454.747 42.9498 452.862 38.3285C450.253 32.3746 446.81 26.8237 442.637 21.8435C437.294 15.3949 428.651 12.5819 420.458 13.4032C413.628 14.0129 406.889 15.5997 400.345 17.6199C396.241 18.9558 392.112 20.4688 388.567 22.9872C386.675 24.4672 384.933 26.1317 383.369 27.9561C385.413 26.2781 387.39 24.684 389.777 23.4673C392.55 22.1901 395.451 21.2126 398.43 20.5514C404.867 19.0554 411.378 17.9065 417.937 17.1096C422.434 16.7441 425.64 16.531 429.156 17.5919C433.672 18.897 436.203 20.4159 439.467 24.1037C443.293 28.2894 448.008 36.5339 449.839 41.5603C451.079 45.4949 451.922 49.5371 452.827 53.5582C453.733 57.5891 454.725 61.6016 455.535 65.6534C457.221 74.4671 458.31 80.785 458.848 89.4245C459.18 93.4561 459.218 97.5065 458.961 101.544C457.893 111.838 454.82 122.939 446.322 129.924C444.466 131.564 439.301 134.381 435.559 135.928C432.155 137.336 425.952 139.443 421.22 140.196C420.56 140.323 419.899 140.444 419.237 140.557C419.604 140.564 419.972 140.567 420.339 140.568C427.84 140.664 435.284 139.255 442.232 136.423C453.479 132.124 459.065 121.687 461.497 110.446C462.552 105.569 463.052 100.588 462.986 95.5978Z" fill="#B1BDD2" />
            <path id="Vector_27" d="M397.767 126.482C398.069 126.398 398.367 126.298 398.659 126.182C402.452 124.648 405.679 121.977 407.899 118.536C408.548 117.523 409.069 116.433 409.451 115.292C409.299 115.511 409.058 115.825 408.936 115.983C407.714 117.49 406.321 118.85 404.785 120.035C402.548 121.671 398.386 124.59 394.931 125.088C391.828 125.485 388.683 125.423 385.598 124.905C387.777 125.767 389.988 126.574 392.346 126.741C394.115 127.001 395.917 126.922 397.657 126.51" fill="#B1BDD2" />
            <path id="Vector_28" d="M382.243 105.41C383.093 103.343 384.512 101.561 386.336 100.272C384.755 100.829 383.344 101.785 382.241 103.049C381.137 104.312 380.378 105.839 380.037 107.483C379.638 109.889 380.698 112.701 383.075 113.639C383.588 113.858 384.117 114.037 384.657 114.176C384.174 113.873 383.703 113.552 383.25 113.205C380.576 111.257 381.178 107.417 382.243 105.41Z" fill="#B1BDD2" />
            <path id="Vector_29" d="M435.398 252.364C435.6 250.764 435.791 249.163 435.952 247.558C436.826 238.429 437.853 229.258 437.482 220.075C437.1 214.464 436.136 208.908 434.604 203.498C432.046 195.107 426.349 187.233 417.906 184.14C415.022 182.843 411.921 182.097 408.764 181.942C406.705 181.883 404.644 181.972 402.598 182.207C401.699 179.09 398.625 176.494 396.03 174.729C395.108 174.073 394.116 173.522 393.073 173.086C393.172 173.154 393.272 173.223 393.372 173.292C396.838 176.069 401.691 181.293 400.165 185.08C398.642 188.057 392.755 187.082 387.456 187.54C384.409 187.714 381.364 187.953 378.311 187.952C374.582 187.906 370.861 187.621 367.169 187.099C363.242 186.529 359.29 186.036 355.483 184.871C352.61 183.974 349.938 182.967 348.1 180.58C347.639 180.059 347.365 179.399 347.322 178.704C347.242 177.697 347.41 176.823 348.059 176.359C349.193 175.525 350.673 175.48 352.044 175.568C353.575 175.663 355.102 175.799 356.631 175.924C356.606 176.569 356.586 177.214 356.569 177.859C356.572 177.988 356.521 178.384 356.593 178.122C356.827 177.41 357.045 176.693 357.26 175.976C357.356 175.983 357.452 175.992 357.548 175.999C357.457 175.974 357.366 175.949 357.276 175.924C357.311 175.806 357.351 175.689 357.386 175.57C358.386 172.144 359.188 168.664 359.789 165.145C360.595 160.363 360.833 155.512 361.114 150.673C363.679 152.183 366.44 153.333 369.318 154.089C374.687 155.469 380.229 156.057 385.768 155.834C388.564 155.83 391.356 155.628 394.123 155.23C392.745 161.647 391.848 169.199 392.369 174.699C394.255 168.355 395.07 161.741 394.782 155.128C398.454 154.572 402.015 153.44 405.336 151.775C412.177 148.269 417.621 142.577 422.491 136.727C426.49 131.468 430.348 126.014 433.205 120.036C434.287 117.715 435.147 115.296 435.773 112.813C436.207 110.371 436.323 107.883 436.119 105.411C436.057 104.487 436.031 106.131 435.972 106.441C435.5 109.792 434.784 112.88 433.25 115.607C430.983 120.455 425.82 126.972 424.109 129.19C419.791 134.833 415.153 140.287 409.702 144.869C408.687 145.657 407.653 146.418 406.573 147.115C404.907 148.161 403.165 149.081 401.361 149.866C399.594 150.508 397.785 151.028 395.947 151.422C392.746 152.191 389.898 152.34 385.768 152.407C380.87 152.493 377.062 152.27 373.167 151.466C371.177 151.059 369.215 150.526 367.292 149.869C365.193 149.009 363.175 147.962 361.263 146.74C360.819 146.462 360.391 146.158 359.983 145.83C355.413 141.928 351.661 137.817 348.967 133.546C344.112 126.388 341.463 119.118 340.919 110.964C340.67 108.587 340.546 106.198 340.547 103.807C340.644 101.691 341.14 99.7124 341.551 97.543C340.878 99.5492 340.12 101.543 339.758 103.635C339.395 106.637 339.241 109.659 339.296 112.682C339.206 121.605 342.485 130.225 347.603 137.44C350.646 141.722 354.264 145.565 358.353 148.86C359.073 149.39 359.821 149.885 360.586 150.354C358.071 158.577 356.976 167.163 356.639 175.748C355.169 175.341 353.699 174.934 352.215 174.584C350.565 174.172 348.739 174.041 347.2 174.888C346.703 175.168 346.276 175.559 345.954 176.031C345.632 176.503 345.422 177.042 345.34 177.608C338.202 175.039 329.834 173.342 323.394 178.408C318.732 182.015 315.627 187.281 313.295 192.617C310.603 198.783 308.281 205.106 306.342 211.55C304.051 219.98 301.968 228.468 299.793 236.929C296.921 248.725 295.576 260.87 295.242 272.995C295.174 274.564 295.098 276.132 295 277.699C295.111 277.265 295.221 276.831 295.329 276.396C296.232 272.177 297.157 267.964 298.106 263.755C304.437 265.968 311.032 267.272 317.416 269.296C319.379 269.997 321.304 270.806 323.179 271.717C322.704 275.965 322.28 280.219 321.752 284.461C321.722 284.964 321.53 285.984 321.845 284.87C323.215 280.906 324.34 276.871 325.334 272.802C325.754 273.021 326.184 273.249 326.628 273.489C327.198 273.797 327.761 274.119 328.322 274.443C327.974 274.114 327.621 273.79 327.264 273.47C326.7 272.971 326.118 272.489 325.528 272.016C326.161 269.375 326.739 266.721 327.291 264.062C328.459 258.574 329.241 253.025 329.915 247.46C330.442 247.556 330.967 247.662 331.495 247.752C332.221 247.884 332.946 248.02 333.671 248.158C333.226 247.962 332.781 247.767 332.333 247.576C331.566 247.232 330.795 246.904 330.021 246.585C330.722 240.697 331.317 234.793 332.131 228.923C330.3 234.401 328.777 239.971 327.498 245.597C319.775 242.655 311.563 241.211 303.301 241.344C305.508 232.134 307.785 222.941 310.133 213.765C313.294 203.139 318.437 187.49 325.435 181.058C330.15 176.521 337.617 176.512 345.3 177.809C345.216 178.283 345.177 178.763 345.183 179.244C345.467 182.353 348.022 184.72 350.578 186.209C355.62 189.137 361.479 190.043 367.165 190.868C371.427 191.504 375.733 191.8 380.041 191.751C384.472 191.648 388.866 191.004 393.27 190.56C396.667 190.185 401.028 189.702 402.495 186.088C402.918 184.897 402.97 183.605 402.643 182.383C405.967 182.647 408.94 182.861 412.13 184.062C414.606 184.812 419.525 187.95 420.379 188.606C422.147 189.879 424.642 192.828 424.991 193.363C429.089 199.197 430.667 203.768 431.988 211.018C432.955 215.626 433.371 220.333 433.229 225.04C433.099 233.813 432.006 242.511 431.042 251.22C427.872 250.463 424.606 249.831 421.708 249.377C415.526 248.546 410.244 248.135 403.264 246.407C411.849 250.73 421.323 252.256 430.819 253.269C430.504 256.194 430.213 259.121 429.989 262.054C429.695 265.259 429.569 268.469 429.542 271.681C421.498 269.716 413.077 269.782 404.846 270.172C409.826 271.214 414.874 271.903 419.951 272.236C423.146 272.417 426.344 272.312 429.541 272.306C429.519 277.115 429.707 281.926 429.902 286.732C429.914 287.155 429.923 287.577 429.929 288C429.97 287.801 430.012 287.601 430.052 287.401C430.935 282.807 431.521 278.163 432.208 273.537C433.202 266.928 434.35 260.338 435.227 253.712C437.122 253.893 439.011 254.069 440.889 254.256C439.096 253.522 437.263 252.89 435.398 252.364ZM327.204 246.945C326.113 251.902 325.192 256.893 324.441 261.919C324.01 264.727 323.655 267.544 323.331 270.365C321.107 268.786 318.664 267.542 316.081 266.672C310.24 265.004 304.125 264.542 298.129 263.654C299.774 256.312 301.473 248.983 303.224 241.665C311.27 243.172 319.18 245.329 327.204 246.945L327.204 246.945Z" fill="#B1BDD2" />
            <path id="Vector_30" d="M397.335 260.217C396.737 266.868 396.969 273.546 397.157 280.21C398.509 275.423 399.315 267.792 400.005 262.836C401.051 254.035 401.371 245.167 402.385 236.361C399.754 244.082 398.059 252.091 397.335 260.217Z" fill="#B1BDD2" />
            <path id="Vector_31" d="M425.067 211.18C421.701 210.197 418.46 208.821 415.057 207.963C410.721 206.87 406.283 206.275 401.903 205.394C397.442 204.516 393.032 203.391 388.553 202.608C382.829 201.644 377.048 201.032 371.263 200.577C360.408 199.99 349.524 200.146 338.666 199.578C334.738 199.447 329.663 199.109 326.377 198.688C322.991 198.154 319.642 197.409 316.275 196.765C320.137 198.049 323.952 199.531 327.94 200.382C334.841 201.868 341.891 202.58 348.922 203.113C356.57 203.658 364.254 203.353 371.897 204.004C377.18 204.451 381.827 205.012 386.009 205.682C390.459 206.44 394.854 207.493 399.318 208.174C406.093 209.288 412.88 209.205 419.108 210.546C421.902 211.165 424.738 211.519 427.557 211.992C426.734 211.7 425.901 211.438 425.067 211.18Z" fill="#B1BDD2" />
            <path id="Vector_32" d="M430.242 225.559C424.519 224.683 418.786 223.863 413.091 222.817C409.47 222.127 405.917 221.119 402.284 220.488C395.461 219.196 388.501 219.132 381.584 218.909C368.877 218.364 356.285 216.507 343.662 215.08C338.374 214.57 333.05 214.632 327.753 214.264C322.067 213.876 316.424 213.034 310.74 212.608C316.454 213.855 322.106 215.4 327.884 216.332C334.517 217.325 340.316 217.684 346.096 218.508C358.434 220.291 375.652 222.382 389.756 222.694C397.769 223.096 403.467 224.029 411.132 225.131C416.004 225.67 420.916 225.764 425.814 225.835C427.964 225.866 430.115 225.826 432.263 225.922C431.592 225.785 430.918 225.667 430.242 225.559Z" fill="#B1BDD2" />
            <path id="Vector_33" d="M395.93 249.678C390.532 247.164 384.786 245.487 378.987 244.188C374.072 243.032 369.081 242.232 364.052 241.793C353.846 241.113 343.372 241.674 333.41 240.07C342.36 242.97 351.759 243.926 361.078 244.836C367.343 245.511 374.351 246.415 377.625 246.857C382.667 247.522 389.039 248.379 394.971 249.822C395.897 250.051 396.817 250.301 397.722 250.602C397.133 250.278 396.536 249.97 395.93 249.678Z" fill="#B1BDD2" />
            <path id="Vector_34" d="M392.39 274.417C389.513 271.91 385.92 270.487 382.426 269.072C378.513 267.427 374.432 266.213 370.257 265.452C364.619 264.429 358.871 264.368 353.158 264.383C348.42 264.327 343.683 264.252 338.945 264.363C343.579 265.07 348.202 265.855 352.843 266.519C361.869 267.687 367.757 268.146 377.167 270.367C381.84 271.606 387.143 272.501 391.194 274.38C392.325 274.95 393.414 275.602 394.451 276.328C393.787 275.667 393.103 275.026 392.39 274.417Z" fill="#B1BDD2" />
        </g>
        <g id="Group 806">
            <path id="Vector_35" d="M85.3577 136.498L87.5981 146.031C87.8411 147.065 88.3094 148.215 91.0906 148.656C93.3407 149.013 96.4261 148.786 99.2583 148.552C159.854 143.544 220.215 137.303 280.519 131.066C281.896 126.25 281.245 121.545 278.583 117.069C278.215 116.451 277.634 115.772 275.759 115.576C274.319 115.426 272.525 115.609 270.869 115.791L151.147 128.908C128.681 131.37 106.045 133.855 84.5551 137.545" fill="#FBE5F0" />
            <path id="Vector_36" d="M130 91.5005C190.5 82.8211 199.274 85.5816 260.959 77.7666C265.437 76.5844 270.08 79.9241 270 84.5005C271.845 98.5136 271.275 111.474 270 125.552C208.333 130.917 145.868 138.122 84.3187 139.582C69.7669 132.659 77.8994 108.312 74 94.6608C77.2275 109.177 66.4059 142.472 89.2479 141.995C134.176 141.849 178.677 139.244 223.684 135.768C240.3 134.492 256.934 133.082 273.536 131.684C275.453 131.821 274.377 126.825 274.991 125.552C273.764 110.967 283.37 68.6423 260.802 71.1035C198.561 79.8619 189.5 80.0005 130 91.5005Z" fill="#B1BDD2" />
            <g id="undraw_handcrafts_flower 1" clip-path="url(#clip2_988_6881)">
                <path id="Vector_37" d="M96.5027 99.7197C95.7503 97.8491 95.4863 95.8152 95.7358 93.8123C95.9854 91.8095 96.7401 89.9047 97.928 88.28C99.1159 86.6554 100.697 85.3652 102.52 84.5329C104.344 83.7006 106.349 83.3539 108.343 83.526C107.142 90.4705 102.677 96.7667 96.5027 99.7197Z" fill="#FBE5F0" />
                <path id="Vector_38" d="M101.865 103.476C101.3 102.512 100.63 101.615 99.8671 100.801C99.9828 101.025 100.126 101.354 100.212 101.541C100.906 103.152 101.386 104.849 101.638 106.587C102.253 110.683 101.565 116.054 100.492 120.758C99.5762 124.186 97.9235 126.755 95.9434 130C98.5396 127.555 101.075 124.926 102.449 121.561C104.683 115.846 105.029 108.903 101.865 103.476Z" fill="#B1BDD2" />
                <path id="Vector_39" d="M113.566 83.5233C113.441 79.9476 110.707 76.9073 107.099 78.7616C106.48 79.1268 105.923 79.5904 105.451 80.1344C104.292 78.5959 102.571 77.7 100.423 78.5364C98.5435 79.2757 97.0787 80.9788 96.3475 83.9071C94.1293 83.0745 91.7663 84.4335 90.5303 86.4859C89.8373 87.6231 89.576 88.9419 89.4758 90.2567C89.0981 94.2854 90.8798 98.4093 94.1799 100.747C96.0426 102.207 98.3613 101.447 100.275 100.512C96.412 101.299 95.2663 100.557 93.4549 97.5826C91.8386 94.626 91.7197 92.339 92.6612 89.1077C92.9033 88.3807 93.6429 87.5846 94.2714 87.4668C94.3012 87.4582 94.332 87.4541 94.3622 87.4471C94.4027 87.4457 94.4431 87.4401 94.4836 87.4409C94.5133 87.4498 94.5478 87.4603 94.5924 87.474C94.6261 87.4928 94.6617 87.5132 94.6989 87.5356C94.7561 87.5903 94.8115 87.6467 94.8641 87.7059C95.0314 87.9538 95.1976 88.2028 95.344 88.4643C95.8653 89.2803 96.036 90.4138 96.9426 90.9079C97.1985 91.0587 97.4814 91.157 97.7751 91.1973C98.0688 91.2376 98.3675 91.2191 98.6541 91.1428C98.9407 91.0665 99.2095 90.9339 99.4452 90.7527C99.6809 90.5714 99.8789 90.3451 100.028 90.0866C100.509 89.1449 100.421 88.0625 100.378 87.037C100.377 87.0022 100.376 86.9668 100.375 86.9316C100.379 86.6521 100.393 86.3727 100.417 86.0942C100.423 86.0448 100.427 86.0059 100.431 85.9713C100.524 85.3424 100.685 84.7256 100.909 84.1314C100.994 83.9578 101.139 83.6699 101.28 83.4437C101.359 83.3559 101.443 83.2721 101.53 83.1922C101.653 83.4278 101.805 83.6516 101.993 84.8537C102.022 85.1205 102.071 85.4638 102.115 85.7797C102.164 86.2613 102.199 86.7494 102.412 87.1839C102.649 87.7782 103.093 88.2648 103.66 88.5528C104.228 88.8408 104.88 88.9103 105.494 88.7485C106.749 88.4232 107.402 87.1518 107.612 85.9241C107.615 85.9854 107.659 85.8702 107.777 85.4951C108.468 83.6432 107.973 84.6021 108.885 83.0785C108.959 82.9991 109.036 82.9238 109.103 82.8597C109.203 83.0317 109.295 83.2079 109.38 83.3883C109.391 83.425 109.403 83.4624 109.421 83.5173C110.274 86.2492 109.02 90.5566 107.153 94.3384C106.033 96.693 104.866 98.4985 102.904 99.8101C102.277 100.225 101.61 100.575 100.914 100.855C102.102 100.708 103.256 100.355 104.325 99.8098C107.013 98.4382 108.811 95.8799 110.394 93.3808C112.278 90.4637 113.708 87.061 113.566 83.5233Z" fill="#B1BDD2" />
                <path id="Vector_40" d="M97.2523 114.452C96.3144 112.443 95.3317 110.287 93.582 108.873C94.598 107.805 94.1401 105.613 92.2076 105.559C89.667 105.623 89.6737 109.377 92.2077 109.447C92.5075 109.443 92.8029 109.374 93.074 109.245C93.1739 109.399 93.2716 109.558 93.3662 109.727C93.9073 110.693 94.2479 111.959 94.6347 113.301C95.0185 114.683 95.4621 116.052 95.7043 117.469C96.1703 119.833 96.5796 124.548 96.0192 129.4C98.1652 124.818 99.4757 119.248 97.2523 114.452Z" fill="#B1BDD2" />
                <path id="Vector_41" d="M89.4251 81.8496C90.2122 81.8496 90.8503 81.2061 90.8503 80.4123C90.8503 79.6185 90.2122 78.975 89.4251 78.975C88.6381 78.975 88 79.6185 88 80.4123C88 81.2061 88.6381 81.8496 89.4251 81.8496Z" fill="#B1BDD2" />
                <path id="Vector_42" d="M105.607 75.8751C106.394 75.8751 107.032 75.2316 107.032 74.4378C107.032 73.644 106.394 73.0005 105.607 73.0005C104.82 73.0005 104.182 73.644 104.182 74.4378C104.182 75.2316 104.82 75.8751 105.607 75.8751Z" fill="#B1BDD2" />
                <path id="Vector_43" d="M113.576 100.801C114.363 100.801 115.001 100.157 115.001 99.3636C115.001 98.5698 114.363 97.9263 113.576 97.9263C112.788 97.9263 112.15 98.5698 112.15 99.3636C112.15 100.157 112.788 100.801 113.576 100.801Z" fill="#B1BDD2" />
            </g>
            <g id="undraw_handcrafts_welcome 1" clip-path="url(#clip3_988_6881)">
                <path id="Vector_44" d="M252.136 93.7204C252.634 98.4715 254.259 103.037 256.879 107.043C254.994 100.902 254.99 94.342 256.867 88.1953L257.164 87.7544C255.847 86.7304 253.753 87.4827 252.857 88.8861C251.961 90.2894 251.965 92.0687 252.136 93.7204Z" fill="#FBE5F0" />
                <path id="Vector_45" d="M201.884 108.68C201.408 110.122 199.975 111.376 198.469 111.116C197.508 110.95 196.748 110.232 196.118 109.494C194.548 107.648 193.405 105.482 192.77 103.149C190.953 105.809 190.092 108.998 190.326 112.202C190.421 113.448 190.713 114.74 191.539 115.683C192.813 117.137 195.057 117.382 196.931 116.871C198.217 116.521 199.403 115.875 200.394 114.987C201.384 114.099 202.15 112.994 202.631 111.759C203.113 110.524 203.295 109.195 203.165 107.877C203.034 106.56 202.594 105.292 201.879 104.175C202.122 105.673 202.36 107.238 201.884 108.68Z" fill="#FBE5F0" />
                <path id="Vector_46" d="M142.974 112.949C142.498 114.391 141.064 115.645 139.559 115.385C138.598 115.219 137.838 114.501 137.208 113.763C135.637 111.917 134.495 109.751 133.86 107.418C132.043 110.078 131.182 113.267 131.415 116.471C131.511 117.717 131.803 119.009 132.629 119.952C133.903 121.406 136.147 121.651 138.021 121.14C139.307 120.789 140.493 120.144 141.483 119.256C142.473 118.368 143.24 117.263 143.721 116.028C144.203 114.793 144.385 113.463 144.255 112.146C144.124 110.829 143.684 109.561 142.969 108.444C143.212 109.942 143.45 111.507 142.974 112.949Z" fill="#FBE5F0" />
                <path id="Vector_47" d="M131.55 113.647C131.074 115.089 129.641 116.343 128.135 116.082C127.174 115.916 126.414 115.198 125.784 114.46C124.214 112.614 123.071 110.448 122.436 108.115C120.619 110.775 119.758 113.964 119.992 117.168C120.087 118.414 120.379 119.706 121.205 120.649C122.479 122.103 124.723 122.348 126.597 121.837C127.883 121.487 129.069 120.841 130.06 119.954C131.05 119.066 131.816 117.96 132.297 116.725C132.779 115.49 132.961 114.161 132.831 112.844C132.7 111.527 132.26 110.259 131.545 109.142C131.788 110.639 132.026 112.205 131.55 113.647Z" fill="#FBE5F0" />
                <path id="Vector_48" d="M145.204 96.1033C144.95 97.6701 144.819 100.445 144.57 102.425C144.191 105.82 143.985 107.83 143.534 110.926C143.097 113.784 142.668 115.781 141.784 117.789C141.197 118.973 141.432 118.61 140.645 119.484C139.779 120.28 140.244 119.965 139.255 120.602C139.245 120.607 139.235 120.612 139.225 120.618C139.215 120.622 139.206 120.626 139.197 120.63C139.118 120.664 139.039 120.695 138.958 120.724C138.864 120.759 138.77 120.787 138.697 120.806C138.502 120.839 138.305 120.853 138.107 120.848C137.947 120.823 137.759 120.777 137.65 120.75C137.549 120.708 137.451 120.658 137.357 120.603C137.332 120.582 137.302 120.556 137.265 120.524C136.477 119.721 136.569 119.925 135.879 118.727C135.708 118.401 135.824 118.622 135.917 118.812C135.079 117.27 134.613 114.835 134.478 114.124C134.154 112.403 133.886 110.664 133.706 108.917C133.802 107.598 133.868 106.276 133.872 104.954C133.836 104.039 133.964 103.051 133.584 102.196C133.142 101.229 131.753 101.105 131.185 102.032C130.898 102.407 130.91 102.897 130.878 103.345C130.858 103.93 130.891 104.514 130.923 105.097C130.973 105.749 131.029 106.46 131.094 107.211C131.086 107.45 131.078 107.69 131.07 107.93C130.924 111.086 130.429 115.306 128.961 118.144C127.939 120.178 126.329 121.039 125.551 121.003C124.017 120.854 123.407 119.988 122.007 117.897C120.021 114.758 119.059 110.825 118.465 106.962C118.211 104.847 117.823 102.635 118.334 100.534C117.843 101.457 117.701 102.514 117.545 103.533C117.35 105.127 117.28 106.733 117.335 108.337C117.477 113.251 118.606 118.596 122.308 122.116C125.41 124.791 129.042 122.978 130.942 119.88C131.566 118.797 132.066 117.649 132.432 116.456C133.09 119.308 134.683 123.065 137.739 123.426C139.484 123.688 141.126 122.79 142.319 121.588C143.649 120.483 144.338 118.882 144.899 117.296C145.488 115.732 145.766 114.078 145.932 112.423C146.416 106.981 146.101 101.487 145.204 96.1033Z" fill="#B1BDD2" />
                <path id="Vector_49" d="M160.32 119.707C158.745 119.982 157.331 120.051 156.239 119.865C153.959 119.531 152.024 118.565 151.624 118.092C149.709 115.616 149.411 113.585 149.665 111.196C149.958 108.846 150.168 108.204 151.423 106.13C151.865 105.552 152.766 104.541 153.725 104.508C154.928 104.442 157.009 104.854 157.81 105.791C158.276 106.625 159.094 107.796 157.103 109.767C155.901 110.754 154.209 111.089 152.748 111.647C154.833 111.306 157.252 111.275 158.718 109.534C160.191 108.087 160.212 105.986 159.1 104.321C158.552 103.571 157.723 103.106 156.889 102.729C155.017 101.924 152.722 101.621 150.962 102.853C147.189 105.59 145.613 112.49 147.587 116.647C148.481 118.545 149.849 120.45 151.998 120.995C154.769 121.852 157.762 121.67 160.409 120.485C161.403 120.071 162.35 119.556 163.237 118.949C162.288 119.282 161.312 119.536 160.32 119.707Z" fill="#B1BDD2" />
                <path id="Vector_50" d="M175.282 119.587C173.91 119.716 172.355 119.439 171.323 118.666C169.86 117.673 168.629 116.379 167.715 114.872C169.48 112.499 170.655 109.952 171.56 106.446C172.315 103.436 172.838 100.339 172.85 97.2328C172.754 95.3311 172.57 93.3936 171.959 91.5801C170.984 89.3175 169.388 88.0194 166.944 89.3404C163.081 91.2712 161.996 96.9053 162.078 101.779C162.172 106.598 163.109 111.857 166.039 115.812C165.299 116.987 164.537 118.008 163.688 119.259C164.669 118.35 165.604 117.393 166.489 116.391C166.698 116.647 166.918 116.897 167.146 117.141C168.516 118.469 170.201 119.565 172.069 120.042C173.191 120.292 174.368 120.066 175.445 119.717C175.646 119.647 175.844 119.567 176.041 119.483C175.79 119.53 175.537 119.565 175.282 119.587ZM167.006 91.9555C168.038 91.1814 168.077 91.2783 168.428 91.1666C168.511 91.1552 168.595 91.1482 168.68 91.1458C168.728 91.1529 168.775 91.1613 168.822 91.1724L168.833 91.1782C168.851 91.1936 168.874 91.2132 168.896 91.2333C169.079 91.4659 169.247 91.7092 169.399 91.9621C169.492 92.1468 169.523 92.1071 169.758 92.8698C170.261 95.039 170.436 97.2708 170.276 99.4916C170.172 100.434 169.66 105.245 169.172 107.422C168.675 109.939 168.156 111.728 167.142 113.821C166.436 112.372 165.931 110.729 165.426 108.805C164.209 104.385 163.451 94.7971 167.006 91.9555Z" fill="#B1BDD2" />
                <path id="Vector_51" d="M177.885 111.519C177.875 111.635 177.874 111.678 177.885 111.519V111.519Z" fill="#B1BDD2" />
                <path id="Vector_52" d="M184.458 118.422C183.018 118.501 181.7 118.355 180.795 118.032C179.385 117.304 178.583 116.471 178.188 114.864C178.136 114.662 177.745 112.59 177.896 111.375C177.892 111.435 177.889 111.483 177.886 111.519C177.892 111.449 177.902 111.352 177.915 111.256C178.103 109.73 178.54 108.002 178.868 107.224C178.842 107.299 178.815 107.374 178.788 107.45C179.179 106.421 179.502 105.354 180.079 104.407C180.489 103.797 180.97 103.238 181.513 102.741C182.264 102.057 183.202 101.628 184.065 101.103C180.583 101.914 178.812 103.307 177.205 106.475C176.274 108.11 175.697 109.92 175.51 111.788C175.393 112.905 175.623 114.015 175.872 115.099C176.295 117.13 177.89 118.796 179.864 119.432C181.854 119.975 183.994 119.346 185.823 118.529C186.044 118.421 186.264 118.309 186.48 118.19C185.813 118.317 185.137 118.395 184.458 118.422Z" fill="#B1BDD2" />
                <path id="Vector_53" d="M204.112 107.059C203.493 105.465 202.128 104.199 200.563 103.525C198.925 102.93 197.135 102.953 195.414 102.991C195.343 102.987 195.052 103.001 195.228 103.015C196.219 103.185 197.196 103.43 198.149 103.75C198.763 103.961 199.355 104.234 199.913 104.564C200.372 104.886 200.779 105.276 201.12 105.719C202.814 107.769 202.351 110.18 200.747 112.938C200.169 113.695 197.368 116.026 196.055 115.883C193.597 116.007 190.28 113.095 190.389 109.161C190.31 108.553 190.781 106.848 191.068 106.191C191.499 105.105 191.923 104.226 192.743 103.443C193.343 102.862 194.091 102.453 194.907 102.262C195.562 102.12 196.242 102.143 196.907 102.081C192.791 101.106 190.516 103.479 188.918 106.96C187.071 110.997 188.939 116.212 192.982 118.123C196.61 119.94 200.102 117.903 202.584 115.206C204.314 113.063 205.032 109.671 204.112 107.059Z" fill="#B1BDD2" />
                <path id="Vector_54" d="M232.035 102.558C231.091 99.8875 228.419 97.1615 225.488 98.991C223.9 100.193 223.311 102.139 222.841 104.007C222.491 103.074 221.96 102.219 221.277 101.49C220.584 100.658 219.623 99.9243 218.49 99.9273C217.299 100.005 216.094 100.567 215.393 101.546C214.605 102.625 214.261 103.939 213.79 105.17C213.501 105.983 213.217 106.802 212.99 107.635C212.322 105.802 211.521 104.02 210.593 102.303C211.613 105.68 212.062 108.904 212.364 112.388C212.333 113.073 212.324 113.759 212.352 114.445C212.423 115.309 212.376 116.463 213.263 116.924C213.574 117.076 213.934 117.101 214.263 116.993C214.593 116.885 214.868 116.654 215.028 116.348C215.212 115.98 215.185 115.577 215.117 115.178C215.079 114.455 215.177 113.726 215.212 113.002C215.354 111.716 215.489 110.427 215.708 109.151C215.905 108.205 216.17 107.274 216.501 106.365C216.816 105.394 217.194 104.444 217.633 103.521C217.67 103.455 217.711 103.392 217.751 103.328C217.813 103.252 217.878 103.181 217.926 103.131C217.977 103.096 218.028 103.063 218.071 103.038C218.179 102.99 218.29 102.951 218.404 102.92C218.431 102.942 218.461 102.962 218.487 102.986C219.108 103.643 219.099 103.503 219.776 104.658C219.78 104.665 219.782 104.67 219.786 104.678C220.675 106.908 221.055 109.605 221.296 110.821C221.383 111.454 221.484 112.087 221.566 112.722C221.535 113.492 221.532 114.202 221.556 114.823C221.609 116.657 223.723 117.322 224.64 115.652C225.062 114.634 224.765 113.5 224.672 112.443C224.625 112.061 224.57 111.68 224.513 111.299C224.625 109.084 224.967 106.886 225.532 104.74C226 102.949 226.184 102.433 226.816 101.637C226.882 101.554 226.953 101.474 227.028 101.399C227.089 101.353 227.152 101.31 227.216 101.27C227.23 101.266 227.243 101.261 227.256 101.256C227.331 101.249 227.426 101.241 227.521 101.239C227.589 101.249 227.676 101.264 227.762 101.285C227.873 101.333 227.981 101.387 228.084 101.449C229.97 102.513 231.803 108.14 233.209 113.385C233.341 113.879 233.465 114.376 233.57 114.877C233.603 114.077 233.602 113.276 233.584 112.476C233.465 109.131 233.186 105.728 232.035 102.558Z" fill="#B1BDD2" />
                <path id="Vector_55" d="M251.288 115.237C250.618 115.433 249.927 115.551 249.23 115.588C244.318 115.879 240.313 113.158 239.233 110.209C238.677 108.577 238.741 108.689 238.571 107.456C238.499 106.144 238.509 106.929 238.65 105.562C238.975 103.028 239.671 101.385 240.495 100.402C240.913 99.8466 241.388 99.3359 241.913 98.8784C241.981 98.8219 242.047 98.7644 242.116 98.71C243.137 97.9712 242.782 98.2243 243.505 97.9141C243.825 97.7916 244.151 97.6883 244.484 97.6049L244.489 97.6041C244.685 97.5776 244.882 97.5687 245.08 97.5775C245.242 97.6055 245.418 97.6477 245.532 97.6759C245.633 97.719 245.732 97.7683 245.826 97.8236C246.553 98.5138 246.221 98.0676 246.676 98.8012C247.206 100.079 246.873 102.01 246.206 103.583C245.39 105.485 242.81 106.127 240.237 105.074C242.971 107.002 246.51 106.858 248.165 103.674C249.004 102.119 249.579 100.32 249.293 98.5456C249.166 97.7932 248.863 97.0811 248.408 96.4662C247.953 95.8514 247.359 95.351 246.674 95.0053C245.17 94.3101 243.447 94.5811 241.968 95.212C240.291 95.963 238.916 97.3044 237.854 98.775C236.692 100.281 236.097 102.107 235.745 103.951C235.556 104.94 235.445 105.943 235.415 106.95C235.577 109.457 236.514 111.981 238.342 113.761C241.652 116.966 247.146 117.598 251.172 115.377C251.37 115.254 251.742 115.077 251.288 115.237Z" fill="#B1BDD2" />
                <path id="Vector_56" d="M257.488 111.356C256.007 111.483 256.142 113.64 257.625 113.59C259.106 113.463 258.971 111.306 257.488 111.356Z" fill="#B1BDD2" />
                <path id="Vector_57" d="M260.344 91.8361C260.008 90.2436 259.439 88.7085 258.656 87.2794C257.757 85.4423 256.319 83.7351 254.4 82.9117C251.21 81.7859 249.85 84.788 249.765 87.4621C249.664 89.1749 250.168 90.8483 250.596 92.4894C251.973 97.427 254.704 101.827 256.661 106.537C256.44 107.212 256.227 107.89 256.067 108.582C257.334 106.341 258.746 104.169 259.78 101.807C261.255 98.8084 260.838 93.7623 260.344 91.8361ZM257.047 105.366C256.92 105.757 256.789 106.146 256.661 106.537C255.723 101.972 253.275 95.5601 252.648 92.0259C252.403 90.6823 252.091 89.3371 252.096 87.9646C252.057 87.2391 252.395 85.6031 252.77 85.1657L252.776 85.1603C252.821 85.126 252.867 85.0937 252.915 85.0638C252.958 85.0473 253 85.0335 253.035 85.0226C253.072 85.0186 253.108 85.0156 253.145 85.0141C253.434 85.052 253.384 85.0336 253.857 85.3064C255.696 86.7454 255.9 87.6667 256.897 89.8511C258.025 92.9823 258.253 94.5305 258.56 97.8122C258.86 100.263 257.973 102.585 257.047 105.366Z" fill="#B1BDD2" />
            </g>
        </g>
    </g>
    <defs>
        <clipPath id="clip0_988_6881">
            <rect width="291.396" height="151.993" fill="white" transform="translate(6 173.581) rotate(-2.10806)" />
        </clipPath>
        <clipPath id="clip1_988_6881">
            <rect width="168" height="281" fill="white" transform="translate(295 7.00024)" />
        </clipPath>
        <clipPath id="clip2_988_6881">
            <rect width="27" height="57" fill="white" transform="translate(88 73.0005)" />
        </clipPath>
        <clipPath id="clip3_988_6881">
            <rect width="144" height="38" fill="white" transform="translate(116 86.7729) rotate(-3.49246)" />
        </clipPath>
    </defs>
</svg>
    