<svg width="93" height="92" viewBox="0 0 93 92" fill="none" xmlns="http://www.w3.org/2000/svg">
<g clip-path="url(#clip0_659_6218)">
<path d="M30.1231 76.7501L26.7658 73.7949C23.2723 82.1376 19.7787 90.4802 16.2852 98.8228C25.0445 95.1745 30.6097 85.0375 30.1231 76.7501Z" fill="#FFEAF5"/>
<path d="M34.9808 74.8125C32.7278 79.929 35.3887 86.6526 40.5234 88.8177C45.6582 90.9827 52.2978 88.1806 54.3537 82.981C55.3228 80.5299 59.0082 80.1825 61.0083 81.8907C63.0083 83.5989 63.5363 86.5225 63.2666 89.146C62.9969 91.7695 62.0735 94.284 61.6966 96.8941C61.3196 99.5042 61.5901 102.416 63.3654 104.359C65.0117 100.709 65.9066 96.7626 65.9963 92.7564C66.086 88.7502 65.3687 84.7671 63.8874 81.0465C62.791 78.3363 59.1079 77.076 56.5931 78.5504C49.7765 82.547 40.1968 80.861 34.9808 74.8125Z" fill="#FFEAF5"/>
<path d="M40.8489 32.6738C39.6999 32.7024 39.7029 34.3938 40.849 34.4255C41.998 34.3969 41.995 32.7056 40.8489 32.6738Z" fill="#2D2C4C"/>
<path d="M58.6126 32.4141C57.4636 32.4427 57.4666 34.134 58.6127 34.1657C59.7617 34.1371 59.7587 32.4458 58.6126 32.4141Z" fill="#2D2C4C"/>
<path d="M46.5342 22.7054C46.2079 21.9436 45.724 21.2602 45.1145 20.7007C44.5051 20.1412 43.7842 19.7185 42.9996 19.4605C41.7714 19.1322 40.4129 19.1017 39.2142 19.5613C37.3848 20.2756 36.246 22.0117 35.3008 23.6513C36.5342 22.2085 37.8763 20.7723 39.4096 20.2972C40.1941 20.0651 40.5075 20.0586 41.3464 20.0516C42.4741 20.0133 43.5861 20.3253 44.5309 20.9451C45.3256 21.4357 46.0105 22.0863 46.5424 22.8561C46.592 22.9211 46.6392 22.9879 46.6876 23.0538C46.6383 22.9369 46.5875 22.8206 46.5342 22.7054Z" fill="#2D2C4C"/>
<path d="M67.3577 22.3192C67.2517 21.5566 66.9988 20.822 66.6131 20.1567C65.8413 18.7171 64.2189 18.0528 62.6582 17.9718C61.2602 17.8326 59.8501 18.0566 58.5632 18.6226C57.3766 19.0636 56.4393 19.9593 55.6544 20.9314C54.8925 21.914 54.2761 23.0021 53.8242 24.1621C55.0356 22.3528 56.3692 20.7873 58.2059 19.8227C59.0244 19.4702 59.882 19.2176 60.7603 19.0702C62.0841 18.9521 64.5706 18.7726 65.8824 20.215C66.5687 20.9263 66.9951 21.7919 67.3516 22.8113C67.5851 23.5787 67.3913 22.5946 67.3577 22.3192Z" fill="#2D2C4C"/>
<path d="M46.5852 5.41009C45.6403 3.64424 44.3225 0.871469 42.3771 0.142628C39.6065 -0.618636 36.9038 1.8134 35.4793 3.97685C33.7107 6.84838 32.4523 10.0011 31.0298 13.0525C29.5795 16.3552 27.9817 19.5908 26.4723 22.8666C25.0975 25.8847 23.4759 28.787 22.1974 31.8486C21.0853 34.7261 20.8963 37.245 21.9536 40.18C22.3888 41.4749 22.9878 42.7047 23.5346 43.9539C24.3905 46.0117 25.3634 48.0582 26.8515 49.7376C27.949 50.847 29.198 51.8903 30.6559 52.4745C29.9584 52.0448 29.3241 51.5193 28.7714 50.9133C28.1617 50.3083 27.6191 49.6389 27.1529 48.9166C25.8695 46.8026 25.4061 45.1136 24.5494 42.7813C23.3934 39.9132 22.4214 37.166 22.9384 34.9867C23.5608 31.8422 25.0072 29.6084 26.4479 26.49C27.6331 24.0484 28.7577 21.5778 29.8879 19.1103C30.7187 17.3355 31.5783 15.574 32.3245 13.7606C33.7911 10.5795 35.4788 6.20847 37.2299 3.93423C38.7941 2.15683 40.4447 1.10916 41.9953 1.53387C42.5324 1.69136 43.5417 2.81177 44.2389 3.85208C46.848 7.49951 47.8257 9.84161 48.013 14.3091C48.3515 11.1564 48.0875 8.2538 46.5852 5.41009Z" fill="#2D2C4C"/>
<path d="M81.4792 37.3541C81.3991 34.6928 81.1667 32.0384 80.783 29.4039C80.3022 26.0024 79.6318 22.633 78.8405 19.2914C78.3645 17.2501 78.0157 15.1567 77.2233 13.2083C76.1267 10.698 74.6795 8.35765 72.9253 6.25788C70.6793 3.53903 67.046 2.35304 63.6022 2.69931C60.731 2.95635 57.8986 3.62537 55.1477 4.47712C53.4223 5.04037 51.6868 5.6783 50.1967 6.74008C49.4012 7.36409 48.6693 8.06587 48.0117 8.8351C48.8709 8.1276 49.7019 7.45552 50.7053 6.94252C51.8709 6.40402 53.0903 5.9919 54.3428 5.71313C57.0483 5.0824 59.7855 4.59799 62.5426 4.262C64.4327 4.10787 65.7803 4.01805 67.2584 4.46534C69.1567 5.01558 70.2207 5.65598 71.5929 7.21085C73.2009 8.97561 75.1829 12.4517 75.9526 14.5709C76.4737 16.2298 76.8282 17.934 77.2086 19.6294C77.5894 21.3289 78.0067 23.0207 78.3471 24.729C79.0556 28.445 79.5135 31.1088 79.7397 34.7513C79.8791 36.4511 79.895 38.1589 79.7873 39.861C79.3381 44.2015 78.0465 48.8816 74.4743 51.8267C73.6939 52.5184 71.5231 53.7061 69.9502 54.358C68.5192 54.9518 65.9118 55.8401 63.9225 56.1576C63.6452 56.2112 63.3673 56.262 63.0889 56.31C63.2434 56.3126 63.3979 56.314 63.5524 56.3142C66.7053 56.355 69.8345 55.7608 72.7551 54.5666C77.4829 52.7544 79.8309 48.354 80.8532 43.6146C81.2968 41.5582 81.5068 39.458 81.4792 37.3541Z" fill="#2D2C4C"/>
<path d="M54.0648 50.3759C54.1918 50.3405 54.3169 50.2984 54.4395 50.2496C56.0338 49.6026 57.3904 48.4766 58.3238 47.0256C58.5965 46.5986 58.8156 46.1393 58.9761 45.6582C58.9123 45.7504 58.811 45.8829 58.7595 45.9493C58.2458 46.5848 57.6603 47.1582 57.0149 47.6579C56.0743 48.3474 54.3248 49.5782 52.8725 49.7884C51.568 49.9557 50.2462 49.9297 48.9492 49.7112C49.8655 50.0747 50.7949 50.4147 51.7858 50.4851C52.5294 50.5946 53.2869 50.5616 54.0182 50.3878" fill="#2D2C4C"/>
<path d="M47.5398 41.4906C47.8971 40.6191 48.4938 39.8677 49.2602 39.3242C48.5957 39.559 48.0028 39.9622 47.539 40.4949C47.0751 41.0275 46.756 41.6714 46.6127 42.3644C46.445 43.379 46.8904 44.5644 47.8895 44.96C48.1052 45.0522 48.3275 45.1279 48.5547 45.1864C48.3517 45.0588 48.1534 44.9234 47.9633 44.7771C46.8393 43.9555 47.0923 42.3369 47.5398 41.4906Z" fill="#2D2C4C"/>
<path d="M69.8844 103.449C69.9694 102.775 70.0495 102.1 70.1172 101.423C70.4845 97.574 70.9164 93.7074 70.7602 89.8356C70.5999 87.47 70.1945 85.1277 69.5507 82.8466C68.4752 79.3089 66.0803 75.989 62.5314 74.6847C61.3191 74.1379 60.0158 73.8236 58.6885 73.7583C57.823 73.7334 56.9568 73.7707 56.0966 73.8698C55.7187 72.5557 54.4265 71.4609 53.3357 70.7171C52.9482 70.4405 52.5313 70.2081 52.0926 70.0241C52.1345 70.053 52.1764 70.0821 52.2185 70.1112C53.6753 71.2821 55.7154 73.4844 55.074 75.081C54.4339 76.3361 51.9591 75.925 49.7314 76.1185C48.4509 76.1915 47.1706 76.2923 45.8873 76.2918C44.3201 76.2726 42.7557 76.1526 41.2037 75.9324C39.5531 75.6919 37.8919 75.4842 36.2916 74.993C35.0838 74.6149 33.9607 74.1902 33.1881 73.1839C32.9942 72.9643 32.8791 72.6859 32.8611 72.393C32.8276 71.9683 32.8979 71.5997 33.1707 71.4043C33.6475 71.0526 34.2696 71.0336 34.8459 71.0709C35.4894 71.1108 36.1316 71.1683 36.7741 71.2208C36.7638 71.4928 36.7551 71.7648 36.7479 72.0368C36.7492 72.091 36.7279 72.2581 36.7581 72.1476C36.8565 71.8475 36.9482 71.5452 37.0384 71.2425C37.0788 71.2457 37.1191 71.2494 37.1594 71.2525C37.1213 71.242 37.0832 71.2314 37.0452 71.2208C37.06 71.1709 37.0767 71.1216 37.0914 71.0717C37.5117 69.6273 37.849 68.1597 38.1015 66.6763C38.4403 64.66 38.5406 62.6145 38.6584 60.5745C39.7368 61.2112 40.8973 61.6958 42.1072 62.0146C44.3642 62.5964 46.6936 62.8444 49.0219 62.7505C50.1972 62.7489 51.3709 62.6638 52.5343 62.4959C51.9549 65.2013 51.578 68.3855 51.7969 70.7044C52.5894 68.0297 52.9321 65.241 52.811 62.453C54.3545 62.2184 55.8517 61.7413 57.2476 61.0392C60.1232 59.5609 62.4117 57.161 64.4588 54.6947C66.1399 52.4773 67.7614 50.1778 68.9626 47.6575C69.4172 46.6788 69.7786 45.6591 70.0421 44.612C70.2243 43.5824 70.273 42.5334 70.1872 41.4913C70.1613 41.1017 70.1503 41.7948 70.1256 41.9254C69.9272 43.3383 69.6261 44.6401 68.9815 45.79C68.0283 47.8338 65.8583 50.5815 65.1388 51.5167C63.3238 53.8959 61.374 56.1955 59.0827 58.1272C58.656 58.4597 58.2216 58.7803 57.7674 59.0743C57.0671 59.5155 56.3348 59.9032 55.5766 60.2341C54.8339 60.505 54.0734 60.7243 53.3006 60.8902C51.9552 61.2144 50.758 61.2774 49.0219 61.3057C46.9631 61.342 45.3624 61.2478 43.7252 60.9087C42.8886 60.7373 42.0637 60.5124 41.2557 60.2353C40.3731 59.8729 39.5248 59.4314 38.7211 58.9161C38.5344 58.7991 38.3547 58.671 38.1832 58.5326C36.262 56.8873 34.6849 55.1543 33.5525 53.3536C31.5118 50.3355 30.3984 47.2701 30.1695 43.8326C30.065 42.8301 30.0128 41.8228 30.0132 40.8149C30.0538 39.9227 30.2623 39.0885 30.4352 38.1738C30.1523 39.0197 29.8337 39.8604 29.6813 40.7425C29.5289 42.0079 29.464 43.2824 29.4873 44.5567C29.4494 48.3187 30.8277 51.9531 32.9791 54.9951C34.2584 56.8008 35.779 58.4209 37.498 59.8099C37.8007 60.0335 38.1151 60.2423 38.4366 60.4401C37.3795 63.9071 36.9192 67.5272 36.7773 71.1464C36.1596 70.9748 35.5418 70.8034 34.9179 70.6557C34.2241 70.482 33.4567 70.4267 32.8097 70.7838C32.6007 70.9021 32.4215 71.0671 32.286 71.266C32.1504 71.4648 32.0622 71.6923 32.028 71.9309C29.0275 70.8475 25.5097 70.1323 22.8029 72.2681C20.8432 73.789 19.5378 76.0092 18.5575 78.2587C17.426 80.8588 16.4501 83.5244 15.6349 86.2413C14.6719 89.7956 13.7963 93.3742 12.882 96.9416C11.6746 101.915 11.1093 107.036 10.9687 112.148C10.9404 112.809 10.9084 113.47 10.8672 114.131C10.914 113.948 10.9602 113.765 11.0056 113.582C11.385 111.803 11.774 110.026 12.1727 108.252C14.8343 109.185 17.6065 109.735 20.2897 110.588C21.1152 110.884 21.924 111.225 22.7125 111.609C22.5128 113.4 22.3344 115.194 22.1125 116.982C22.1 117.194 22.0192 117.624 22.1517 117.155C22.7273 115.483 23.2006 113.782 23.6182 112.066C23.7949 112.159 23.9755 112.255 24.1621 112.356C24.4017 112.486 24.6383 112.622 24.8743 112.758C24.7279 112.62 24.5797 112.483 24.4297 112.348C24.1924 112.138 23.9478 111.934 23.6998 111.735C23.9657 110.622 24.2089 109.503 24.4408 108.381C24.9317 106.068 25.2605 103.728 25.5438 101.382C25.7653 101.422 25.986 101.467 26.2081 101.505C26.5133 101.561 26.8182 101.618 27.1229 101.676C26.9357 101.593 26.7485 101.511 26.5604 101.431C26.238 101.285 25.9137 101.147 25.5885 101.013C25.8832 98.5305 26.1333 96.0411 26.4753 93.5661C25.7058 95.8758 25.0657 98.224 24.5278 100.596C21.2813 99.3558 17.8295 98.7472 14.3565 98.803C15.2843 94.9199 16.2416 91.044 17.2283 87.1753C18.557 82.695 20.719 76.097 23.6609 73.3853C25.6427 71.4723 28.7815 71.4687 32.0109 72.0155C31.9756 72.2152 31.9592 72.4179 31.9618 72.6207C32.0814 73.9314 33.1552 74.9292 34.2299 75.5572C36.3492 76.7916 38.8121 77.1737 41.2022 77.5213C42.9936 77.7898 44.8036 77.9143 46.6148 77.8936C48.4772 77.8504 50.3242 77.5789 52.1755 77.3917C53.6035 77.2333 55.4367 77.0298 56.0532 75.5062C56.2312 75.0039 56.2529 74.4591 56.1155 73.944C57.5126 74.0551 58.7625 74.1457 60.1034 74.6521C61.1442 74.9681 63.212 76.2913 63.5708 76.5676C64.3142 77.1044 65.3628 78.3476 65.5096 78.5736C67.2321 81.0333 67.8955 82.9603 68.4509 86.017C68.8571 87.96 69.0323 89.9447 68.9726 91.9292C68.9177 95.6277 68.4583 99.2951 68.0532 102.967C66.7205 102.648 65.3479 102.382 64.1295 102.19C61.5312 101.84 59.3106 101.666 56.3766 100.938C59.9852 102.761 63.9679 103.404 67.9593 103.831C67.8271 105.064 67.7048 106.298 67.6104 107.535C67.4868 108.886 67.4341 110.24 67.4225 111.594C64.0412 110.765 60.5016 110.793 57.0415 110.957C59.1351 111.397 61.2569 111.688 63.3911 111.828C64.734 111.904 66.0783 111.86 67.4221 111.857C67.4128 113.885 67.492 115.913 67.5742 117.939C67.5791 118.118 67.5829 118.296 67.5855 118.474C67.6026 118.39 67.6204 118.306 67.6372 118.222C68.0083 116.285 68.2544 114.327 68.5432 112.376C68.9613 109.59 69.4438 106.811 69.8126 104.018C70.6088 104.094 71.4031 104.168 72.1926 104.247C71.4387 103.938 70.6681 103.671 69.8844 103.449ZM24.4042 101.165C23.9455 103.254 23.5585 105.359 23.243 107.478C23.0616 108.662 22.9125 109.85 22.7762 111.039C21.8413 110.373 20.8146 109.849 19.7286 109.482C17.2734 108.779 14.7029 108.584 12.1823 108.21C12.8741 105.114 13.5881 102.024 14.3242 98.9383C17.7065 99.574 21.0312 100.483 24.4042 101.165H24.4042Z" fill="#2D2C4C"/>
<path d="M65.5396 86.0852C64.1249 85.6711 62.7623 85.0909 61.3319 84.7292C59.5092 84.2682 57.6437 84.0173 55.8026 83.646C53.9276 83.2755 52.0737 82.8015 50.1909 82.4711C47.7849 82.0649 45.3546 81.8066 42.923 81.6148C38.3601 81.3673 33.785 81.4333 29.2204 81.1937C27.5694 81.1385 25.4361 80.9959 24.055 80.8183C22.6315 80.5933 21.2237 80.2793 19.8086 80.0078C21.4318 80.5489 23.0356 81.1738 24.7117 81.5327C27.6126 82.1591 30.5761 82.4594 33.5317 82.684C36.7465 82.9139 39.9769 82.7855 43.1893 83.0598C45.4101 83.2483 47.3635 83.4848 49.1214 83.7672C50.9919 84.087 52.8397 84.5308 54.7162 84.818C57.5639 85.2877 60.417 85.2525 63.0349 85.8182C64.2092 86.079 65.4015 86.2283 66.5864 86.4278C66.2405 86.3046 65.8901 86.1942 65.5396 86.0852Z" fill="#2D2C4C"/>
<path d="M67.7155 92.1479C65.3099 91.7785 62.9002 91.4325 60.5061 90.9916C58.9842 90.7005 57.4903 90.2756 55.9633 90.0098C53.0952 89.465 50.1698 89.438 47.2619 89.3441C41.9207 89.114 36.6275 88.3314 31.3213 87.7295C29.0984 87.5145 26.8604 87.5406 24.6337 87.3853C22.2435 87.222 19.8714 86.8669 17.4824 86.6875C19.8841 87.213 22.2601 87.8643 24.6887 88.2574C27.4771 88.6762 29.9147 88.8275 32.3446 89.1748C37.5307 89.9265 44.7683 90.8081 50.697 90.9399C54.0656 91.1093 56.4606 91.5026 59.6826 91.9672C61.7307 92.1945 63.7956 92.2342 65.8544 92.2641C66.7579 92.2771 67.6622 92.2604 68.5651 92.3009C68.2833 92.2429 67.9997 92.1933 67.7155 92.1479Z" fill="#2D2C4C"/>
</g>
<defs>
<clipPath id="clip0_659_6218">
<rect width="92" height="92" fill="white" transform="translate(0.5)"/>
</clipPath>
</defs>
</svg>
