<svg 
     viewBox="0 0 140 41"
     fill="none"
     xmlns="http://www.w3.org/2000/svg">
<g id="WOPTA LOGO"
   clip-path="url(#clip0_163_1762)">
<path id="Vector"
      d="M29.163 32.0905C26.8544 32.0905 26.0268 31.2167 25.5912 30.5395C24.0012 28.0929 22.0629 23.2651 20.9521 19.7917L20.3205 17.8038L19.776 19.8136C18.9048 23.0685 17.0753 27.372 15.3329 30.2992C14.6795 31.3915 13.4816 32.0905 12.1966 32.0905C10.084 32.0905 9.25638 31.741 8.49409 30.5395C4.79154 24.8161 1.26322 14.7892 0 6.44434H4.13815C5.35781 6.44434 6.42502 6.8157 7.23087 7.53659C7.88426 8.12641 8.34163 8.91284 8.47231 9.67742C9.19104 13.544 10.28 17.2795 11.8264 21.0806L12.3927 22.4568L12.9807 21.1024C14.7449 16.9955 16.2041 12.4299 17.3149 7.55844H20.3858C22.3242 7.55844 24.3933 9.17498 24.8289 11.0318C25.3734 13.544 26.8979 17.9786 28.3354 21.1243L28.9017 22.3913L29.4462 21.1024C30.9925 17.5198 32.5171 11.8182 33.3447 6.44434H37.0909C39.4213 6.44434 40.4667 7.79874 40.4667 9.15314C40.4667 10.158 39.7044 12.9105 39.051 14.9858C37.7442 19.2238 35.196 25.7555 32.6914 30.0808C31.9508 31.326 30.6005 32.0905 29.163 32.0905Z"
      fill="#E50075" />
<path id="Vector_2"
      d="M108.136 32.0905C106.437 32.0905 104.02 31.7629 102.147 30.2337C100.317 28.7264 99.3809 26.3889 99.3809 23.2651V6.83753C99.3809 4.39087 100.971 2.6651 102.299 1.63838C103.737 0.546124 105.218 -0.0218506 106.677 -0.0218506H107.026V6.26956H114.757V9.04389C114.757 10.9226 112.645 12.4299 110.902 12.4299H107.026V22.6316C107.026 24.7287 108.398 26.0831 110.532 26.0831C112.253 26.0831 113.32 25.9739 114.278 25.6681V28.4424C114.278 30.7143 111.926 32.0905 108.136 32.0905Z"
      fill="#E50075" />
<path id="Vector_3"
      d="M127.934 32.4401C122.794 32.4401 117.262 29.9934 117.262 24.6195C117.262 21.0806 118.634 16.3839 130.482 16.3839H132.399V14.6581C132.399 11.5998 129.48 11.3376 126.496 11.3376C121.923 11.3376 119.853 12.3425 118.22 13.6969V11.6216C118.22 8.67253 121.422 5.67975 128.544 5.67975C135.927 5.67975 139.978 9.54634 139.978 16.5805V20.6655C140 29.7968 137.277 32.4401 127.934 32.4401ZM130.134 20.8184C127.781 20.8184 124.667 21.168 124.667 24.0952C124.667 26.1923 126.082 27.2628 128.892 27.2628C131.201 27.2628 132.573 25.821 132.573 23.418V20.8184H130.134Z"
      fill="#E50075" />
<path id="Vector_4"
      d="M63.6187 9.3279C61.1794 7.01231 57.9342 5.72345 54.493 5.72345C50.5944 5.72345 47.0879 7.07785 44.6268 9.52451C42.0786 12.0585 40.75 15.5538 40.75 19.6388C40.75 26.9132 46.3692 32.4182 53.8178 32.4182C62.4208 32.4182 67.5608 27.3283 67.5608 18.7869C67.5826 15.1169 66.1669 11.7527 63.6187 9.3279ZM61.8981 20.8185C60.9616 24.3137 57.7817 26.7385 54.1663 26.7385C50.5509 26.7385 47.371 24.2918 46.4345 20.8185C46.3038 20.2942 46.3909 19.7699 46.7176 19.333C47.0443 18.8961 47.5453 18.6558 48.0898 18.6558C48.8738 18.6558 49.549 19.1801 49.745 19.9228C50.2895 21.9107 52.0972 23.287 54.1445 23.287C56.1918 23.287 58.0213 21.9107 58.544 19.9228C58.74 19.1801 59.437 18.6558 60.1993 18.6558C60.7438 18.6558 61.2447 18.8961 61.5714 19.333C61.9417 19.748 62.0288 20.2942 61.8981 20.8185Z"
      fill="#E50075" />
<path id="Vector_5"
      d="M93.1303 9.15313C90.7998 6.92492 87.5329 5.67975 83.8957 5.67975C79.4308 5.67975 75.9461 6.94677 73.5285 9.43712C71.1328 11.9275 69.9131 15.5101 69.9131 20.0976V34.1221C69.9131 36.5688 70.5665 40.6975 74.8571 40.6975H77.5578V28.923C79.1695 30.8891 81.2168 32.5056 84.7669 32.5056C84.8322 32.5056 84.8975 32.5056 84.9411 32.5056C92.0413 32.5056 96.811 26.8914 96.811 18.5247C96.811 14.7236 95.5478 11.4906 93.1303 9.15313ZM83.3076 26.2579C79.7357 26.2579 77.9934 24.0297 77.9934 19.464C77.9934 14.1338 79.6268 11.7527 83.3076 11.7527C86.9666 11.7527 88.6219 14.1338 88.6219 19.464C88.6219 24.0515 86.8795 26.2579 83.3076 26.2579Z"
      fill="#E50075" />
</g>
<defs>
<clipPath id="clip0_163_1762">
<rect width="140"
      height="40.6757"
      fill="white" />
</clipPath>
</defs>
</svg>