<?xml version="1.0" standalone="no"?>
<!DOCTYPE svg PUBLIC "-//W3C//DTD SVG 20010904//EN"
 "http://www.w3.org/TR/2001/REC-SVG-20010904/DTD/svg10.dtd">
<svg version="1.0" xmlns="http://www.w3.org/2000/svg"
 width="1131.000000pt" height="1131.000000pt" viewBox="0 0 1131.000000 1131.000000"
 preserveAspectRatio="xMidYMid meet">
<metadata>
Created by potrace 1.14, written by Peter Selinger 2001-2017
</metadata>
<g transform="translate(0.000000,1131.000000) scale(0.100000,-0.100000)"
fill="#000000" stroke="none">
<path d="M5479 11035 c-2 -2 -56 -6 -119 -9 -142 -8 -203 -14 -340 -31 -19 -3
-55 -7 -80 -10 -25 -3 -56 -7 -70 -10 -13 -3 -42 -7 -65 -10 -33 -5 -195 -33
-293 -51 -73 -14 -297 -69 -422 -104 -377 -106 -788 -270 -1090 -435 -52 -29
-122 -67 -155 -85 -33 -18 -72 -41 -87 -52 -14 -10 -29 -18 -32 -18 -4 0 -12
-5 -19 -10 -7 -6 -60 -42 -119 -80 -127 -81 -404 -286 -448 -330 -3 -3 -39
-34 -80 -70 -62 -53 -182 -165 -259 -241 -137 -134 -337 -368 -478 -559 -393
-532 -710 -1218 -868 -1880 -16 -67 -27 -119 -31 -140 -3 -14 -9 -41 -14 -60
-5 -19 -12 -53 -15 -75 -4 -22 -10 -56 -15 -75 -5 -19 -14 -71 -20 -115 -7
-44 -13 -87 -15 -95 -1 -8 -6 -40 -10 -70 -4 -30 -9 -62 -10 -70 -1 -8 -6 -46
-9 -85 -7 -66 -10 -98 -21 -190 -27 -243 -27 -916 0 -1145 2 -19 7 -57 10 -85
13 -122 15 -137 41 -300 36 -228 122 -566 209 -820 77 -226 253 -619 368 -821
273 -483 655 -949 1078 -1315 232 -200 552 -424 819 -574 148 -82 425 -215
570 -274 85 -34 164 -66 175 -71 21 -10 116 -41 275 -91 149 -47 422 -116 570
-143 117 -22 163 -30 300 -51 36 -5 195 -24 260 -30 292 -27 925 -27 1205 0
75 7 170 17 215 21 25 2 61 6 80 9 46 6 96 13 145 20 22 3 51 7 65 10 14 2 41
6 60 9 79 12 120 19 215 37 55 11 111 22 125 25 180 35 549 140 760 217 239
88 403 159 600 260 319 165 572 331 863 567 156 126 469 446 602 615 22 28 42
52 45 55 25 21 228 320 317 465 71 117 198 361 257 495 21 47 44 99 52 117
117 261 284 819 338 1133 2 14 7 36 10 50 3 14 8 41 11 60 2 19 6 44 9 55 2
11 7 42 10 68 4 27 9 56 10 65 2 10 7 43 11 76 3 32 8 68 10 80 2 11 6 48 9
81 4 33 9 83 12 110 5 50 6 69 21 280 10 142 10 750 0 880 -11 150 -16 203
-27 280 -5 39 -12 90 -15 115 -5 37 -19 120 -61 350 -17 90 -101 402 -147 540
-99 300 -258 664 -390 893 -31 54 -57 100 -57 102 0 5 -155 248 -196 307 -94
134 -265 357 -319 414 -5 6 -35 40 -65 75 -106 122 -354 364 -490 479 -36 30
-67 58 -70 61 -20 25 -314 241 -440 323 -244 160 -337 213 -590 337 -224 110
-237 115 -375 169 -60 23 -123 48 -140 55 -47 20 -372 122 -450 141 -38 9 -77
19 -85 22 -25 9 -30 10 -200 45 -91 20 -185 38 -210 42 -25 3 -74 11 -110 16
-36 6 -87 12 -115 15 -27 3 -57 7 -65 9 -8 2 -53 7 -100 10 -47 3 -98 8 -115
11 -34 6 -711 15 -716 9z m-2093 -5205 c61 -16 160 -60 229 -102 48 -30 172
-168 203 -226 18 -34 56 -131 83 -214 102 -313 241 -541 464 -763 91 -91 219
-193 315 -250 36 -22 72 -44 80 -50 28 -21 214 -103 304 -134 182 -64 402 -98
612 -95 118 1 160 5 264 20 153 24 352 86 505 160 55 26 102 51 103 56 2 4 8
8 14 8 15 0 164 99 238 159 107 86 219 198 290 291 19 25 37 47 40 50 9 8 74
111 118 185 47 80 124 259 148 343 53 189 105 285 211 389 162 158 398 225
623 178 139 -29 248 -90 349 -194 140 -143 203 -285 205 -456 1 -131 -3 -157
-57 -330 -94 -301 -262 -643 -433 -879 -24 -34 -52 -72 -61 -85 -23 -31 -98
-125 -138 -171 -40 -46 -269 -276 -320 -320 -147 -128 -364 -281 -544 -382
-55 -31 -236 -121 -236 -117 0 2 -13 -4 -30 -14 -69 -38 -376 -149 -451 -163
-6 -1 -36 -9 -65 -17 -63 -18 -236 -54 -294 -61 -22 -3 -65 -8 -95 -11 -30 -4
-80 -10 -110 -15 -30 -4 -176 -7 -325 -5 -331 3 -533 31 -835 114 -235 64
-594 218 -775 333 -22 13 -71 45 -110 69 -38 24 -72 46 -75 49 -3 3 -30 23
-60 44 -231 164 -486 412 -676 661 -171 224 -364 571 -440 790 -50 144 -94
277 -98 296 -3 13 -9 46 -15 74 -40 207 33 447 183 599 74 76 182 144 269 170
9 3 19 6 22 7 83 32 265 36 371 9z"/>
</g>
</svg>
